<?xml version="1.0" encoding="utf-8"?>
<svg xmlns="http://www.w3.org/2000/svg" xmlns:xlink="http://www.w3.org/1999/xlink" width="600" height="400" viewBox="0 0 2400 1600">
<defs>
  <clipPath id="clip960">
    <rect x="0" y="0" width="2400" height="1600"/>
  </clipPath>
</defs>
<path clip-path="url(#clip960)" d="M0 1600 L2400 1600 L2400 0 L0 0  Z" fill="#ffffff" fill-rule="evenodd" fill-opacity="1"/>
<defs>
  <clipPath id="clip961">
    <rect x="480" y="0" width="1681" height="1600"/>
  </clipPath>
</defs>
<path clip-path="url(#clip960)" d="M138.959 1486.45 L2112.76 1486.45 L2112.76 123.472 L138.959 123.472  Z" fill="#ffffff" fill-rule="evenodd" fill-opacity="1"/>
<defs>
  <clipPath id="clip962">
    <rect x="138" y="123" width="1975" height="1364"/>
  </clipPath>
</defs>
<polyline clip-path="url(#clip962)" style="stroke:#000000; stroke-linecap:round; stroke-linejoin:round; stroke-width:2; stroke-opacity:0.1; fill:none" points="336.339,1486.45 336.339,123.472 "/>
<polyline clip-path="url(#clip962)" style="stroke:#000000; stroke-linecap:round; stroke-linejoin:round; stroke-width:2; stroke-opacity:0.1; fill:none" points="731.098,1486.45 731.098,123.472 "/>
<polyline clip-path="url(#clip962)" style="stroke:#000000; stroke-linecap:round; stroke-linejoin:round; stroke-width:2; stroke-opacity:0.1; fill:none" points="1125.86,1486.45 1125.86,123.472 "/>
<polyline clip-path="url(#clip962)" style="stroke:#000000; stroke-linecap:round; stroke-linejoin:round; stroke-width:2; stroke-opacity:0.1; fill:none" points="1520.62,1486.45 1520.62,123.472 "/>
<polyline clip-path="url(#clip962)" style="stroke:#000000; stroke-linecap:round; stroke-linejoin:round; stroke-width:2; stroke-opacity:0.1; fill:none" points="1915.38,1486.45 1915.38,123.472 "/>
<polyline clip-path="url(#clip960)" style="stroke:#000000; stroke-linecap:round; stroke-linejoin:round; stroke-width:4; stroke-opacity:1; fill:none" points="138.959,1486.45 2112.76,1486.45 "/>
<polyline clip-path="url(#clip960)" style="stroke:#000000; stroke-linecap:round; stroke-linejoin:round; stroke-width:4; stroke-opacity:1; fill:none" points="336.339,1486.45 336.339,1467.55 "/>
<polyline clip-path="url(#clip960)" style="stroke:#000000; stroke-linecap:round; stroke-linejoin:round; stroke-width:4; stroke-opacity:1; fill:none" points="731.098,1486.45 731.098,1467.55 "/>
<polyline clip-path="url(#clip960)" style="stroke:#000000; stroke-linecap:round; stroke-linejoin:round; stroke-width:4; stroke-opacity:1; fill:none" points="1125.86,1486.45 1125.86,1467.55 "/>
<polyline clip-path="url(#clip960)" style="stroke:#000000; stroke-linecap:round; stroke-linejoin:round; stroke-width:4; stroke-opacity:1; fill:none" points="1520.62,1486.45 1520.62,1467.55 "/>
<polyline clip-path="url(#clip960)" style="stroke:#000000; stroke-linecap:round; stroke-linejoin:round; stroke-width:4; stroke-opacity:1; fill:none" points="1915.38,1486.45 1915.38,1467.55 "/>
<path clip-path="url(#clip960)" d="M330.992 1544.91 L347.311 1544.91 L347.311 1548.85 L325.367 1548.85 L325.367 1544.91 Q328.029 1542.16 332.612 1537.53 Q337.219 1532.88 338.399 1531.53 Q340.645 1529.01 341.524 1527.27 Q342.427 1525.51 342.427 1523.82 Q342.427 1521.07 340.483 1519.33 Q338.561 1517.6 335.459 1517.6 Q333.26 1517.6 330.807 1518.36 Q328.376 1519.13 325.598 1520.68 L325.598 1515.95 Q328.422 1514.82 330.876 1514.24 Q333.33 1513.66 335.367 1513.66 Q340.737 1513.66 343.932 1516.35 Q347.126 1519.03 347.126 1523.52 Q347.126 1525.65 346.316 1527.57 Q345.529 1529.47 343.422 1532.07 Q342.844 1532.74 339.742 1535.95 Q336.64 1539.15 330.992 1544.91 Z" fill="#000000" fill-rule="nonzero" fill-opacity="1" /><path clip-path="url(#clip960)" d="M734.108 1518.36 L722.302 1536.81 L734.108 1536.81 L734.108 1518.36 M732.881 1514.29 L738.76 1514.29 L738.76 1536.81 L743.691 1536.81 L743.691 1540.7 L738.76 1540.7 L738.76 1548.85 L734.108 1548.85 L734.108 1540.7 L718.506 1540.7 L718.506 1536.19 L732.881 1514.29 Z" fill="#000000" fill-rule="nonzero" fill-opacity="1" /><path clip-path="url(#clip960)" d="M1126.26 1529.7 Q1123.11 1529.7 1121.26 1531.86 Q1119.43 1534.01 1119.43 1537.76 Q1119.43 1541.49 1121.26 1543.66 Q1123.11 1545.82 1126.26 1545.82 Q1129.41 1545.82 1131.24 1543.66 Q1133.09 1541.49 1133.09 1537.76 Q1133.09 1534.01 1131.24 1531.86 Q1129.41 1529.7 1126.26 1529.7 M1135.55 1515.05 L1135.55 1519.31 Q1133.79 1518.48 1131.98 1518.04 Q1130.2 1517.6 1128.44 1517.6 Q1123.81 1517.6 1121.36 1520.72 Q1118.92 1523.85 1118.58 1530.17 Q1119.94 1528.15 1122 1527.09 Q1124.06 1526 1126.54 1526 Q1131.75 1526 1134.76 1529.17 Q1137.79 1532.32 1137.79 1537.76 Q1137.79 1543.08 1134.64 1546.3 Q1131.49 1549.52 1126.26 1549.52 Q1120.27 1549.52 1117.1 1544.94 Q1113.92 1540.33 1113.92 1531.6 Q1113.92 1523.41 1117.81 1518.55 Q1121.7 1513.66 1128.25 1513.66 Q1130.01 1513.66 1131.8 1514.01 Q1133.6 1514.36 1135.55 1515.05 Z" fill="#000000" fill-rule="nonzero" fill-opacity="1" /><path clip-path="url(#clip960)" d="M1520.62 1532.44 Q1517.28 1532.44 1515.36 1534.22 Q1513.46 1536 1513.46 1539.13 Q1513.46 1542.25 1515.36 1544.03 Q1517.28 1545.82 1520.62 1545.82 Q1523.95 1545.82 1525.87 1544.03 Q1527.79 1542.23 1527.79 1539.13 Q1527.79 1536 1525.87 1534.22 Q1523.97 1532.44 1520.62 1532.44 M1515.94 1530.45 Q1512.93 1529.7 1511.24 1527.64 Q1509.58 1525.58 1509.58 1522.62 Q1509.58 1518.48 1512.52 1516.07 Q1515.48 1513.66 1520.62 1513.66 Q1525.78 1513.66 1528.72 1516.07 Q1531.66 1518.48 1531.66 1522.62 Q1531.66 1525.58 1529.97 1527.64 Q1528.3 1529.7 1525.32 1530.45 Q1528.7 1531.23 1530.57 1533.52 Q1532.47 1535.82 1532.47 1539.13 Q1532.47 1544.15 1529.39 1546.83 Q1526.33 1549.52 1520.62 1549.52 Q1514.9 1549.52 1511.82 1546.83 Q1508.77 1544.15 1508.77 1539.13 Q1508.77 1535.82 1510.66 1533.52 Q1512.56 1531.23 1515.94 1530.45 M1514.23 1523.06 Q1514.23 1525.75 1515.89 1527.25 Q1517.58 1528.76 1520.62 1528.76 Q1523.63 1528.76 1525.32 1527.25 Q1527.03 1525.75 1527.03 1523.06 Q1527.03 1520.38 1525.32 1518.87 Q1523.63 1517.37 1520.62 1517.37 Q1517.58 1517.37 1515.89 1518.87 Q1514.23 1520.38 1514.23 1523.06 Z" fill="#000000" fill-rule="nonzero" fill-opacity="1" /><path clip-path="url(#clip960)" d="M1890.06 1544.91 L1897.7 1544.91 L1897.7 1518.55 L1889.39 1520.21 L1889.39 1515.95 L1897.66 1514.29 L1902.33 1514.29 L1902.33 1544.91 L1909.97 1544.91 L1909.97 1548.85 L1890.06 1548.85 L1890.06 1544.91 Z" fill="#000000" fill-rule="nonzero" fill-opacity="1" /><path clip-path="url(#clip960)" d="M1929.42 1517.37 Q1925.8 1517.37 1923.98 1520.93 Q1922.17 1524.47 1922.17 1531.6 Q1922.17 1538.71 1923.98 1542.27 Q1925.8 1545.82 1929.42 1545.82 Q1933.05 1545.82 1934.86 1542.27 Q1936.68 1538.71 1936.68 1531.6 Q1936.68 1524.47 1934.86 1520.93 Q1933.05 1517.37 1929.42 1517.37 M1929.42 1513.66 Q1935.23 1513.66 1938.28 1518.27 Q1941.36 1522.85 1941.36 1531.6 Q1941.36 1540.33 1938.28 1544.94 Q1935.23 1549.52 1929.42 1549.52 Q1923.61 1549.52 1920.53 1544.94 Q1917.47 1540.33 1917.47 1531.6 Q1917.47 1522.85 1920.53 1518.27 Q1923.61 1513.66 1929.42 1513.66 Z" fill="#000000" fill-rule="nonzero" fill-opacity="1" /><polyline clip-path="url(#clip962)" style="stroke:#000000; stroke-linecap:round; stroke-linejoin:round; stroke-width:2; stroke-opacity:0.1; fill:none" points="138.959,1350.15 2112.76,1350.15 "/>
<polyline clip-path="url(#clip962)" style="stroke:#000000; stroke-linecap:round; stroke-linejoin:round; stroke-width:2; stroke-opacity:0.1; fill:none" points="138.959,1077.56 2112.76,1077.56 "/>
<polyline clip-path="url(#clip962)" style="stroke:#000000; stroke-linecap:round; stroke-linejoin:round; stroke-width:2; stroke-opacity:0.1; fill:none" points="138.959,804.96 2112.76,804.96 "/>
<polyline clip-path="url(#clip962)" style="stroke:#000000; stroke-linecap:round; stroke-linejoin:round; stroke-width:2; stroke-opacity:0.1; fill:none" points="138.959,532.365 2112.76,532.365 "/>
<polyline clip-path="url(#clip962)" style="stroke:#000000; stroke-linecap:round; stroke-linejoin:round; stroke-width:2; stroke-opacity:0.1; fill:none" points="138.959,259.77 2112.76,259.77 "/>
<polyline clip-path="url(#clip960)" style="stroke:#000000; stroke-linecap:round; stroke-linejoin:round; stroke-width:4; stroke-opacity:1; fill:none" points="138.959,1486.45 138.959,123.472 "/>
<polyline clip-path="url(#clip960)" style="stroke:#000000; stroke-linecap:round; stroke-linejoin:round; stroke-width:4; stroke-opacity:1; fill:none" points="138.959,1350.15 155.808,1350.15 "/>
<polyline clip-path="url(#clip960)" style="stroke:#000000; stroke-linecap:round; stroke-linejoin:round; stroke-width:4; stroke-opacity:1; fill:none" points="138.959,1077.56 155.808,1077.56 "/>
<polyline clip-path="url(#clip960)" style="stroke:#000000; stroke-linecap:round; stroke-linejoin:round; stroke-width:4; stroke-opacity:1; fill:none" points="138.959,804.96 155.808,804.96 "/>
<polyline clip-path="url(#clip960)" style="stroke:#000000; stroke-linecap:round; stroke-linejoin:round; stroke-width:4; stroke-opacity:1; fill:none" points="138.959,532.365 155.808,532.365 "/>
<polyline clip-path="url(#clip960)" style="stroke:#000000; stroke-linecap:round; stroke-linejoin:round; stroke-width:4; stroke-opacity:1; fill:none" points="138.959,259.77 155.808,259.77 "/>
<path clip-path="url(#clip960)" d="M86.6401 1363.5 L102.959 1363.5 L102.959 1367.43 L81.0151 1367.43 L81.0151 1363.5 Q83.6771 1360.74 88.2604 1356.11 Q92.8669 1351.46 94.0475 1350.12 Q96.2928 1347.59 97.1724 1345.86 Q98.0752 1344.1 98.0752 1342.41 Q98.0752 1339.65 96.1308 1337.92 Q94.2095 1336.18 91.1077 1336.18 Q88.9086 1336.18 86.4549 1336.94 Q84.0244 1337.71 81.2466 1339.26 L81.2466 1334.54 Q84.0707 1333.4 86.5243 1332.82 Q88.978 1332.25 91.0151 1332.25 Q96.3854 1332.25 99.5798 1334.93 Q102.774 1337.62 102.774 1342.11 Q102.774 1344.24 101.964 1346.16 Q101.177 1348.06 99.0706 1350.65 Q98.4919 1351.32 95.39 1354.54 Q92.2882 1357.73 86.6401 1363.5 Z" fill="#000000" fill-rule="nonzero" fill-opacity="1" /><path clip-path="url(#clip960)" d="M93.3762 1064.35 L81.5707 1082.8 L93.3762 1082.8 L93.3762 1064.35 M92.1493 1060.28 L98.0289 1060.28 L98.0289 1082.8 L102.959 1082.8 L102.959 1086.69 L98.0289 1086.69 L98.0289 1094.84 L93.3762 1094.84 L93.3762 1086.69 L77.7744 1086.69 L77.7744 1082.17 L92.1493 1060.28 Z" fill="#000000" fill-rule="nonzero" fill-opacity="1" /><path clip-path="url(#clip960)" d="M91.4317 803.097 Q88.2836 803.097 86.4318 805.249 Q84.6031 807.402 84.6031 811.152 Q84.6031 814.879 86.4318 817.055 Q88.2836 819.208 91.4317 819.208 Q94.5799 819.208 96.4085 817.055 Q98.2604 814.879 98.2604 811.152 Q98.2604 807.402 96.4085 805.249 Q94.5799 803.097 91.4317 803.097 M100.714 788.444 L100.714 792.703 Q98.9548 791.87 97.1493 791.43 Q95.3669 790.99 93.6076 790.99 Q88.978 790.99 86.5243 794.115 Q84.0938 797.24 83.7466 803.56 Q85.1123 801.546 87.1725 800.481 Q89.2327 799.393 91.7095 799.393 Q96.9178 799.393 99.927 802.564 Q102.959 805.712 102.959 811.152 Q102.959 816.476 99.8113 819.694 Q96.6632 822.911 91.4317 822.911 Q85.4364 822.911 82.2651 818.328 Q79.0938 813.722 79.0938 804.995 Q79.0938 796.8 82.9827 791.939 Q86.8716 787.055 93.4225 787.055 Q95.1817 787.055 96.9641 787.402 Q98.7696 787.749 100.714 788.444 Z" fill="#000000" fill-rule="nonzero" fill-opacity="1" /><path clip-path="url(#clip960)" d="M91.1077 533.233 Q87.7743 533.233 85.8531 535.015 Q83.9549 536.798 83.9549 539.923 Q83.9549 543.048 85.8531 544.83 Q87.7743 546.612 91.1077 546.612 Q94.441 546.612 96.3623 544.83 Q98.2835 543.025 98.2835 539.923 Q98.2835 536.798 96.3623 535.015 Q94.4641 533.233 91.1077 533.233 M86.4318 531.242 Q83.4225 530.501 81.7327 528.441 Q80.066 526.381 80.066 523.418 Q80.066 519.275 83.0058 516.867 Q85.9688 514.46 91.1077 514.46 Q96.2697 514.46 99.2095 516.867 Q102.149 519.275 102.149 523.418 Q102.149 526.381 100.459 528.441 Q98.7928 530.501 95.8067 531.242 Q99.1863 532.029 101.061 534.321 Q102.959 536.613 102.959 539.923 Q102.959 544.946 99.8808 547.631 Q96.8252 550.316 91.1077 550.316 Q85.3901 550.316 82.3114 547.631 Q79.2559 544.946 79.2559 539.923 Q79.2559 536.613 81.154 534.321 Q83.0521 532.029 86.4318 531.242 M84.7188 523.858 Q84.7188 526.543 86.3855 528.048 Q88.0753 529.552 91.1077 529.552 Q94.1169 529.552 95.8067 528.048 Q97.5197 526.543 97.5197 523.858 Q97.5197 521.173 95.8067 519.668 Q94.1169 518.164 91.1077 518.164 Q88.0753 518.164 86.3855 519.668 Q84.7188 521.173 84.7188 523.858 Z" fill="#000000" fill-rule="nonzero" fill-opacity="1" /><path clip-path="url(#clip960)" d="M51.6634 273.115 L59.3023 273.115 L59.3023 246.749 L50.9921 248.416 L50.9921 244.156 L59.256 242.49 L63.9319 242.49 L63.9319 273.115 L71.5707 273.115 L71.5707 277.05 L51.6634 277.05 L51.6634 273.115 Z" fill="#000000" fill-rule="nonzero" fill-opacity="1" /><path clip-path="url(#clip960)" d="M91.0151 245.568 Q87.404 245.568 85.5753 249.133 Q83.7697 252.675 83.7697 259.804 Q83.7697 266.911 85.5753 270.476 Q87.404 274.017 91.0151 274.017 Q94.6493 274.017 96.4548 270.476 Q98.2835 266.911 98.2835 259.804 Q98.2835 252.675 96.4548 249.133 Q94.6493 245.568 91.0151 245.568 M91.0151 241.865 Q96.8252 241.865 99.8808 246.471 Q102.959 251.054 102.959 259.804 Q102.959 268.531 99.8808 273.138 Q96.8252 277.721 91.0151 277.721 Q85.2049 277.721 82.1262 273.138 Q79.0707 268.531 79.0707 259.804 Q79.0707 251.054 82.1262 246.471 Q85.2049 241.865 91.0151 241.865 Z" fill="#000000" fill-rule="nonzero" fill-opacity="1" /><path clip-path="url(#clip960)" d="M610.967 16.7545 L610.967 25.383 Q606.836 21.5346 602.137 19.6307 Q597.478 17.7268 592.212 17.7268 Q581.841 17.7268 576.332 24.0867 Q570.823 30.4061 570.823 42.3968 Q570.823 54.3469 576.332 60.7069 Q581.841 67.0263 592.212 67.0263 Q597.478 67.0263 602.137 65.1223 Q606.836 63.2184 610.967 59.3701 L610.967 67.9175 Q606.674 70.8341 601.853 72.2924 Q597.073 73.7508 591.726 73.7508 Q577.993 73.7508 570.094 65.3654 Q562.195 56.9395 562.195 42.3968 Q562.195 27.8135 570.094 19.4281 Q577.993 11.0023 591.726 11.0023 Q597.154 11.0023 601.934 12.4606 Q606.755 13.8784 610.967 16.7545 Z" fill="#000000" fill-rule="nonzero" fill-opacity="1" /><path clip-path="url(#clip960)" d="M640.863 32.4315 Q634.868 32.4315 631.384 37.1306 Q627.9 41.7891 627.9 49.9314 Q627.9 58.0738 631.344 62.7728 Q634.827 67.4314 640.863 67.4314 Q646.818 67.4314 650.302 62.7323 Q653.786 58.0333 653.786 49.9314 Q653.786 41.8701 650.302 37.1711 Q646.818 32.4315 640.863 32.4315 M640.863 26.1121 Q650.585 26.1121 656.135 32.4315 Q661.685 38.7509 661.685 49.9314 Q661.685 61.0714 656.135 67.4314 Q650.585 73.7508 640.863 73.7508 Q631.1 73.7508 625.551 67.4314 Q620.042 61.0714 620.042 49.9314 Q620.042 38.7509 625.551 32.4315 Q631.1 26.1121 640.863 26.1121 Z" fill="#000000" fill-rule="nonzero" fill-opacity="1" /><path clip-path="url(#clip960)" d="M711.754 45.1919 L711.754 72.576 L704.3 72.576 L704.3 45.4349 Q704.3 38.994 701.789 35.7938 Q699.277 32.5936 694.254 32.5936 Q688.218 32.5936 684.734 36.4419 Q681.251 40.2903 681.251 46.9338 L681.251 72.576 L673.757 72.576 L673.757 27.2059 L681.251 27.2059 L681.251 34.2544 Q683.924 30.163 687.53 28.1376 Q691.175 26.1121 695.915 26.1121 Q703.733 26.1121 707.744 30.9732 Q711.754 35.7938 711.754 45.1919 Z" fill="#000000" fill-rule="nonzero" fill-opacity="1" /><path clip-path="url(#clip960)" d="M733.993 14.324 L733.993 27.2059 L749.346 27.2059 L749.346 32.9987 L733.993 32.9987 L733.993 57.6282 Q733.993 63.1779 735.492 64.7578 Q737.032 66.3376 741.69 66.3376 L749.346 66.3376 L749.346 72.576 L741.69 72.576 Q733.062 72.576 729.781 69.3758 Q726.499 66.1351 726.499 57.6282 L726.499 32.9987 L721.031 32.9987 L721.031 27.2059 L726.499 27.2059 L726.499 14.324 L733.993 14.324 Z" fill="#000000" fill-rule="nonzero" fill-opacity="1" /><path clip-path="url(#clip960)" d="M776.73 32.4315 Q770.735 32.4315 767.251 37.1306 Q763.768 41.7891 763.768 49.9314 Q763.768 58.0738 767.211 62.7728 Q770.695 67.4314 776.73 67.4314 Q782.685 67.4314 786.169 62.7323 Q789.653 58.0333 789.653 49.9314 Q789.653 41.8701 786.169 37.1711 Q782.685 32.4315 776.73 32.4315 M776.73 26.1121 Q786.453 26.1121 792.002 32.4315 Q797.552 38.7509 797.552 49.9314 Q797.552 61.0714 792.002 67.4314 Q786.453 73.7508 776.73 73.7508 Q766.968 73.7508 761.418 67.4314 Q755.909 61.0714 755.909 49.9314 Q755.909 38.7509 761.418 32.4315 Q766.968 26.1121 776.73 26.1121 Z" fill="#000000" fill-rule="nonzero" fill-opacity="1" /><path clip-path="url(#clip960)" d="M809.138 54.671 L809.138 27.2059 L816.591 27.2059 L816.591 54.3874 Q816.591 60.8284 819.103 64.0691 Q821.615 67.2693 826.638 67.2693 Q832.673 67.2693 836.157 63.421 Q839.682 59.5726 839.682 52.9291 L839.682 27.2059 L847.135 27.2059 L847.135 72.576 L839.682 72.576 L839.682 65.6084 Q836.967 69.7404 833.362 71.7658 Q829.797 73.7508 825.058 73.7508 Q817.24 73.7508 813.189 68.8897 Q809.138 64.0286 809.138 54.671 M827.893 26.1121 L827.893 26.1121 Z" fill="#000000" fill-rule="nonzero" fill-opacity="1" /><path clip-path="url(#clip960)" d="M888.779 34.1734 Q887.523 33.4443 886.024 33.1202 Q884.566 32.7556 882.783 32.7556 Q876.464 32.7556 873.061 36.8875 Q869.699 40.9789 869.699 48.6757 L869.699 72.576 L862.205 72.576 L862.205 27.2059 L869.699 27.2059 L869.699 34.2544 Q872.048 30.1225 875.816 28.1376 Q879.583 26.1121 884.971 26.1121 Q885.74 26.1121 886.672 26.2337 Q887.604 26.3147 888.738 26.5172 L888.779 34.1734 Z" fill="#000000" fill-rule="nonzero" fill-opacity="1" /><path clip-path="url(#clip960)" d="M931.475 18.8205 L931.475 41.5461 L941.764 41.5461 Q947.476 41.5461 950.595 38.5889 Q953.714 35.6318 953.714 30.163 Q953.714 24.7348 950.595 21.7777 Q947.476 18.8205 941.764 18.8205 L931.475 18.8205 M923.292 12.096 L941.764 12.096 Q951.932 12.096 957.117 16.714 Q962.343 21.2916 962.343 30.163 Q962.343 39.1155 957.117 43.6931 Q951.932 48.2706 941.764 48.2706 L931.475 48.2706 L931.475 72.576 L923.292 72.576 L923.292 12.096 Z" fill="#000000" fill-rule="nonzero" fill-opacity="1" /><path clip-path="url(#clip960)" d="M972.997 9.54393 L980.45 9.54393 L980.45 72.576 L972.997 72.576 L972.997 9.54393 Z" fill="#000000" fill-rule="nonzero" fill-opacity="1" /><path clip-path="url(#clip960)" d="M1013.63 32.4315 Q1007.63 32.4315 1004.15 37.1306 Q1000.66 41.7891 1000.66 49.9314 Q1000.66 58.0738 1004.11 62.7728 Q1007.59 67.4314 1013.63 67.4314 Q1019.58 67.4314 1023.07 62.7323 Q1026.55 58.0333 1026.55 49.9314 Q1026.55 41.8701 1023.07 37.1711 Q1019.58 32.4315 1013.63 32.4315 M1013.63 26.1121 Q1023.35 26.1121 1028.9 32.4315 Q1034.45 38.7509 1034.45 49.9314 Q1034.45 61.0714 1028.9 67.4314 Q1023.35 73.7508 1013.63 73.7508 Q1003.86 73.7508 998.315 67.4314 Q992.806 61.0714 992.806 49.9314 Q992.806 38.7509 998.315 32.4315 Q1003.86 26.1121 1013.63 26.1121 Z" fill="#000000" fill-rule="nonzero" fill-opacity="1" /><path clip-path="url(#clip960)" d="M1054.18 14.324 L1054.18 27.2059 L1069.53 27.2059 L1069.53 32.9987 L1054.18 32.9987 L1054.18 57.6282 Q1054.18 63.1779 1055.68 64.7578 Q1057.22 66.3376 1061.87 66.3376 L1069.53 66.3376 L1069.53 72.576 L1061.87 72.576 Q1053.25 72.576 1049.96 69.3758 Q1046.68 66.1351 1046.68 57.6282 L1046.68 32.9987 L1041.21 32.9987 L1041.21 27.2059 L1046.68 27.2059 L1046.68 14.324 L1054.18 14.324 Z" fill="#000000" fill-rule="nonzero" fill-opacity="1" /><path clip-path="url(#clip960)" d="M1123.29 32.4315 Q1117.29 32.4315 1113.81 37.1306 Q1110.32 41.7891 1110.32 49.9314 Q1110.32 58.0738 1113.77 62.7728 Q1117.25 67.4314 1123.29 67.4314 Q1129.24 67.4314 1132.72 62.7323 Q1136.21 58.0333 1136.21 49.9314 Q1136.21 41.8701 1132.72 37.1711 Q1129.24 32.4315 1123.29 32.4315 M1123.29 26.1121 Q1133.01 26.1121 1138.56 32.4315 Q1144.11 38.7509 1144.11 49.9314 Q1144.11 61.0714 1138.56 67.4314 Q1133.01 73.7508 1123.29 73.7508 Q1113.52 73.7508 1107.97 67.4314 Q1102.46 61.0714 1102.46 49.9314 Q1102.46 38.7509 1107.97 32.4315 Q1113.52 26.1121 1123.29 26.1121 Z" fill="#000000" fill-rule="nonzero" fill-opacity="1" /><path clip-path="url(#clip960)" d="M1179.43 9.54393 L1179.43 15.7418 L1172.3 15.7418 Q1168.29 15.7418 1166.71 17.3622 Q1165.17 18.9825 1165.17 23.1955 L1165.17 27.2059 L1177.45 27.2059 L1177.45 32.9987 L1165.17 32.9987 L1165.17 72.576 L1157.68 72.576 L1157.68 32.9987 L1150.55 32.9987 L1150.55 27.2059 L1157.68 27.2059 L1157.68 24.0462 Q1157.68 16.471 1161.2 13.0277 Q1164.73 9.54393 1172.38 9.54393 L1179.43 9.54393 Z" fill="#000000" fill-rule="nonzero" fill-opacity="1" /><path clip-path="url(#clip960)" d="M1229.62 32.4315 Q1223.63 32.4315 1220.14 37.1306 Q1216.66 41.7891 1216.66 49.9314 Q1216.66 58.0738 1220.1 62.7728 Q1223.59 67.4314 1229.62 67.4314 Q1235.58 67.4314 1239.06 62.7323 Q1242.54 58.0333 1242.54 49.9314 Q1242.54 41.8701 1239.06 37.1711 Q1235.58 32.4315 1229.62 32.4315 M1229.62 26.1121 Q1239.34 26.1121 1244.89 32.4315 Q1250.44 38.7509 1250.44 49.9314 Q1250.44 61.0714 1244.89 67.4314 Q1239.34 73.7508 1229.62 73.7508 Q1219.86 73.7508 1214.31 67.4314 Q1208.8 61.0714 1208.8 49.9314 Q1208.8 38.7509 1214.31 32.4315 Q1219.86 26.1121 1229.62 26.1121 Z" fill="#000000" fill-rule="nonzero" fill-opacity="1" /><path clip-path="url(#clip960)" d="M1262.03 54.671 L1262.03 27.2059 L1269.48 27.2059 L1269.48 54.3874 Q1269.48 60.8284 1271.99 64.0691 Q1274.51 67.2693 1279.53 67.2693 Q1285.56 67.2693 1289.05 63.421 Q1292.57 59.5726 1292.57 52.9291 L1292.57 27.2059 L1300.03 27.2059 L1300.03 72.576 L1292.57 72.576 L1292.57 65.6084 Q1289.86 69.7404 1286.25 71.7658 Q1282.69 73.7508 1277.95 73.7508 Q1270.13 73.7508 1266.08 68.8897 Q1262.03 64.0286 1262.03 54.671 M1280.78 26.1121 L1280.78 26.1121 Z" fill="#000000" fill-rule="nonzero" fill-opacity="1" /><path clip-path="url(#clip960)" d="M1341.67 34.1734 Q1340.41 33.4443 1338.91 33.1202 Q1337.46 32.7556 1335.67 32.7556 Q1329.35 32.7556 1325.95 36.8875 Q1322.59 40.9789 1322.59 48.6757 L1322.59 72.576 L1315.1 72.576 L1315.1 27.2059 L1322.59 27.2059 L1322.59 34.2544 Q1324.94 30.1225 1328.71 28.1376 Q1332.47 26.1121 1337.86 26.1121 Q1338.63 26.1121 1339.56 26.2337 Q1340.49 26.3147 1341.63 26.5172 L1341.67 34.1734 Z" fill="#000000" fill-rule="nonzero" fill-opacity="1" /><path clip-path="url(#clip960)" d="M1404.78 28.5427 L1404.78 35.5912 Q1401.62 33.9709 1398.22 33.1607 Q1394.82 32.3505 1391.17 32.3505 Q1385.62 32.3505 1382.83 34.0519 Q1380.07 35.7533 1380.07 39.156 Q1380.07 41.7486 1382.06 43.2475 Q1384.04 44.7058 1390.04 46.0426 L1392.59 46.6097 Q1400.53 48.3111 1403.85 51.4303 Q1407.21 54.509 1407.21 60.0587 Q1407.21 66.3781 1402.19 70.0644 Q1397.21 73.7508 1388.46 73.7508 Q1384.81 73.7508 1380.84 73.0216 Q1376.91 72.3329 1372.54 70.9151 L1372.54 63.2184 Q1376.67 65.3654 1380.68 66.4591 Q1384.69 67.5124 1388.62 67.5124 Q1393.89 67.5124 1396.72 65.73 Q1399.56 63.9071 1399.56 60.6258 Q1399.56 57.5877 1397.49 55.9673 Q1395.47 54.3469 1388.54 52.8481 L1385.95 52.2405 Q1379.02 50.7821 1375.94 47.7845 Q1372.86 44.7463 1372.86 39.4801 Q1372.86 33.0797 1377.4 29.5959 Q1381.94 26.1121 1390.28 26.1121 Q1394.41 26.1121 1398.06 26.7198 Q1401.7 27.3274 1404.78 28.5427 Z" fill="#000000" fill-rule="nonzero" fill-opacity="1" /><path clip-path="url(#clip960)" d="M1436.66 32.4315 Q1430.67 32.4315 1427.18 37.1306 Q1423.7 41.7891 1423.7 49.9314 Q1423.7 58.0738 1427.14 62.7728 Q1430.63 67.4314 1436.66 67.4314 Q1442.62 67.4314 1446.1 62.7323 Q1449.59 58.0333 1449.59 49.9314 Q1449.59 41.8701 1446.1 37.1711 Q1442.62 32.4315 1436.66 32.4315 M1436.66 26.1121 Q1446.39 26.1121 1451.94 32.4315 Q1457.48 38.7509 1457.48 49.9314 Q1457.48 61.0714 1451.94 67.4314 Q1446.39 73.7508 1436.66 73.7508 Q1426.9 73.7508 1421.35 67.4314 Q1415.84 61.0714 1415.84 49.9314 Q1415.84 38.7509 1421.35 32.4315 Q1426.9 26.1121 1436.66 26.1121 Z" fill="#000000" fill-rule="nonzero" fill-opacity="1" /><path clip-path="url(#clip960)" d="M1469.84 9.54393 L1477.29 9.54393 L1477.29 72.576 L1469.84 72.576 L1469.84 9.54393 Z" fill="#000000" fill-rule="nonzero" fill-opacity="1" /><path clip-path="url(#clip960)" d="M1492.12 54.671 L1492.12 27.2059 L1499.57 27.2059 L1499.57 54.3874 Q1499.57 60.8284 1502.09 64.0691 Q1504.6 67.2693 1509.62 67.2693 Q1515.66 67.2693 1519.14 63.421 Q1522.66 59.5726 1522.66 52.9291 L1522.66 27.2059 L1530.12 27.2059 L1530.12 72.576 L1522.66 72.576 L1522.66 65.6084 Q1519.95 69.7404 1516.34 71.7658 Q1512.78 73.7508 1508.04 73.7508 Q1500.22 73.7508 1496.17 68.8897 Q1492.12 64.0286 1492.12 54.671 M1510.88 26.1121 L1510.88 26.1121 Z" fill="#000000" fill-rule="nonzero" fill-opacity="1" /><path clip-path="url(#clip960)" d="M1552.84 14.324 L1552.84 27.2059 L1568.2 27.2059 L1568.2 32.9987 L1552.84 32.9987 L1552.84 57.6282 Q1552.84 63.1779 1554.34 64.7578 Q1555.88 66.3376 1560.54 66.3376 L1568.2 66.3376 L1568.2 72.576 L1560.54 72.576 Q1551.91 72.576 1548.63 69.3758 Q1545.35 66.1351 1545.35 57.6282 L1545.35 32.9987 L1539.88 32.9987 L1539.88 27.2059 L1545.35 27.2059 L1545.35 14.324 L1552.84 14.324 Z" fill="#000000" fill-rule="nonzero" fill-opacity="1" /><path clip-path="url(#clip960)" d="M1578 27.2059 L1585.45 27.2059 L1585.45 72.576 L1578 72.576 L1578 27.2059 M1578 9.54393 L1585.45 9.54393 L1585.45 18.9825 L1578 18.9825 L1578 9.54393 Z" fill="#000000" fill-rule="nonzero" fill-opacity="1" /><path clip-path="url(#clip960)" d="M1618.63 32.4315 Q1612.63 32.4315 1609.15 37.1306 Q1605.67 41.7891 1605.67 49.9314 Q1605.67 58.0738 1609.11 62.7728 Q1612.59 67.4314 1618.63 67.4314 Q1624.58 67.4314 1628.07 62.7323 Q1631.55 58.0333 1631.55 49.9314 Q1631.55 41.8701 1628.07 37.1711 Q1624.58 32.4315 1618.63 32.4315 M1618.63 26.1121 Q1628.35 26.1121 1633.9 32.4315 Q1639.45 38.7509 1639.45 49.9314 Q1639.45 61.0714 1633.9 67.4314 Q1628.35 73.7508 1618.63 73.7508 Q1608.87 73.7508 1603.32 67.4314 Q1597.81 61.0714 1597.81 49.9314 Q1597.81 38.7509 1603.32 32.4315 Q1608.87 26.1121 1618.63 26.1121 Z" fill="#000000" fill-rule="nonzero" fill-opacity="1" /><path clip-path="url(#clip960)" d="M1689.52 45.1919 L1689.52 72.576 L1682.07 72.576 L1682.07 45.4349 Q1682.07 38.994 1679.56 35.7938 Q1677.04 32.5936 1672.02 32.5936 Q1665.98 32.5936 1662.5 36.4419 Q1659.02 40.2903 1659.02 46.9338 L1659.02 72.576 L1651.52 72.576 L1651.52 27.2059 L1659.02 27.2059 L1659.02 34.2544 Q1661.69 30.163 1665.3 28.1376 Q1668.94 26.1121 1673.68 26.1121 Q1681.5 26.1121 1685.51 30.9732 Q1689.52 35.7938 1689.52 45.1919 Z" fill="#000000" fill-rule="nonzero" fill-opacity="1" /><path clip-path="url(#clip962)" d="M138.959 1486.45 L138.959 1486.45 L336.339 1486.45 L533.719 1486.45 L731.098 1486.45 L928.478 1486.45 L1125.86 1486.45 L1323.24 1486.45 L1520.62 1486.45 L1718 1486.45 L1915.38 1486.45 L2112.76 1486.45 L2112.76 1486.45 L2112.76 1486.45 L2112.76 1486.45 L2112.76 1350.15 L2112.76 1213.85 L2112.76 1077.56 L2112.76 941.258 L2112.76 804.96 L2112.76 668.662 L2112.76 532.365 L2112.76 396.067 L2112.76 259.77 L2112.76 123.472 L2112.76 123.472 L2112.76 123.472 L2112.76 123.472 L1915.38 123.472 L1718 123.472 L1520.62 123.472 L1323.24 123.472 L1125.86 123.472 L928.478 123.472 L731.098 123.472 L533.719 123.472 L336.339 123.472 L138.959 123.472 L138.959 123.472 L138.959 123.472 L138.959 123.472 L138.959 259.77 L138.959 396.067 L138.959 532.365 L138.959 668.662 L138.959 804.96 L138.959 941.258 L138.959 1077.56 L138.959 1213.85 L138.959 1350.15 L138.959 1486.45 L138.959 1486.45 L138.959 1486.45  Z" fill="#000003" fill-rule="evenodd" fill-opacity="1"/>
<path clip-path="url(#clip962)" d="M1520.62 1355.91 L1718 1369.22 L1915.38 1379.09 L2112.76 1386.5 L2112.76 1486.45 L2112.76 1350.15 L2112.76 1213.85 L2112.76 1077.56 L2112.76 941.258 L2112.76 804.96 L2112.76 668.662 L2112.76 532.365 L2112.76 396.067 L2112.76 259.77 L2112.76 123.472 L2112.76 123.472 L2112.76 123.472 L2112.76 123.472 L1915.38 123.472 L1718 123.472 L1520.62 123.472 L1323.24 123.472 L1125.86 123.472 L928.478 123.472 L731.098 123.472 L533.719 123.472 L336.339 123.472 L138.959 123.472 L242.938 123.472 L257.996 259.77 L276.545 396.067 L300.035 532.365 L330.883 668.662 L336.339 689.417 L373.821 804.96 L437.452 941.258 L533.719 1069.12 L542.457 1077.56 L731.098 1203.55 L755.171 1213.85 L928.478 1271.28 L1125.86 1311.43 L1323.24 1337.64 L1453.09 1350.15 L1520.62 1355.91  Z" fill="#0b0726" fill-rule="evenodd" fill-opacity="1"/>
<path clip-path="url(#clip962)" d="M1520.62 1226.61 L1718 1252.96 L1915.38 1272.51 L2112.76 1287.19 L2112.76 1350.15 L2112.76 1213.85 L2112.76 1077.56 L2112.76 941.258 L2112.76 804.96 L2112.76 668.662 L2112.76 532.365 L2112.76 396.067 L2112.76 259.77 L2112.76 123.472 L2112.76 123.472 L2112.76 123.472 L2112.76 123.472 L1915.38 123.472 L1718 123.472 L1520.62 123.472 L1323.24 123.472 L1125.86 123.472 L928.478 123.472 L731.098 123.472 L533.719 123.472 L336.339 123.472 L347.024 123.472 L377.442 259.77 L414.914 396.067 L462.368 532.365 L524.686 668.662 L533.719 685.757 L612.245 804.96 L731.098 931.982 L742.455 941.258 L928.478 1061.02 L964.62 1077.56 L1125.86 1139.25 L1323.24 1190.64 L1445.46 1213.85 L1520.62 1226.61  Z" fill="#240b4e" fill-rule="evenodd" fill-opacity="1"/>
<path clip-path="url(#clip962)" d="M1520.62 1099.64 L1718 1138.4 L1915.38 1167.14 L2112.76 1188.74 L2112.76 1213.85 L2112.76 1077.56 L2112.76 941.258 L2112.76 804.96 L2112.76 668.662 L2112.76 532.365 L2112.76 396.067 L2112.76 259.77 L2112.76 123.472 L2112.76 123.472 L2112.76 123.472 L2112.76 123.472 L1915.38 123.472 L1718 123.472 L1520.62 123.472 L1323.24 123.472 L1125.86 123.472 L928.478 123.472 L731.098 123.472 L533.719 123.472 L336.339 123.472 L452.053 123.472 L497.68 259.77 L533.719 351.603 L554.301 396.067 L626.939 532.365 L722.33 668.662 L731.098 679.595 L857.805 804.96 L928.478 860.531 L1064.35 941.258 L1125.86 972.089 L1323.24 1046.97 L1432.87 1077.56 L1520.62 1099.64  Z" fill="#410967" fill-rule="evenodd" fill-opacity="1"/>
<path clip-path="url(#clip962)" d="M2112.76 1091.72 L2112.76 1213.85 L2112.76 1077.56 L2112.76 941.258 L2112.76 804.96 L2112.76 668.662 L2112.76 532.365 L2112.76 396.067 L2112.76 259.77 L2112.76 123.472 L2112.76 123.472 L2112.76 123.472 L2112.76 123.472 L1915.38 123.472 L1718 123.472 L1520.62 123.472 L1323.24 123.472 L1125.86 123.472 L928.478 123.472 L731.098 123.472 L533.719 123.472 L557.56 123.472 L619.643 259.77 L696.122 396.067 L731.098 450.347 L794.917 532.365 L926.103 668.662 L928.478 670.841 L1114.82 804.96 L1125.86 811.715 L1323.24 907.838 L1415.49 941.258 L1520.62 975.926 L1718 1026.12 L1915.38 1063.34 L2012.15 1077.56 L2112.76 1091.72  Z" fill="#5d126e" fill-rule="evenodd" fill-opacity="1"/>
<path clip-path="url(#clip962)" d="M1915.38 962.114 L2112.76 997.071 L2112.76 1077.56 L2112.76 941.258 L2112.76 804.96 L2112.76 668.662 L2112.76 532.365 L2112.76 396.067 L2112.76 259.77 L2112.76 123.472 L2112.76 123.472 L2112.76 123.472 L2112.76 123.472 L1915.38 123.472 L1718 123.472 L1520.62 123.472 L1323.24 123.472 L1125.86 123.472 L928.478 123.472 L731.098 123.472 L533.719 123.472 L664.741 123.472 L731.098 242.195 L742.698 259.77 L841.302 396.067 L928.478 495.603 L967.801 532.365 L1125.86 659.852 L1139.6 668.662 L1323.24 774.099 L1393.56 804.96 L1520.62 856.136 L1718 916.537 L1822.6 941.258 L1915.38 962.114  Z" fill="#781c6d" fill-rule="evenodd" fill-opacity="1"/>
<path clip-path="url(#clip962)" d="M1718 810.118 L1915.38 863.879 L2112.76 904.265 L2112.76 941.258 L2112.76 804.96 L2112.76 668.662 L2112.76 532.365 L2112.76 396.067 L2112.76 259.77 L2112.76 123.472 L2112.76 123.472 L2112.76 123.472 L2112.76 123.472 L1915.38 123.472 L1718 123.472 L1520.62 123.472 L1323.24 123.472 L1125.86 123.472 L928.478 123.472 L731.098 123.472 L773.206 123.472 L869.258 259.77 L928.478 332.91 L990.139 396.067 L1125.86 516.721 L1147.62 532.365 L1323.24 646.237 L1367.37 668.662 L1520.62 740.675 L1702.48 804.96 L1718 810.118  Z" fill="#932567" fill-rule="evenodd" fill-opacity="1"/>
<path clip-path="url(#clip962)" d="M2112.76 813.538 L2112.76 941.258 L2112.76 804.96 L2112.76 668.662 L2112.76 532.365 L2112.76 396.067 L2112.76 259.77 L2112.76 123.472 L2112.76 123.472 L2112.76 123.472 L2112.76 123.472 L1915.38 123.472 L1718 123.472 L1520.62 123.472 L1323.24 123.472 L1125.86 123.472 L928.478 123.472 L731.098 123.472 L883.757 123.472 L928.478 182.34 L998.729 259.77 L1125.86 382.018 L1143.69 396.067 L1323.24 524.378 L1337.25 532.365 L1520.62 629.671 L1615.88 668.662 L1718 708.268 L1915.38 768.16 L2074.67 804.96 L2112.76 813.538  Z" fill="#ae305b" fill-rule="evenodd" fill-opacity="1"/>
<path clip-path="url(#clip962)" d="M1915.38 675.099 L2112.76 726.519 L2112.76 804.96 L2112.76 668.662 L2112.76 532.365 L2112.76 396.067 L2112.76 259.77 L2112.76 123.472 L2112.76 123.472 L2112.76 123.472 L2112.76 123.472 L1915.38 123.472 L1718 123.472 L1520.62 123.472 L1323.24 123.472 L1125.86 123.472 L928.478 123.472 L997.154 123.472 L1125.86 255.38 L1131.04 259.77 L1304.88 396.067 L1323.24 409.187 L1520.62 523.01 L1540.99 532.365 L1718 609.89 L1895.28 668.662 L1915.38 675.099  Z" fill="#c73e4c" fill-rule="evenodd" fill-opacity="1"/>
<path clip-path="url(#clip962)" d="M1915.38 586.565 L2112.76 641.391 L2112.76 668.662 L2112.76 532.365 L2112.76 396.067 L2112.76 259.77 L2112.76 123.472 L2112.76 123.472 L2112.76 123.472 L2112.76 123.472 L1915.38 123.472 L1718 123.472 L1520.62 123.472 L1323.24 123.472 L1125.86 123.472 L928.478 123.472 L1112.48 123.472 L1125.86 137.178 L1270.49 259.77 L1323.24 300.544 L1476.2 396.067 L1520.62 422.049 L1718 514.682 L1765.55 532.365 L1915.38 586.565  Z" fill="#dc5039" fill-rule="evenodd" fill-opacity="1"/>
<path clip-path="url(#clip962)" d="M2112.76 559.286 L2112.76 668.662 L2112.76 532.365 L2112.76 396.067 L2112.76 259.77 L2112.76 123.472 L2112.76 123.472 L2112.76 123.472 L2112.76 123.472 L1915.38 123.472 L1718 123.472 L1520.62 123.472 L1323.24 123.472 L1125.86 123.472 L1233.55 123.472 L1323.24 197.368 L1416.09 259.77 L1520.62 325.898 L1660.1 396.067 L1718 424.014 L1915.38 500.358 L2022.03 532.365 L2112.76 559.286  Z" fill="#ed6825" fill-rule="evenodd" fill-opacity="1"/>
<path clip-path="url(#clip962)" d="M1915.38 417.328 L2112.76 480.415 L2112.76 532.365 L2112.76 396.067 L2112.76 259.77 L2112.76 123.472 L2112.76 123.472 L2112.76 123.472 L2112.76 123.472 L1915.38 123.472 L1718 123.472 L1520.62 123.472 L1323.24 123.472 L1357.64 123.472 L1520.62 233.37 L1569.38 259.77 L1718 337.372 L1862.05 396.067 L1915.38 417.328  Z" fill="#f7850e" fill-rule="evenodd" fill-opacity="1"/>
<path clip-path="url(#clip962)" d="M2112.76 403.123 L2112.76 532.365 L2112.76 396.067 L2112.76 259.77 L2112.76 123.472 L2112.76 123.472 L2112.76 123.472 L2112.76 123.472 L1915.38 123.472 L1718 123.472 L1520.62 123.472 L1323.24 123.472 L1488.09 123.472 L1520.62 145.407 L1718 253.023 L1733.38 259.77 L1915.38 338.263 L2091.18 396.067 L2112.76 403.123  Z" fill="#fba40a" fill-rule="evenodd" fill-opacity="1"/>
<path clip-path="url(#clip962)" d="M1915.38 260.562 L2112.76 330.341 L2112.76 396.067 L2112.76 259.77 L2112.76 123.472 L2112.76 123.472 L2112.76 123.472 L2112.76 123.472 L1915.38 123.472 L1718 123.472 L1520.62 123.472 L1627.16 123.472 L1718 174.03 L1913.54 259.77 L1915.38 260.562  Z" fill="#f9c52c" fill-rule="evenodd" fill-opacity="1"/>
<path clip-path="url(#clip962)" d="M1915.38 188.171 L2112.76 258.134 L2112.76 259.77 L2112.76 123.472 L2112.76 123.472 L2112.76 123.472 L2112.76 123.472 L1915.38 123.472 L1718 123.472 L1774.64 123.472 L1915.38 188.171  Z" fill="#f2e660" fill-rule="evenodd" fill-opacity="1"/>
<path clip-path="url(#clip962)" d="M2112.76 190.803 L2112.76 259.77 L2112.76 123.472 L2112.76 123.472 L2112.76 123.472 L2112.76 123.472 L1915.38 123.472 L1934.22 123.472 L2112.76 190.803  Z" fill="#fcfea4" fill-rule="evenodd" fill-opacity="1"/>
<polyline clip-path="url(#clip962)" style="stroke:#000003; stroke-linecap:round; stroke-linejoin:round; stroke-width:4; stroke-opacity:1; fill:none" points="138.959,1486.45 138.959,1486.45 336.339,1486.45 533.719,1486.45 731.098,1486.45 928.478,1486.45 1125.86,1486.45 1323.24,1486.45 1520.62,1486.45 1718,1486.45 1915.38,1486.45 2112.76,1486.45 2112.76,1350.15 2112.76,1213.85 2112.76,1077.56 2112.76,941.258 2112.76,804.96 2112.76,668.662 2112.76,532.365 2112.76,396.067 2112.76,259.77 2112.76,123.472 1915.38,123.472 1718,123.472 1520.62,123.472 1323.24,123.472 1125.86,123.472 928.478,123.472 731.098,123.472 533.719,123.472 336.339,123.472 138.959,123.472 138.959,259.77 138.959,396.067 138.959,532.365 138.959,668.662 138.959,804.96 138.959,941.258 138.959,1077.56 138.959,1213.85 138.959,1350.15 138.959,1486.45 "/>
<polyline clip-path="url(#clip962)" style="stroke:#000003; stroke-linecap:round; stroke-linejoin:round; stroke-width:4; stroke-opacity:1; fill:none" points="1520.62,1355.91 1718,1369.22 1915.38,1379.09 2112.76,1386.5 2112.76,1486.45 2112.76,1350.15 2112.76,1213.85 2112.76,1077.56 2112.76,941.258 2112.76,804.96 2112.76,668.662 2112.76,532.365 2112.76,396.067 2112.76,259.77 2112.76,123.472 1915.38,123.472 1718,123.472 1520.62,123.472 1323.24,123.472 1125.86,123.472 928.478,123.472 731.098,123.472 533.719,123.472 336.339,123.472 138.959,123.472 242.938,123.472 257.996,259.77 276.545,396.067 300.035,532.365 330.883,668.662 336.339,689.417 373.821,804.96 437.452,941.258 533.719,1069.12 542.457,1077.56 731.098,1203.55 755.171,1213.85 928.478,1271.28 1125.86,1311.43 1323.24,1337.64 1453.09,1350.15 1520.62,1355.91 "/>
<polyline clip-path="url(#clip962)" style="stroke:#000003; stroke-linecap:round; stroke-linejoin:round; stroke-width:4; stroke-opacity:1; fill:none" points="1520.62,1226.61 1718,1252.96 1915.38,1272.51 2112.76,1287.19 2112.76,1350.15 2112.76,1213.85 2112.76,1077.56 2112.76,941.258 2112.76,804.96 2112.76,668.662 2112.76,532.365 2112.76,396.067 2112.76,259.77 2112.76,123.472 1915.38,123.472 1718,123.472 1520.62,123.472 1323.24,123.472 1125.86,123.472 928.478,123.472 731.098,123.472 533.719,123.472 336.339,123.472 347.024,123.472 377.442,259.77 414.914,396.067 462.368,532.365 524.686,668.662 533.719,685.757 612.245,804.96 731.098,931.982 742.455,941.258 928.478,1061.02 964.62,1077.56 1125.86,1139.25 1323.24,1190.64 1445.46,1213.85 1520.62,1226.61 "/>
<polyline clip-path="url(#clip962)" style="stroke:#000003; stroke-linecap:round; stroke-linejoin:round; stroke-width:4; stroke-opacity:1; fill:none" points="1520.62,1099.64 1718,1138.4 1915.38,1167.14 2112.76,1188.74 2112.76,1213.85 2112.76,1077.56 2112.76,941.258 2112.76,804.96 2112.76,668.662 2112.76,532.365 2112.76,396.067 2112.76,259.77 2112.76,123.472 1915.38,123.472 1718,123.472 1520.62,123.472 1323.24,123.472 1125.86,123.472 928.478,123.472 731.098,123.472 533.719,123.472 336.339,123.472 452.053,123.472 497.68,259.77 533.719,351.603 554.301,396.067 626.939,532.365 722.33,668.662 731.098,679.595 857.805,804.96 928.478,860.531 1064.35,941.258 1125.86,972.089 1323.24,1046.97 1432.87,1077.56 1520.62,1099.64 "/>
<polyline clip-path="url(#clip962)" style="stroke:#000003; stroke-linecap:round; stroke-linejoin:round; stroke-width:4; stroke-opacity:1; fill:none" points="2112.76,1091.72 2112.76,1213.85 2112.76,1077.56 2112.76,941.258 2112.76,804.96 2112.76,668.662 2112.76,532.365 2112.76,396.067 2112.76,259.77 2112.76,123.472 1915.38,123.472 1718,123.472 1520.62,123.472 1323.24,123.472 1125.86,123.472 928.478,123.472 731.098,123.472 533.719,123.472 557.56,123.472 619.643,259.77 696.122,396.067 731.098,450.347 794.917,532.365 926.103,668.662 928.478,670.841 1114.82,804.96 1125.86,811.715 1323.24,907.838 1415.49,941.258 1520.62,975.926 1718,1026.12 1915.38,1063.34 2012.15,1077.56 2112.76,1091.72 "/>
<polyline clip-path="url(#clip962)" style="stroke:#000003; stroke-linecap:round; stroke-linejoin:round; stroke-width:4; stroke-opacity:1; fill:none" points="1915.38,962.114 2112.76,997.071 2112.76,1077.56 2112.76,941.258 2112.76,804.96 2112.76,668.662 2112.76,532.365 2112.76,396.067 2112.76,259.77 2112.76,123.472 1915.38,123.472 1718,123.472 1520.62,123.472 1323.24,123.472 1125.86,123.472 928.478,123.472 731.098,123.472 533.719,123.472 664.741,123.472 731.098,242.195 742.698,259.77 841.302,396.067 928.478,495.603 967.801,532.365 1125.86,659.852 1139.6,668.662 1323.24,774.099 1393.56,804.96 1520.62,856.136 1718,916.537 1822.6,941.258 1915.38,962.114 "/>
<polyline clip-path="url(#clip962)" style="stroke:#000003; stroke-linecap:round; stroke-linejoin:round; stroke-width:4; stroke-opacity:1; fill:none" points="1718,810.118 1915.38,863.879 2112.76,904.265 2112.76,941.258 2112.76,804.96 2112.76,668.662 2112.76,532.365 2112.76,396.067 2112.76,259.77 2112.76,123.472 1915.38,123.472 1718,123.472 1520.62,123.472 1323.24,123.472 1125.86,123.472 928.478,123.472 731.098,123.472 773.206,123.472 869.258,259.77 928.478,332.91 990.139,396.067 1125.86,516.721 1147.62,532.365 1323.24,646.237 1367.37,668.662 1520.62,740.675 1702.48,804.96 1718,810.118 "/>
<polyline clip-path="url(#clip962)" style="stroke:#000003; stroke-linecap:round; stroke-linejoin:round; stroke-width:4; stroke-opacity:1; fill:none" points="2112.76,813.538 2112.76,941.258 2112.76,804.96 2112.76,668.662 2112.76,532.365 2112.76,396.067 2112.76,259.77 2112.76,123.472 1915.38,123.472 1718,123.472 1520.62,123.472 1323.24,123.472 1125.86,123.472 928.478,123.472 731.098,123.472 883.757,123.472 928.478,182.34 998.729,259.77 1125.86,382.018 1143.69,396.067 1323.24,524.378 1337.25,532.365 1520.62,629.671 1615.88,668.662 1718,708.268 1915.38,768.16 2074.67,804.96 2112.76,813.538 "/>
<polyline clip-path="url(#clip962)" style="stroke:#000003; stroke-linecap:round; stroke-linejoin:round; stroke-width:4; stroke-opacity:1; fill:none" points="1915.38,675.099 2112.76,726.519 2112.76,804.96 2112.76,668.662 2112.76,532.365 2112.76,396.067 2112.76,259.77 2112.76,123.472 1915.38,123.472 1718,123.472 1520.62,123.472 1323.24,123.472 1125.86,123.472 928.478,123.472 997.154,123.472 1125.86,255.38 1131.04,259.77 1304.88,396.067 1323.24,409.187 1520.62,523.01 1540.99,532.365 1718,609.89 1895.28,668.662 1915.38,675.099 "/>
<polyline clip-path="url(#clip962)" style="stroke:#000003; stroke-linecap:round; stroke-linejoin:round; stroke-width:4; stroke-opacity:1; fill:none" points="1915.38,586.565 2112.76,641.391 2112.76,668.662 2112.76,532.365 2112.76,396.067 2112.76,259.77 2112.76,123.472 1915.38,123.472 1718,123.472 1520.62,123.472 1323.24,123.472 1125.86,123.472 928.478,123.472 1112.48,123.472 1125.86,137.178 1270.49,259.77 1323.24,300.544 1476.2,396.067 1520.62,422.049 1718,514.682 1765.55,532.365 1915.38,586.565 "/>
<polyline clip-path="url(#clip962)" style="stroke:#000003; stroke-linecap:round; stroke-linejoin:round; stroke-width:4; stroke-opacity:1; fill:none" points="2112.76,559.286 2112.76,668.662 2112.76,532.365 2112.76,396.067 2112.76,259.77 2112.76,123.472 1915.38,123.472 1718,123.472 1520.62,123.472 1323.24,123.472 1125.86,123.472 1233.55,123.472 1323.24,197.368 1416.09,259.77 1520.62,325.898 1660.1,396.067 1718,424.014 1915.38,500.358 2022.03,532.365 2112.76,559.286 "/>
<polyline clip-path="url(#clip962)" style="stroke:#000003; stroke-linecap:round; stroke-linejoin:round; stroke-width:4; stroke-opacity:1; fill:none" points="1915.38,417.328 2112.76,480.415 2112.76,532.365 2112.76,396.067 2112.76,259.77 2112.76,123.472 1915.38,123.472 1718,123.472 1520.62,123.472 1323.24,123.472 1357.64,123.472 1520.62,233.37 1569.38,259.77 1718,337.372 1862.05,396.067 1915.38,417.328 "/>
<polyline clip-path="url(#clip962)" style="stroke:#000003; stroke-linecap:round; stroke-linejoin:round; stroke-width:4; stroke-opacity:1; fill:none" points="2112.76,403.123 2112.76,532.365 2112.76,396.067 2112.76,259.77 2112.76,123.472 1915.38,123.472 1718,123.472 1520.62,123.472 1323.24,123.472 1488.09,123.472 1520.62,145.407 1718,253.023 1733.38,259.77 1915.38,338.263 2091.18,396.067 2112.76,403.123 "/>
<polyline clip-path="url(#clip962)" style="stroke:#000003; stroke-linecap:round; stroke-linejoin:round; stroke-width:4; stroke-opacity:1; fill:none" points="1915.38,260.562 2112.76,330.341 2112.76,396.067 2112.76,259.77 2112.76,123.472 1915.38,123.472 1718,123.472 1520.62,123.472 1627.16,123.472 1718,174.03 1913.54,259.77 1915.38,260.562 "/>
<polyline clip-path="url(#clip962)" style="stroke:#000003; stroke-linecap:round; stroke-linejoin:round; stroke-width:4; stroke-opacity:1; fill:none" points="1915.38,188.171 2112.76,258.134 2112.76,259.77 2112.76,123.472 1915.38,123.472 1718,123.472 1774.64,123.472 1915.38,188.171 "/>
<polyline clip-path="url(#clip962)" style="stroke:#000003; stroke-linecap:round; stroke-linejoin:round; stroke-width:4; stroke-opacity:1; fill:none" points="2112.76,190.803 2112.76,259.77 2112.76,123.472 1915.38,123.472 1934.22,123.472 2112.76,190.803 "/>
<defs>
  <clipPath id="clip963">
    <rect x="2160" y="123" width="73" height="1364"/>
  </clipPath>
</defs>
<path clip-path="url(#clip963)" d="M2160.76 1486.45 L2232.76 1486.45 L2232.76 1401.26 L2160.76 1401.26  Z" fill="#000003" fill-rule="evenodd" fill-opacity="1"/>
<path clip-path="url(#clip963)" d="M2160.76 1401.26 L2232.76 1401.26 L2232.76 1316.08 L2160.76 1316.08  Z" fill="#0b0726" fill-rule="evenodd" fill-opacity="1"/>
<path clip-path="url(#clip963)" d="M2160.76 1316.08 L2232.76 1316.08 L2232.76 1230.89 L2160.76 1230.89  Z" fill="#240b4e" fill-rule="evenodd" fill-opacity="1"/>
<path clip-path="url(#clip963)" d="M2160.76 1230.89 L2232.76 1230.89 L2232.76 1145.7 L2160.76 1145.7  Z" fill="#410967" fill-rule="evenodd" fill-opacity="1"/>
<path clip-path="url(#clip963)" d="M2160.76 1145.7 L2232.76 1145.7 L2232.76 1060.52 L2160.76 1060.52  Z" fill="#5d126e" fill-rule="evenodd" fill-opacity="1"/>
<path clip-path="url(#clip963)" d="M2160.76 1060.52 L2232.76 1060.52 L2232.76 975.332 L2160.76 975.332  Z" fill="#781c6d" fill-rule="evenodd" fill-opacity="1"/>
<path clip-path="url(#clip963)" d="M2160.76 975.332 L2232.76 975.332 L2232.76 890.146 L2160.76 890.146  Z" fill="#932567" fill-rule="evenodd" fill-opacity="1"/>
<path clip-path="url(#clip963)" d="M2160.76 890.146 L2232.76 890.146 L2232.76 804.96 L2160.76 804.96  Z" fill="#ae305b" fill-rule="evenodd" fill-opacity="1"/>
<path clip-path="url(#clip963)" d="M2160.76 804.96 L2232.76 804.96 L2232.76 719.774 L2160.76 719.774  Z" fill="#c73e4c" fill-rule="evenodd" fill-opacity="1"/>
<path clip-path="url(#clip963)" d="M2160.76 719.774 L2232.76 719.774 L2232.76 634.588 L2160.76 634.588  Z" fill="#dc5039" fill-rule="evenodd" fill-opacity="1"/>
<path clip-path="url(#clip963)" d="M2160.76 634.588 L2232.76 634.588 L2232.76 549.402 L2160.76 549.402  Z" fill="#ed6825" fill-rule="evenodd" fill-opacity="1"/>
<path clip-path="url(#clip963)" d="M2160.76 549.402 L2232.76 549.402 L2232.76 464.216 L2160.76 464.216  Z" fill="#f7850e" fill-rule="evenodd" fill-opacity="1"/>
<path clip-path="url(#clip963)" d="M2160.76 464.216 L2232.76 464.216 L2232.76 379.03 L2160.76 379.03  Z" fill="#fba40a" fill-rule="evenodd" fill-opacity="1"/>
<path clip-path="url(#clip963)" d="M2160.76 379.03 L2232.76 379.03 L2232.76 293.844 L2160.76 293.844  Z" fill="#f9c52c" fill-rule="evenodd" fill-opacity="1"/>
<path clip-path="url(#clip963)" d="M2160.76 293.844 L2232.76 293.844 L2232.76 208.658 L2160.76 208.658  Z" fill="#f2e660" fill-rule="evenodd" fill-opacity="1"/>
<path clip-path="url(#clip963)" d="M2160.76 208.658 L2232.76 208.658 L2232.76 123.472 L2160.76 123.472  Z" fill="#fcfea4" fill-rule="evenodd" fill-opacity="1"/>
<path clip-path="url(#clip960)" d="M2280.7 1468.62 Q2277.09 1468.62 2275.26 1472.18 Q2273.45 1475.72 2273.45 1482.85 Q2273.45 1489.96 2275.26 1493.53 Q2277.09 1497.07 2280.7 1497.07 Q2284.33 1497.07 2286.14 1493.53 Q2287.97 1489.96 2287.97 1482.85 Q2287.97 1475.72 2286.14 1472.18 Q2284.33 1468.62 2280.7 1468.62 M2280.7 1464.91 Q2286.51 1464.91 2289.57 1469.52 Q2292.64 1474.1 2292.64 1482.85 Q2292.64 1491.58 2289.57 1496.19 Q2286.51 1500.77 2280.7 1500.77 Q2274.89 1500.77 2271.81 1496.19 Q2268.76 1491.58 2268.76 1482.85 Q2268.76 1474.1 2271.81 1469.52 Q2274.89 1464.91 2280.7 1464.91 Z" fill="#000000" fill-rule="nonzero" fill-opacity="1" /><path clip-path="url(#clip960)" d="M2280.7 1330.79 Q2277.09 1330.79 2275.26 1334.35 Q2273.45 1337.9 2273.45 1345.03 Q2273.45 1352.13 2275.26 1355.7 Q2277.09 1359.24 2280.7 1359.24 Q2284.33 1359.24 2286.14 1355.7 Q2287.97 1352.13 2287.97 1345.03 Q2287.97 1337.9 2286.14 1334.35 Q2284.33 1330.79 2280.7 1330.79 M2280.7 1327.09 Q2286.51 1327.09 2289.57 1331.69 Q2292.64 1336.28 2292.64 1345.03 Q2292.64 1353.75 2289.57 1358.36 Q2286.51 1362.94 2280.7 1362.94 Q2274.89 1362.94 2271.81 1358.36 Q2268.76 1353.75 2268.76 1345.03 Q2268.76 1336.28 2271.81 1331.69 Q2274.89 1327.09 2280.7 1327.09 Z" fill="#000000" fill-rule="nonzero" fill-opacity="1" /><path clip-path="url(#clip960)" d="M2300.86 1356.39 L2305.75 1356.39 L2305.75 1362.27 L2300.86 1362.27 L2300.86 1356.39 Z" fill="#000000" fill-rule="nonzero" fill-opacity="1" /><path clip-path="url(#clip960)" d="M2316.74 1358.34 L2324.38 1358.34 L2324.38 1331.97 L2316.07 1333.64 L2316.07 1329.38 L2324.33 1327.71 L2329.01 1327.71 L2329.01 1358.34 L2336.65 1358.34 L2336.65 1362.27 L2316.74 1362.27 L2316.74 1358.34 Z" fill="#000000" fill-rule="nonzero" fill-opacity="1" /><path clip-path="url(#clip960)" d="M2280.7 1192.96 Q2277.09 1192.96 2275.26 1196.53 Q2273.45 1200.07 2273.45 1207.2 Q2273.45 1214.3 2275.26 1217.87 Q2277.09 1221.41 2280.7 1221.41 Q2284.33 1221.41 2286.14 1217.87 Q2287.97 1214.3 2287.97 1207.2 Q2287.97 1200.07 2286.14 1196.53 Q2284.33 1192.96 2280.7 1192.96 M2280.7 1189.26 Q2286.51 1189.26 2289.57 1193.86 Q2292.64 1198.45 2292.64 1207.2 Q2292.64 1215.93 2289.57 1220.53 Q2286.51 1225.11 2280.7 1225.11 Q2274.89 1225.11 2271.81 1220.53 Q2268.76 1215.93 2268.76 1207.2 Q2268.76 1198.45 2271.81 1193.86 Q2274.89 1189.26 2280.7 1189.26 Z" fill="#000000" fill-rule="nonzero" fill-opacity="1" /><path clip-path="url(#clip960)" d="M2300.86 1218.56 L2305.75 1218.56 L2305.75 1224.44 L2300.86 1224.44 L2300.86 1218.56 Z" fill="#000000" fill-rule="nonzero" fill-opacity="1" /><path clip-path="url(#clip960)" d="M2319.96 1220.51 L2336.28 1220.51 L2336.28 1224.44 L2314.33 1224.44 L2314.33 1220.51 Q2317 1217.75 2321.58 1213.12 Q2326.19 1208.47 2327.37 1207.13 Q2329.61 1204.61 2330.49 1202.87 Q2331.39 1201.11 2331.39 1199.42 Q2331.39 1196.67 2329.45 1194.93 Q2327.53 1193.19 2324.43 1193.19 Q2322.23 1193.19 2319.77 1193.96 Q2317.34 1194.72 2314.57 1196.27 L2314.57 1191.55 Q2317.39 1190.42 2319.84 1189.84 Q2322.3 1189.26 2324.33 1189.26 Q2329.7 1189.26 2332.9 1191.94 Q2336.09 1194.63 2336.09 1199.12 Q2336.09 1201.25 2335.28 1203.17 Q2334.5 1205.07 2332.39 1207.66 Q2331.81 1208.33 2328.71 1211.55 Q2325.61 1214.74 2319.96 1220.51 Z" fill="#000000" fill-rule="nonzero" fill-opacity="1" /><path clip-path="url(#clip960)" d="M2280.7 1055.13 Q2277.09 1055.13 2275.26 1058.7 Q2273.45 1062.24 2273.45 1069.37 Q2273.45 1076.48 2275.26 1080.04 Q2277.09 1083.58 2280.7 1083.58 Q2284.33 1083.58 2286.14 1080.04 Q2287.97 1076.48 2287.97 1069.37 Q2287.97 1062.24 2286.14 1058.7 Q2284.33 1055.13 2280.7 1055.13 M2280.7 1051.43 Q2286.51 1051.43 2289.57 1056.04 Q2292.64 1060.62 2292.64 1069.37 Q2292.64 1078.1 2289.57 1082.7 Q2286.51 1087.29 2280.7 1087.29 Q2274.89 1087.29 2271.81 1082.7 Q2268.76 1078.1 2268.76 1069.37 Q2268.76 1060.62 2271.81 1056.04 Q2274.89 1051.43 2280.7 1051.43 Z" fill="#000000" fill-rule="nonzero" fill-opacity="1" /><path clip-path="url(#clip960)" d="M2300.86 1080.74 L2305.75 1080.74 L2305.75 1086.62 L2300.86 1086.62 L2300.86 1080.74 Z" fill="#000000" fill-rule="nonzero" fill-opacity="1" /><path clip-path="url(#clip960)" d="M2330.1 1067.98 Q2333.45 1068.7 2335.33 1070.97 Q2337.23 1073.24 2337.23 1076.57 Q2337.23 1081.69 2333.71 1084.49 Q2330.19 1087.29 2323.71 1087.29 Q2321.53 1087.29 2319.22 1086.85 Q2316.93 1086.43 2314.47 1085.57 L2314.47 1081.06 Q2316.42 1082.19 2318.73 1082.77 Q2321.05 1083.35 2323.57 1083.35 Q2327.97 1083.35 2330.26 1081.62 Q2332.58 1079.88 2332.58 1076.57 Q2332.58 1073.51 2330.42 1071.8 Q2328.29 1070.06 2324.47 1070.06 L2320.45 1070.06 L2320.45 1066.22 L2324.66 1066.22 Q2328.11 1066.22 2329.94 1064.86 Q2331.76 1063.47 2331.76 1060.88 Q2331.76 1058.21 2329.87 1056.8 Q2327.99 1055.37 2324.47 1055.37 Q2322.55 1055.37 2320.35 1055.78 Q2318.15 1056.2 2315.51 1057.08 L2315.51 1052.91 Q2318.18 1052.17 2320.49 1051.8 Q2322.83 1051.43 2324.89 1051.43 Q2330.21 1051.43 2333.32 1053.86 Q2336.42 1056.27 2336.42 1060.39 Q2336.42 1063.26 2334.77 1065.25 Q2333.13 1067.22 2330.1 1067.98 Z" fill="#000000" fill-rule="nonzero" fill-opacity="1" /><path clip-path="url(#clip960)" d="M2280.7 917.307 Q2277.09 917.307 2275.26 920.871 Q2273.45 924.413 2273.45 931.543 Q2273.45 938.649 2275.26 942.214 Q2277.09 945.756 2280.7 945.756 Q2284.33 945.756 2286.14 942.214 Q2287.97 938.649 2287.97 931.543 Q2287.97 924.413 2286.14 920.871 Q2284.33 917.307 2280.7 917.307 M2280.7 913.603 Q2286.51 913.603 2289.57 918.209 Q2292.64 922.793 2292.64 931.543 Q2292.64 940.269 2289.57 944.876 Q2286.51 949.459 2280.7 949.459 Q2274.89 949.459 2271.81 944.876 Q2268.76 940.269 2268.76 931.543 Q2268.76 922.793 2271.81 918.209 Q2274.89 913.603 2280.7 913.603 Z" fill="#000000" fill-rule="nonzero" fill-opacity="1" /><path clip-path="url(#clip960)" d="M2300.86 942.908 L2305.75 942.908 L2305.75 948.788 L2300.86 948.788 L2300.86 942.908 Z" fill="#000000" fill-rule="nonzero" fill-opacity="1" /><path clip-path="url(#clip960)" d="M2328.78 918.302 L2316.97 936.751 L2328.78 936.751 L2328.78 918.302 M2327.55 914.228 L2333.43 914.228 L2333.43 936.751 L2338.36 936.751 L2338.36 940.64 L2333.43 940.64 L2333.43 948.788 L2328.78 948.788 L2328.78 940.64 L2313.18 940.64 L2313.18 936.126 L2327.55 914.228 Z" fill="#000000" fill-rule="nonzero" fill-opacity="1" /><path clip-path="url(#clip960)" d="M2280.7 779.479 Q2277.09 779.479 2275.26 783.044 Q2273.45 786.585 2273.45 793.715 Q2273.45 800.821 2275.26 804.386 Q2277.09 807.928 2280.7 807.928 Q2284.33 807.928 2286.14 804.386 Q2287.97 800.821 2287.97 793.715 Q2287.97 786.585 2286.14 783.044 Q2284.33 779.479 2280.7 779.479 M2280.7 775.775 Q2286.51 775.775 2289.57 780.382 Q2292.64 784.965 2292.64 793.715 Q2292.64 802.442 2289.57 807.048 Q2286.51 811.631 2280.7 811.631 Q2274.89 811.631 2271.81 807.048 Q2268.76 802.442 2268.76 793.715 Q2268.76 784.965 2271.81 780.382 Q2274.89 775.775 2280.7 775.775 Z" fill="#000000" fill-rule="nonzero" fill-opacity="1" /><path clip-path="url(#clip960)" d="M2300.86 805.081 L2305.75 805.081 L2305.75 810.96 L2300.86 810.96 L2300.86 805.081 Z" fill="#000000" fill-rule="nonzero" fill-opacity="1" /><path clip-path="url(#clip960)" d="M2315.98 776.4 L2334.33 776.4 L2334.33 780.335 L2320.26 780.335 L2320.26 788.808 Q2321.28 788.46 2322.3 788.298 Q2323.32 788.113 2324.33 788.113 Q2330.12 788.113 2333.5 791.284 Q2336.88 794.456 2336.88 799.872 Q2336.88 805.451 2333.41 808.553 Q2329.94 811.631 2323.62 811.631 Q2321.44 811.631 2319.17 811.261 Q2316.93 810.891 2314.52 810.15 L2314.52 805.451 Q2316.6 806.585 2318.83 807.141 Q2321.05 807.696 2323.52 807.696 Q2327.53 807.696 2329.87 805.59 Q2332.2 803.483 2332.2 799.872 Q2332.2 796.261 2329.87 794.155 Q2327.53 792.048 2323.52 792.048 Q2321.65 792.048 2319.77 792.465 Q2317.92 792.882 2315.98 793.761 L2315.98 776.4 Z" fill="#000000" fill-rule="nonzero" fill-opacity="1" /><path clip-path="url(#clip960)" d="M2280.7 641.651 Q2277.09 641.651 2275.26 645.216 Q2273.45 648.758 2273.45 655.887 Q2273.45 662.994 2275.26 666.558 Q2277.09 670.1 2280.7 670.1 Q2284.33 670.1 2286.14 666.558 Q2287.97 662.994 2287.97 655.887 Q2287.97 648.758 2286.14 645.216 Q2284.33 641.651 2280.7 641.651 M2280.7 637.947 Q2286.51 637.947 2289.57 642.554 Q2292.64 647.137 2292.64 655.887 Q2292.64 664.614 2289.57 669.22 Q2286.51 673.804 2280.7 673.804 Q2274.89 673.804 2271.81 669.22 Q2268.76 664.614 2268.76 655.887 Q2268.76 647.137 2271.81 642.554 Q2274.89 637.947 2280.7 637.947 Z" fill="#000000" fill-rule="nonzero" fill-opacity="1" /><path clip-path="url(#clip960)" d="M2300.86 667.253 L2305.75 667.253 L2305.75 673.132 L2300.86 673.132 L2300.86 667.253 Z" fill="#000000" fill-rule="nonzero" fill-opacity="1" /><path clip-path="url(#clip960)" d="M2326.51 653.989 Q2323.36 653.989 2321.51 656.142 Q2319.68 658.295 2319.68 662.044 Q2319.68 665.771 2321.51 667.947 Q2323.36 670.1 2326.51 670.1 Q2329.66 670.1 2331.49 667.947 Q2333.34 665.771 2333.34 662.044 Q2333.34 658.295 2331.49 656.142 Q2329.66 653.989 2326.51 653.989 M2335.79 639.336 L2335.79 643.596 Q2334.03 642.762 2332.23 642.322 Q2330.45 641.883 2328.69 641.883 Q2324.06 641.883 2321.6 645.008 Q2319.17 648.133 2318.83 654.452 Q2320.19 652.438 2322.25 651.373 Q2324.31 650.285 2326.79 650.285 Q2332 650.285 2335.01 653.457 Q2338.04 656.605 2338.04 662.044 Q2338.04 667.369 2334.89 670.586 Q2331.74 673.804 2326.51 673.804 Q2320.51 673.804 2317.34 669.22 Q2314.17 664.614 2314.17 655.887 Q2314.17 647.693 2318.06 642.832 Q2321.95 637.947 2328.5 637.947 Q2330.26 637.947 2332.04 638.295 Q2333.85 638.642 2335.79 639.336 Z" fill="#000000" fill-rule="nonzero" fill-opacity="1" /><path clip-path="url(#clip960)" d="M2280.7 503.823 Q2277.09 503.823 2275.26 507.388 Q2273.45 510.93 2273.45 518.059 Q2273.45 525.166 2275.26 528.731 Q2277.09 532.272 2280.7 532.272 Q2284.33 532.272 2286.14 528.731 Q2287.97 525.166 2287.97 518.059 Q2287.97 510.93 2286.14 507.388 Q2284.33 503.823 2280.7 503.823 M2280.7 500.12 Q2286.51 500.12 2289.57 504.726 Q2292.64 509.309 2292.64 518.059 Q2292.64 526.786 2289.57 531.393 Q2286.51 535.976 2280.7 535.976 Q2274.89 535.976 2271.81 531.393 Q2268.76 526.786 2268.76 518.059 Q2268.76 509.309 2271.81 504.726 Q2274.89 500.12 2280.7 500.12 Z" fill="#000000" fill-rule="nonzero" fill-opacity="1" /><path clip-path="url(#clip960)" d="M2300.86 529.425 L2305.75 529.425 L2305.75 535.305 L2300.86 535.305 L2300.86 529.425 Z" fill="#000000" fill-rule="nonzero" fill-opacity="1" /><path clip-path="url(#clip960)" d="M2314.75 500.745 L2336.97 500.745 L2336.97 502.735 L2324.43 535.305 L2319.54 535.305 L2331.35 504.68 L2314.75 504.68 L2314.75 500.745 Z" fill="#000000" fill-rule="nonzero" fill-opacity="1" /><path clip-path="url(#clip960)" d="M2280.7 365.996 Q2277.09 365.996 2275.26 369.56 Q2273.45 373.102 2273.45 380.232 Q2273.45 387.338 2275.26 390.903 Q2277.09 394.444 2280.7 394.444 Q2284.33 394.444 2286.14 390.903 Q2287.97 387.338 2287.97 380.232 Q2287.97 373.102 2286.14 369.56 Q2284.33 365.996 2280.7 365.996 M2280.7 362.292 Q2286.51 362.292 2289.57 366.898 Q2292.64 371.482 2292.64 380.232 Q2292.64 388.958 2289.57 393.565 Q2286.51 398.148 2280.7 398.148 Q2274.89 398.148 2271.81 393.565 Q2268.76 388.958 2268.76 380.232 Q2268.76 371.482 2271.81 366.898 Q2274.89 362.292 2280.7 362.292 Z" fill="#000000" fill-rule="nonzero" fill-opacity="1" /><path clip-path="url(#clip960)" d="M2300.86 391.597 L2305.75 391.597 L2305.75 397.477 L2300.86 397.477 L2300.86 391.597 Z" fill="#000000" fill-rule="nonzero" fill-opacity="1" /><path clip-path="url(#clip960)" d="M2325.93 381.065 Q2322.6 381.065 2320.68 382.847 Q2318.78 384.63 2318.78 387.755 Q2318.78 390.88 2320.68 392.662 Q2322.6 394.444 2325.93 394.444 Q2329.26 394.444 2331.19 392.662 Q2333.11 390.857 2333.11 387.755 Q2333.11 384.63 2331.19 382.847 Q2329.29 381.065 2325.93 381.065 M2321.26 379.074 Q2318.25 378.333 2316.56 376.273 Q2314.89 374.213 2314.89 371.25 Q2314.89 367.107 2317.83 364.699 Q2320.79 362.292 2325.93 362.292 Q2331.09 362.292 2334.03 364.699 Q2336.97 367.107 2336.97 371.25 Q2336.97 374.213 2335.28 376.273 Q2333.62 378.333 2330.63 379.074 Q2334.01 379.861 2335.89 382.153 Q2337.78 384.445 2337.78 387.755 Q2337.78 392.778 2334.7 395.463 Q2331.65 398.148 2325.93 398.148 Q2320.21 398.148 2317.14 395.463 Q2314.08 392.778 2314.08 387.755 Q2314.08 384.445 2315.98 382.153 Q2317.88 379.861 2321.26 379.074 M2319.54 371.69 Q2319.54 374.375 2321.21 375.88 Q2322.9 377.384 2325.93 377.384 Q2328.94 377.384 2330.63 375.88 Q2332.34 374.375 2332.34 371.69 Q2332.34 369.005 2330.63 367.5 Q2328.94 365.996 2325.93 365.996 Q2322.9 365.996 2321.21 367.5 Q2319.54 369.005 2319.54 371.69 Z" fill="#000000" fill-rule="nonzero" fill-opacity="1" /><path clip-path="url(#clip960)" d="M2280.7 228.168 Q2277.09 228.168 2275.26 231.733 Q2273.45 235.274 2273.45 242.404 Q2273.45 249.51 2275.26 253.075 Q2277.09 256.617 2280.7 256.617 Q2284.33 256.617 2286.14 253.075 Q2287.97 249.51 2287.97 242.404 Q2287.97 235.274 2286.14 231.733 Q2284.33 228.168 2280.7 228.168 M2280.7 224.464 Q2286.51 224.464 2289.57 229.071 Q2292.64 233.654 2292.64 242.404 Q2292.64 251.131 2289.57 255.737 Q2286.51 260.32 2280.7 260.32 Q2274.89 260.32 2271.81 255.737 Q2268.76 251.131 2268.76 242.404 Q2268.76 233.654 2271.81 229.071 Q2274.89 224.464 2280.7 224.464 Z" fill="#000000" fill-rule="nonzero" fill-opacity="1" /><path clip-path="url(#clip960)" d="M2300.86 253.769 L2305.75 253.769 L2305.75 259.649 L2300.86 259.649 L2300.86 253.769 Z" fill="#000000" fill-rule="nonzero" fill-opacity="1" /><path clip-path="url(#clip960)" d="M2316.07 258.931 L2316.07 254.672 Q2317.83 255.506 2319.64 255.945 Q2321.44 256.385 2323.18 256.385 Q2327.81 256.385 2330.24 253.283 Q2332.69 250.158 2333.04 243.816 Q2331.7 245.807 2329.64 246.871 Q2327.58 247.936 2325.08 247.936 Q2319.89 247.936 2316.86 244.811 Q2313.85 241.663 2313.85 236.223 Q2313.85 230.899 2317 227.682 Q2320.14 224.464 2325.38 224.464 Q2331.37 224.464 2334.52 229.071 Q2337.69 233.654 2337.69 242.404 Q2337.69 250.575 2333.8 255.459 Q2329.94 260.32 2323.39 260.32 Q2321.63 260.32 2319.82 259.973 Q2318.01 259.626 2316.07 258.931 M2325.38 244.279 Q2328.52 244.279 2330.35 242.126 Q2332.2 239.973 2332.2 236.223 Q2332.2 232.496 2330.35 230.344 Q2328.52 228.168 2325.38 228.168 Q2322.23 228.168 2320.38 230.344 Q2318.55 232.496 2318.55 236.223 Q2318.55 239.973 2320.38 242.126 Q2322.23 244.279 2325.38 244.279 Z" fill="#000000" fill-rule="nonzero" fill-opacity="1" /><polyline clip-path="url(#clip960)" style="stroke:#000000; stroke-linecap:round; stroke-linejoin:round; stroke-width:4; stroke-opacity:1; fill:none" points="2232.76,1486.45 2232.76,1486.45 2256.76,1486.45 2232.76,1486.45 2232.76,1348.62 2256.76,1348.62 2232.76,1348.62 2232.76,1210.79 2256.76,1210.79 2232.76,1210.79 2232.76,1072.96 2256.76,1072.96 2232.76,1072.96 2232.76,935.137 2256.76,935.137 2232.76,935.137 2232.76,797.309 2256.76,797.309 2232.76,797.309 2232.76,659.481 2256.76,659.481 2232.76,659.481 2232.76,521.653 2256.76,521.653 2232.76,521.653 2232.76,383.826 2256.76,383.826 2232.76,383.826 2232.76,245.998 2256.76,245.998 2232.76,245.998 2232.76,123.472 "/>
</svg>
