<?xml version="1.0" encoding="utf-8"?>
<svg xmlns="http://www.w3.org/2000/svg" xmlns:xlink="http://www.w3.org/1999/xlink" width="500" height="500" viewBox="0 0 2000 2000">
<defs>
  <clipPath id="clip920">
    <rect x="0" y="0" width="2000" height="2000"/>
  </clipPath>
</defs>
<path clip-path="url(#clip920)" d="M0 2000 L2000 2000 L2000 0 L0 0  Z" fill="#ffffff" fill-rule="evenodd" fill-opacity="1"/>
<defs>
  <clipPath id="clip921">
    <rect x="400" y="200" width="1401" height="1401"/>
  </clipPath>
</defs>
<path clip-path="url(#clip920)" d="M137.853 1770.87 L1752.76 1770.87 L1752.76 248.012 L137.853 248.012  Z" fill="#ffffff" fill-rule="evenodd" fill-opacity="1"/>
<defs>
  <clipPath id="clip922">
    <rect x="137" y="248" width="1616" height="1524"/>
  </clipPath>
</defs>
<polyline clip-path="url(#clip922)" style="stroke:#000000; stroke-linecap:round; stroke-linejoin:round; stroke-width:2; stroke-opacity:0.1; fill:none" points="144.829,1770.87 144.829,248.012 "/>
<polyline clip-path="url(#clip922)" style="stroke:#000000; stroke-linecap:round; stroke-linejoin:round; stroke-width:2; stroke-opacity:0.1; fill:none" points="535.305,1770.87 535.305,248.012 "/>
<polyline clip-path="url(#clip922)" style="stroke:#000000; stroke-linecap:round; stroke-linejoin:round; stroke-width:2; stroke-opacity:0.1; fill:none" points="925.781,1770.87 925.781,248.012 "/>
<polyline clip-path="url(#clip922)" style="stroke:#000000; stroke-linecap:round; stroke-linejoin:round; stroke-width:2; stroke-opacity:0.1; fill:none" points="1316.26,1770.87 1316.26,248.012 "/>
<polyline clip-path="url(#clip922)" style="stroke:#000000; stroke-linecap:round; stroke-linejoin:round; stroke-width:2; stroke-opacity:0.1; fill:none" points="1706.73,1770.87 1706.73,248.012 "/>
<polyline clip-path="url(#clip920)" style="stroke:#000000; stroke-linecap:round; stroke-linejoin:round; stroke-width:4; stroke-opacity:1; fill:none" points="137.853,1770.87 1752.76,1770.87 "/>
<polyline clip-path="url(#clip920)" style="stroke:#000000; stroke-linecap:round; stroke-linejoin:round; stroke-width:4; stroke-opacity:1; fill:none" points="144.829,1770.87 144.829,1754.05 "/>
<polyline clip-path="url(#clip920)" style="stroke:#000000; stroke-linecap:round; stroke-linejoin:round; stroke-width:4; stroke-opacity:1; fill:none" points="535.305,1770.87 535.305,1754.05 "/>
<polyline clip-path="url(#clip920)" style="stroke:#000000; stroke-linecap:round; stroke-linejoin:round; stroke-width:4; stroke-opacity:1; fill:none" points="925.781,1770.87 925.781,1754.05 "/>
<polyline clip-path="url(#clip920)" style="stroke:#000000; stroke-linecap:round; stroke-linejoin:round; stroke-width:4; stroke-opacity:1; fill:none" points="1316.26,1770.87 1316.26,1754.05 "/>
<polyline clip-path="url(#clip920)" style="stroke:#000000; stroke-linecap:round; stroke-linejoin:round; stroke-width:4; stroke-opacity:1; fill:none" points="1706.73,1770.87 1706.73,1754.05 "/>
<path clip-path="url(#clip920)" d="M144.829 1798.59 Q141.218 1798.59 139.389 1802.15 Q137.584 1805.69 137.584 1812.82 Q137.584 1819.93 139.389 1823.49 Q141.218 1827.04 144.829 1827.04 Q148.463 1827.04 150.269 1823.49 Q152.098 1819.93 152.098 1812.82 Q152.098 1805.69 150.269 1802.15 Q148.463 1798.59 144.829 1798.59 M144.829 1794.88 Q150.639 1794.88 153.695 1799.49 Q156.773 1804.07 156.773 1812.82 Q156.773 1821.55 153.695 1826.16 Q150.639 1830.74 144.829 1830.74 Q139.019 1830.74 135.94 1826.16 Q132.885 1821.55 132.885 1812.82 Q132.885 1804.07 135.94 1799.49 Q139.019 1794.88 144.829 1794.88 Z" fill="#000000" fill-rule="nonzero" fill-opacity="1" /><path clip-path="url(#clip920)" d="M509.993 1826.13 L517.631 1826.13 L517.631 1799.77 L509.321 1801.43 L509.321 1797.17 L517.585 1795.51 L522.261 1795.51 L522.261 1826.13 L529.9 1826.13 L529.9 1830.07 L509.993 1830.07 L509.993 1826.13 Z" fill="#000000" fill-rule="nonzero" fill-opacity="1" /><path clip-path="url(#clip920)" d="M549.344 1798.59 Q545.733 1798.59 543.904 1802.15 Q542.099 1805.69 542.099 1812.82 Q542.099 1819.93 543.904 1823.49 Q545.733 1827.04 549.344 1827.04 Q552.978 1827.04 554.784 1823.49 Q556.613 1819.93 556.613 1812.82 Q556.613 1805.69 554.784 1802.15 Q552.978 1798.59 549.344 1798.59 M549.344 1794.88 Q555.154 1794.88 558.21 1799.49 Q561.289 1804.07 561.289 1812.82 Q561.289 1821.55 558.21 1826.16 Q555.154 1830.74 549.344 1830.74 Q543.534 1830.74 540.455 1826.16 Q537.4 1821.55 537.4 1812.82 Q537.4 1804.07 540.455 1799.49 Q543.534 1794.88 549.344 1794.88 Z" fill="#000000" fill-rule="nonzero" fill-opacity="1" /><path clip-path="url(#clip920)" d="M904.554 1826.13 L920.873 1826.13 L920.873 1830.07 L898.929 1830.07 L898.929 1826.13 Q901.591 1823.38 906.174 1818.75 Q910.781 1814.1 911.961 1812.75 Q914.207 1810.23 915.086 1808.49 Q915.989 1806.73 915.989 1805.04 Q915.989 1802.29 914.045 1800.55 Q912.123 1798.82 909.021 1798.82 Q906.822 1798.82 904.369 1799.58 Q901.938 1800.35 899.16 1801.9 L899.16 1797.17 Q901.984 1796.04 904.438 1795.46 Q906.892 1794.88 908.929 1794.88 Q914.299 1794.88 917.494 1797.57 Q920.688 1800.25 920.688 1804.74 Q920.688 1806.87 919.878 1808.79 Q919.091 1810.69 916.984 1813.29 Q916.406 1813.96 913.304 1817.17 Q910.202 1820.37 904.554 1826.13 Z" fill="#000000" fill-rule="nonzero" fill-opacity="1" /><path clip-path="url(#clip920)" d="M940.688 1798.59 Q937.077 1798.59 935.248 1802.15 Q933.443 1805.69 933.443 1812.82 Q933.443 1819.93 935.248 1823.49 Q937.077 1827.04 940.688 1827.04 Q944.322 1827.04 946.128 1823.49 Q947.956 1819.93 947.956 1812.82 Q947.956 1805.69 946.128 1802.15 Q944.322 1798.59 940.688 1798.59 M940.688 1794.88 Q946.498 1794.88 949.554 1799.49 Q952.632 1804.07 952.632 1812.82 Q952.632 1821.55 949.554 1826.16 Q946.498 1830.74 940.688 1830.74 Q934.878 1830.74 931.799 1826.16 Q928.744 1821.55 928.744 1812.82 Q928.744 1804.07 931.799 1799.49 Q934.878 1794.88 940.688 1794.88 Z" fill="#000000" fill-rule="nonzero" fill-opacity="1" /><path clip-path="url(#clip920)" d="M1305.1 1811.43 Q1308.46 1812.15 1310.33 1814.42 Q1312.23 1816.69 1312.23 1820.02 Q1312.23 1825.14 1308.71 1827.94 Q1305.19 1830.74 1298.71 1830.74 Q1296.53 1830.74 1294.22 1830.3 Q1291.93 1829.88 1289.47 1829.03 L1289.47 1824.51 Q1291.42 1825.65 1293.73 1826.23 Q1296.05 1826.8 1298.57 1826.8 Q1302.97 1826.8 1305.26 1825.07 Q1307.58 1823.33 1307.58 1820.02 Q1307.58 1816.97 1305.42 1815.25 Q1303.29 1813.52 1299.47 1813.52 L1295.45 1813.52 L1295.45 1809.67 L1299.66 1809.67 Q1303.11 1809.67 1304.94 1808.31 Q1306.77 1806.92 1306.77 1804.33 Q1306.77 1801.67 1304.87 1800.25 Q1302.99 1798.82 1299.47 1798.82 Q1297.55 1798.82 1295.35 1799.23 Q1293.15 1799.65 1290.52 1800.53 L1290.52 1796.36 Q1293.18 1795.62 1295.49 1795.25 Q1297.83 1794.88 1299.89 1794.88 Q1305.21 1794.88 1308.32 1797.31 Q1311.42 1799.72 1311.42 1803.84 Q1311.42 1806.71 1309.77 1808.7 Q1308.13 1810.67 1305.1 1811.43 Z" fill="#000000" fill-rule="nonzero" fill-opacity="1" /><path clip-path="url(#clip920)" d="M1331.09 1798.59 Q1327.48 1798.59 1325.65 1802.15 Q1323.85 1805.69 1323.85 1812.82 Q1323.85 1819.93 1325.65 1823.49 Q1327.48 1827.04 1331.09 1827.04 Q1334.73 1827.04 1336.53 1823.49 Q1338.36 1819.93 1338.36 1812.82 Q1338.36 1805.69 1336.53 1802.15 Q1334.73 1798.59 1331.09 1798.59 M1331.09 1794.88 Q1336.9 1794.88 1339.96 1799.49 Q1343.04 1804.07 1343.04 1812.82 Q1343.04 1821.55 1339.96 1826.16 Q1336.9 1830.74 1331.09 1830.74 Q1325.28 1830.74 1322.21 1826.16 Q1319.15 1821.55 1319.15 1812.82 Q1319.15 1804.07 1322.21 1799.49 Q1325.28 1794.88 1331.09 1794.88 Z" fill="#000000" fill-rule="nonzero" fill-opacity="1" /><path clip-path="url(#clip920)" d="M1694.9 1799.58 L1683.1 1818.03 L1694.9 1818.03 L1694.9 1799.58 M1693.68 1795.51 L1699.56 1795.51 L1699.56 1818.03 L1704.49 1818.03 L1704.49 1821.92 L1699.56 1821.92 L1699.56 1830.07 L1694.9 1830.07 L1694.9 1821.92 L1679.3 1821.92 L1679.3 1817.41 L1693.68 1795.51 Z" fill="#000000" fill-rule="nonzero" fill-opacity="1" /><path clip-path="url(#clip920)" d="M1722.22 1798.59 Q1718.61 1798.59 1716.78 1802.15 Q1714.97 1805.69 1714.97 1812.82 Q1714.97 1819.93 1716.78 1823.49 Q1718.61 1827.04 1722.22 1827.04 Q1725.85 1827.04 1727.66 1823.49 Q1729.49 1819.93 1729.49 1812.82 Q1729.49 1805.69 1727.66 1802.15 Q1725.85 1798.59 1722.22 1798.59 M1722.22 1794.88 Q1728.03 1794.88 1731.08 1799.49 Q1734.16 1804.07 1734.16 1812.82 Q1734.16 1821.55 1731.08 1826.16 Q1728.03 1830.74 1722.22 1830.74 Q1716.41 1830.74 1713.33 1826.16 Q1710.27 1821.55 1710.27 1812.82 Q1710.27 1804.07 1713.33 1799.49 Q1716.41 1794.88 1722.22 1794.88 Z" fill="#000000" fill-rule="nonzero" fill-opacity="1" /><polyline clip-path="url(#clip922)" style="stroke:#000000; stroke-linecap:round; stroke-linejoin:round; stroke-width:2; stroke-opacity:0.1; fill:none" points="137.853,1419.44 1752.76,1419.44 "/>
<polyline clip-path="url(#clip922)" style="stroke:#000000; stroke-linecap:round; stroke-linejoin:round; stroke-width:2; stroke-opacity:0.1; fill:none" points="137.853,1028.96 1752.76,1028.96 "/>
<polyline clip-path="url(#clip922)" style="stroke:#000000; stroke-linecap:round; stroke-linejoin:round; stroke-width:2; stroke-opacity:0.1; fill:none" points="137.853,638.488 1752.76,638.488 "/>
<polyline clip-path="url(#clip922)" style="stroke:#000000; stroke-linecap:round; stroke-linejoin:round; stroke-width:2; stroke-opacity:0.1; fill:none" points="137.853,248.012 1752.76,248.012 "/>
<polyline clip-path="url(#clip920)" style="stroke:#000000; stroke-linecap:round; stroke-linejoin:round; stroke-width:4; stroke-opacity:1; fill:none" points="137.853,1770.87 137.853,248.012 "/>
<polyline clip-path="url(#clip920)" style="stroke:#000000; stroke-linecap:round; stroke-linejoin:round; stroke-width:4; stroke-opacity:1; fill:none" points="137.853,1419.44 154.668,1419.44 "/>
<polyline clip-path="url(#clip920)" style="stroke:#000000; stroke-linecap:round; stroke-linejoin:round; stroke-width:4; stroke-opacity:1; fill:none" points="137.853,1028.96 154.668,1028.96 "/>
<polyline clip-path="url(#clip920)" style="stroke:#000000; stroke-linecap:round; stroke-linejoin:round; stroke-width:4; stroke-opacity:1; fill:none" points="137.853,638.488 154.668,638.488 "/>
<polyline clip-path="url(#clip920)" style="stroke:#000000; stroke-linecap:round; stroke-linejoin:round; stroke-width:4; stroke-opacity:1; fill:none" points="137.853,248.012 154.668,248.012 "/>
<path clip-path="url(#clip920)" d="M56.5569 1432.78 L64.1958 1432.78 L64.1958 1406.42 L55.8856 1408.09 L55.8856 1403.83 L64.1495 1402.16 L68.8254 1402.16 L68.8254 1432.78 L76.4642 1432.78 L76.4642 1436.72 L56.5569 1436.72 L56.5569 1432.78 Z" fill="#000000" fill-rule="nonzero" fill-opacity="1" /><path clip-path="url(#clip920)" d="M95.9086 1405.24 Q92.2975 1405.24 90.4688 1408.8 Q88.6632 1412.34 88.6632 1419.47 Q88.6632 1426.58 90.4688 1430.15 Q92.2975 1433.69 95.9086 1433.69 Q99.5428 1433.69 101.348 1430.15 Q103.177 1426.58 103.177 1419.47 Q103.177 1412.34 101.348 1408.8 Q99.5428 1405.24 95.9086 1405.24 M95.9086 1401.53 Q101.719 1401.53 104.774 1406.14 Q107.853 1410.72 107.853 1419.47 Q107.853 1428.2 104.774 1432.81 Q101.719 1437.39 95.9086 1437.39 Q90.0984 1437.39 87.0197 1432.81 Q83.9642 1428.2 83.9642 1419.47 Q83.9642 1410.72 87.0197 1406.14 Q90.0984 1401.53 95.9086 1401.53 Z" fill="#000000" fill-rule="nonzero" fill-opacity="1" /><path clip-path="url(#clip920)" d="M59.7745 1042.31 L76.0939 1042.31 L76.0939 1046.24 L54.1495 1046.24 L54.1495 1042.31 Q56.8115 1039.55 61.3949 1034.92 Q66.0013 1030.27 67.1819 1028.93 Q69.4272 1026.41 70.3068 1024.67 Q71.2096 1022.91 71.2096 1021.22 Q71.2096 1018.47 69.2652 1016.73 Q67.3439 1014.99 64.2421 1014.99 Q62.043 1014.99 59.5893 1015.76 Q57.1588 1016.52 54.381 1018.07 L54.381 1013.35 Q57.2051 1012.22 59.6588 1011.64 Q62.1124 1011.06 64.1495 1011.06 Q69.5198 1011.06 72.7142 1013.74 Q75.9087 1016.43 75.9087 1020.92 Q75.9087 1023.05 75.0985 1024.97 Q74.3115 1026.87 72.205 1029.46 Q71.6263 1030.13 68.5245 1033.35 Q65.4226 1036.54 59.7745 1042.31 Z" fill="#000000" fill-rule="nonzero" fill-opacity="1" /><path clip-path="url(#clip920)" d="M95.9086 1014.76 Q92.2975 1014.76 90.4688 1018.33 Q88.6632 1021.87 88.6632 1029 Q88.6632 1036.1 90.4688 1039.67 Q92.2975 1043.21 95.9086 1043.21 Q99.5428 1043.21 101.348 1039.67 Q103.177 1036.1 103.177 1029 Q103.177 1021.87 101.348 1018.33 Q99.5428 1014.76 95.9086 1014.76 M95.9086 1011.06 Q101.719 1011.06 104.774 1015.67 Q107.853 1020.25 107.853 1029 Q107.853 1037.73 104.774 1042.33 Q101.719 1046.92 95.9086 1046.92 Q90.0984 1046.92 87.0197 1042.33 Q83.9642 1037.73 83.9642 1029 Q83.9642 1020.25 87.0197 1015.67 Q90.0984 1011.06 95.9086 1011.06 Z" fill="#000000" fill-rule="nonzero" fill-opacity="1" /><path clip-path="url(#clip920)" d="M69.9133 637.134 Q73.2698 637.851 75.1448 640.12 Q77.0429 642.388 77.0429 645.722 Q77.0429 650.837 73.5244 653.638 Q70.0059 656.439 63.5245 656.439 Q61.3486 656.439 59.0338 655.999 Q56.7421 655.583 54.2884 654.726 L54.2884 650.212 Q56.2328 651.347 58.5477 651.925 Q60.8625 652.504 63.3856 652.504 Q67.7837 652.504 70.0754 650.768 Q72.3902 649.032 72.3902 645.722 Q72.3902 642.666 70.2374 640.953 Q68.1078 639.217 64.2884 639.217 L60.2606 639.217 L60.2606 635.375 L64.4735 635.375 Q67.9226 635.375 69.7513 634.009 Q71.58 632.62 71.58 630.027 Q71.58 627.365 69.6819 625.953 Q67.8069 624.518 64.2884 624.518 Q62.3671 624.518 60.168 624.935 Q57.969 625.352 55.3301 626.231 L55.3301 622.064 Q57.9921 621.324 60.3069 620.953 Q62.6449 620.583 64.705 620.583 Q70.0291 620.583 73.1309 623.014 Q76.2327 625.421 76.2327 629.541 Q76.2327 632.412 74.5892 634.402 Q72.9457 636.37 69.9133 637.134 Z" fill="#000000" fill-rule="nonzero" fill-opacity="1" /><path clip-path="url(#clip920)" d="M95.9086 624.287 Q92.2975 624.287 90.4688 627.852 Q88.6632 631.393 88.6632 638.523 Q88.6632 645.629 90.4688 649.194 Q92.2975 652.736 95.9086 652.736 Q99.5428 652.736 101.348 649.194 Q103.177 645.629 103.177 638.523 Q103.177 631.393 101.348 627.852 Q99.5428 624.287 95.9086 624.287 M95.9086 620.583 Q101.719 620.583 104.774 625.189 Q107.853 629.773 107.853 638.523 Q107.853 647.25 104.774 651.856 Q101.719 656.439 95.9086 656.439 Q90.0984 656.439 87.0197 651.856 Q83.9642 647.25 83.9642 638.523 Q83.9642 629.773 87.0197 625.189 Q90.0984 620.583 95.9086 620.583 Z" fill="#000000" fill-rule="nonzero" fill-opacity="1" /><path clip-path="url(#clip920)" d="M68.5939 234.806 L56.7884 253.255 L68.5939 253.255 L68.5939 234.806 M67.367 230.732 L73.2466 230.732 L73.2466 253.255 L78.1772 253.255 L78.1772 257.144 L73.2466 257.144 L73.2466 265.292 L68.5939 265.292 L68.5939 257.144 L52.9921 257.144 L52.9921 252.63 L67.367 230.732 Z" fill="#000000" fill-rule="nonzero" fill-opacity="1" /><path clip-path="url(#clip920)" d="M95.9086 233.811 Q92.2975 233.811 90.4688 237.376 Q88.6632 240.917 88.6632 248.047 Q88.6632 255.153 90.4688 258.718 Q92.2975 262.26 95.9086 262.26 Q99.5428 262.26 101.348 258.718 Q103.177 255.153 103.177 248.047 Q103.177 240.917 101.348 237.376 Q99.5428 233.811 95.9086 233.811 M95.9086 230.107 Q101.719 230.107 104.774 234.714 Q107.853 239.297 107.853 248.047 Q107.853 256.774 104.774 261.38 Q101.719 265.964 95.9086 265.964 Q90.0984 265.964 87.0197 261.38 Q83.9642 256.774 83.9642 248.047 Q83.9642 239.297 87.0197 234.714 Q90.0984 230.107 95.9086 230.107 Z" fill="#000000" fill-rule="nonzero" fill-opacity="1" /><path clip-path="url(#clip920)" d="M146.547 18.8205 L146.547 41.5461 L156.836 41.5461 Q162.548 41.5461 165.667 38.5889 Q168.787 35.6318 168.787 30.163 Q168.787 24.7348 165.667 21.7777 Q162.548 18.8205 156.836 18.8205 L146.547 18.8205 M138.364 12.096 L156.836 12.096 Q167.004 12.096 172.189 16.714 Q177.415 21.2916 177.415 30.163 Q177.415 39.1155 172.189 43.6931 Q167.004 48.2706 156.836 48.2706 L146.547 48.2706 L146.547 72.576 L138.364 72.576 L138.364 12.096 Z" fill="#000000" fill-rule="nonzero" fill-opacity="1" /><path clip-path="url(#clip920)" d="M202.693 32.4315 Q196.697 32.4315 193.214 37.1306 Q189.73 41.7891 189.73 49.9314 Q189.73 58.0738 193.173 62.7728 Q196.657 67.4314 202.693 67.4314 Q208.647 67.4314 212.131 62.7323 Q215.615 58.0333 215.615 49.9314 Q215.615 41.8701 212.131 37.1711 Q208.647 32.4315 202.693 32.4315 M202.693 26.1121 Q212.415 26.1121 217.965 32.4315 Q223.514 38.7509 223.514 49.9314 Q223.514 61.0714 217.965 67.4314 Q212.415 73.7508 202.693 73.7508 Q192.93 73.7508 187.38 67.4314 Q181.871 61.0714 181.871 49.9314 Q181.871 38.7509 187.38 32.4315 Q192.93 26.1121 202.693 26.1121 Z" fill="#000000" fill-rule="nonzero" fill-opacity="1" /><path clip-path="url(#clip920)" d="M243.242 14.324 L243.242 27.2059 L258.595 27.2059 L258.595 32.9987 L243.242 32.9987 L243.242 57.6282 Q243.242 63.1779 244.741 64.7578 Q246.28 66.3376 250.939 66.3376 L258.595 66.3376 L258.595 72.576 L250.939 72.576 Q242.311 72.576 239.029 69.3758 Q235.748 66.1351 235.748 57.6282 L235.748 32.9987 L230.279 32.9987 L230.279 27.2059 L235.748 27.2059 L235.748 14.324 L243.242 14.324 Z" fill="#000000" fill-rule="nonzero" fill-opacity="1" /><path clip-path="url(#clip920)" d="M307.206 48.0275 L307.206 51.6733 L272.935 51.6733 Q273.421 59.3701 277.553 63.421 Q281.726 67.4314 289.139 67.4314 Q293.433 67.4314 297.443 66.3781 Q301.494 65.3249 305.464 63.2184 L305.464 70.267 Q301.454 71.9684 297.241 72.8596 Q293.028 73.7508 288.693 73.7508 Q277.837 73.7508 271.477 67.4314 Q265.158 61.1119 265.158 50.3365 Q265.158 39.1965 271.153 32.6746 Q277.189 26.1121 287.397 26.1121 Q296.552 26.1121 301.859 32.0264 Q307.206 37.9003 307.206 48.0275 M299.752 45.84 Q299.671 39.7232 296.309 36.0774 Q292.987 32.4315 287.478 32.4315 Q281.24 32.4315 277.472 35.9558 Q273.746 39.4801 273.178 45.8805 L299.752 45.84 Z" fill="#000000" fill-rule="nonzero" fill-opacity="1" /><path clip-path="url(#clip920)" d="M357.154 45.1919 L357.154 72.576 L349.7 72.576 L349.7 45.4349 Q349.7 38.994 347.188 35.7938 Q344.677 32.5936 339.654 32.5936 Q333.618 32.5936 330.134 36.4419 Q326.65 40.2903 326.65 46.9338 L326.65 72.576 L319.156 72.576 L319.156 27.2059 L326.65 27.2059 L326.65 34.2544 Q329.324 30.163 332.929 28.1376 Q336.575 26.1121 341.315 26.1121 Q349.133 26.1121 353.143 30.9732 Q357.154 35.7938 357.154 45.1919 Z" fill="#000000" fill-rule="nonzero" fill-opacity="1" /><path clip-path="url(#clip920)" d="M379.393 14.324 L379.393 27.2059 L394.746 27.2059 L394.746 32.9987 L379.393 32.9987 L379.393 57.6282 Q379.393 63.1779 380.892 64.7578 Q382.431 66.3376 387.09 66.3376 L394.746 66.3376 L394.746 72.576 L387.09 72.576 Q378.461 72.576 375.18 69.3758 Q371.899 66.1351 371.899 57.6282 L371.899 32.9987 L366.43 32.9987 L366.43 27.2059 L371.899 27.2059 L371.899 14.324 L379.393 14.324 Z" fill="#000000" fill-rule="nonzero" fill-opacity="1" /><path clip-path="url(#clip920)" d="M404.549 27.2059 L412.003 27.2059 L412.003 72.576 L404.549 72.576 L404.549 27.2059 M404.549 9.54393 L412.003 9.54393 L412.003 18.9825 L404.549 18.9825 L404.549 9.54393 Z" fill="#000000" fill-rule="nonzero" fill-opacity="1" /><path clip-path="url(#clip920)" d="M448.218 49.7694 Q439.184 49.7694 435.701 51.8354 Q432.217 53.9013 432.217 58.8839 Q432.217 62.8538 434.809 65.2034 Q437.443 67.5124 441.939 67.5124 Q448.137 67.5124 451.864 63.1374 Q455.631 58.7219 455.631 51.4303 L455.631 49.7694 L448.218 49.7694 M463.085 46.6907 L463.085 72.576 L455.631 72.576 L455.631 65.6895 Q453.079 69.8214 449.271 71.8063 Q445.463 73.7508 439.954 73.7508 Q432.987 73.7508 428.855 69.8619 Q424.763 65.9325 424.763 59.3701 Q424.763 51.7138 429.867 47.825 Q435.012 43.9361 445.18 43.9361 L455.631 43.9361 L455.631 43.2069 Q455.631 38.0623 452.228 35.2672 Q448.866 32.4315 442.749 32.4315 Q438.86 32.4315 435.174 33.3632 Q431.488 34.295 428.085 36.1584 L428.085 29.2718 Q432.176 27.692 436.025 26.9223 Q439.873 26.1121 443.519 26.1121 Q453.363 26.1121 458.224 31.2163 Q463.085 36.3204 463.085 46.6907 Z" fill="#000000" fill-rule="nonzero" fill-opacity="1" /><path clip-path="url(#clip920)" d="M478.438 9.54393 L485.891 9.54393 L485.891 72.576 L478.438 72.576 L478.438 9.54393 Z" fill="#000000" fill-rule="nonzero" fill-opacity="1" /><path clip-path="url(#clip920)" d="M545.44 32.4315 Q539.444 32.4315 535.961 37.1306 Q532.477 41.7891 532.477 49.9314 Q532.477 58.0738 535.92 62.7728 Q539.404 67.4314 545.44 67.4314 Q551.394 67.4314 554.878 62.7323 Q558.362 58.0333 558.362 49.9314 Q558.362 41.8701 554.878 37.1711 Q551.394 32.4315 545.44 32.4315 M545.44 26.1121 Q555.162 26.1121 560.712 32.4315 Q566.261 38.7509 566.261 49.9314 Q566.261 61.0714 560.712 67.4314 Q555.162 73.7508 545.44 73.7508 Q535.677 73.7508 530.127 67.4314 Q524.618 61.0714 524.618 49.9314 Q524.618 38.7509 530.127 32.4315 Q535.677 26.1121 545.44 26.1121 Z" fill="#000000" fill-rule="nonzero" fill-opacity="1" /><path clip-path="url(#clip920)" d="M601.585 9.54393 L601.585 15.7418 L594.456 15.7418 Q590.445 15.7418 588.865 17.3622 Q587.326 18.9825 587.326 23.1955 L587.326 27.2059 L599.6 27.2059 L599.6 32.9987 L587.326 32.9987 L587.326 72.576 L579.832 72.576 L579.832 32.9987 L572.702 32.9987 L572.702 27.2059 L579.832 27.2059 L579.832 24.0462 Q579.832 16.471 583.356 13.0277 Q586.88 9.54393 594.537 9.54393 L601.585 9.54393 Z" fill="#000000" fill-rule="nonzero" fill-opacity="1" /><path clip-path="url(#clip920)" d="M664.05 34.0924 L664.05 9.54393 L671.504 9.54393 L671.504 72.576 L664.05 72.576 L664.05 65.7705 Q661.701 69.8214 658.095 71.8063 Q654.531 73.7508 649.507 73.7508 Q641.284 73.7508 636.099 67.1883 Q630.954 60.6258 630.954 49.9314 Q630.954 39.2371 636.099 32.6746 Q641.284 26.1121 649.507 26.1121 Q654.531 26.1121 658.095 28.0971 Q661.701 30.0415 664.05 34.0924 M638.651 49.9314 Q638.651 58.1548 642.013 62.8538 Q645.416 67.5124 651.33 67.5124 Q657.245 67.5124 660.647 62.8538 Q664.05 58.1548 664.05 49.9314 Q664.05 41.7081 660.647 37.0496 Q657.245 32.3505 651.33 32.3505 Q645.416 32.3505 642.013 37.0496 Q638.651 41.7081 638.651 49.9314 Z" fill="#000000" fill-rule="nonzero" fill-opacity="1" /><path clip-path="url(#clip920)" d="M686.857 27.2059 L694.31 27.2059 L694.31 72.576 L686.857 72.576 L686.857 27.2059 M686.857 9.54393 L694.31 9.54393 L694.31 18.9825 L686.857 18.9825 L686.857 9.54393 Z" fill="#000000" fill-rule="nonzero" fill-opacity="1" /><path clip-path="url(#clip920)" d="M717.117 65.7705 L717.117 89.8329 L709.623 89.8329 L709.623 27.2059 L717.117 27.2059 L717.117 34.0924 Q719.467 30.0415 723.031 28.0971 Q726.637 26.1121 731.619 26.1121 Q739.883 26.1121 745.028 32.6746 Q750.213 39.2371 750.213 49.9314 Q750.213 60.6258 745.028 67.1883 Q739.883 73.7508 731.619 73.7508 Q726.637 73.7508 723.031 71.8063 Q719.467 69.8214 717.117 65.7705 M742.476 49.9314 Q742.476 41.7081 739.073 37.0496 Q735.711 32.3505 729.796 32.3505 Q723.882 32.3505 720.479 37.0496 Q717.117 41.7081 717.117 49.9314 Q717.117 58.1548 720.479 62.8538 Q723.882 67.5124 729.796 67.5124 Q735.711 67.5124 739.073 62.8538 Q742.476 58.1548 742.476 49.9314 Z" fill="#000000" fill-rule="nonzero" fill-opacity="1" /><path clip-path="url(#clip920)" d="M780.149 32.4315 Q774.154 32.4315 770.67 37.1306 Q767.186 41.7891 767.186 49.9314 Q767.186 58.0738 770.629 62.7728 Q774.113 67.4314 780.149 67.4314 Q786.104 67.4314 789.588 62.7323 Q793.071 58.0333 793.071 49.9314 Q793.071 41.8701 789.588 37.1711 Q786.104 32.4315 780.149 32.4315 M780.149 26.1121 Q789.871 26.1121 795.421 32.4315 Q800.971 38.7509 800.971 49.9314 Q800.971 61.0714 795.421 67.4314 Q789.871 73.7508 780.149 73.7508 Q770.386 73.7508 764.837 67.4314 Q759.327 61.0714 759.327 49.9314 Q759.327 38.7509 764.837 32.4315 Q770.386 26.1121 780.149 26.1121 Z" fill="#000000" fill-rule="nonzero" fill-opacity="1" /><path clip-path="url(#clip920)" d="M813.326 9.54393 L820.78 9.54393 L820.78 72.576 L813.326 72.576 L813.326 9.54393 Z" fill="#000000" fill-rule="nonzero" fill-opacity="1" /><path clip-path="url(#clip920)" d="M875.183 48.0275 L875.183 51.6733 L840.913 51.6733 Q841.399 59.3701 845.531 63.421 Q849.703 67.4314 857.116 67.4314 Q861.41 67.4314 865.421 66.3781 Q869.471 65.3249 873.441 63.2184 L873.441 70.267 Q869.431 71.9684 865.218 72.8596 Q861.005 73.7508 856.671 73.7508 Q845.814 73.7508 839.454 67.4314 Q833.135 61.1119 833.135 50.3365 Q833.135 39.1965 839.13 32.6746 Q845.166 26.1121 855.374 26.1121 Q864.529 26.1121 869.836 32.0264 Q875.183 37.9003 875.183 48.0275 M867.73 45.84 Q867.649 39.7232 864.286 36.0774 Q860.965 32.4315 855.455 32.4315 Q849.217 32.4315 845.45 35.9558 Q841.723 39.4801 841.156 45.8805 L867.73 45.84 Z" fill="#000000" fill-rule="nonzero" fill-opacity="1" /><path clip-path="url(#clip920)" d="M913.788 27.2059 L921.242 27.2059 L921.242 72.576 L913.788 72.576 L913.788 27.2059 M913.788 9.54393 L921.242 9.54393 L921.242 18.9825 L913.788 18.9825 L913.788 9.54393 Z" fill="#000000" fill-rule="nonzero" fill-opacity="1" /><path clip-path="url(#clip920)" d="M974.552 45.1919 L974.552 72.576 L967.098 72.576 L967.098 45.4349 Q967.098 38.994 964.587 35.7938 Q962.075 32.5936 957.052 32.5936 Q951.016 32.5936 947.532 36.4419 Q944.049 40.2903 944.049 46.9338 L944.049 72.576 L936.554 72.576 L936.554 27.2059 L944.049 27.2059 L944.049 34.2544 Q946.722 30.163 950.328 28.1376 Q953.973 26.1121 958.713 26.1121 Q966.531 26.1121 970.542 30.9732 Q974.552 35.7938 974.552 45.1919 Z" fill="#000000" fill-rule="nonzero" fill-opacity="1" /><path clip-path="url(#clip920)" d="M1054.6 48.0275 L1054.6 51.6733 L1020.33 51.6733 Q1020.81 59.3701 1024.95 63.421 Q1029.12 67.4314 1036.53 67.4314 Q1040.82 67.4314 1044.84 66.3781 Q1048.89 65.3249 1052.86 63.2184 L1052.86 70.267 Q1048.85 71.9684 1044.63 72.8596 Q1040.42 73.7508 1036.09 73.7508 Q1025.23 73.7508 1018.87 67.4314 Q1012.55 61.1119 1012.55 50.3365 Q1012.55 39.1965 1018.54 32.6746 Q1024.58 26.1121 1034.79 26.1121 Q1043.94 26.1121 1049.25 32.0264 Q1054.6 37.9003 1054.6 48.0275 M1047.14 45.84 Q1047.06 39.7232 1043.7 36.0774 Q1040.38 32.4315 1034.87 32.4315 Q1028.63 32.4315 1024.86 35.9558 Q1021.14 39.4801 1020.57 45.8805 L1047.14 45.84 Z" fill="#000000" fill-rule="nonzero" fill-opacity="1" /><path clip-path="url(#clip920)" d="M1087.45 49.7694 Q1078.42 49.7694 1074.93 51.8354 Q1071.45 53.9013 1071.45 58.8839 Q1071.45 62.8538 1074.04 65.2034 Q1076.68 67.5124 1081.17 67.5124 Q1087.37 67.5124 1091.1 63.1374 Q1094.86 58.7219 1094.86 51.4303 L1094.86 49.7694 L1087.45 49.7694 M1102.32 46.6907 L1102.32 72.576 L1094.86 72.576 L1094.86 65.6895 Q1092.31 69.8214 1088.5 71.8063 Q1084.7 73.7508 1079.19 73.7508 Q1072.22 73.7508 1068.09 69.8619 Q1064 65.9325 1064 59.3701 Q1064 51.7138 1069.1 47.825 Q1074.24 43.9361 1084.41 43.9361 L1094.86 43.9361 L1094.86 43.2069 Q1094.86 38.0623 1091.46 35.2672 Q1088.1 32.4315 1081.98 32.4315 Q1078.09 32.4315 1074.41 33.3632 Q1070.72 34.295 1067.32 36.1584 L1067.32 29.2718 Q1071.41 27.692 1075.26 26.9223 Q1079.11 26.1121 1082.75 26.1121 Q1092.6 26.1121 1097.46 31.2163 Q1102.32 36.3204 1102.32 46.6907 Z" fill="#000000" fill-rule="nonzero" fill-opacity="1" /><path clip-path="url(#clip920)" d="M1143.96 34.1734 Q1142.7 33.4443 1141.21 33.1202 Q1139.75 32.7556 1137.97 32.7556 Q1131.65 32.7556 1128.24 36.8875 Q1124.88 40.9789 1124.88 48.6757 L1124.88 72.576 L1117.39 72.576 L1117.39 27.2059 L1124.88 27.2059 L1124.88 34.2544 Q1127.23 30.1225 1131 28.1376 Q1134.77 26.1121 1140.15 26.1121 Q1140.92 26.1121 1141.85 26.2337 Q1142.79 26.3147 1143.92 26.5172 L1143.96 34.1734 Z" fill="#000000" fill-rule="nonzero" fill-opacity="1" /><path clip-path="url(#clip920)" d="M1159.15 14.324 L1159.15 27.2059 L1174.5 27.2059 L1174.5 32.9987 L1159.15 32.9987 L1159.15 57.6282 Q1159.15 63.1779 1160.65 64.7578 Q1162.19 66.3376 1166.85 66.3376 L1174.5 66.3376 L1174.5 72.576 L1166.85 72.576 Q1158.22 72.576 1154.94 69.3758 Q1151.66 66.1351 1151.66 57.6282 L1151.66 32.9987 L1146.19 32.9987 L1146.19 27.2059 L1151.66 27.2059 L1151.66 14.324 L1159.15 14.324 Z" fill="#000000" fill-rule="nonzero" fill-opacity="1" /><path clip-path="url(#clip920)" d="M1222.02 45.1919 L1222.02 72.576 L1214.57 72.576 L1214.57 45.4349 Q1214.57 38.994 1212.06 35.7938 Q1209.54 32.5936 1204.52 32.5936 Q1198.49 32.5936 1195 36.4419 Q1191.52 40.2903 1191.52 46.9338 L1191.52 72.576 L1184.02 72.576 L1184.02 9.54393 L1191.52 9.54393 L1191.52 34.2544 Q1194.19 30.163 1197.8 28.1376 Q1201.44 26.1121 1206.18 26.1121 Q1214 26.1121 1218.01 30.9732 Q1222.02 35.7938 1222.02 45.1919 Z" fill="#000000" fill-rule="nonzero" fill-opacity="1" /><path clip-path="url(#clip920)" d="M1275.7 48.0275 L1275.7 51.6733 L1241.43 51.6733 Q1241.91 59.3701 1246.04 63.421 Q1250.22 67.4314 1257.63 67.4314 Q1261.92 67.4314 1265.93 66.3781 Q1269.98 65.3249 1273.95 63.2184 L1273.95 70.267 Q1269.94 71.9684 1265.73 72.8596 Q1261.52 73.7508 1257.18 73.7508 Q1246.33 73.7508 1239.97 67.4314 Q1233.65 61.1119 1233.65 50.3365 Q1233.65 39.1965 1239.64 32.6746 Q1245.68 26.1121 1255.89 26.1121 Q1265.04 26.1121 1270.35 32.0264 Q1275.7 37.9003 1275.7 48.0275 M1268.24 45.84 Q1268.16 39.7232 1264.8 36.0774 Q1261.48 32.4315 1255.97 32.4315 Q1249.73 32.4315 1245.96 35.9558 Q1242.24 39.4801 1241.67 45.8805 L1268.24 45.84 Z" fill="#000000" fill-rule="nonzero" fill-opacity="1" /><path clip-path="url(#clip920)" d="M1317.79 34.0924 L1317.79 9.54393 L1325.24 9.54393 L1325.24 72.576 L1317.79 72.576 L1317.79 65.7705 Q1315.44 69.8214 1311.83 71.8063 Q1308.27 73.7508 1303.24 73.7508 Q1295.02 73.7508 1289.83 67.1883 Q1284.69 60.6258 1284.69 49.9314 Q1284.69 39.2371 1289.83 32.6746 Q1295.02 26.1121 1303.24 26.1121 Q1308.27 26.1121 1311.83 28.0971 Q1315.44 30.0415 1317.79 34.0924 M1292.39 49.9314 Q1292.39 58.1548 1295.75 62.8538 Q1299.15 67.5124 1305.07 67.5124 Q1310.98 67.5124 1314.38 62.8538 Q1317.79 58.1548 1317.79 49.9314 Q1317.79 41.7081 1314.38 37.0496 Q1310.98 32.3505 1305.07 32.3505 Q1299.15 32.3505 1295.75 37.0496 Q1292.39 41.7081 1292.39 49.9314 Z" fill="#000000" fill-rule="nonzero" fill-opacity="1" /><path clip-path="url(#clip920)" d="M1399.61 28.9478 L1399.61 35.9153 Q1396.45 34.1734 1393.25 33.3227 Q1390.09 32.4315 1386.85 32.4315 Q1379.6 32.4315 1375.59 37.0496 Q1371.58 41.6271 1371.58 49.9314 Q1371.58 58.2358 1375.59 62.8538 Q1379.6 67.4314 1386.85 67.4314 Q1390.09 67.4314 1393.25 66.5807 Q1396.45 65.6895 1399.61 63.9476 L1399.61 70.8341 Q1396.49 72.2924 1393.13 73.0216 Q1389.81 73.7508 1386.04 73.7508 Q1375.79 73.7508 1369.76 67.3098 Q1363.72 60.8689 1363.72 49.9314 Q1363.72 38.832 1369.8 32.472 Q1375.92 26.1121 1386.53 26.1121 Q1389.97 26.1121 1393.25 26.8413 Q1396.53 27.5299 1399.61 28.9478 Z" fill="#000000" fill-rule="nonzero" fill-opacity="1" /><path clip-path="url(#clip920)" d="M1430.16 32.4315 Q1424.16 32.4315 1420.68 37.1306 Q1417.19 41.7891 1417.19 49.9314 Q1417.19 58.0738 1420.64 62.7728 Q1424.12 67.4314 1430.16 67.4314 Q1436.11 67.4314 1439.6 62.7323 Q1443.08 58.0333 1443.08 49.9314 Q1443.08 41.8701 1439.6 37.1711 Q1436.11 32.4315 1430.16 32.4315 M1430.16 26.1121 Q1439.88 26.1121 1445.43 32.4315 Q1450.98 38.7509 1450.98 49.9314 Q1450.98 61.0714 1445.43 67.4314 Q1439.88 73.7508 1430.16 73.7508 Q1420.39 73.7508 1414.84 67.4314 Q1409.34 61.0714 1409.34 49.9314 Q1409.34 38.7509 1414.84 32.4315 Q1420.39 26.1121 1430.16 26.1121 Z" fill="#000000" fill-rule="nonzero" fill-opacity="1" /><path clip-path="url(#clip920)" d="M1501.05 45.1919 L1501.05 72.576 L1493.59 72.576 L1493.59 45.4349 Q1493.59 38.994 1491.08 35.7938 Q1488.57 32.5936 1483.55 32.5936 Q1477.51 32.5936 1474.03 36.4419 Q1470.54 40.2903 1470.54 46.9338 L1470.54 72.576 L1463.05 72.576 L1463.05 27.2059 L1470.54 27.2059 L1470.54 34.2544 Q1473.22 30.163 1476.82 28.1376 Q1480.47 26.1121 1485.21 26.1121 Q1493.03 26.1121 1497.04 30.9732 Q1501.05 35.7938 1501.05 45.1919 Z" fill="#000000" fill-rule="nonzero" fill-opacity="1" /><path clip-path="url(#clip920)" d="M1523.29 14.324 L1523.29 27.2059 L1538.64 27.2059 L1538.64 32.9987 L1523.29 32.9987 L1523.29 57.6282 Q1523.29 63.1779 1524.79 64.7578 Q1526.33 66.3376 1530.98 66.3376 L1538.64 66.3376 L1538.64 72.576 L1530.98 72.576 Q1522.36 72.576 1519.07 69.3758 Q1515.79 66.1351 1515.79 57.6282 L1515.79 32.9987 L1510.32 32.9987 L1510.32 27.2059 L1515.79 27.2059 L1515.79 14.324 L1523.29 14.324 Z" fill="#000000" fill-rule="nonzero" fill-opacity="1" /><path clip-path="url(#clip920)" d="M1569.06 49.7694 Q1560.03 49.7694 1556.55 51.8354 Q1553.06 53.9013 1553.06 58.8839 Q1553.06 62.8538 1555.65 65.2034 Q1558.29 67.5124 1562.78 67.5124 Q1568.98 67.5124 1572.71 63.1374 Q1576.48 58.7219 1576.48 51.4303 L1576.48 49.7694 L1569.06 49.7694 M1583.93 46.6907 L1583.93 72.576 L1576.48 72.576 L1576.48 65.6895 Q1573.92 69.8214 1570.12 71.8063 Q1566.31 73.7508 1560.8 73.7508 Q1553.83 73.7508 1549.7 69.8619 Q1545.61 65.9325 1545.61 59.3701 Q1545.61 51.7138 1550.71 47.825 Q1555.86 43.9361 1566.02 43.9361 L1576.48 43.9361 L1576.48 43.2069 Q1576.48 38.0623 1573.07 35.2672 Q1569.71 32.4315 1563.59 32.4315 Q1559.71 32.4315 1556.02 33.3632 Q1552.33 34.295 1548.93 36.1584 L1548.93 29.2718 Q1553.02 27.692 1556.87 26.9223 Q1560.72 26.1121 1564.36 26.1121 Q1574.21 26.1121 1579.07 31.2163 Q1583.93 36.3204 1583.93 46.6907 Z" fill="#000000" fill-rule="nonzero" fill-opacity="1" /><path clip-path="url(#clip920)" d="M1599.28 27.2059 L1606.74 27.2059 L1606.74 72.576 L1599.28 72.576 L1599.28 27.2059 M1599.28 9.54393 L1606.74 9.54393 L1606.74 18.9825 L1599.28 18.9825 L1599.28 9.54393 Z" fill="#000000" fill-rule="nonzero" fill-opacity="1" /><path clip-path="url(#clip920)" d="M1660.05 45.1919 L1660.05 72.576 L1652.59 72.576 L1652.59 45.4349 Q1652.59 38.994 1650.08 35.7938 Q1647.57 32.5936 1642.55 32.5936 Q1636.51 32.5936 1633.03 36.4419 Q1629.54 40.2903 1629.54 46.9338 L1629.54 72.576 L1622.05 72.576 L1622.05 27.2059 L1629.54 27.2059 L1629.54 34.2544 Q1632.22 30.163 1635.82 28.1376 Q1639.47 26.1121 1644.21 26.1121 Q1652.03 26.1121 1656.04 30.9732 Q1660.05 35.7938 1660.05 45.1919 Z" fill="#000000" fill-rule="nonzero" fill-opacity="1" /><path clip-path="url(#clip920)" d="M1713.72 48.0275 L1713.72 51.6733 L1679.45 51.6733 Q1679.94 59.3701 1684.07 63.421 Q1688.24 67.4314 1695.65 67.4314 Q1699.95 67.4314 1703.96 66.3781 Q1708.01 65.3249 1711.98 63.2184 L1711.98 70.267 Q1707.97 71.9684 1703.76 72.8596 Q1699.54 73.7508 1695.21 73.7508 Q1684.35 73.7508 1677.99 67.4314 Q1671.67 61.1119 1671.67 50.3365 Q1671.67 39.1965 1677.67 32.6746 Q1683.7 26.1121 1693.91 26.1121 Q1703.07 26.1121 1708.37 32.0264 Q1713.72 37.9003 1713.72 48.0275 M1706.27 45.84 Q1706.19 39.7232 1702.82 36.0774 Q1699.5 32.4315 1693.99 32.4315 Q1687.75 32.4315 1683.99 35.9558 Q1680.26 39.4801 1679.69 45.8805 L1706.27 45.84 Z" fill="#000000" fill-rule="nonzero" fill-opacity="1" /><path clip-path="url(#clip920)" d="M1752.24 34.1734 Q1750.99 33.4443 1749.49 33.1202 Q1748.03 32.7556 1746.25 32.7556 Q1739.93 32.7556 1736.53 36.8875 Q1733.16 40.9789 1733.16 48.6757 L1733.16 72.576 L1725.67 72.576 L1725.67 27.2059 L1733.16 27.2059 L1733.16 34.2544 Q1735.51 30.1225 1739.28 28.1376 Q1743.05 26.1121 1748.44 26.1121 Q1749.21 26.1121 1750.14 26.2337 Q1751.07 26.3147 1752.2 26.5172 L1752.24 34.1734 Z" fill="#000000" fill-rule="nonzero" fill-opacity="1" /><polyline clip-path="url(#clip922)" style="stroke:#bf3951; stroke-linecap:round; stroke-linejoin:round; stroke-width:4; stroke-opacity:1; fill:none" points="592.73,1380.39 613.4,1386.39 652.448,1390.96 691.495,1388.47 721.606,1380.39 730.543,1378.5 769.59,1361.84 796.455,1341.34 808.638,1333.72 837.096,1302.3 847.685,1292.25 864.865,1263.25 886.733,1224.43 886.804,1224.2 900.801,1185.15 911.16,1146.11 918.211,1107.06 922.42,1068.01 924.521,1028.96 922.42,989.916 918.21,950.869 911.156,911.821 900.796,872.773 886.807,833.726 886.733,833.491 864.912,794.678 847.685,765.521 837.307,755.631 808.638,723.794 797.22,716.583 769.59,695.271 730.543,678.353 726.789,677.536 691.495,667.789 652.448,665.001 613.4,669.308 585.217,677.536 574.352,680.667 535.305,699.298 510.883,716.583 496.257,728.04 469.185,755.631 457.21,770.201 440.142,794.678 418.972,833.726 418.162,835.595 403.007,872.773 391.573,911.821 383.948,950.869 379.601,989.916 379.115,1003.53 378.146,1028.96 379.115,1052.8 379.695,1068.01 384.148,1107.06 391.906,1146.11 403.526,1185.15 418.162,1220.63 419.728,1224.2 441.291,1263.25 457.21,1285.79 470.952,1302.3 496.257,1327.76 513.818,1341.34 535.305,1356.35 574.352,1375.12 592.73,1380.39 "/>
<polyline clip-path="url(#clip922)" style="stroke:#cb4049; stroke-linecap:round; stroke-linejoin:round; stroke-width:4; stroke-opacity:1; fill:none" points="769.59,1190.88 738.033,1185.15 730.543,1183.71 691.495,1165.14 667.88,1146.11 652.448,1127.14 638.298,1107.06 623.328,1068.01 618.893,1028.96 623.279,989.916 638.184,950.869 652.448,930.59 667.691,911.821 691.495,892.619 730.543,874.094 737.426,872.773 769.59,866.95 808.638,871.322 811.289,872.773 847.685,884.771 876.677,911.821 886.733,917.024 903.062,950.869 915.697,989.916 922.002,1028.96 915.697,1068.01 903.063,1107.06 886.733,1140.9 876.673,1146.11 847.685,1173.14 811.191,1185.15 808.638,1186.55 769.59,1190.88 "/>
<polyline clip-path="url(#clip922)" style="stroke:#d64a3f; stroke-linecap:round; stroke-linejoin:round; stroke-width:4; stroke-opacity:1; fill:none" points="847.685,1128.98 808.638,1128.52 769.59,1112.17 762.222,1107.06 730.938,1068.01 730.543,1066.16 720.896,1028.96 730.543,991.699 730.922,989.916 762.18,950.869 769.59,945.731 808.638,929.387 847.685,928.938 886.733,948.42 887.914,950.869 908.974,989.916 919.483,1028.96 908.974,1068.01 887.914,1107.06 886.733,1109.51 847.685,1128.98 "/>
<polyline clip-path="url(#clip922)" style="stroke:#df5436; stroke-linecap:round; stroke-linejoin:round; stroke-width:4; stroke-opacity:1; fill:none" points="886.733,1095.91 847.685,1100.55 808.638,1086.89 786.488,1068.01 772.28,1028.96 786.481,989.916 808.638,971.035 847.685,957.373 886.733,962.014 902.251,989.916 916.964,1028.96 902.252,1068.01 886.733,1095.91 "/>
<polyline clip-path="url(#clip922)" style="stroke:#e75f2c; stroke-linecap:round; stroke-linejoin:round; stroke-width:4; stroke-opacity:1; fill:none" points="886.733,1083.83 847.685,1080.89 825.531,1068.01 808.638,1042.42 801.074,1028.96 808.638,1015.51 825.528,989.916 847.685,977.033 886.733,974.101 895.529,989.916 914.444,1028.96 895.529,1068.01 886.733,1083.83 "/>
<polyline clip-path="url(#clip922)" style="stroke:#ee6c22; stroke-linecap:round; stroke-linejoin:round; stroke-width:4; stroke-opacity:1; fill:none" points="886.733,1071.74 868.298,1068.01 847.685,1062.6 818.632,1028.96 847.685,995.326 868.296,989.916 886.733,986.189 888.806,989.916 911.925,1028.96 888.806,1068.01 886.733,1071.74 "/>
<polyline clip-path="url(#clip922)" style="stroke:#992864; stroke-linecap:round; stroke-linejoin:round; stroke-width:4; stroke-opacity:1; fill:none" points="963.655,1107.06 964.828,1109.49 1003.88,1128.96 1042.92,1128.52 1081.97,1112.23 1089.46,1107.06 1120.77,1068.01 1121.02,1066.86 1130.88,1028.96 1121.02,990.961 1120.8,989.916 1089.53,950.869 1081.97,945.645 1042.92,929.374 1003.88,928.946 964.828,948.43 963.651,950.869 942.588,989.916 932.079,1028.96 942.588,1068.01 963.655,1107.06 "/>
<polyline clip-path="url(#clip922)" style="stroke:#a72d5f; stroke-linecap:round; stroke-linejoin:round; stroke-width:4; stroke-opacity:1; fill:none" points="948.507,1107.06 964.828,1140.87 974.953,1146.11 1003.88,1173.06 1040.57,1185.15 1042.92,1186.44 1081.97,1190.82 1113.68,1185.15 1121.02,1183.77 1160.07,1165.46 1184.33,1146.11 1199.11,1128.14 1214.15,1107.06 1229.15,1068.01 1233.6,1028.96 1229.22,989.916 1214.31,950.869 1199.11,929.498 1184.61,911.821 1160.07,892.226 1121.02,873.978 1114.64,872.773 1081.97,866.955 1042.92,871.381 1040.38,872.773 1003.88,884.821 974.924,911.821 964.828,917.045 948.504,950.869 935.865,989.916 929.56,1028.96 935.866,1068.01 948.507,1107.06 "/>
<polyline clip-path="url(#clip922)" style="stroke:#b43358; stroke-linecap:round; stroke-linejoin:round; stroke-width:4; stroke-opacity:1; fill:none" points="933.36,1107.06 940.437,1146.11 950.86,1185.15 964.828,1223.92 965.038,1224.2 987.248,1263.25 1003.88,1291.12 1015.73,1302.3 1042.92,1332.08 1057.8,1341.34 1081.97,1359.62 1121.02,1376.3 1140.02,1380.39 1160.07,1385.82 1199.11,1388.52 1238.16,1384.37 1253.01,1380.39 1277.21,1373.98 1316.26,1356.4 1339.32,1341.34 1355.3,1329.83 1384.62,1302.3 1394.35,1291.46 1415.85,1263.25 1433.4,1233.78 1438.59,1224.2 1455.62,1185.15 1467.7,1146.11 1472.45,1123.59 1475.98,1107.06 1480.98,1068.01 1482.66,1028.96 1481.13,989.916 1476.29,950.869 1472.45,932.496 1468.18,911.821 1456.36,872.773 1439.69,833.726 1433.4,821.928 1417.43,794.678 1394.35,763.929 1387.02,755.631 1355.3,725.396 1343.25,716.583 1316.26,698.696 1277.21,681.291 1263.11,677.536 1238.16,670.811 1199.11,666.95 1160.07,669.968 1132.94,677.536 1121.02,680.175 1081.97,697.117 1056.54,716.583 1042.92,725.147 1015.27,755.631 1003.88,766.438 987.083,794.678 964.961,833.726 964.828,833.905 950.836,872.773 940.429,911.821 933.357,950.869 929.142,989.916 927.04,1028.96 929.143,1068.01 933.36,1107.06 "/>
<polyline clip-path="url(#clip922)" style="stroke:#731a6d; stroke-linecap:round; stroke-linejoin:round; stroke-width:4; stroke-opacity:1; fill:none" points="964.828,1071.74 962.756,1068.01 939.636,1028.96 962.756,989.916 964.828,986.19 983.272,989.916 1003.88,995.321 1032.94,1028.96 1003.88,1062.6 983.262,1068.01 964.828,1071.74 "/>
<polyline clip-path="url(#clip922)" style="stroke:#801f6b; stroke-linecap:round; stroke-linejoin:round; stroke-width:4; stroke-opacity:1; fill:none" points="964.828,1083.82 956.034,1068.01 937.117,1028.96 956.033,989.916 964.828,974.103 1003.88,977.029 1026.05,989.916 1042.92,1015.46 1050.52,1028.96 1042.92,1042.46 1026.04,1068.01 1003.88,1080.89 964.828,1083.82 "/>
<polyline clip-path="url(#clip922)" style="stroke:#8d2369; stroke-linecap:round; stroke-linejoin:round; stroke-width:4; stroke-opacity:1; fill:none" points="964.828,1095.91 949.311,1068.01 934.598,1028.96 949.31,989.916 964.828,962.016 1003.88,957.372 1042.92,971.009 1065.13,989.916 1079.33,1028.96 1065.12,1068.01 1042.92,1086.9 1003.88,1100.55 964.828,1095.91 "/>
<polyline clip-path="url(#clip922)" style="stroke:#58106d; stroke-linecap:round; stroke-linejoin:round; stroke-width:4; stroke-opacity:1; fill:none" points="1003.88,1031.22 964.828,1061.2 944.675,1028.96 964.828,996.732 1003.88,1026.71 1005.82,1028.96 1003.88,1031.22 "/>
<polyline clip-path="url(#clip922)" style="stroke:#66156e; stroke-linecap:round; stroke-linejoin:round; stroke-width:4; stroke-opacity:1; fill:none" points="1003.88,1046.91 964.828,1065.22 942.156,1028.96 964.828,992.703 1003.88,1011.02 1019.38,1028.96 1003.88,1046.91 "/>
<polyline clip-path="url(#clip922)" style="stroke:#030212; stroke-linecap:round; stroke-linejoin:round; stroke-width:4; stroke-opacity:1; fill:none" points="969.798,1028.96 964.828,1032.99 962.309,1028.96 964.828,1024.93 969.798,1028.96 "/>
<polyline clip-path="url(#clip922)" style="stroke:#0a0723; stroke-linecap:round; stroke-linejoin:round; stroke-width:4; stroke-opacity:1; fill:none" points="974.769,1028.96 964.828,1037.02 959.79,1028.96 964.828,1020.91 974.769,1028.96 "/>
<polyline clip-path="url(#clip922)" style="stroke:#140b36; stroke-linecap:round; stroke-linejoin:round; stroke-width:4; stroke-opacity:1; fill:none" points="979.739,1028.96 964.828,1041.05 957.271,1028.96 964.828,1016.88 979.739,1028.96 "/>
<polyline clip-path="url(#clip922)" style="stroke:#200c4a; stroke-linecap:round; stroke-linejoin:round; stroke-width:4; stroke-opacity:1; fill:none" points="984.709,1028.96 964.828,1045.08 954.751,1028.96 964.828,1012.85 984.709,1028.96 "/>
<polyline clip-path="url(#clip922)" style="stroke:#300a5c; stroke-linecap:round; stroke-linejoin:round; stroke-width:4; stroke-opacity:1; fill:none" points="989.679,1028.96 964.828,1049.11 952.232,1028.96 964.828,1008.82 989.679,1028.96 "/>
<polyline clip-path="url(#clip922)" style="stroke:#3e0966; stroke-linecap:round; stroke-linejoin:round; stroke-width:4; stroke-opacity:1; fill:none" points="994.649,1028.96 964.828,1053.14 949.713,1028.96 964.828,1004.79 994.649,1028.96 "/>
<polyline clip-path="url(#clip922)" style="stroke:#4b0c6b; stroke-linecap:round; stroke-linejoin:round; stroke-width:4; stroke-opacity:1; fill:none" points="999.619,1028.96 964.828,1057.17 947.194,1028.96 964.828,1000.76 999.619,1028.96 "/>
<polyline clip-path="url(#clip922)" style="stroke:#f37918; stroke-linecap:round; stroke-linejoin:round; stroke-width:4; stroke-opacity:1; fill:none" points="909.406,1028.96 886.733,1065.22 847.685,1046.91 832.188,1028.96 847.685,1011.02 886.733,992.703 909.406,1028.96 "/>
<polyline clip-path="url(#clip922)" style="stroke:#f8880c; stroke-linecap:round; stroke-linejoin:round; stroke-width:4; stroke-opacity:1; fill:none" points="906.887,1028.96 886.733,1061.2 847.685,1031.21 845.743,1028.96 847.685,1026.71 886.733,996.732 906.887,1028.96 "/>
<polyline clip-path="url(#clip922)" style="stroke:#fa9706; stroke-linecap:round; stroke-linejoin:round; stroke-width:4; stroke-opacity:1; fill:none" points="904.368,1028.96 886.733,1057.17 851.943,1028.96 886.733,1000.76 904.368,1028.96 "/>
<polyline clip-path="url(#clip922)" style="stroke:#fba60b; stroke-linecap:round; stroke-linejoin:round; stroke-width:4; stroke-opacity:1; fill:none" points="901.848,1028.96 886.733,1053.14 856.913,1028.96 886.733,1004.79 901.848,1028.96 "/>
<polyline clip-path="url(#clip922)" style="stroke:#fbb51a; stroke-linecap:round; stroke-linejoin:round; stroke-width:4; stroke-opacity:1; fill:none" points="899.329,1028.96 886.733,1049.11 861.883,1028.96 886.733,1008.82 899.329,1028.96 "/>
<polyline clip-path="url(#clip922)" style="stroke:#f9c72f; stroke-linecap:round; stroke-linejoin:round; stroke-width:4; stroke-opacity:1; fill:none" points="896.81,1028.96 886.733,1045.08 866.853,1028.96 886.733,1012.85 896.81,1028.96 "/>
<polyline clip-path="url(#clip922)" style="stroke:#f5d745; stroke-linecap:round; stroke-linejoin:round; stroke-width:4; stroke-opacity:1; fill:none" points="894.291,1028.96 886.733,1041.05 871.823,1028.96 886.733,1016.88 894.291,1028.96 "/>
<polyline clip-path="url(#clip922)" style="stroke:#f2e660; stroke-linecap:round; stroke-linejoin:round; stroke-width:4; stroke-opacity:1; fill:none" points="891.771,1028.96 886.733,1037.02 876.793,1028.96 886.733,1020.91 891.771,1028.96 "/>
<polyline clip-path="url(#clip922)" style="stroke:#f2f381; stroke-linecap:round; stroke-linejoin:round; stroke-width:4; stroke-opacity:1; fill:none" points="889.252,1028.96 886.733,1032.99 881.763,1028.96 886.733,1024.93 889.252,1028.96 "/>
<defs>
  <clipPath id="clip923">
    <rect x="1792" y="248" width="61" height="1524"/>
  </clipPath>
</defs>
<polyline clip-path="url(#clip923)" style="stroke:#030212; stroke-linecap:round; stroke-linejoin:round; stroke-width:4; stroke-opacity:1; fill:none" points="1792.76,1721.74 1852.76,1721.74 "/>
<polyline clip-path="url(#clip923)" style="stroke:#0a0723; stroke-linecap:round; stroke-linejoin:round; stroke-width:4; stroke-opacity:1; fill:none" points="1792.76,1672.62 1852.76,1672.62 "/>
<polyline clip-path="url(#clip923)" style="stroke:#160b39; stroke-linecap:round; stroke-linejoin:round; stroke-width:4; stroke-opacity:1; fill:none" points="1792.76,1623.49 1852.76,1623.49 "/>
<polyline clip-path="url(#clip923)" style="stroke:#220b4c; stroke-linecap:round; stroke-linejoin:round; stroke-width:4; stroke-opacity:1; fill:none" points="1792.76,1574.37 1852.76,1574.37 "/>
<polyline clip-path="url(#clip923)" style="stroke:#300a5c; stroke-linecap:round; stroke-linejoin:round; stroke-width:4; stroke-opacity:1; fill:none" points="1792.76,1525.25 1852.76,1525.25 "/>
<polyline clip-path="url(#clip923)" style="stroke:#3e0966; stroke-linecap:round; stroke-linejoin:round; stroke-width:4; stroke-opacity:1; fill:none" points="1792.76,1476.12 1852.76,1476.12 "/>
<polyline clip-path="url(#clip923)" style="stroke:#4d0c6b; stroke-linecap:round; stroke-linejoin:round; stroke-width:4; stroke-opacity:1; fill:none" points="1792.76,1427 1852.76,1427 "/>
<polyline clip-path="url(#clip923)" style="stroke:#5a116d; stroke-linecap:round; stroke-linejoin:round; stroke-width:4; stroke-opacity:1; fill:none" points="1792.76,1377.87 1852.76,1377.87 "/>
<polyline clip-path="url(#clip923)" style="stroke:#66156e; stroke-linecap:round; stroke-linejoin:round; stroke-width:4; stroke-opacity:1; fill:none" points="1792.76,1328.75 1852.76,1328.75 "/>
<polyline clip-path="url(#clip923)" style="stroke:#731a6d; stroke-linecap:round; stroke-linejoin:round; stroke-width:4; stroke-opacity:1; fill:none" points="1792.76,1279.62 1852.76,1279.62 "/>
<polyline clip-path="url(#clip923)" style="stroke:#801f6b; stroke-linecap:round; stroke-linejoin:round; stroke-width:4; stroke-opacity:1; fill:none" points="1792.76,1230.5 1852.76,1230.5 "/>
<polyline clip-path="url(#clip923)" style="stroke:#8e2468; stroke-linecap:round; stroke-linejoin:round; stroke-width:4; stroke-opacity:1; fill:none" points="1792.76,1181.38 1852.76,1181.38 "/>
<polyline clip-path="url(#clip923)" style="stroke:#9b2864; stroke-linecap:round; stroke-linejoin:round; stroke-width:4; stroke-opacity:1; fill:none" points="1792.76,1132.25 1852.76,1132.25 "/>
<polyline clip-path="url(#clip923)" style="stroke:#a72d5f; stroke-linecap:round; stroke-linejoin:round; stroke-width:4; stroke-opacity:1; fill:none" points="1792.76,1083.13 1852.76,1083.13 "/>
<polyline clip-path="url(#clip923)" style="stroke:#b43358; stroke-linecap:round; stroke-linejoin:round; stroke-width:4; stroke-opacity:1; fill:none" points="1792.76,1034 1852.76,1034 "/>
<polyline clip-path="url(#clip923)" style="stroke:#c13a50; stroke-linecap:round; stroke-linejoin:round; stroke-width:4; stroke-opacity:1; fill:none" points="1792.76,984.878 1852.76,984.878 "/>
<polyline clip-path="url(#clip923)" style="stroke:#cc4148; stroke-linecap:round; stroke-linejoin:round; stroke-width:4; stroke-opacity:1; fill:none" points="1792.76,935.753 1852.76,935.753 "/>
<polyline clip-path="url(#clip923)" style="stroke:#d64a3f; stroke-linecap:round; stroke-linejoin:round; stroke-width:4; stroke-opacity:1; fill:none" points="1792.76,886.629 1852.76,886.629 "/>
<polyline clip-path="url(#clip923)" style="stroke:#df5436; stroke-linecap:round; stroke-linejoin:round; stroke-width:4; stroke-opacity:1; fill:none" points="1792.76,837.505 1852.76,837.505 "/>
<polyline clip-path="url(#clip923)" style="stroke:#e8612b; stroke-linecap:round; stroke-linejoin:round; stroke-width:4; stroke-opacity:1; fill:none" points="1792.76,788.38 1852.76,788.38 "/>
<polyline clip-path="url(#clip923)" style="stroke:#ef6d21; stroke-linecap:round; stroke-linejoin:round; stroke-width:4; stroke-opacity:1; fill:none" points="1792.76,739.256 1852.76,739.256 "/>
<polyline clip-path="url(#clip923)" style="stroke:#f47a16; stroke-linecap:round; stroke-linejoin:round; stroke-width:4; stroke-opacity:1; fill:none" points="1792.76,690.132 1852.76,690.132 "/>
<polyline clip-path="url(#clip923)" style="stroke:#f8880c; stroke-linecap:round; stroke-linejoin:round; stroke-width:4; stroke-opacity:1; fill:none" points="1792.76,641.007 1852.76,641.007 "/>
<polyline clip-path="url(#clip923)" style="stroke:#fa9706; stroke-linecap:round; stroke-linejoin:round; stroke-width:4; stroke-opacity:1; fill:none" points="1792.76,591.883 1852.76,591.883 "/>
<polyline clip-path="url(#clip923)" style="stroke:#fba80d; stroke-linecap:round; stroke-linejoin:round; stroke-width:4; stroke-opacity:1; fill:none" points="1792.76,542.758 1852.76,542.758 "/>
<polyline clip-path="url(#clip923)" style="stroke:#fbb71c; stroke-linecap:round; stroke-linejoin:round; stroke-width:4; stroke-opacity:1; fill:none" points="1792.76,493.634 1852.76,493.634 "/>
<polyline clip-path="url(#clip923)" style="stroke:#f9c72f; stroke-linecap:round; stroke-linejoin:round; stroke-width:4; stroke-opacity:1; fill:none" points="1792.76,444.51 1852.76,444.51 "/>
<polyline clip-path="url(#clip923)" style="stroke:#f5d745; stroke-linecap:round; stroke-linejoin:round; stroke-width:4; stroke-opacity:1; fill:none" points="1792.76,395.385 1852.76,395.385 "/>
<polyline clip-path="url(#clip923)" style="stroke:#f1e864; stroke-linecap:round; stroke-linejoin:round; stroke-width:4; stroke-opacity:1; fill:none" points="1792.76,346.261 1852.76,346.261 "/>
<polyline clip-path="url(#clip923)" style="stroke:#f2f485; stroke-linecap:round; stroke-linejoin:round; stroke-width:4; stroke-opacity:1; fill:none" points="1792.76,297.137 1852.76,297.137 "/>
<path clip-path="url(#clip920)" d="M1882.76 1635.38 L1912.43 1635.38 L1912.43 1639.31 L1882.76 1639.31 L1882.76 1635.38 Z" fill="#000000" fill-rule="nonzero" fill-opacity="1" /><path clip-path="url(#clip920)" d="M1936.69 1633.57 Q1940.05 1634.29 1941.92 1636.56 Q1943.82 1638.82 1943.82 1642.16 Q1943.82 1647.27 1940.3 1650.07 Q1936.78 1652.88 1930.3 1652.88 Q1928.13 1652.88 1925.81 1652.44 Q1923.52 1652.02 1921.07 1651.16 L1921.07 1646.65 Q1923.01 1647.78 1925.33 1648.36 Q1927.64 1648.94 1930.16 1648.94 Q1934.56 1648.94 1936.85 1647.2 Q1939.17 1645.47 1939.17 1642.16 Q1939.17 1639.1 1937.01 1637.39 Q1934.89 1635.65 1931.07 1635.65 L1927.04 1635.65 L1927.04 1631.81 L1931.25 1631.81 Q1934.7 1631.81 1936.53 1630.45 Q1938.36 1629.06 1938.36 1626.46 Q1938.36 1623.8 1936.46 1622.39 Q1934.58 1620.95 1931.07 1620.95 Q1929.14 1620.95 1926.95 1621.37 Q1924.75 1621.79 1922.11 1622.67 L1922.11 1618.5 Q1924.77 1617.76 1927.08 1617.39 Q1929.42 1617.02 1931.48 1617.02 Q1936.81 1617.02 1939.91 1619.45 Q1943.01 1621.86 1943.01 1625.98 Q1943.01 1628.85 1941.37 1630.84 Q1939.72 1632.81 1936.69 1633.57 Z" fill="#000000" fill-rule="nonzero" fill-opacity="1" /><path clip-path="url(#clip920)" d="M1882.76 1425.42 L1912.43 1425.42 L1912.43 1429.35 L1882.76 1429.35 L1882.76 1425.42 Z" fill="#000000" fill-rule="nonzero" fill-opacity="1" /><path clip-path="url(#clip920)" d="M1926.55 1438.31 L1942.87 1438.31 L1942.87 1442.25 L1920.93 1442.25 L1920.93 1438.31 Q1923.59 1435.56 1928.17 1430.93 Q1932.78 1426.27 1933.96 1424.93 Q1936.2 1422.41 1937.08 1420.67 Q1937.99 1418.91 1937.99 1417.22 Q1937.99 1414.47 1936.04 1412.73 Q1934.12 1411 1931.02 1411 Q1928.82 1411 1926.37 1411.76 Q1923.94 1412.52 1921.16 1414.08 L1921.16 1409.35 Q1923.98 1408.22 1926.44 1407.64 Q1928.89 1407.06 1930.93 1407.06 Q1936.3 1407.06 1939.49 1409.75 Q1942.69 1412.43 1942.69 1416.92 Q1942.69 1419.05 1941.88 1420.97 Q1941.09 1422.87 1938.98 1425.46 Q1938.4 1426.14 1935.3 1429.35 Q1932.2 1432.55 1926.55 1438.31 Z" fill="#000000" fill-rule="nonzero" fill-opacity="1" /><path clip-path="url(#clip920)" d="M1882.76 1215.46 L1912.43 1215.46 L1912.43 1219.4 L1882.76 1219.4 L1882.76 1215.46 Z" fill="#000000" fill-rule="nonzero" fill-opacity="1" /><path clip-path="url(#clip920)" d="M1923.33 1228.35 L1930.97 1228.35 L1930.97 1201.99 L1922.66 1203.66 L1922.66 1199.4 L1930.93 1197.73 L1935.6 1197.73 L1935.6 1228.35 L1943.24 1228.35 L1943.24 1232.29 L1923.33 1232.29 L1923.33 1228.35 Z" fill="#000000" fill-rule="nonzero" fill-opacity="1" /><path clip-path="url(#clip920)" d="M1894.7 990.851 Q1891.09 990.851 1889.26 994.416 Q1887.45 997.957 1887.45 1005.09 Q1887.45 1012.19 1889.26 1015.76 Q1891.09 1019.3 1894.7 1019.3 Q1898.33 1019.3 1900.14 1015.76 Q1901.97 1012.19 1901.97 1005.09 Q1901.97 997.957 1900.14 994.416 Q1898.33 990.851 1894.7 990.851 M1894.7 987.147 Q1900.51 987.147 1903.57 991.754 Q1906.64 996.337 1906.64 1005.09 Q1906.64 1013.81 1903.57 1018.42 Q1900.51 1023 1894.7 1023 Q1888.89 1023 1885.81 1018.42 Q1882.76 1013.81 1882.76 1005.09 Q1882.76 996.337 1885.81 991.754 Q1888.89 987.147 1894.7 987.147 Z" fill="#000000" fill-rule="nonzero" fill-opacity="1" /><path clip-path="url(#clip920)" d="M1883.43 808.44 L1891.07 808.44 L1891.07 782.074 L1882.76 783.741 L1882.76 779.482 L1891.02 777.815 L1895.7 777.815 L1895.7 808.44 L1903.33 808.44 L1903.33 812.375 L1883.43 812.375 L1883.43 808.44 Z" fill="#000000" fill-rule="nonzero" fill-opacity="1" /><path clip-path="url(#clip920)" d="M1888.38 598.483 L1904.7 598.483 L1904.7 602.418 L1882.76 602.418 L1882.76 598.483 Q1885.42 595.728 1890 591.098 Q1894.61 586.446 1895.79 585.103 Q1898.03 582.58 1898.91 580.844 Q1899.82 579.084 1899.82 577.395 Q1899.82 574.64 1897.87 572.904 Q1895.95 571.168 1892.85 571.168 Q1890.65 571.168 1888.2 571.932 Q1885.77 572.696 1882.99 574.247 L1882.99 569.524 Q1885.81 568.39 1888.27 567.811 Q1890.72 567.233 1892.76 567.233 Q1898.13 567.233 1901.32 569.918 Q1904.52 572.603 1904.52 577.094 Q1904.52 579.223 1903.7 581.145 Q1902.92 583.043 1900.81 585.635 Q1900.23 586.307 1897.13 589.524 Q1894.03 592.719 1888.38 598.483 Z" fill="#000000" fill-rule="nonzero" fill-opacity="1" /><path clip-path="url(#clip920)" d="M1898.38 373.826 Q1901.74 374.544 1903.61 376.812 Q1905.51 379.081 1905.51 382.414 Q1905.51 387.53 1901.99 390.331 Q1898.47 393.132 1891.99 393.132 Q1889.82 393.132 1887.5 392.692 Q1885.21 392.275 1882.76 391.419 L1882.76 386.905 Q1884.7 388.039 1887.02 388.618 Q1889.33 389.197 1891.85 389.197 Q1896.25 389.197 1898.54 387.46 Q1900.86 385.724 1900.86 382.414 Q1900.86 379.359 1898.7 377.646 Q1896.58 375.91 1892.76 375.91 L1888.73 375.91 L1888.73 372.067 L1892.94 372.067 Q1896.39 372.067 1898.22 370.701 Q1900.05 369.312 1900.05 366.72 Q1900.05 364.058 1898.15 362.646 Q1896.27 361.211 1892.76 361.211 Q1890.83 361.211 1888.64 361.627 Q1886.44 362.044 1883.8 362.923 L1883.8 358.757 Q1886.46 358.016 1888.77 357.646 Q1891.11 357.275 1893.17 357.275 Q1898.5 357.275 1901.6 359.706 Q1904.7 362.113 1904.7 366.234 Q1904.7 369.104 1903.06 371.095 Q1901.41 373.062 1898.38 373.826 Z" fill="#000000" fill-rule="nonzero" fill-opacity="1" /><polyline clip-path="url(#clip920)" style="stroke:#000000; stroke-linecap:round; stroke-linejoin:round; stroke-width:4; stroke-opacity:1; fill:none" points="1852.76,1770.87 1852.76,1638.55 1872.76,1638.55 1852.76,1638.55 1852.76,1428.6 1872.76,1428.6 1852.76,1428.6 1852.76,1218.64 1872.76,1218.64 1852.76,1218.64 1852.76,1008.68 1872.76,1008.68 1852.76,1008.68 1852.76,798.724 1872.76,798.724 1852.76,798.724 1852.76,588.766 1872.76,588.766 1852.76,588.766 1852.76,378.809 1872.76,378.809 1852.76,378.809 1852.76,248.012 "/>
</svg>
