<?xml version="1.0" encoding="utf-8"?>
<svg xmlns="http://www.w3.org/2000/svg" xmlns:xlink="http://www.w3.org/1999/xlink" width="600" height="400" viewBox="0 0 2400 1600">
<defs>
  <clipPath id="clip920">
    <rect x="0" y="0" width="2400" height="1600"/>
  </clipPath>
</defs>
<path clip-path="url(#clip920)" d="M0 1600 L2400 1600 L2400 0 L0 0  Z" fill="#ffffff" fill-rule="evenodd" fill-opacity="1"/>
<defs>
  <clipPath id="clip921">
    <rect x="480" y="0" width="1681" height="1600"/>
  </clipPath>
</defs>
<path clip-path="url(#clip920)" d="M156.598 1486.45 L2112.76 1486.45 L2112.76 123.472 L156.598 123.472  Z" fill="#ffffff" fill-rule="evenodd" fill-opacity="1"/>
<defs>
  <clipPath id="clip922">
    <rect x="156" y="123" width="1957" height="1364"/>
  </clipPath>
</defs>
<polyline clip-path="url(#clip922)" style="stroke:#000000; stroke-linecap:round; stroke-linejoin:round; stroke-width:2; stroke-opacity:0.1; fill:none" points="156.598,1486.45 156.598,123.472 "/>
<polyline clip-path="url(#clip922)" style="stroke:#000000; stroke-linecap:round; stroke-linejoin:round; stroke-width:2; stroke-opacity:0.1; fill:none" points="591.3,1486.45 591.3,123.472 "/>
<polyline clip-path="url(#clip922)" style="stroke:#000000; stroke-linecap:round; stroke-linejoin:round; stroke-width:2; stroke-opacity:0.1; fill:none" points="1026,1486.45 1026,123.472 "/>
<polyline clip-path="url(#clip922)" style="stroke:#000000; stroke-linecap:round; stroke-linejoin:round; stroke-width:2; stroke-opacity:0.1; fill:none" points="1460.7,1486.45 1460.7,123.472 "/>
<polyline clip-path="url(#clip922)" style="stroke:#000000; stroke-linecap:round; stroke-linejoin:round; stroke-width:2; stroke-opacity:0.1; fill:none" points="1895.41,1486.45 1895.41,123.472 "/>
<polyline clip-path="url(#clip920)" style="stroke:#000000; stroke-linecap:round; stroke-linejoin:round; stroke-width:4; stroke-opacity:1; fill:none" points="156.598,1486.45 2112.76,1486.45 "/>
<polyline clip-path="url(#clip920)" style="stroke:#000000; stroke-linecap:round; stroke-linejoin:round; stroke-width:4; stroke-opacity:1; fill:none" points="156.598,1486.45 156.598,1467.55 "/>
<polyline clip-path="url(#clip920)" style="stroke:#000000; stroke-linecap:round; stroke-linejoin:round; stroke-width:4; stroke-opacity:1; fill:none" points="591.3,1486.45 591.3,1467.55 "/>
<polyline clip-path="url(#clip920)" style="stroke:#000000; stroke-linecap:round; stroke-linejoin:round; stroke-width:4; stroke-opacity:1; fill:none" points="1026,1486.45 1026,1467.55 "/>
<polyline clip-path="url(#clip920)" style="stroke:#000000; stroke-linecap:round; stroke-linejoin:round; stroke-width:4; stroke-opacity:1; fill:none" points="1460.7,1486.45 1460.7,1467.55 "/>
<polyline clip-path="url(#clip920)" style="stroke:#000000; stroke-linecap:round; stroke-linejoin:round; stroke-width:4; stroke-opacity:1; fill:none" points="1895.41,1486.45 1895.41,1467.55 "/>
<path clip-path="url(#clip920)" d="M133.983 1517.37 Q130.372 1517.37 128.543 1520.93 Q126.737 1524.47 126.737 1531.6 Q126.737 1538.71 128.543 1542.27 Q130.372 1545.82 133.983 1545.82 Q137.617 1545.82 139.422 1542.27 Q141.251 1538.71 141.251 1531.6 Q141.251 1524.47 139.422 1520.93 Q137.617 1517.37 133.983 1517.37 M133.983 1513.66 Q139.793 1513.66 142.848 1518.27 Q145.927 1522.85 145.927 1531.6 Q145.927 1540.33 142.848 1544.94 Q139.793 1549.52 133.983 1549.52 Q128.172 1549.52 125.094 1544.94 Q122.038 1540.33 122.038 1531.6 Q122.038 1522.85 125.094 1518.27 Q128.172 1513.66 133.983 1513.66 Z" fill="#000000" fill-rule="nonzero" fill-opacity="1" /><path clip-path="url(#clip920)" d="M154.145 1542.97 L159.029 1542.97 L159.029 1548.85 L154.145 1548.85 L154.145 1542.97 Z" fill="#000000" fill-rule="nonzero" fill-opacity="1" /><path clip-path="url(#clip920)" d="M179.214 1517.37 Q175.603 1517.37 173.774 1520.93 Q171.969 1524.47 171.969 1531.6 Q171.969 1538.71 173.774 1542.27 Q175.603 1545.82 179.214 1545.82 Q182.848 1545.82 184.654 1542.27 Q186.482 1538.71 186.482 1531.6 Q186.482 1524.47 184.654 1520.93 Q182.848 1517.37 179.214 1517.37 M179.214 1513.66 Q185.024 1513.66 188.08 1518.27 Q191.158 1522.85 191.158 1531.6 Q191.158 1540.33 188.08 1544.94 Q185.024 1549.52 179.214 1549.52 Q173.404 1549.52 170.325 1544.94 Q167.269 1540.33 167.269 1531.6 Q167.269 1522.85 170.325 1518.27 Q173.404 1513.66 179.214 1513.66 Z" fill="#000000" fill-rule="nonzero" fill-opacity="1" /><path clip-path="url(#clip920)" d="M569.483 1517.37 Q565.872 1517.37 564.043 1520.93 Q562.238 1524.47 562.238 1531.6 Q562.238 1538.71 564.043 1542.27 Q565.872 1545.82 569.483 1545.82 Q573.117 1545.82 574.923 1542.27 Q576.751 1538.71 576.751 1531.6 Q576.751 1524.47 574.923 1520.93 Q573.117 1517.37 569.483 1517.37 M569.483 1513.66 Q575.293 1513.66 578.349 1518.27 Q581.427 1522.85 581.427 1531.6 Q581.427 1540.33 578.349 1544.94 Q575.293 1549.52 569.483 1549.52 Q563.673 1549.52 560.594 1544.94 Q557.539 1540.33 557.539 1531.6 Q557.539 1522.85 560.594 1518.27 Q563.673 1513.66 569.483 1513.66 Z" fill="#000000" fill-rule="nonzero" fill-opacity="1" /><path clip-path="url(#clip920)" d="M589.645 1542.97 L594.529 1542.97 L594.529 1548.85 L589.645 1548.85 L589.645 1542.97 Z" fill="#000000" fill-rule="nonzero" fill-opacity="1" /><path clip-path="url(#clip920)" d="M608.742 1544.91 L625.061 1544.91 L625.061 1548.85 L603.117 1548.85 L603.117 1544.91 Q605.779 1542.16 610.362 1537.53 Q614.969 1532.88 616.149 1531.53 Q618.395 1529.01 619.274 1527.27 Q620.177 1525.51 620.177 1523.82 Q620.177 1521.07 618.233 1519.33 Q616.311 1517.6 613.21 1517.6 Q611.01 1517.6 608.557 1518.36 Q606.126 1519.13 603.348 1520.68 L603.348 1515.95 Q606.173 1514.82 608.626 1514.24 Q611.08 1513.66 613.117 1513.66 Q618.487 1513.66 621.682 1516.35 Q624.876 1519.03 624.876 1523.52 Q624.876 1525.65 624.066 1527.57 Q623.279 1529.47 621.172 1532.07 Q620.594 1532.74 617.492 1535.95 Q614.39 1539.15 608.742 1544.91 Z" fill="#000000" fill-rule="nonzero" fill-opacity="1" /><path clip-path="url(#clip920)" d="M1003.14 1517.37 Q999.532 1517.37 997.703 1520.93 Q995.898 1524.47 995.898 1531.6 Q995.898 1538.71 997.703 1542.27 Q999.532 1545.82 1003.14 1545.82 Q1006.78 1545.82 1008.58 1542.27 Q1010.41 1538.71 1010.41 1531.6 Q1010.41 1524.47 1008.58 1520.93 Q1006.78 1517.37 1003.14 1517.37 M1003.14 1513.66 Q1008.95 1513.66 1012.01 1518.27 Q1015.09 1522.85 1015.09 1531.6 Q1015.09 1540.33 1012.01 1544.94 Q1008.95 1549.52 1003.14 1549.52 Q997.333 1549.52 994.254 1544.94 Q991.199 1540.33 991.199 1531.6 Q991.199 1522.85 994.254 1518.27 Q997.333 1513.66 1003.14 1513.66 Z" fill="#000000" fill-rule="nonzero" fill-opacity="1" /><path clip-path="url(#clip920)" d="M1023.3 1542.97 L1028.19 1542.97 L1028.19 1548.85 L1023.3 1548.85 L1023.3 1542.97 Z" fill="#000000" fill-rule="nonzero" fill-opacity="1" /><path clip-path="url(#clip920)" d="M1051.22 1518.36 L1039.42 1536.81 L1051.22 1536.81 L1051.22 1518.36 M1049.99 1514.29 L1055.87 1514.29 L1055.87 1536.81 L1060.8 1536.81 L1060.8 1540.7 L1055.87 1540.7 L1055.87 1548.85 L1051.22 1548.85 L1051.22 1540.7 L1035.62 1540.7 L1035.62 1536.19 L1049.99 1514.29 Z" fill="#000000" fill-rule="nonzero" fill-opacity="1" /><path clip-path="url(#clip920)" d="M1438.01 1517.37 Q1434.4 1517.37 1432.57 1520.93 Q1430.76 1524.47 1430.76 1531.6 Q1430.76 1538.71 1432.57 1542.27 Q1434.4 1545.82 1438.01 1545.82 Q1441.64 1545.82 1443.45 1542.27 Q1445.28 1538.71 1445.28 1531.6 Q1445.28 1524.47 1443.45 1520.93 Q1441.64 1517.37 1438.01 1517.37 M1438.01 1513.66 Q1443.82 1513.66 1446.87 1518.27 Q1449.95 1522.85 1449.95 1531.6 Q1449.95 1540.33 1446.87 1544.94 Q1443.82 1549.52 1438.01 1549.52 Q1432.2 1549.52 1429.12 1544.94 Q1426.06 1540.33 1426.06 1531.6 Q1426.06 1522.85 1429.12 1518.27 Q1432.2 1513.66 1438.01 1513.66 Z" fill="#000000" fill-rule="nonzero" fill-opacity="1" /><path clip-path="url(#clip920)" d="M1458.17 1542.97 L1463.05 1542.97 L1463.05 1548.85 L1458.17 1548.85 L1458.17 1542.97 Z" fill="#000000" fill-rule="nonzero" fill-opacity="1" /><path clip-path="url(#clip920)" d="M1483.82 1529.7 Q1480.67 1529.7 1478.82 1531.86 Q1476.99 1534.01 1476.99 1537.76 Q1476.99 1541.49 1478.82 1543.66 Q1480.67 1545.82 1483.82 1545.82 Q1486.96 1545.82 1488.79 1543.66 Q1490.65 1541.49 1490.65 1537.76 Q1490.65 1534.01 1488.79 1531.86 Q1486.96 1529.7 1483.82 1529.7 M1493.1 1515.05 L1493.1 1519.31 Q1491.34 1518.48 1489.53 1518.04 Q1487.75 1517.6 1485.99 1517.6 Q1481.36 1517.6 1478.91 1520.72 Q1476.48 1523.85 1476.13 1530.17 Q1477.5 1528.15 1479.56 1527.09 Q1481.62 1526 1484.09 1526 Q1489.3 1526 1492.31 1529.17 Q1495.34 1532.32 1495.34 1537.76 Q1495.34 1543.08 1492.2 1546.3 Q1489.05 1549.52 1483.82 1549.52 Q1477.82 1549.52 1474.65 1544.94 Q1471.48 1540.33 1471.48 1531.6 Q1471.48 1523.41 1475.37 1518.55 Q1479.26 1513.66 1485.81 1513.66 Q1487.57 1513.66 1489.35 1514.01 Q1491.15 1514.36 1493.1 1515.05 Z" fill="#000000" fill-rule="nonzero" fill-opacity="1" /><path clip-path="url(#clip920)" d="M1872.84 1517.37 Q1869.22 1517.37 1867.4 1520.93 Q1865.59 1524.47 1865.59 1531.6 Q1865.59 1538.71 1867.4 1542.27 Q1869.22 1545.82 1872.84 1545.82 Q1876.47 1545.82 1878.28 1542.27 Q1880.1 1538.71 1880.1 1531.6 Q1880.1 1524.47 1878.28 1520.93 Q1876.47 1517.37 1872.84 1517.37 M1872.84 1513.66 Q1878.65 1513.66 1881.7 1518.27 Q1884.78 1522.85 1884.78 1531.6 Q1884.78 1540.33 1881.7 1544.94 Q1878.65 1549.52 1872.84 1549.52 Q1867.03 1549.52 1863.95 1544.94 Q1860.89 1540.33 1860.89 1531.6 Q1860.89 1522.85 1863.95 1518.27 Q1867.03 1513.66 1872.84 1513.66 Z" fill="#000000" fill-rule="nonzero" fill-opacity="1" /><path clip-path="url(#clip920)" d="M1893 1542.97 L1897.88 1542.97 L1897.88 1548.85 L1893 1548.85 L1893 1542.97 Z" fill="#000000" fill-rule="nonzero" fill-opacity="1" /><path clip-path="url(#clip920)" d="M1918.07 1532.44 Q1914.73 1532.44 1912.81 1534.22 Q1910.91 1536 1910.91 1539.13 Q1910.91 1542.25 1912.81 1544.03 Q1914.73 1545.82 1918.07 1545.82 Q1921.4 1545.82 1923.32 1544.03 Q1925.24 1542.23 1925.24 1539.13 Q1925.24 1536 1923.32 1534.22 Q1921.42 1532.44 1918.07 1532.44 M1913.39 1530.45 Q1910.38 1529.7 1908.69 1527.64 Q1907.03 1525.58 1907.03 1522.62 Q1907.03 1518.48 1909.97 1516.07 Q1912.93 1513.66 1918.07 1513.66 Q1923.23 1513.66 1926.17 1516.07 Q1929.11 1518.48 1929.11 1522.62 Q1929.11 1525.58 1927.42 1527.64 Q1925.75 1529.7 1922.77 1530.45 Q1926.15 1531.23 1928.02 1533.52 Q1929.92 1535.82 1929.92 1539.13 Q1929.92 1544.15 1926.84 1546.83 Q1923.78 1549.52 1918.07 1549.52 Q1912.35 1549.52 1909.27 1546.83 Q1906.22 1544.15 1906.22 1539.13 Q1906.22 1535.82 1908.11 1533.52 Q1910.01 1531.23 1913.39 1530.45 M1911.68 1523.06 Q1911.68 1525.75 1913.34 1527.25 Q1915.03 1528.76 1918.07 1528.76 Q1921.08 1528.76 1922.77 1527.25 Q1924.48 1525.75 1924.48 1523.06 Q1924.48 1520.38 1922.77 1518.87 Q1921.08 1517.37 1918.07 1517.37 Q1915.03 1517.37 1913.34 1518.87 Q1911.68 1520.38 1911.68 1523.06 Z" fill="#000000" fill-rule="nonzero" fill-opacity="1" /><polyline clip-path="url(#clip922)" style="stroke:#000000; stroke-linecap:round; stroke-linejoin:round; stroke-width:2; stroke-opacity:0.1; fill:none" points="156.598,1486.45 2112.76,1486.45 "/>
<polyline clip-path="url(#clip922)" style="stroke:#000000; stroke-linecap:round; stroke-linejoin:round; stroke-width:2; stroke-opacity:0.1; fill:none" points="156.598,1183.56 2112.76,1183.56 "/>
<polyline clip-path="url(#clip922)" style="stroke:#000000; stroke-linecap:round; stroke-linejoin:round; stroke-width:2; stroke-opacity:0.1; fill:none" points="156.598,880.681 2112.76,880.681 "/>
<polyline clip-path="url(#clip922)" style="stroke:#000000; stroke-linecap:round; stroke-linejoin:round; stroke-width:2; stroke-opacity:0.1; fill:none" points="156.598,577.797 2112.76,577.797 "/>
<polyline clip-path="url(#clip922)" style="stroke:#000000; stroke-linecap:round; stroke-linejoin:round; stroke-width:2; stroke-opacity:0.1; fill:none" points="156.598,274.914 2112.76,274.914 "/>
<polyline clip-path="url(#clip920)" style="stroke:#000000; stroke-linecap:round; stroke-linejoin:round; stroke-width:4; stroke-opacity:1; fill:none" points="156.598,1486.45 156.598,123.472 "/>
<polyline clip-path="url(#clip920)" style="stroke:#000000; stroke-linecap:round; stroke-linejoin:round; stroke-width:4; stroke-opacity:1; fill:none" points="156.598,1486.45 173.431,1486.45 "/>
<polyline clip-path="url(#clip920)" style="stroke:#000000; stroke-linecap:round; stroke-linejoin:round; stroke-width:4; stroke-opacity:1; fill:none" points="156.598,1183.56 173.431,1183.56 "/>
<polyline clip-path="url(#clip920)" style="stroke:#000000; stroke-linecap:round; stroke-linejoin:round; stroke-width:4; stroke-opacity:1; fill:none" points="156.598,880.681 173.431,880.681 "/>
<polyline clip-path="url(#clip920)" style="stroke:#000000; stroke-linecap:round; stroke-linejoin:round; stroke-width:4; stroke-opacity:1; fill:none" points="156.598,577.797 173.431,577.797 "/>
<polyline clip-path="url(#clip920)" style="stroke:#000000; stroke-linecap:round; stroke-linejoin:round; stroke-width:4; stroke-opacity:1; fill:none" points="156.598,274.914 173.431,274.914 "/>
<path clip-path="url(#clip920)" d="M63.4226 1472.25 Q59.8115 1472.25 57.9828 1475.81 Q56.1773 1479.35 56.1773 1486.48 Q56.1773 1493.59 57.9828 1497.15 Q59.8115 1500.7 63.4226 1500.7 Q67.0569 1500.7 68.8624 1497.15 Q70.6911 1493.59 70.6911 1486.48 Q70.6911 1479.35 68.8624 1475.81 Q67.0569 1472.25 63.4226 1472.25 M63.4226 1468.54 Q69.2328 1468.54 72.2883 1473.15 Q75.367 1477.73 75.367 1486.48 Q75.367 1495.21 72.2883 1499.82 Q69.2328 1504.4 63.4226 1504.4 Q57.6125 1504.4 54.5338 1499.82 Q51.4782 1495.21 51.4782 1486.48 Q51.4782 1477.73 54.5338 1473.15 Q57.6125 1468.54 63.4226 1468.54 Z" fill="#000000" fill-rule="nonzero" fill-opacity="1" /><path clip-path="url(#clip920)" d="M83.5845 1497.85 L88.4688 1497.85 L88.4688 1503.73 L83.5845 1503.73 L83.5845 1497.85 Z" fill="#000000" fill-rule="nonzero" fill-opacity="1" /><path clip-path="url(#clip920)" d="M108.654 1472.25 Q105.043 1472.25 103.214 1475.81 Q101.409 1479.35 101.409 1486.48 Q101.409 1493.59 103.214 1497.15 Q105.043 1500.7 108.654 1500.7 Q112.288 1500.7 114.094 1497.15 Q115.922 1493.59 115.922 1486.48 Q115.922 1479.35 114.094 1475.81 Q112.288 1472.25 108.654 1472.25 M108.654 1468.54 Q114.464 1468.54 117.52 1473.15 Q120.598 1477.73 120.598 1486.48 Q120.598 1495.21 117.52 1499.82 Q114.464 1504.4 108.654 1504.4 Q102.844 1504.4 99.765 1499.82 Q96.7095 1495.21 96.7095 1486.48 Q96.7095 1477.73 99.765 1473.15 Q102.844 1468.54 108.654 1468.54 Z" fill="#000000" fill-rule="nonzero" fill-opacity="1" /><path clip-path="url(#clip920)" d="M65.0198 1169.36 Q61.4087 1169.36 59.58 1172.93 Q57.7745 1176.47 57.7745 1183.6 Q57.7745 1190.71 59.58 1194.27 Q61.4087 1197.81 65.0198 1197.81 Q68.6541 1197.81 70.4596 1194.27 Q72.2883 1190.71 72.2883 1183.6 Q72.2883 1176.47 70.4596 1172.93 Q68.6541 1169.36 65.0198 1169.36 M65.0198 1165.66 Q70.83 1165.66 73.8855 1170.27 Q76.9642 1174.85 76.9642 1183.6 Q76.9642 1192.33 73.8855 1196.93 Q70.83 1201.52 65.0198 1201.52 Q59.2097 1201.52 56.131 1196.93 Q53.0754 1192.33 53.0754 1183.6 Q53.0754 1174.85 56.131 1170.27 Q59.2097 1165.66 65.0198 1165.66 Z" fill="#000000" fill-rule="nonzero" fill-opacity="1" /><path clip-path="url(#clip920)" d="M85.1818 1194.96 L90.066 1194.96 L90.066 1200.84 L85.1818 1200.84 L85.1818 1194.96 Z" fill="#000000" fill-rule="nonzero" fill-opacity="1" /><path clip-path="url(#clip920)" d="M104.279 1196.91 L120.598 1196.91 L120.598 1200.84 L98.6539 1200.84 L98.6539 1196.91 Q101.316 1194.15 105.899 1189.52 Q110.506 1184.87 111.686 1183.53 Q113.932 1181.01 114.811 1179.27 Q115.714 1177.51 115.714 1175.82 Q115.714 1173.07 113.77 1171.33 Q111.848 1169.59 108.746 1169.59 Q106.547 1169.59 104.094 1170.36 Q101.663 1171.12 98.8854 1172.67 L98.8854 1167.95 Q101.709 1166.82 104.163 1166.24 Q106.617 1165.66 108.654 1165.66 Q114.024 1165.66 117.219 1168.34 Q120.413 1171.03 120.413 1175.52 Q120.413 1177.65 119.603 1179.57 Q118.816 1181.47 116.709 1184.06 Q116.131 1184.73 113.029 1187.95 Q109.927 1191.15 104.279 1196.91 Z" fill="#000000" fill-rule="nonzero" fill-opacity="1" /><path clip-path="url(#clip920)" d="M62.9365 866.48 Q59.3254 866.48 57.4967 870.044 Q55.6912 873.586 55.6912 880.716 Q55.6912 887.822 57.4967 891.387 Q59.3254 894.928 62.9365 894.928 Q66.5707 894.928 68.3763 891.387 Q70.205 887.822 70.205 880.716 Q70.205 873.586 68.3763 870.044 Q66.5707 866.48 62.9365 866.48 M62.9365 862.776 Q68.7467 862.776 71.8022 867.382 Q74.8809 871.966 74.8809 880.716 Q74.8809 889.442 71.8022 894.049 Q68.7467 898.632 62.9365 898.632 Q57.1264 898.632 54.0477 894.049 Q50.9921 889.442 50.9921 880.716 Q50.9921 871.966 54.0477 867.382 Q57.1264 862.776 62.9365 862.776 Z" fill="#000000" fill-rule="nonzero" fill-opacity="1" /><path clip-path="url(#clip920)" d="M83.0984 892.081 L87.9827 892.081 L87.9827 897.961 L83.0984 897.961 L83.0984 892.081 Z" fill="#000000" fill-rule="nonzero" fill-opacity="1" /><path clip-path="url(#clip920)" d="M111.015 867.475 L99.2095 885.924 L111.015 885.924 L111.015 867.475 M109.788 863.401 L115.668 863.401 L115.668 885.924 L120.598 885.924 L120.598 889.813 L115.668 889.813 L115.668 897.961 L111.015 897.961 L111.015 889.813 L95.4132 889.813 L95.4132 885.299 L109.788 863.401 Z" fill="#000000" fill-rule="nonzero" fill-opacity="1" /><path clip-path="url(#clip920)" d="M63.2606 563.596 Q59.6495 563.596 57.8208 567.161 Q56.0152 570.703 56.0152 577.832 Q56.0152 584.939 57.8208 588.503 Q59.6495 592.045 63.2606 592.045 Q66.8948 592.045 68.7004 588.503 Q70.5291 584.939 70.5291 577.832 Q70.5291 570.703 68.7004 567.161 Q66.8948 563.596 63.2606 563.596 M63.2606 559.892 Q69.0707 559.892 72.1263 564.499 Q75.205 569.082 75.205 577.832 Q75.205 586.559 72.1263 591.165 Q69.0707 595.749 63.2606 595.749 Q57.4504 595.749 54.3717 591.165 Q51.3162 586.559 51.3162 577.832 Q51.3162 569.082 54.3717 564.499 Q57.4504 559.892 63.2606 559.892 Z" fill="#000000" fill-rule="nonzero" fill-opacity="1" /><path clip-path="url(#clip920)" d="M83.4225 589.198 L88.3067 589.198 L88.3067 595.077 L83.4225 595.077 L83.4225 589.198 Z" fill="#000000" fill-rule="nonzero" fill-opacity="1" /><path clip-path="url(#clip920)" d="M109.071 575.934 Q105.922 575.934 104.071 578.087 Q102.242 580.239 102.242 583.989 Q102.242 587.716 104.071 589.892 Q105.922 592.045 109.071 592.045 Q112.219 592.045 114.047 589.892 Q115.899 587.716 115.899 583.989 Q115.899 580.239 114.047 578.087 Q112.219 575.934 109.071 575.934 M118.353 561.281 L118.353 565.54 Q116.594 564.707 114.788 564.267 Q113.006 563.828 111.246 563.828 Q106.617 563.828 104.163 566.953 Q101.733 570.078 101.385 576.397 Q102.751 574.383 104.811 573.318 Q106.871 572.23 109.348 572.23 Q114.557 572.23 117.566 575.402 Q120.598 578.55 120.598 583.989 Q120.598 589.314 117.45 592.531 Q114.302 595.749 109.071 595.749 Q103.075 595.749 99.9039 591.165 Q96.7326 586.559 96.7326 577.832 Q96.7326 569.638 100.621 564.777 Q104.51 559.892 111.061 559.892 Q112.82 559.892 114.603 560.24 Q116.408 560.587 118.353 561.281 Z" fill="#000000" fill-rule="nonzero" fill-opacity="1" /><path clip-path="url(#clip920)" d="M63.5152 260.713 Q59.9041 260.713 58.0754 264.277 Q56.2699 267.819 56.2699 274.949 Q56.2699 282.055 58.0754 285.62 Q59.9041 289.161 63.5152 289.161 Q67.1494 289.161 68.955 285.62 Q70.7837 282.055 70.7837 274.949 Q70.7837 267.819 68.955 264.277 Q67.1494 260.713 63.5152 260.713 M63.5152 257.009 Q69.3254 257.009 72.3809 261.615 Q75.4596 266.199 75.4596 274.949 Q75.4596 283.675 72.3809 288.282 Q69.3254 292.865 63.5152 292.865 Q57.7051 292.865 54.6264 288.282 Q51.5708 283.675 51.5708 274.949 Q51.5708 266.199 54.6264 261.615 Q57.7051 257.009 63.5152 257.009 Z" fill="#000000" fill-rule="nonzero" fill-opacity="1" /><path clip-path="url(#clip920)" d="M83.6771 286.314 L88.5614 286.314 L88.5614 292.194 L83.6771 292.194 L83.6771 286.314 Z" fill="#000000" fill-rule="nonzero" fill-opacity="1" /><path clip-path="url(#clip920)" d="M108.746 275.782 Q105.413 275.782 103.492 277.564 Q101.594 279.347 101.594 282.472 Q101.594 285.597 103.492 287.379 Q105.413 289.161 108.746 289.161 Q112.08 289.161 114.001 287.379 Q115.922 285.574 115.922 282.472 Q115.922 279.347 114.001 277.564 Q112.103 275.782 108.746 275.782 M104.071 273.791 Q101.061 273.05 99.3715 270.99 Q97.7048 268.93 97.7048 265.967 Q97.7048 261.824 100.645 259.416 Q103.608 257.009 108.746 257.009 Q113.908 257.009 116.848 259.416 Q119.788 261.824 119.788 265.967 Q119.788 268.93 118.098 270.99 Q116.432 273.05 113.445 273.791 Q116.825 274.578 118.7 276.87 Q120.598 279.162 120.598 282.472 Q120.598 287.495 117.52 290.18 Q114.464 292.865 108.746 292.865 Q103.029 292.865 99.9502 290.18 Q96.8947 287.495 96.8947 282.472 Q96.8947 279.162 98.7928 276.87 Q100.691 274.578 104.071 273.791 M102.358 266.407 Q102.358 269.092 104.024 270.597 Q105.714 272.101 108.746 272.101 Q111.756 272.101 113.445 270.597 Q115.158 269.092 115.158 266.407 Q115.158 263.722 113.445 262.217 Q111.756 260.713 108.746 260.713 Q105.714 260.713 104.024 262.217 Q102.358 263.722 102.358 266.407 Z" fill="#000000" fill-rule="nonzero" fill-opacity="1" /><path clip-path="url(#clip920)" d="M405.589 66.1239 L405.589 49.8798 L392.221 49.8798 L392.221 43.1553 L413.691 43.1553 L413.691 69.1216 Q408.952 72.4838 403.24 74.2257 Q397.528 75.9271 391.047 75.9271 Q376.869 75.9271 368.848 67.6632 Q360.867 59.3589 360.867 44.5731 Q360.867 29.7468 368.848 21.4829 Q376.869 13.1786 391.047 13.1786 Q396.961 13.1786 402.268 14.6369 Q407.615 16.0952 412.111 18.9309 L412.111 27.6403 Q407.574 23.7919 402.47 21.8475 Q397.366 19.9031 391.735 19.9031 Q380.636 19.9031 375.046 26.101 Q369.496 32.2988 369.496 44.5731 Q369.496 56.8068 375.046 63.0047 Q380.636 69.2026 391.735 69.2026 Q396.07 69.2026 399.473 68.4734 Q402.875 67.7037 405.589 66.1239 Z" fill="#000000" fill-rule="nonzero" fill-opacity="1" /><path clip-path="url(#clip920)" d="M454.605 36.3497 Q453.35 35.6206 451.851 35.2965 Q450.392 34.9319 448.61 34.9319 Q442.291 34.9319 438.888 39.0638 Q435.526 43.1553 435.526 50.852 L435.526 74.7523 L428.031 74.7523 L428.031 29.3822 L435.526 29.3822 L435.526 36.4308 Q437.875 32.2988 441.643 30.3139 Q445.41 28.2884 450.798 28.2884 Q451.567 28.2884 452.499 28.41 Q453.431 28.491 454.565 28.6935 L454.605 36.3497 Z" fill="#000000" fill-rule="nonzero" fill-opacity="1" /><path clip-path="url(#clip920)" d="M478.182 34.6079 Q472.186 34.6079 468.703 39.3069 Q465.219 43.9654 465.219 52.1078 Q465.219 60.2501 468.662 64.9491 Q472.146 69.6077 478.182 69.6077 Q484.137 69.6077 487.62 64.9086 Q491.104 60.2096 491.104 52.1078 Q491.104 44.0465 487.62 39.3474 Q484.137 34.6079 478.182 34.6079 M478.182 28.2884 Q487.904 28.2884 493.454 34.6079 Q499.003 40.9273 499.003 52.1078 Q499.003 63.2477 493.454 69.6077 Q487.904 75.9271 478.182 75.9271 Q468.419 75.9271 462.869 69.6077 Q457.36 63.2477 457.36 52.1078 Q457.36 40.9273 462.869 34.6079 Q468.419 28.2884 478.182 28.2884 Z" fill="#000000" fill-rule="nonzero" fill-opacity="1" /><path clip-path="url(#clip920)" d="M510.589 56.8473 L510.589 29.3822 L518.043 29.3822 L518.043 56.5638 Q518.043 63.0047 520.554 66.2454 Q523.066 69.4456 528.089 69.4456 Q534.125 69.4456 537.608 65.5973 Q541.133 61.7489 541.133 55.1054 L541.133 29.3822 L548.586 29.3822 L548.586 74.7523 L541.133 74.7523 L541.133 67.7848 Q538.419 71.9167 534.813 73.9421 Q531.249 75.9271 526.509 75.9271 Q518.691 75.9271 514.64 71.066 Q510.589 66.2049 510.589 56.8473 M529.345 28.2884 L529.345 28.2884 Z" fill="#000000" fill-rule="nonzero" fill-opacity="1" /><path clip-path="url(#clip920)" d="M601.653 47.3682 L601.653 74.7523 L594.2 74.7523 L594.2 47.6113 Q594.2 41.1703 591.688 37.9701 Q589.176 34.7699 584.153 34.7699 Q578.117 34.7699 574.634 38.6182 Q571.15 42.4666 571.15 49.1101 L571.15 74.7523 L563.656 74.7523 L563.656 29.3822 L571.15 29.3822 L571.15 36.4308 Q573.824 32.3393 577.429 30.3139 Q581.075 28.2884 585.814 28.2884 Q593.632 28.2884 597.643 33.1495 Q601.653 37.9701 601.653 47.3682 Z" fill="#000000" fill-rule="nonzero" fill-opacity="1" /><path clip-path="url(#clip920)" d="M646.375 36.2687 L646.375 11.7202 L653.829 11.7202 L653.829 74.7523 L646.375 74.7523 L646.375 67.9468 Q644.026 71.9977 640.42 73.9826 Q636.856 75.9271 631.832 75.9271 Q623.609 75.9271 618.424 69.3646 Q613.279 62.8021 613.279 52.1078 Q613.279 41.4134 618.424 34.8509 Q623.609 28.2884 631.832 28.2884 Q636.856 28.2884 640.42 30.2734 Q644.026 32.2178 646.375 36.2687 M620.976 52.1078 Q620.976 60.3311 624.338 65.0301 Q627.741 69.6887 633.655 69.6887 Q639.57 69.6887 642.972 65.0301 Q646.375 60.3311 646.375 52.1078 Q646.375 43.8844 642.972 39.2259 Q639.57 34.5268 633.655 34.5268 Q627.741 34.5268 624.338 39.2259 Q620.976 43.8844 620.976 52.1078 Z" fill="#000000" fill-rule="nonzero" fill-opacity="1" /><path clip-path="url(#clip920)" d="M687.492 14.2723 L738.655 14.2723 L738.655 21.1588 L717.185 21.1588 L717.185 74.7523 L708.962 74.7523 L708.962 21.1588 L687.492 21.1588 L687.492 14.2723 Z" fill="#000000" fill-rule="nonzero" fill-opacity="1" /><path clip-path="url(#clip920)" d="M760.327 36.3497 Q759.071 35.6206 757.573 35.2965 Q756.114 34.9319 754.332 34.9319 Q748.012 34.9319 744.61 39.0638 Q741.247 43.1553 741.247 50.852 L741.247 74.7523 L733.753 74.7523 L733.753 29.3822 L741.247 29.3822 L741.247 36.4308 Q743.597 32.2988 747.364 30.3139 Q751.132 28.2884 756.519 28.2884 Q757.289 28.2884 758.221 28.41 Q759.152 28.491 760.287 28.6935 L760.327 36.3497 Z" fill="#000000" fill-rule="nonzero" fill-opacity="1" /><path clip-path="url(#clip920)" d="M767.376 56.8473 L767.376 29.3822 L774.829 29.3822 L774.829 56.5638 Q774.829 63.0047 777.341 66.2454 Q779.853 69.4456 784.876 69.4456 Q790.911 69.4456 794.395 65.5973 Q797.92 61.7489 797.92 55.1054 L797.92 29.3822 L805.373 29.3822 L805.373 74.7523 L797.92 74.7523 L797.92 67.7848 Q795.205 71.9167 791.6 73.9421 Q788.035 75.9271 783.296 75.9271 Q775.478 75.9271 771.427 71.066 Q767.376 66.2049 767.376 56.8473 M786.131 28.2884 L786.131 28.2884 Z" fill="#000000" fill-rule="nonzero" fill-opacity="1" /><path clip-path="url(#clip920)" d="M828.099 16.5003 L828.099 29.3822 L843.452 29.3822 L843.452 35.175 L828.099 35.175 L828.099 59.8045 Q828.099 65.3542 829.598 66.9341 Q831.137 68.5139 835.795 68.5139 L843.452 68.5139 L843.452 74.7523 L835.795 74.7523 Q827.167 74.7523 823.886 71.5521 Q820.605 68.3114 820.605 59.8045 L820.605 35.175 L815.136 35.175 L815.136 29.3822 L820.605 29.3822 L820.605 16.5003 L828.099 16.5003 Z" fill="#000000" fill-rule="nonzero" fill-opacity="1" /><path clip-path="url(#clip920)" d="M890.969 47.3682 L890.969 74.7523 L883.515 74.7523 L883.515 47.6113 Q883.515 41.1703 881.004 37.9701 Q878.492 34.7699 873.469 34.7699 Q867.433 34.7699 863.949 38.6182 Q860.466 42.4666 860.466 49.1101 L860.466 74.7523 L852.971 74.7523 L852.971 11.7202 L860.466 11.7202 L860.466 36.4308 Q863.139 32.3393 866.744 30.3139 Q870.39 28.2884 875.13 28.2884 Q882.948 28.2884 886.958 33.1495 Q890.969 37.9701 890.969 47.3682 Z" fill="#000000" fill-rule="nonzero" fill-opacity="1" /><path clip-path="url(#clip920)" d="M977.82 18.9309 L977.82 27.5593 Q973.688 23.7109 968.989 21.807 Q964.331 19.9031 959.065 19.9031 Q948.694 19.9031 943.185 26.263 Q937.676 32.5824 937.676 44.5731 Q937.676 56.5232 943.185 62.8832 Q948.694 69.2026 959.065 69.2026 Q964.331 69.2026 968.989 67.2986 Q973.688 65.3947 977.82 61.5464 L977.82 70.0938 Q973.526 73.0104 968.706 74.4687 Q963.926 75.9271 958.578 75.9271 Q944.846 75.9271 936.947 67.5417 Q929.047 59.1158 929.047 44.5731 Q929.047 29.9898 936.947 21.6044 Q944.846 13.1786 958.578 13.1786 Q964.007 13.1786 968.787 14.6369 Q973.607 16.0547 977.82 18.9309 Z" fill="#000000" fill-rule="nonzero" fill-opacity="1" /><path clip-path="url(#clip920)" d="M1007.72 34.6079 Q1001.72 34.6079 998.237 39.3069 Q994.753 43.9654 994.753 52.1078 Q994.753 60.2501 998.196 64.9491 Q1001.68 69.6077 1007.72 69.6077 Q1013.67 69.6077 1017.15 64.9086 Q1020.64 60.2096 1020.64 52.1078 Q1020.64 44.0465 1017.15 39.3474 Q1013.67 34.6079 1007.72 34.6079 M1007.72 28.2884 Q1017.44 28.2884 1022.99 34.6079 Q1028.54 40.9273 1028.54 52.1078 Q1028.54 63.2477 1022.99 69.6077 Q1017.44 75.9271 1007.72 75.9271 Q997.953 75.9271 992.403 69.6077 Q986.894 63.2477 986.894 52.1078 Q986.894 40.9273 992.403 34.6079 Q997.953 28.2884 1007.72 28.2884 Z" fill="#000000" fill-rule="nonzero" fill-opacity="1" /><path clip-path="url(#clip920)" d="M1078.61 47.3682 L1078.61 74.7523 L1071.15 74.7523 L1071.15 47.6113 Q1071.15 41.1703 1068.64 37.9701 Q1066.13 34.7699 1061.11 34.7699 Q1055.07 34.7699 1051.59 38.6182 Q1048.1 42.4666 1048.1 49.1101 L1048.1 74.7523 L1040.61 74.7523 L1040.61 29.3822 L1048.1 29.3822 L1048.1 36.4308 Q1050.78 32.3393 1054.38 30.3139 Q1058.03 28.2884 1062.77 28.2884 Q1070.59 28.2884 1074.6 33.1495 Q1078.61 37.9701 1078.61 47.3682 Z" fill="#000000" fill-rule="nonzero" fill-opacity="1" /><path clip-path="url(#clip920)" d="M1100.85 16.5003 L1100.85 29.3822 L1116.2 29.3822 L1116.2 35.175 L1100.85 35.175 L1100.85 59.8045 Q1100.85 65.3542 1102.34 66.9341 Q1103.88 68.5139 1108.54 68.5139 L1116.2 68.5139 L1116.2 74.7523 L1108.54 74.7523 Q1099.91 74.7523 1096.63 71.5521 Q1093.35 68.3114 1093.35 59.8045 L1093.35 35.175 L1087.88 35.175 L1087.88 29.3822 L1093.35 29.3822 L1093.35 16.5003 L1100.85 16.5003 Z" fill="#000000" fill-rule="nonzero" fill-opacity="1" /><path clip-path="url(#clip920)" d="M1143.58 34.6079 Q1137.59 34.6079 1134.1 39.3069 Q1130.62 43.9654 1130.62 52.1078 Q1130.62 60.2501 1134.06 64.9491 Q1137.55 69.6077 1143.58 69.6077 Q1149.54 69.6077 1153.02 64.9086 Q1156.51 60.2096 1156.51 52.1078 Q1156.51 44.0465 1153.02 39.3474 Q1149.54 34.6079 1143.58 34.6079 M1143.58 28.2884 Q1153.31 28.2884 1158.86 34.6079 Q1164.4 40.9273 1164.4 52.1078 Q1164.4 63.2477 1158.86 69.6077 Q1153.31 75.9271 1143.58 75.9271 Q1133.82 75.9271 1128.27 69.6077 Q1122.76 63.2477 1122.76 52.1078 Q1122.76 40.9273 1128.27 34.6079 Q1133.82 28.2884 1143.58 28.2884 Z" fill="#000000" fill-rule="nonzero" fill-opacity="1" /><path clip-path="url(#clip920)" d="M1175.99 56.8473 L1175.99 29.3822 L1183.44 29.3822 L1183.44 56.5638 Q1183.44 63.0047 1185.96 66.2454 Q1188.47 69.4456 1193.49 69.4456 Q1199.53 69.4456 1203.01 65.5973 Q1206.53 61.7489 1206.53 55.1054 L1206.53 29.3822 L1213.99 29.3822 L1213.99 74.7523 L1206.53 74.7523 L1206.53 67.7848 Q1203.82 71.9167 1200.21 73.9421 Q1196.65 75.9271 1191.91 75.9271 Q1184.09 75.9271 1180.04 71.066 Q1175.99 66.2049 1175.99 56.8473 M1194.75 28.2884 L1194.75 28.2884 Z" fill="#000000" fill-rule="nonzero" fill-opacity="1" /><path clip-path="url(#clip920)" d="M1255.63 36.3497 Q1254.38 35.6206 1252.88 35.2965 Q1251.42 34.9319 1249.64 34.9319 Q1243.32 34.9319 1239.91 39.0638 Q1236.55 43.1553 1236.55 50.852 L1236.55 74.7523 L1229.06 74.7523 L1229.06 29.3822 L1236.55 29.3822 L1236.55 36.4308 Q1238.9 32.2988 1242.67 30.3139 Q1246.44 28.2884 1251.82 28.2884 Q1252.59 28.2884 1253.52 28.41 Q1254.46 28.491 1255.59 28.6935 L1255.63 36.3497 Z" fill="#000000" fill-rule="nonzero" fill-opacity="1" /><path clip-path="url(#clip920)" d="M1298.33 20.9968 L1298.33 43.7224 L1308.62 43.7224 Q1314.33 43.7224 1317.45 40.7652 Q1320.57 37.8081 1320.57 32.3393 Q1320.57 26.9111 1317.45 23.954 Q1314.33 20.9968 1308.62 20.9968 L1298.33 20.9968 M1290.14 14.2723 L1308.62 14.2723 Q1318.78 14.2723 1323.97 18.8903 Q1329.2 23.4679 1329.2 32.3393 Q1329.2 41.2918 1323.97 45.8694 Q1318.78 50.4469 1308.62 50.4469 L1298.33 50.4469 L1298.33 74.7523 L1290.14 74.7523 L1290.14 14.2723 Z" fill="#000000" fill-rule="nonzero" fill-opacity="1" /><path clip-path="url(#clip920)" d="M1339.85 11.7202 L1347.3 11.7202 L1347.3 74.7523 L1339.85 74.7523 L1339.85 11.7202 Z" fill="#000000" fill-rule="nonzero" fill-opacity="1" /><path clip-path="url(#clip920)" d="M1380.48 34.6079 Q1374.48 34.6079 1371 39.3069 Q1367.52 43.9654 1367.52 52.1078 Q1367.52 60.2501 1370.96 64.9491 Q1374.44 69.6077 1380.48 69.6077 Q1386.43 69.6077 1389.92 64.9086 Q1393.4 60.2096 1393.4 52.1078 Q1393.4 44.0465 1389.92 39.3474 Q1386.43 34.6079 1380.48 34.6079 M1380.48 28.2884 Q1390.2 28.2884 1395.75 34.6079 Q1401.3 40.9273 1401.3 52.1078 Q1401.3 63.2477 1395.75 69.6077 Q1390.2 75.9271 1380.48 75.9271 Q1370.72 75.9271 1365.17 69.6077 Q1359.66 63.2477 1359.66 52.1078 Q1359.66 40.9273 1365.17 34.6079 Q1370.72 28.2884 1380.48 28.2884 Z" fill="#000000" fill-rule="nonzero" fill-opacity="1" /><path clip-path="url(#clip920)" d="M1421.03 16.5003 L1421.03 29.3822 L1436.38 29.3822 L1436.38 35.175 L1421.03 35.175 L1421.03 59.8045 Q1421.03 65.3542 1422.53 66.9341 Q1424.07 68.5139 1428.73 68.5139 L1436.38 68.5139 L1436.38 74.7523 L1428.73 74.7523 Q1420.1 74.7523 1416.82 71.5521 Q1413.54 68.3114 1413.54 59.8045 L1413.54 35.175 L1408.07 35.175 L1408.07 29.3822 L1413.54 29.3822 L1413.54 16.5003 L1421.03 16.5003 Z" fill="#000000" fill-rule="nonzero" fill-opacity="1" /><path clip-path="url(#clip920)" d="M1490.14 34.6079 Q1484.14 34.6079 1480.66 39.3069 Q1477.18 43.9654 1477.18 52.1078 Q1477.18 60.2501 1480.62 64.9491 Q1484.1 69.6077 1490.14 69.6077 Q1496.09 69.6077 1499.58 64.9086 Q1503.06 60.2096 1503.06 52.1078 Q1503.06 44.0465 1499.58 39.3474 Q1496.09 34.6079 1490.14 34.6079 M1490.14 28.2884 Q1499.86 28.2884 1505.41 34.6079 Q1510.96 40.9273 1510.96 52.1078 Q1510.96 63.2477 1505.41 69.6077 Q1499.86 75.9271 1490.14 75.9271 Q1480.38 75.9271 1474.83 69.6077 Q1469.32 63.2477 1469.32 52.1078 Q1469.32 40.9273 1474.83 34.6079 Q1480.38 28.2884 1490.14 28.2884 Z" fill="#000000" fill-rule="nonzero" fill-opacity="1" /><path clip-path="url(#clip920)" d="M1546.28 11.7202 L1546.28 17.9181 L1539.15 17.9181 Q1535.14 17.9181 1533.56 19.5385 Q1532.02 21.1588 1532.02 25.3718 L1532.02 29.3822 L1544.3 29.3822 L1544.3 35.175 L1532.02 35.175 L1532.02 74.7523 L1524.53 74.7523 L1524.53 35.175 L1517.4 35.175 L1517.4 29.3822 L1524.53 29.3822 L1524.53 26.2225 Q1524.53 18.6473 1528.05 15.204 Q1531.58 11.7202 1539.24 11.7202 L1546.28 11.7202 Z" fill="#000000" fill-rule="nonzero" fill-opacity="1" /><path clip-path="url(#clip920)" d="M1571.08 73.6456 L1571.08 62.5785 Q1571.08 61.6357 1571.12 61.3078 Q1571.16 60.9799 1571.4 60.734 Q1571.65 60.488 1572.14 60.488 Q1572.71 60.488 1572.92 60.734 Q1573.17 60.9799 1573.33 61.9227 Q1574.6 67.7022 1577.31 70.7764 Q1580.05 73.8096 1585.01 73.8096 Q1589.73 73.8096 1592.1 71.7191 Q1594.48 69.6287 1594.48 66.1856 Q1594.48 60.0372 1585.75 58.4796 Q1580.71 57.4548 1578.62 56.799 Q1576.53 56.1022 1574.68 54.5856 Q1571.08 51.6344 1571.08 47.4535 Q1571.08 43.2725 1574.23 40.1984 Q1577.43 37.1242 1584.48 37.1242 Q1589.19 37.1242 1592.39 39.5015 Q1593.33 38.7637 1593.82 38.1489 Q1594.93 37.1242 1595.5 37.1242 Q1596.16 37.1242 1596.28 37.575 Q1596.41 37.9849 1596.41 39.1736 L1596.41 47.6174 Q1596.41 48.5602 1596.37 48.8881 Q1596.32 49.216 1596.08 49.4619 Q1595.83 49.6669 1595.3 49.6669 Q1594.36 49.6669 1594.32 48.8881 Q1593.66 38.7227 1584.48 38.7227 Q1579.52 38.7227 1577.31 40.6492 Q1575.09 42.5347 1575.09 45.1171 Q1575.09 46.5517 1575.75 47.6584 Q1576.44 48.7241 1577.31 49.3799 Q1578.21 49.9948 1579.85 50.6096 Q1581.49 51.1835 1582.47 51.3884 Q1583.49 51.5934 1585.42 52.0033 Q1592.14 53.2739 1594.97 56.0202 Q1598.5 59.5453 1598.5 64.0131 Q1598.5 68.9728 1595.14 72.3339 Q1591.77 75.6951 1585.01 75.6951 Q1579.56 75.6951 1575.75 72.047 Q1575.26 72.5389 1574.89 72.9898 Q1574.52 73.3997 1574.35 73.5636 Q1574.23 73.7276 1574.19 73.8505 Q1574.15 73.9325 1574.07 74.0145 Q1572.39 75.6951 1571.98 75.6951 Q1571.32 75.6951 1571.2 75.2442 Q1571.08 74.8343 1571.08 73.6456 Z" fill="#000000" fill-rule="nonzero" fill-opacity="1" /><path clip-path="url(#clip920)" d="M1601.78 74.7523 L1601.78 72.17 Q1606.25 72.17 1607.27 71.6371 Q1608.3 71.0633 1608.3 68.358 L1608.3 45.7729 Q1608.3 42.6577 1607.23 41.9199 Q1606.21 41.1821 1602.11 41.1821 L1602.11 38.5588 L1613.83 37.657 L1613.83 68.44 Q1613.83 70.9403 1614.73 71.5551 Q1615.63 72.17 1619.73 72.17 L1619.73 74.7523 Q1611.17 74.5064 1611 74.5064 Q1609.85 74.5064 1601.78 74.7523 M1605.3 23.0238 Q1605.3 21.3433 1606.58 19.9906 Q1607.89 18.597 1609.73 18.597 Q1611.58 18.597 1612.89 19.8677 Q1614.2 21.0973 1614.2 23.0648 Q1614.2 24.9913 1612.89 26.262 Q1611.58 27.4917 1609.73 27.4917 Q1607.8 27.4917 1606.53 26.139 Q1605.3 24.7864 1605.3 23.0238 Z" fill="#000000" fill-rule="nonzero" fill-opacity="1" /><path clip-path="url(#clip920)" d="M1625.47 74.7523 L1625.47 72.17 Q1629.94 72.17 1630.96 71.6371 Q1631.99 71.0633 1631.99 68.358 L1631.99 45.8549 Q1631.99 42.7397 1630.88 41.9609 Q1629.81 41.1821 1625.47 41.1821 L1625.47 38.5588 L1637.27 37.657 L1637.27 46.4697 Q1641.21 37.657 1649.69 37.657 Q1656.01 37.657 1658.51 40.7722 Q1660.35 42.8627 1660.72 45.199 Q1661.13 47.5354 1661.13 53.6018 L1661.13 69.6287 Q1661.21 71.3912 1662.56 71.8011 Q1663.92 72.17 1667.69 72.17 L1667.69 74.7523 Q1659.12 74.5064 1658.26 74.5064 Q1657.61 74.5064 1648.79 74.7523 L1648.79 72.17 Q1653.26 72.17 1654.28 71.6371 Q1655.35 71.0633 1655.35 68.358 L1655.35 48.8061 Q1655.35 44.5432 1654.04 42.0429 Q1652.73 39.5015 1649.12 39.5015 Q1644.78 39.5015 1641.29 43.1496 Q1637.81 46.7976 1637.81 52.946 L1637.81 68.358 Q1637.81 71.0633 1638.83 71.6371 Q1639.9 72.17 1644.32 72.17 L1644.32 74.7523 Q1635.76 74.5064 1634.94 74.5064 Q1634.28 74.5064 1625.47 74.7523 Z" fill="#000000" fill-rule="nonzero" fill-opacity="1" /><path clip-path="url(#clip920)" d="M1713.4 43.1906 Q1713.4 45.486 1711.96 46.7976 Q1710.53 48.0683 1708.89 48.0683 Q1707.33 48.0683 1706.51 47.1665 Q1705.69 46.2648 1705.69 45.1171 Q1705.69 43.5595 1706.84 42.2068 Q1707.98 40.8542 1709.71 40.5673 Q1708.03 39.5015 1705.53 39.5015 Q1703.89 39.5015 1702.45 40.3623 Q1701.06 41.2231 1700.2 42.3298 Q1699.38 43.4365 1698.64 45.0351 Q1697.94 46.5927 1697.66 47.5354 Q1697.41 48.4372 1697.2 49.4209 L1694.34 60.8979 Q1692.94 66.3495 1692.94 68.276 Q1692.94 70.6534 1694.09 72.252 Q1695.24 73.8096 1697.53 73.8096 Q1698.43 73.8096 1699.46 73.5636 Q1700.48 73.2767 1701.8 72.5389 Q1703.15 71.7601 1704.34 70.6124 Q1705.57 69.4237 1706.76 67.4152 Q1707.94 65.4068 1708.72 62.8244 Q1708.97 61.9227 1709.79 61.9227 Q1710.81 61.9227 1710.81 62.7425 Q1710.81 63.4393 1710.24 64.9149 Q1709.71 66.3495 1708.52 68.235 Q1707.37 70.0795 1705.85 71.7601 Q1704.34 73.3997 1702.08 74.5474 Q1699.83 75.6951 1697.37 75.6951 Q1693.84 75.6951 1691.51 73.8096 Q1689.17 71.9241 1688.31 69.3007 Q1688.11 69.6696 1687.82 70.1615 Q1687.53 70.6534 1686.67 71.7601 Q1685.85 72.8258 1684.91 73.6456 Q1683.97 74.4244 1682.49 75.0392 Q1681.06 75.6951 1679.5 75.6951 Q1677.53 75.6951 1675.77 75.1212 Q1674.05 74.5474 1672.82 73.2357 Q1671.59 71.9241 1671.59 70.1205 Q1671.59 68.112 1672.94 66.7184 Q1674.33 65.2838 1676.22 65.2838 Q1677.41 65.2838 1678.35 65.9806 Q1679.33 66.6774 1679.33 68.194 Q1679.33 69.8746 1678.19 71.1453 Q1677.04 72.4159 1675.4 72.7438 Q1677.08 73.8096 1679.58 73.8096 Q1682.28 73.8096 1684.42 71.4322 Q1686.55 69.0548 1687.57 65.0788 Q1690.11 55.5283 1691.1 51.2655 Q1692.08 46.9616 1692.08 45.1171 Q1692.08 43.3955 1691.63 42.2068 Q1691.18 41.0181 1690.4 40.4853 Q1689.66 39.9114 1688.97 39.7065 Q1688.31 39.5015 1687.57 39.5015 Q1686.34 39.5015 1684.95 39.9934 Q1683.6 40.4853 1681.96 41.633 Q1680.36 42.7397 1678.84 45.0351 Q1677.33 47.3305 1676.3 50.4867 Q1676.1 51.4294 1675.19 51.4294 Q1674.21 51.3884 1674.21 50.5686 Q1674.21 49.8718 1674.74 48.4372 Q1675.32 46.9616 1676.46 45.1171 Q1677.65 43.2725 1679.17 41.633 Q1680.73 39.9524 1682.98 38.8047 Q1685.28 37.657 1687.74 37.657 Q1688.84 37.657 1689.91 37.903 Q1691.02 38.1079 1692.33 38.7227 Q1693.68 39.3376 1694.87 40.6902 Q1696.06 42.0429 1696.79 44.0104 Q1697.29 43.0676 1697.94 42.1658 Q1698.64 41.2641 1699.71 40.1574 Q1700.81 39.0097 1702.33 38.3538 Q1703.89 37.657 1705.61 37.657 Q1707.29 37.657 1708.93 38.1079 Q1710.57 38.5178 1711.96 39.8704 Q1713.4 41.1821 1713.4 43.1906 Z" fill="#000000" fill-rule="nonzero" fill-opacity="1" /><path clip-path="url(#clip920)" d="M1719.12 73.6456 L1719.12 62.5785 Q1719.12 61.6357 1719.17 61.3078 Q1719.21 60.9799 1719.45 60.734 Q1719.7 60.488 1720.19 60.488 Q1720.76 60.488 1720.97 60.734 Q1721.21 60.9799 1721.38 61.9227 Q1722.65 67.7022 1725.35 70.7764 Q1728.1 73.8096 1733.06 73.8096 Q1737.77 73.8096 1740.15 71.7191 Q1742.53 69.6287 1742.53 66.1856 Q1742.53 60.0372 1733.8 58.4796 Q1728.76 57.4548 1726.67 56.799 Q1724.58 56.1022 1722.73 54.5856 Q1719.12 51.6344 1719.12 47.4535 Q1719.12 43.2725 1722.28 40.1984 Q1725.48 37.1242 1732.53 37.1242 Q1737.24 37.1242 1740.44 39.5015 Q1741.38 38.7637 1741.87 38.1489 Q1742.98 37.1242 1743.55 37.1242 Q1744.21 37.1242 1744.33 37.575 Q1744.46 37.9849 1744.46 39.1736 L1744.46 47.6174 Q1744.46 48.5602 1744.41 48.8881 Q1744.37 49.216 1744.13 49.4619 Q1743.88 49.6669 1743.35 49.6669 Q1742.41 49.6669 1742.37 48.8881 Q1741.71 38.7227 1732.53 38.7227 Q1727.57 38.7227 1725.35 40.6492 Q1723.14 42.5347 1723.14 45.1171 Q1723.14 46.5517 1723.8 47.6584 Q1724.49 48.7241 1725.35 49.3799 Q1726.26 49.9948 1727.9 50.6096 Q1729.54 51.1835 1730.52 51.3884 Q1731.54 51.5934 1733.47 52.0033 Q1740.19 53.2739 1743.02 56.0202 Q1746.55 59.5453 1746.55 64.0131 Q1746.55 68.9728 1743.19 72.3339 Q1739.82 75.6951 1733.06 75.6951 Q1727.61 75.6951 1723.8 72.047 Q1723.31 72.5389 1722.94 72.9898 Q1722.57 73.3997 1722.4 73.5636 Q1722.28 73.7276 1722.24 73.8505 Q1722.2 73.9325 1722.12 74.0145 Q1720.44 75.6951 1720.03 75.6951 Q1719.37 75.6951 1719.25 75.2442 Q1719.12 74.8343 1719.12 73.6456 Z" fill="#000000" fill-rule="nonzero" fill-opacity="1" /><path clip-path="url(#clip920)" d="M1749.83 74.7523 L1749.83 72.17 Q1754.3 72.17 1755.32 71.6371 Q1756.35 71.0633 1756.35 68.358 L1756.35 45.7729 Q1756.35 42.6577 1755.28 41.9199 Q1754.26 41.1821 1750.16 41.1821 L1750.16 38.5588 L1761.88 37.657 L1761.88 68.44 Q1761.88 70.9403 1762.78 71.5551 Q1763.68 72.17 1767.78 72.17 L1767.78 74.7523 Q1759.22 74.5064 1759.05 74.5064 Q1757.9 74.5064 1749.83 74.7523 M1753.35 23.0238 Q1753.35 21.3433 1754.62 19.9906 Q1755.94 18.597 1757.78 18.597 Q1759.63 18.597 1760.94 19.8677 Q1762.25 21.0973 1762.25 23.0648 Q1762.25 24.9913 1760.94 26.262 Q1759.63 27.4917 1757.78 27.4917 Q1755.85 27.4917 1754.58 26.139 Q1753.35 24.7864 1753.35 23.0238 Z" fill="#000000" fill-rule="nonzero" fill-opacity="1" /><path clip-path="url(#clip920)" d="M1773.52 74.7523 L1773.52 72.17 Q1777.99 72.17 1779.01 71.6371 Q1780.04 71.0633 1780.04 68.358 L1780.04 45.8549 Q1780.04 42.7397 1778.93 41.9609 Q1777.86 41.1821 1773.52 41.1821 L1773.52 38.5588 L1785.32 37.657 L1785.32 46.4697 Q1789.26 37.657 1797.74 37.657 Q1804.06 37.657 1806.56 40.7722 Q1808.4 42.8627 1808.77 45.199 Q1809.18 47.5354 1809.18 53.6018 L1809.18 69.6287 Q1809.26 71.3912 1810.61 71.8011 Q1811.97 72.17 1815.74 72.17 L1815.74 74.7523 Q1807.17 74.5064 1806.31 74.5064 Q1805.65 74.5064 1796.84 74.7523 L1796.84 72.17 Q1801.31 72.17 1802.33 71.6371 Q1803.4 71.0633 1803.4 68.358 L1803.4 48.8061 Q1803.4 44.5432 1802.09 42.0429 Q1800.78 39.5015 1797.17 39.5015 Q1792.82 39.5015 1789.34 43.1496 Q1785.86 46.7976 1785.86 52.946 L1785.86 68.358 Q1785.86 71.0633 1786.88 71.6371 Q1787.95 72.17 1792.37 72.17 L1792.37 74.7523 Q1783.81 74.5064 1782.99 74.5064 Q1782.33 74.5064 1773.52 74.7523 Z" fill="#000000" fill-rule="nonzero" fill-opacity="1" /><path clip-path="url(#clip920)" d="M1821.65 74.7523 L1821.65 72.17 Q1826.12 72.17 1827.14 71.6371 Q1828.17 71.0633 1828.17 68.358 L1828.17 24.7044 Q1828.17 21.5892 1827.06 20.8104 Q1826 20.0316 1821.65 20.0316 L1821.65 17.4083 L1833.7 16.5065 L1833.7 45.6909 L1833.78 45.6909 Q1835.14 42.6577 1838.17 40.1574 Q1841.2 37.657 1845.88 37.657 Q1852.19 37.657 1854.69 40.7722 Q1856.53 42.8627 1856.9 45.199 Q1857.31 47.5354 1857.31 53.6018 L1857.31 69.6287 Q1857.39 71.3912 1858.75 71.8011 Q1860.1 72.17 1863.87 72.17 L1863.87 74.7523 Q1855.3 74.5064 1854.44 74.5064 Q1853.79 74.5064 1844.97 74.7523 L1844.97 72.17 Q1849.44 72.17 1850.47 71.6371 Q1851.53 71.0633 1851.53 68.358 L1851.53 48.8061 Q1851.53 44.5432 1850.22 42.0429 Q1848.91 39.5015 1845.3 39.5015 Q1840.96 39.5015 1837.47 43.1496 Q1833.99 46.7976 1833.99 52.946 L1833.99 68.358 Q1833.99 71.0633 1835.01 71.6371 Q1836.08 72.17 1840.51 72.17 L1840.51 74.7523 Q1831.94 74.5064 1831.12 74.5064 Q1830.46 74.5064 1821.65 74.7523 Z" fill="#000000" fill-rule="nonzero" fill-opacity="1" /><path clip-path="url(#clip920)" d="M1906.5 40.8542 Q1906.5 41.428 1906.13 42.7807 L1898.1 74.8343 Q1896.34 81.9664 1890.6 86.9671 Q1884.9 91.9678 1878.43 91.9678 Q1874.53 91.9678 1872.03 89.8774 Q1869.53 87.8279 1869.53 84.6717 Q1869.53 81.8844 1871.01 80.5318 Q1872.48 79.2201 1874.25 79.2201 Q1874.82 79.2201 1875.43 79.3841 Q1876.05 79.5481 1876.7 80.2449 Q1877.36 80.9417 1877.36 82.1304 Q1877.36 84.0569 1875.68 85.5735 Q1874.86 86.2703 1874.08 86.4343 Q1873.34 86.5982 1872.07 86.5982 Q1872.56 87.7459 1873.47 88.5247 Q1874.37 89.3035 1875.39 89.5904 Q1876.42 89.9183 1877.07 90.0003 Q1877.77 90.1233 1878.43 90.1233 Q1883.67 90.1233 1887.69 84.8357 Q1888.88 83.2371 1889.74 81.6385 Q1890.64 80.0809 1891.3 78.1544 Q1891.95 76.2689 1892.24 75.2442 Q1892.57 74.2195 1893.14 71.8831 Q1889.33 75.6951 1884.66 75.6951 Q1882.69 75.6951 1880.93 75.1622 Q1879.2 74.6293 1877.69 73.5226 Q1876.17 72.3749 1875.27 70.3665 Q1874.41 68.358 1874.41 65.6937 Q1874.41 62.8654 1875.52 59.0124 Q1876.62 55.1594 1879.29 48.0683 Q1880.72 44.0923 1880.72 42.1658 Q1880.72 41.2231 1880.52 40.6492 Q1880.31 40.0344 1879.9 39.8294 Q1879.49 39.5835 1879.25 39.5425 Q1879.04 39.5015 1878.63 39.5015 Q1876.21 39.5015 1873.96 41.9609 Q1871.7 44.4202 1870.15 49.9128 Q1869.82 50.9375 1869.61 51.1835 Q1869.41 51.4294 1868.79 51.4294 Q1867.77 51.3884 1867.77 50.5686 Q1867.77 50.2407 1868.14 48.9701 Q1868.51 47.6584 1869.37 45.7319 Q1870.27 43.7644 1871.5 42.0019 Q1872.73 40.1984 1874.66 38.9277 Q1876.62 37.657 1878.88 37.657 Q1881.95 37.657 1883.84 39.6655 Q1885.76 41.633 1885.76 44.5432 Q1885.76 45.7319 1885.44 46.7976 Q1885.15 47.8224 1884.08 50.5686 Q1879.78 61.6357 1879.78 67.0463 Q1879.78 68.358 1879.98 69.4647 Q1880.23 70.5304 1880.76 71.5961 Q1881.3 72.6209 1882.36 73.2357 Q1883.47 73.8096 1884.98 73.8096 Q1886.91 73.8096 1888.71 72.9078 Q1890.56 71.965 1891.71 70.6944 Q1892.9 69.4237 1893.59 68.358 Q1894.33 67.2513 1894.49 66.6774 L1898.26 51.5934 L1899.95 44.8711 Q1900.72 41.2231 1901.09 40.3213 Q1901.59 39.4605 1902.45 39.0097 Q1903.31 38.5588 1904.04 38.5588 Q1905.07 38.5588 1905.77 39.1736 Q1906.5 39.7885 1906.5 40.8542 Z" fill="#000000" fill-rule="nonzero" fill-opacity="1" /><path clip-path="url(#clip922)" d="M156.598 1486.45 L156.598 1486.45 L482.625 1486.45 L808.651 1486.45 L1134.68 1486.45 L1460.7 1486.45 L1786.73 1486.45 L2112.76 1486.45 L2112.76 1486.45 L2112.76 1486.45 L2112.76 1486.45 L2112.76 1259.29 L2112.76 1032.12 L2112.76 804.96 L2112.76 577.797 L2112.76 350.635 L2112.76 123.472 L2112.76 123.472 L2112.76 123.472 L2112.76 123.472 L1786.73 123.472 L1460.7 123.472 L1134.68 123.472 L808.651 123.472 L482.625 123.472 L156.598 123.472 L156.598 123.472 L156.598 123.472 L156.598 123.472 L156.598 350.635 L156.598 577.797 L156.598 804.96 L156.598 1032.12 L156.598 1259.29 L156.598 1486.45 L156.598 1486.45 L156.598 1486.45  Z" fill="#000003" fill-rule="evenodd" fill-opacity="1"/>
<path clip-path="url(#clip922)" d="M1134.68 1312.13 L1460.7 1352.16 L1786.73 1375.21 L2112.76 1389.65 L2112.76 1486.45 L2112.76 1259.29 L2112.76 1032.12 L2112.76 804.96 L2112.76 577.797 L2112.76 350.635 L2112.76 123.472 L2112.76 123.472 L2112.76 123.472 L2112.76 123.472 L1786.73 123.472 L1460.7 123.472 L1134.68 123.472 L808.651 123.472 L482.625 123.472 L156.598 123.472 L263.409 123.472 L289.932 350.635 L328.816 577.797 L392.216 804.96 L482.625 987.233 L517.431 1032.12 L808.651 1230.52 L898.121 1259.29 L1134.68 1312.13  Z" fill="#0b0726" fill-rule="evenodd" fill-opacity="1"/>
<path clip-path="url(#clip922)" d="M1786.73 1263.97 L2112.76 1292.85 L2112.76 1486.45 L2112.76 1259.29 L2112.76 1032.12 L2112.76 804.96 L2112.76 577.797 L2112.76 350.635 L2112.76 123.472 L2112.76 123.472 L2112.76 123.472 L2112.76 123.472 L1786.73 123.472 L1460.7 123.472 L1134.68 123.472 L808.651 123.472 L482.625 123.472 L156.598 123.472 L370.219 123.472 L423.266 350.635 L482.625 533.815 L501.456 577.797 L631.17 804.96 L808.651 981.838 L889.423 1032.12 L1134.68 1140.48 L1460.7 1218.79 L1747.54 1259.29 L1786.73 1263.97  Z" fill="#240b4e" fill-rule="evenodd" fill-opacity="1"/>
<path clip-path="url(#clip922)" d="M1460.7 1087.46 L1786.73 1155.08 L2112.76 1197.45 L2112.76 1259.29 L2112.76 1032.12 L2112.76 804.96 L2112.76 577.797 L2112.76 350.635 L2112.76 123.472 L2112.76 123.472 L2112.76 123.472 L2112.76 123.472 L1786.73 123.472 L1460.7 123.472 L1134.68 123.472 L808.651 123.472 L482.625 123.472 L156.598 123.472 L477.03 123.472 L482.625 143.068 L558.3 350.635 L677.63 577.797 L808.651 745.504 L875.225 804.96 L1134.68 972.654 L1285.87 1032.12 L1460.7 1087.46  Z" fill="#410967" fill-rule="evenodd" fill-opacity="1"/>
<path clip-path="url(#clip922)" d="M1786.73 1046.3 L2112.76 1102.79 L2112.76 1259.29 L2112.76 1032.12 L2112.76 804.96 L2112.76 577.797 L2112.76 350.635 L2112.76 123.472 L2112.76 123.472 L2112.76 123.472 L2112.76 123.472 L1786.73 123.472 L1460.7 123.472 L1134.68 123.472 L808.651 123.472 L482.625 123.472 L586.166 123.472 L694.697 350.635 L808.651 524.469 L855.953 577.797 L1127.73 804.96 L1134.68 809.452 L1460.7 959.377 L1726.81 1032.12 L1786.73 1046.3  Z" fill="#5d126e" fill-rule="evenodd" fill-opacity="1"/>
<path clip-path="url(#clip922)" d="M1460.7 833.656 L1786.73 941.55 L2112.76 1009.15 L2112.76 1032.12 L2112.76 804.96 L2112.76 577.797 L2112.76 350.635 L2112.76 123.472 L2112.76 123.472 L2112.76 123.472 L2112.76 123.472 L1786.73 123.472 L1460.7 123.472 L1134.68 123.472 L808.651 123.472 L482.625 123.472 L695.43 123.472 L808.651 319.505 L832.163 350.635 L1040.51 577.797 L1134.68 655.968 L1398.73 804.96 L1460.7 833.656  Z" fill="#781c6d" fill-rule="evenodd" fill-opacity="1"/>
<path clip-path="url(#clip922)" d="M1786.73 837.408 L2112.76 918.523 L2112.76 1032.12 L2112.76 804.96 L2112.76 577.797 L2112.76 350.635 L2112.76 123.472 L2112.76 123.472 L2112.76 123.472 L2112.76 123.472 L1786.73 123.472 L1460.7 123.472 L1134.68 123.472 L808.651 123.472 L482.625 123.472 L804.695 123.472 L808.651 130.322 L975.052 350.635 L1134.68 508.559 L1231.88 577.797 L1460.7 713.876 L1692.96 804.96 L1786.73 837.408  Z" fill="#932567" fill-rule="evenodd" fill-opacity="1"/>
<path clip-path="url(#clip922)" d="M2112.76 827.901 L2112.76 1032.12 L2112.76 804.96 L2112.76 577.797 L2112.76 350.635 L2112.76 123.472 L2112.76 123.472 L2112.76 123.472 L2112.76 123.472 L1786.73 123.472 L1460.7 123.472 L1134.68 123.472 L808.651 123.472 L918.971 123.472 L1117.94 350.635 L1134.68 367.193 L1430.34 577.797 L1460.7 595.854 L1786.73 737.655 L2025.1 804.96 L2112.76 827.901  Z" fill="#ae305b" fill-rule="evenodd" fill-opacity="1"/>
<path clip-path="url(#clip922)" d="M1786.73 639.89 L2112.76 741.422 L2112.76 804.96 L2112.76 577.797 L2112.76 350.635 L2112.76 123.472 L2112.76 123.472 L2112.76 123.472 L2112.76 123.472 L1786.73 123.472 L1460.7 123.472 L1134.68 123.472 L808.651 123.472 L1033.44 123.472 L1134.68 237.157 L1270.33 350.635 L1460.7 485.558 L1647.02 577.797 L1786.73 639.89  Z" fill="#c73e4c" fill-rule="evenodd" fill-opacity="1"/>
<path clip-path="url(#clip922)" d="M2112.76 656.348 L2112.76 804.96 L2112.76 577.797 L2112.76 350.635 L2112.76 123.472 L2112.76 123.472 L2112.76 123.472 L2112.76 123.472 L1786.73 123.472 L1460.7 123.472 L1134.68 123.472 L1148.9 123.472 L1423.98 350.635 L1460.7 376.659 L1786.73 544.882 L1879.08 577.797 L2112.76 656.348  Z" fill="#dc5039" fill-rule="evenodd" fill-opacity="1"/>
<path clip-path="url(#clip922)" d="M1786.73 454.674 L2112.76 571.778 L2112.76 577.797 L2112.76 350.635 L2112.76 123.472 L2112.76 123.472 L2112.76 123.472 L2112.76 123.472 L1786.73 123.472 L1460.7 123.472 L1134.68 123.472 L1271.98 123.472 L1460.7 275.282 L1590.31 350.635 L1786.73 454.674  Z" fill="#ed6825" fill-rule="evenodd" fill-opacity="1"/>
<path clip-path="url(#clip922)" d="M1786.73 364.466 L2112.76 493.281 L2112.76 577.797 L2112.76 350.635 L2112.76 123.472 L2112.76 123.472 L2112.76 123.472 L2112.76 123.472 L1786.73 123.472 L1460.7 123.472 L1134.68 123.472 L1395.07 123.472 L1460.7 176.268 L1760.62 350.635 L1786.73 364.466  Z" fill="#f7850e" fill-rule="evenodd" fill-opacity="1"/>
<path clip-path="url(#clip922)" d="M2112.76 414.783 L2112.76 577.797 L2112.76 350.635 L2112.76 123.472 L2112.76 123.472 L2112.76 123.472 L2112.76 123.472 L1786.73 123.472 L1460.7 123.472 L1524.39 123.472 L1786.73 281.191 L1952.63 350.635 L2112.76 414.783  Z" fill="#fba40a" fill-rule="evenodd" fill-opacity="1"/>
<path clip-path="url(#clip922)" d="M1786.73 199.172 L2112.76 337.588 L2112.76 350.635 L2112.76 123.472 L2112.76 123.472 L2112.76 123.472 L2112.76 123.472 L1786.73 123.472 L1460.7 123.472 L1660.81 123.472 L1786.73 199.172  Z" fill="#f9c52c" fill-rule="evenodd" fill-opacity="1"/>
<path clip-path="url(#clip922)" d="M2112.76 266.216 L2112.76 350.635 L2112.76 123.472 L2112.76 123.472 L2112.76 123.472 L2112.76 123.472 L1786.73 123.472 L1798.82 123.472 L2112.76 266.216  Z" fill="#f2e660" fill-rule="evenodd" fill-opacity="1"/>
<path clip-path="url(#clip922)" d="M2112.76 194.844 L2112.76 350.635 L2112.76 123.472 L2112.76 123.472 L2112.76 123.472 L2112.76 123.472 L1786.73 123.472 L1955.79 123.472 L2112.76 194.844  Z" fill="#fcfea4" fill-rule="evenodd" fill-opacity="1"/>
<polyline clip-path="url(#clip922)" style="stroke:#000003; stroke-linecap:round; stroke-linejoin:round; stroke-width:4; stroke-opacity:1; fill:none" points="156.598,1486.45 156.598,1486.45 482.625,1486.45 808.651,1486.45 1134.68,1486.45 1460.7,1486.45 1786.73,1486.45 2112.76,1486.45 2112.76,1259.29 2112.76,1032.12 2112.76,804.96 2112.76,577.797 2112.76,350.635 2112.76,123.472 1786.73,123.472 1460.7,123.472 1134.68,123.472 808.651,123.472 482.625,123.472 156.598,123.472 156.598,350.635 156.598,577.797 156.598,804.96 156.598,1032.12 156.598,1259.29 156.598,1486.45 "/>
<polyline clip-path="url(#clip922)" style="stroke:#000003; stroke-linecap:round; stroke-linejoin:round; stroke-width:4; stroke-opacity:1; fill:none" points="1134.68,1312.13 1460.7,1352.16 1786.73,1375.21 2112.76,1389.65 2112.76,1486.45 2112.76,1259.29 2112.76,1032.12 2112.76,804.96 2112.76,577.797 2112.76,350.635 2112.76,123.472 1786.73,123.472 1460.7,123.472 1134.68,123.472 808.651,123.472 482.625,123.472 156.598,123.472 263.409,123.472 289.932,350.635 328.816,577.797 392.216,804.96 482.625,987.233 517.431,1032.12 808.651,1230.52 898.121,1259.29 1134.68,1312.13 "/>
<polyline clip-path="url(#clip922)" style="stroke:#000003; stroke-linecap:round; stroke-linejoin:round; stroke-width:4; stroke-opacity:1; fill:none" points="1786.73,1263.97 2112.76,1292.85 2112.76,1486.45 2112.76,1259.29 2112.76,1032.12 2112.76,804.96 2112.76,577.797 2112.76,350.635 2112.76,123.472 1786.73,123.472 1460.7,123.472 1134.68,123.472 808.651,123.472 482.625,123.472 156.598,123.472 370.219,123.472 423.266,350.635 482.625,533.815 501.456,577.797 631.17,804.96 808.651,981.838 889.423,1032.12 1134.68,1140.48 1460.7,1218.79 1747.54,1259.29 1786.73,1263.97 "/>
<polyline clip-path="url(#clip922)" style="stroke:#000003; stroke-linecap:round; stroke-linejoin:round; stroke-width:4; stroke-opacity:1; fill:none" points="1460.7,1087.46 1786.73,1155.08 2112.76,1197.45 2112.76,1259.29 2112.76,1032.12 2112.76,804.96 2112.76,577.797 2112.76,350.635 2112.76,123.472 1786.73,123.472 1460.7,123.472 1134.68,123.472 808.651,123.472 482.625,123.472 156.598,123.472 477.03,123.472 482.625,143.068 558.3,350.635 677.63,577.797 808.651,745.504 875.225,804.96 1134.68,972.654 1285.87,1032.12 1460.7,1087.46 "/>
<polyline clip-path="url(#clip922)" style="stroke:#000003; stroke-linecap:round; stroke-linejoin:round; stroke-width:4; stroke-opacity:1; fill:none" points="1786.73,1046.3 2112.76,1102.79 2112.76,1259.29 2112.76,1032.12 2112.76,804.96 2112.76,577.797 2112.76,350.635 2112.76,123.472 1786.73,123.472 1460.7,123.472 1134.68,123.472 808.651,123.472 482.625,123.472 586.166,123.472 694.697,350.635 808.651,524.469 855.953,577.797 1127.73,804.96 1134.68,809.452 1460.7,959.377 1726.81,1032.12 1786.73,1046.3 "/>
<polyline clip-path="url(#clip922)" style="stroke:#000003; stroke-linecap:round; stroke-linejoin:round; stroke-width:4; stroke-opacity:1; fill:none" points="1460.7,833.656 1786.73,941.55 2112.76,1009.15 2112.76,1032.12 2112.76,804.96 2112.76,577.797 2112.76,350.635 2112.76,123.472 1786.73,123.472 1460.7,123.472 1134.68,123.472 808.651,123.472 482.625,123.472 695.43,123.472 808.651,319.505 832.163,350.635 1040.51,577.797 1134.68,655.968 1398.73,804.96 1460.7,833.656 "/>
<polyline clip-path="url(#clip922)" style="stroke:#000003; stroke-linecap:round; stroke-linejoin:round; stroke-width:4; stroke-opacity:1; fill:none" points="1786.73,837.408 2112.76,918.523 2112.76,1032.12 2112.76,804.96 2112.76,577.797 2112.76,350.635 2112.76,123.472 1786.73,123.472 1460.7,123.472 1134.68,123.472 808.651,123.472 482.625,123.472 804.695,123.472 808.651,130.322 975.052,350.635 1134.68,508.559 1231.88,577.797 1460.7,713.876 1692.96,804.96 1786.73,837.408 "/>
<polyline clip-path="url(#clip922)" style="stroke:#000003; stroke-linecap:round; stroke-linejoin:round; stroke-width:4; stroke-opacity:1; fill:none" points="2112.76,827.901 2112.76,1032.12 2112.76,804.96 2112.76,577.797 2112.76,350.635 2112.76,123.472 1786.73,123.472 1460.7,123.472 1134.68,123.472 808.651,123.472 918.971,123.472 1117.94,350.635 1134.68,367.193 1430.34,577.797 1460.7,595.854 1786.73,737.655 2025.1,804.96 2112.76,827.901 "/>
<polyline clip-path="url(#clip922)" style="stroke:#000003; stroke-linecap:round; stroke-linejoin:round; stroke-width:4; stroke-opacity:1; fill:none" points="1786.73,639.89 2112.76,741.422 2112.76,804.96 2112.76,577.797 2112.76,350.635 2112.76,123.472 1786.73,123.472 1460.7,123.472 1134.68,123.472 808.651,123.472 1033.44,123.472 1134.68,237.157 1270.33,350.635 1460.7,485.558 1647.02,577.797 1786.73,639.89 "/>
<polyline clip-path="url(#clip922)" style="stroke:#000003; stroke-linecap:round; stroke-linejoin:round; stroke-width:4; stroke-opacity:1; fill:none" points="2112.76,656.348 2112.76,804.96 2112.76,577.797 2112.76,350.635 2112.76,123.472 1786.73,123.472 1460.7,123.472 1134.68,123.472 1148.9,123.472 1423.98,350.635 1460.7,376.659 1786.73,544.882 1879.08,577.797 2112.76,656.348 "/>
<polyline clip-path="url(#clip922)" style="stroke:#000003; stroke-linecap:round; stroke-linejoin:round; stroke-width:4; stroke-opacity:1; fill:none" points="1786.73,454.674 2112.76,571.778 2112.76,577.797 2112.76,350.635 2112.76,123.472 1786.73,123.472 1460.7,123.472 1134.68,123.472 1271.98,123.472 1460.7,275.282 1590.31,350.635 1786.73,454.674 "/>
<polyline clip-path="url(#clip922)" style="stroke:#000003; stroke-linecap:round; stroke-linejoin:round; stroke-width:4; stroke-opacity:1; fill:none" points="1786.73,364.466 2112.76,493.281 2112.76,577.797 2112.76,350.635 2112.76,123.472 1786.73,123.472 1460.7,123.472 1134.68,123.472 1395.07,123.472 1460.7,176.268 1760.62,350.635 1786.73,364.466 "/>
<polyline clip-path="url(#clip922)" style="stroke:#000003; stroke-linecap:round; stroke-linejoin:round; stroke-width:4; stroke-opacity:1; fill:none" points="2112.76,414.783 2112.76,577.797 2112.76,350.635 2112.76,123.472 1786.73,123.472 1460.7,123.472 1524.39,123.472 1786.73,281.191 1952.63,350.635 2112.76,414.783 "/>
<polyline clip-path="url(#clip922)" style="stroke:#000003; stroke-linecap:round; stroke-linejoin:round; stroke-width:4; stroke-opacity:1; fill:none" points="1786.73,199.172 2112.76,337.588 2112.76,350.635 2112.76,123.472 1786.73,123.472 1460.7,123.472 1660.81,123.472 1786.73,199.172 "/>
<polyline clip-path="url(#clip922)" style="stroke:#000003; stroke-linecap:round; stroke-linejoin:round; stroke-width:4; stroke-opacity:1; fill:none" points="2112.76,266.216 2112.76,350.635 2112.76,123.472 1786.73,123.472 1798.82,123.472 2112.76,266.216 "/>
<polyline clip-path="url(#clip922)" style="stroke:#000003; stroke-linecap:round; stroke-linejoin:round; stroke-width:4; stroke-opacity:1; fill:none" points="2112.76,194.844 2112.76,350.635 2112.76,123.472 1786.73,123.472 1955.79,123.472 2112.76,194.844 "/>
<defs>
  <clipPath id="clip923">
    <rect x="2160" y="123" width="73" height="1364"/>
  </clipPath>
</defs>
<path clip-path="url(#clip923)" d="M2160.76 1486.45 L2232.76 1486.45 L2232.76 1401.26 L2160.76 1401.26  Z" fill="#000003" fill-rule="evenodd" fill-opacity="1"/>
<path clip-path="url(#clip923)" d="M2160.76 1401.26 L2232.76 1401.26 L2232.76 1316.08 L2160.76 1316.08  Z" fill="#0b0726" fill-rule="evenodd" fill-opacity="1"/>
<path clip-path="url(#clip923)" d="M2160.76 1316.08 L2232.76 1316.08 L2232.76 1230.89 L2160.76 1230.89  Z" fill="#240b4e" fill-rule="evenodd" fill-opacity="1"/>
<path clip-path="url(#clip923)" d="M2160.76 1230.89 L2232.76 1230.89 L2232.76 1145.7 L2160.76 1145.7  Z" fill="#410967" fill-rule="evenodd" fill-opacity="1"/>
<path clip-path="url(#clip923)" d="M2160.76 1145.7 L2232.76 1145.7 L2232.76 1060.52 L2160.76 1060.52  Z" fill="#5d126e" fill-rule="evenodd" fill-opacity="1"/>
<path clip-path="url(#clip923)" d="M2160.76 1060.52 L2232.76 1060.52 L2232.76 975.332 L2160.76 975.332  Z" fill="#781c6d" fill-rule="evenodd" fill-opacity="1"/>
<path clip-path="url(#clip923)" d="M2160.76 975.332 L2232.76 975.332 L2232.76 890.146 L2160.76 890.146  Z" fill="#932567" fill-rule="evenodd" fill-opacity="1"/>
<path clip-path="url(#clip923)" d="M2160.76 890.146 L2232.76 890.146 L2232.76 804.96 L2160.76 804.96  Z" fill="#ae305b" fill-rule="evenodd" fill-opacity="1"/>
<path clip-path="url(#clip923)" d="M2160.76 804.96 L2232.76 804.96 L2232.76 719.774 L2160.76 719.774  Z" fill="#c73e4c" fill-rule="evenodd" fill-opacity="1"/>
<path clip-path="url(#clip923)" d="M2160.76 719.774 L2232.76 719.774 L2232.76 634.588 L2160.76 634.588  Z" fill="#dc5039" fill-rule="evenodd" fill-opacity="1"/>
<path clip-path="url(#clip923)" d="M2160.76 634.588 L2232.76 634.588 L2232.76 549.402 L2160.76 549.402  Z" fill="#ed6825" fill-rule="evenodd" fill-opacity="1"/>
<path clip-path="url(#clip923)" d="M2160.76 549.402 L2232.76 549.402 L2232.76 464.216 L2160.76 464.216  Z" fill="#f7850e" fill-rule="evenodd" fill-opacity="1"/>
<path clip-path="url(#clip923)" d="M2160.76 464.216 L2232.76 464.216 L2232.76 379.03 L2160.76 379.03  Z" fill="#fba40a" fill-rule="evenodd" fill-opacity="1"/>
<path clip-path="url(#clip923)" d="M2160.76 379.03 L2232.76 379.03 L2232.76 293.844 L2160.76 293.844  Z" fill="#f9c52c" fill-rule="evenodd" fill-opacity="1"/>
<path clip-path="url(#clip923)" d="M2160.76 293.844 L2232.76 293.844 L2232.76 208.658 L2160.76 208.658  Z" fill="#f2e660" fill-rule="evenodd" fill-opacity="1"/>
<path clip-path="url(#clip923)" d="M2160.76 208.658 L2232.76 208.658 L2232.76 123.472 L2160.76 123.472  Z" fill="#fcfea4" fill-rule="evenodd" fill-opacity="1"/>
<path clip-path="url(#clip920)" d="M2280.7 1468.62 Q2277.09 1468.62 2275.26 1472.18 Q2273.45 1475.72 2273.45 1482.85 Q2273.45 1489.96 2275.26 1493.53 Q2277.09 1497.07 2280.7 1497.07 Q2284.33 1497.07 2286.14 1493.53 Q2287.97 1489.96 2287.97 1482.85 Q2287.97 1475.72 2286.14 1472.18 Q2284.33 1468.62 2280.7 1468.62 M2280.7 1464.91 Q2286.51 1464.91 2289.57 1469.52 Q2292.64 1474.1 2292.64 1482.85 Q2292.64 1491.58 2289.57 1496.19 Q2286.51 1500.77 2280.7 1500.77 Q2274.89 1500.77 2271.81 1496.19 Q2268.76 1491.58 2268.76 1482.85 Q2268.76 1474.1 2271.81 1469.52 Q2274.89 1464.91 2280.7 1464.91 Z" fill="#000000" fill-rule="nonzero" fill-opacity="1" /><path clip-path="url(#clip920)" d="M2280.7 1299.11 Q2277.09 1299.11 2275.26 1302.68 Q2273.45 1306.22 2273.45 1313.35 Q2273.45 1320.46 2275.26 1324.02 Q2277.09 1327.56 2280.7 1327.56 Q2284.33 1327.56 2286.14 1324.02 Q2287.97 1320.46 2287.97 1313.35 Q2287.97 1306.22 2286.14 1302.68 Q2284.33 1299.11 2280.7 1299.11 M2280.7 1295.41 Q2286.51 1295.41 2289.57 1300.02 Q2292.64 1304.6 2292.64 1313.35 Q2292.64 1322.08 2289.57 1326.68 Q2286.51 1331.27 2280.7 1331.27 Q2274.89 1331.27 2271.81 1326.68 Q2268.76 1322.08 2268.76 1313.35 Q2268.76 1304.6 2271.81 1300.02 Q2274.89 1295.41 2280.7 1295.41 Z" fill="#000000" fill-rule="nonzero" fill-opacity="1" /><path clip-path="url(#clip920)" d="M2300.86 1324.72 L2305.75 1324.72 L2305.75 1330.6 L2300.86 1330.6 L2300.86 1324.72 Z" fill="#000000" fill-rule="nonzero" fill-opacity="1" /><path clip-path="url(#clip920)" d="M2316.74 1326.66 L2324.38 1326.66 L2324.38 1300.29 L2316.07 1301.96 L2316.07 1297.7 L2324.33 1296.04 L2329.01 1296.04 L2329.01 1326.66 L2336.65 1326.66 L2336.65 1330.6 L2316.74 1330.6 L2316.74 1326.66 Z" fill="#000000" fill-rule="nonzero" fill-opacity="1" /><path clip-path="url(#clip920)" d="M2280.7 1129.61 Q2277.09 1129.61 2275.26 1133.18 Q2273.45 1136.72 2273.45 1143.85 Q2273.45 1150.95 2275.26 1154.52 Q2277.09 1158.06 2280.7 1158.06 Q2284.33 1158.06 2286.14 1154.52 Q2287.97 1150.95 2287.97 1143.85 Q2287.97 1136.72 2286.14 1133.18 Q2284.33 1129.61 2280.7 1129.61 M2280.7 1125.91 Q2286.51 1125.91 2289.57 1130.51 Q2292.64 1135.1 2292.64 1143.85 Q2292.64 1152.57 2289.57 1157.18 Q2286.51 1161.76 2280.7 1161.76 Q2274.89 1161.76 2271.81 1157.18 Q2268.76 1152.57 2268.76 1143.85 Q2268.76 1135.1 2271.81 1130.51 Q2274.89 1125.91 2280.7 1125.91 Z" fill="#000000" fill-rule="nonzero" fill-opacity="1" /><path clip-path="url(#clip920)" d="M2300.86 1155.21 L2305.75 1155.21 L2305.75 1161.09 L2300.86 1161.09 L2300.86 1155.21 Z" fill="#000000" fill-rule="nonzero" fill-opacity="1" /><path clip-path="url(#clip920)" d="M2319.96 1157.16 L2336.28 1157.16 L2336.28 1161.09 L2314.33 1161.09 L2314.33 1157.16 Q2317 1154.4 2321.58 1149.77 Q2326.19 1145.12 2327.37 1143.78 Q2329.61 1141.25 2330.49 1139.52 Q2331.39 1137.76 2331.39 1136.07 Q2331.39 1133.31 2329.45 1131.58 Q2327.53 1129.84 2324.43 1129.84 Q2322.23 1129.84 2319.77 1130.61 Q2317.34 1131.37 2314.57 1132.92 L2314.57 1128.2 Q2317.39 1127.06 2319.84 1126.49 Q2322.3 1125.91 2324.33 1125.91 Q2329.7 1125.91 2332.9 1128.59 Q2336.09 1131.28 2336.09 1135.77 Q2336.09 1137.9 2335.28 1139.82 Q2334.5 1141.72 2332.39 1144.31 Q2331.81 1144.98 2328.71 1148.2 Q2325.61 1151.39 2319.96 1157.16 Z" fill="#000000" fill-rule="nonzero" fill-opacity="1" /><path clip-path="url(#clip920)" d="M2280.7 960.107 Q2277.09 960.107 2275.26 963.672 Q2273.45 967.213 2273.45 974.343 Q2273.45 981.449 2275.26 985.014 Q2277.09 988.556 2280.7 988.556 Q2284.33 988.556 2286.14 985.014 Q2287.97 981.449 2287.97 974.343 Q2287.97 967.213 2286.14 963.672 Q2284.33 960.107 2280.7 960.107 M2280.7 956.403 Q2286.51 956.403 2289.57 961.01 Q2292.64 965.593 2292.64 974.343 Q2292.64 983.07 2289.57 987.676 Q2286.51 992.259 2280.7 992.259 Q2274.89 992.259 2271.81 987.676 Q2268.76 983.07 2268.76 974.343 Q2268.76 965.593 2271.81 961.01 Q2274.89 956.403 2280.7 956.403 Z" fill="#000000" fill-rule="nonzero" fill-opacity="1" /><path clip-path="url(#clip920)" d="M2300.86 985.709 L2305.75 985.709 L2305.75 991.588 L2300.86 991.588 L2300.86 985.709 Z" fill="#000000" fill-rule="nonzero" fill-opacity="1" /><path clip-path="url(#clip920)" d="M2330.1 972.954 Q2333.45 973.672 2335.33 975.94 Q2337.23 978.209 2337.23 981.542 Q2337.23 986.658 2333.71 989.459 Q2330.19 992.259 2323.71 992.259 Q2321.53 992.259 2319.22 991.82 Q2316.93 991.403 2314.47 990.546 L2314.47 986.033 Q2316.42 987.167 2318.73 987.746 Q2321.05 988.324 2323.57 988.324 Q2327.97 988.324 2330.26 986.588 Q2332.58 984.852 2332.58 981.542 Q2332.58 978.486 2330.42 976.773 Q2328.29 975.037 2324.47 975.037 L2320.45 975.037 L2320.45 971.195 L2324.66 971.195 Q2328.11 971.195 2329.94 969.829 Q2331.76 968.44 2331.76 965.848 Q2331.76 963.186 2329.87 961.773 Q2327.99 960.338 2324.47 960.338 Q2322.55 960.338 2320.35 960.755 Q2318.15 961.172 2315.51 962.051 L2315.51 957.885 Q2318.18 957.144 2320.49 956.773 Q2322.83 956.403 2324.89 956.403 Q2330.21 956.403 2333.32 958.834 Q2336.42 961.241 2336.42 965.361 Q2336.42 968.232 2334.77 970.223 Q2333.13 972.19 2330.1 972.954 Z" fill="#000000" fill-rule="nonzero" fill-opacity="1" /><path clip-path="url(#clip920)" d="M2280.7 790.603 Q2277.09 790.603 2275.26 794.168 Q2273.45 797.71 2273.45 804.839 Q2273.45 811.946 2275.26 815.51 Q2277.09 819.052 2280.7 819.052 Q2284.33 819.052 2286.14 815.51 Q2287.97 811.946 2287.97 804.839 Q2287.97 797.71 2286.14 794.168 Q2284.33 790.603 2280.7 790.603 M2280.7 786.899 Q2286.51 786.899 2289.57 791.506 Q2292.64 796.089 2292.64 804.839 Q2292.64 813.566 2289.57 818.172 Q2286.51 822.756 2280.7 822.756 Q2274.89 822.756 2271.81 818.172 Q2268.76 813.566 2268.76 804.839 Q2268.76 796.089 2271.81 791.506 Q2274.89 786.899 2280.7 786.899 Z" fill="#000000" fill-rule="nonzero" fill-opacity="1" /><path clip-path="url(#clip920)" d="M2300.86 816.205 L2305.75 816.205 L2305.75 822.084 L2300.86 822.084 L2300.86 816.205 Z" fill="#000000" fill-rule="nonzero" fill-opacity="1" /><path clip-path="url(#clip920)" d="M2328.78 791.599 L2316.97 810.048 L2328.78 810.048 L2328.78 791.599 M2327.55 787.524 L2333.43 787.524 L2333.43 810.048 L2338.36 810.048 L2338.36 813.936 L2333.43 813.936 L2333.43 822.084 L2328.78 822.084 L2328.78 813.936 L2313.18 813.936 L2313.18 809.423 L2327.55 787.524 Z" fill="#000000" fill-rule="nonzero" fill-opacity="1" /><path clip-path="url(#clip920)" d="M2280.7 621.1 Q2277.09 621.1 2275.26 624.664 Q2273.45 628.206 2273.45 635.336 Q2273.45 642.442 2275.26 646.007 Q2277.09 649.548 2280.7 649.548 Q2284.33 649.548 2286.14 646.007 Q2287.97 642.442 2287.97 635.336 Q2287.97 628.206 2286.14 624.664 Q2284.33 621.1 2280.7 621.1 M2280.7 617.396 Q2286.51 617.396 2289.57 622.002 Q2292.64 626.586 2292.64 635.336 Q2292.64 644.062 2289.57 648.669 Q2286.51 653.252 2280.7 653.252 Q2274.89 653.252 2271.81 648.669 Q2268.76 644.062 2268.76 635.336 Q2268.76 626.586 2271.81 622.002 Q2274.89 617.396 2280.7 617.396 Z" fill="#000000" fill-rule="nonzero" fill-opacity="1" /><path clip-path="url(#clip920)" d="M2300.86 646.701 L2305.75 646.701 L2305.75 652.581 L2300.86 652.581 L2300.86 646.701 Z" fill="#000000" fill-rule="nonzero" fill-opacity="1" /><path clip-path="url(#clip920)" d="M2315.98 618.021 L2334.33 618.021 L2334.33 621.956 L2320.26 621.956 L2320.26 630.428 Q2321.28 630.081 2322.3 629.919 Q2323.32 629.734 2324.33 629.734 Q2330.12 629.734 2333.5 632.905 Q2336.88 636.076 2336.88 641.493 Q2336.88 647.072 2333.41 650.173 Q2329.94 653.252 2323.62 653.252 Q2321.44 653.252 2319.17 652.882 Q2316.93 652.511 2314.52 651.771 L2314.52 647.072 Q2316.6 648.206 2318.83 648.761 Q2321.05 649.317 2323.52 649.317 Q2327.53 649.317 2329.87 647.21 Q2332.2 645.104 2332.2 641.493 Q2332.2 637.882 2329.87 635.775 Q2327.53 633.669 2323.52 633.669 Q2321.65 633.669 2319.77 634.086 Q2317.92 634.502 2315.98 635.382 L2315.98 618.021 Z" fill="#000000" fill-rule="nonzero" fill-opacity="1" /><path clip-path="url(#clip920)" d="M2280.7 451.596 Q2277.09 451.596 2275.26 455.161 Q2273.45 458.702 2273.45 465.832 Q2273.45 472.938 2275.26 476.503 Q2277.09 480.045 2280.7 480.045 Q2284.33 480.045 2286.14 476.503 Q2287.97 472.938 2287.97 465.832 Q2287.97 458.702 2286.14 455.161 Q2284.33 451.596 2280.7 451.596 M2280.7 447.892 Q2286.51 447.892 2289.57 452.499 Q2292.64 457.082 2292.64 465.832 Q2292.64 474.559 2289.57 479.165 Q2286.51 483.748 2280.7 483.748 Q2274.89 483.748 2271.81 479.165 Q2268.76 474.559 2268.76 465.832 Q2268.76 457.082 2271.81 452.499 Q2274.89 447.892 2280.7 447.892 Z" fill="#000000" fill-rule="nonzero" fill-opacity="1" /><path clip-path="url(#clip920)" d="M2300.86 477.198 L2305.75 477.198 L2305.75 483.077 L2300.86 483.077 L2300.86 477.198 Z" fill="#000000" fill-rule="nonzero" fill-opacity="1" /><path clip-path="url(#clip920)" d="M2326.51 463.934 Q2323.36 463.934 2321.51 466.087 Q2319.68 468.239 2319.68 471.989 Q2319.68 475.716 2321.51 477.892 Q2323.36 480.045 2326.51 480.045 Q2329.66 480.045 2331.49 477.892 Q2333.34 475.716 2333.34 471.989 Q2333.34 468.239 2331.49 466.087 Q2329.66 463.934 2326.51 463.934 M2335.79 449.281 L2335.79 453.54 Q2334.03 452.707 2332.23 452.267 Q2330.45 451.827 2328.69 451.827 Q2324.06 451.827 2321.6 454.952 Q2319.17 458.077 2318.83 464.397 Q2320.19 462.383 2322.25 461.318 Q2324.31 460.23 2326.79 460.23 Q2332 460.23 2335.01 463.401 Q2338.04 466.549 2338.04 471.989 Q2338.04 477.313 2334.89 480.531 Q2331.74 483.748 2326.51 483.748 Q2320.51 483.748 2317.34 479.165 Q2314.17 474.559 2314.17 465.832 Q2314.17 457.638 2318.06 452.776 Q2321.95 447.892 2328.5 447.892 Q2330.26 447.892 2332.04 448.239 Q2333.85 448.587 2335.79 449.281 Z" fill="#000000" fill-rule="nonzero" fill-opacity="1" /><path clip-path="url(#clip920)" d="M2280.7 282.092 Q2277.09 282.092 2275.26 285.657 Q2273.45 289.199 2273.45 296.328 Q2273.45 303.435 2275.26 306.999 Q2277.09 310.541 2280.7 310.541 Q2284.33 310.541 2286.14 306.999 Q2287.97 303.435 2287.97 296.328 Q2287.97 289.199 2286.14 285.657 Q2284.33 282.092 2280.7 282.092 M2280.7 278.389 Q2286.51 278.389 2289.57 282.995 Q2292.64 287.578 2292.64 296.328 Q2292.64 305.055 2289.57 309.662 Q2286.51 314.245 2280.7 314.245 Q2274.89 314.245 2271.81 309.662 Q2268.76 305.055 2268.76 296.328 Q2268.76 287.578 2271.81 282.995 Q2274.89 278.389 2280.7 278.389 Z" fill="#000000" fill-rule="nonzero" fill-opacity="1" /><path clip-path="url(#clip920)" d="M2300.86 307.694 L2305.75 307.694 L2305.75 313.574 L2300.86 313.574 L2300.86 307.694 Z" fill="#000000" fill-rule="nonzero" fill-opacity="1" /><path clip-path="url(#clip920)" d="M2314.75 279.014 L2336.97 279.014 L2336.97 281.004 L2324.43 313.574 L2319.54 313.574 L2331.35 282.949 L2314.75 282.949 L2314.75 279.014 Z" fill="#000000" fill-rule="nonzero" fill-opacity="1" /><path clip-path="url(#clip920)" d="M2280.7 112.589 Q2277.09 112.589 2275.26 116.153 Q2273.45 119.695 2273.45 126.825 Q2273.45 133.931 2275.26 137.496 Q2277.09 141.037 2280.7 141.037 Q2284.33 141.037 2286.14 137.496 Q2287.97 133.931 2287.97 126.825 Q2287.97 119.695 2286.14 116.153 Q2284.33 112.589 2280.7 112.589 M2280.7 108.885 Q2286.51 108.885 2289.57 113.491 Q2292.64 118.075 2292.64 126.825 Q2292.64 135.551 2289.57 140.158 Q2286.51 144.741 2280.7 144.741 Q2274.89 144.741 2271.81 140.158 Q2268.76 135.551 2268.76 126.825 Q2268.76 118.075 2271.81 113.491 Q2274.89 108.885 2280.7 108.885 Z" fill="#000000" fill-rule="nonzero" fill-opacity="1" /><path clip-path="url(#clip920)" d="M2300.86 138.19 L2305.75 138.19 L2305.75 144.07 L2300.86 144.07 L2300.86 138.19 Z" fill="#000000" fill-rule="nonzero" fill-opacity="1" /><path clip-path="url(#clip920)" d="M2325.93 127.658 Q2322.6 127.658 2320.68 129.44 Q2318.78 131.223 2318.78 134.348 Q2318.78 137.473 2320.68 139.255 Q2322.6 141.037 2325.93 141.037 Q2329.26 141.037 2331.19 139.255 Q2333.11 137.45 2333.11 134.348 Q2333.11 131.223 2331.19 129.44 Q2329.29 127.658 2325.93 127.658 M2321.26 125.667 Q2318.25 124.926 2316.56 122.866 Q2314.89 120.806 2314.89 117.843 Q2314.89 113.7 2317.83 111.292 Q2320.79 108.885 2325.93 108.885 Q2331.09 108.885 2334.03 111.292 Q2336.97 113.7 2336.97 117.843 Q2336.97 120.806 2335.28 122.866 Q2333.62 124.926 2330.63 125.667 Q2334.01 126.454 2335.89 128.746 Q2337.78 131.038 2337.78 134.348 Q2337.78 139.371 2334.7 142.056 Q2331.65 144.741 2325.93 144.741 Q2320.21 144.741 2317.14 142.056 Q2314.08 139.371 2314.08 134.348 Q2314.08 131.038 2315.98 128.746 Q2317.88 126.454 2321.26 125.667 M2319.54 118.283 Q2319.54 120.968 2321.21 122.473 Q2322.9 123.977 2325.93 123.977 Q2328.94 123.977 2330.63 122.473 Q2332.34 120.968 2332.34 118.283 Q2332.34 115.598 2330.63 114.093 Q2328.94 112.589 2325.93 112.589 Q2322.9 112.589 2321.21 114.093 Q2319.54 115.598 2319.54 118.283 Z" fill="#000000" fill-rule="nonzero" fill-opacity="1" /><polyline clip-path="url(#clip920)" style="stroke:#000000; stroke-linecap:round; stroke-linejoin:round; stroke-width:4; stroke-opacity:1; fill:none" points="2232.76,1486.45 2232.76,1486.45 2256.76,1486.45 2232.76,1486.45 2232.76,1316.94 2256.76,1316.94 2232.76,1316.94 2232.76,1147.44 2256.76,1147.44 2232.76,1147.44 2232.76,977.937 2256.76,977.937 2232.76,977.937 2232.76,808.433 2256.76,808.433 2232.76,808.433 2232.76,638.93 2256.76,638.93 2232.76,638.93 2232.76,469.426 2256.76,469.426 2232.76,469.426 2232.76,299.922 2256.76,299.922 2232.76,299.922 2232.76,130.419 2256.76,130.419 2232.76,130.419 2232.76,123.472 "/>
</svg>
