<?xml version="1.0" encoding="utf-8"?>
<svg xmlns="http://www.w3.org/2000/svg" xmlns:xlink="http://www.w3.org/1999/xlink" width="600" height="400" viewBox="0 0 2400 1600">
<defs>
  <clipPath id="clip920">
    <rect x="0" y="0" width="2400" height="1600"/>
  </clipPath>
</defs>
<path clip-path="url(#clip920)" d="M0 1600 L2400 1600 L2400 0 L0 0  Z" fill="#ffffff" fill-rule="evenodd" fill-opacity="1"/>
<defs>
  <clipPath id="clip921">
    <rect x="480" y="0" width="1681" height="1600"/>
  </clipPath>
</defs>
<path clip-path="url(#clip920)" d="M156.112 1423.18 L2352.76 1423.18 L2352.76 123.472 L156.112 123.472  Z" fill="#ffffff" fill-rule="evenodd" fill-opacity="1"/>
<defs>
  <clipPath id="clip922">
    <rect x="156" y="123" width="2198" height="1301"/>
  </clipPath>
</defs>
<polyline clip-path="url(#clip922)" style="stroke:#000000; stroke-linecap:round; stroke-linejoin:round; stroke-width:2; stroke-opacity:0.1; fill:none" points="175.108,1423.18 175.108,123.472 "/>
<polyline clip-path="url(#clip922)" style="stroke:#000000; stroke-linecap:round; stroke-linejoin:round; stroke-width:2; stroke-opacity:0.1; fill:none" points="606.839,1423.18 606.839,123.472 "/>
<polyline clip-path="url(#clip922)" style="stroke:#000000; stroke-linecap:round; stroke-linejoin:round; stroke-width:2; stroke-opacity:0.1; fill:none" points="1038.57,1423.18 1038.57,123.472 "/>
<polyline clip-path="url(#clip922)" style="stroke:#000000; stroke-linecap:round; stroke-linejoin:round; stroke-width:2; stroke-opacity:0.1; fill:none" points="1470.3,1423.18 1470.3,123.472 "/>
<polyline clip-path="url(#clip922)" style="stroke:#000000; stroke-linecap:round; stroke-linejoin:round; stroke-width:2; stroke-opacity:0.1; fill:none" points="1902.03,1423.18 1902.03,123.472 "/>
<polyline clip-path="url(#clip922)" style="stroke:#000000; stroke-linecap:round; stroke-linejoin:round; stroke-width:2; stroke-opacity:0.1; fill:none" points="2333.76,1423.18 2333.76,123.472 "/>
<polyline clip-path="url(#clip920)" style="stroke:#000000; stroke-linecap:round; stroke-linejoin:round; stroke-width:4; stroke-opacity:1; fill:none" points="156.112,1423.18 2352.76,1423.18 "/>
<polyline clip-path="url(#clip920)" style="stroke:#000000; stroke-linecap:round; stroke-linejoin:round; stroke-width:4; stroke-opacity:1; fill:none" points="175.108,1423.18 175.108,1404.28 "/>
<polyline clip-path="url(#clip920)" style="stroke:#000000; stroke-linecap:round; stroke-linejoin:round; stroke-width:4; stroke-opacity:1; fill:none" points="606.839,1423.18 606.839,1404.28 "/>
<polyline clip-path="url(#clip920)" style="stroke:#000000; stroke-linecap:round; stroke-linejoin:round; stroke-width:4; stroke-opacity:1; fill:none" points="1038.57,1423.18 1038.57,1404.28 "/>
<polyline clip-path="url(#clip920)" style="stroke:#000000; stroke-linecap:round; stroke-linejoin:round; stroke-width:4; stroke-opacity:1; fill:none" points="1470.3,1423.18 1470.3,1404.28 "/>
<polyline clip-path="url(#clip920)" style="stroke:#000000; stroke-linecap:round; stroke-linejoin:round; stroke-width:4; stroke-opacity:1; fill:none" points="1902.03,1423.18 1902.03,1404.28 "/>
<polyline clip-path="url(#clip920)" style="stroke:#000000; stroke-linecap:round; stroke-linejoin:round; stroke-width:4; stroke-opacity:1; fill:none" points="2333.76,1423.18 2333.76,1404.28 "/>
<path clip-path="url(#clip920)" d="M175.108 1454.1 Q171.497 1454.1 169.668 1457.66 Q167.863 1461.2 167.863 1468.33 Q167.863 1475.44 169.668 1479.01 Q171.497 1482.55 175.108 1482.55 Q178.742 1482.55 180.548 1479.01 Q182.377 1475.44 182.377 1468.33 Q182.377 1461.2 180.548 1457.66 Q178.742 1454.1 175.108 1454.1 M175.108 1450.39 Q180.918 1450.39 183.974 1455 Q187.053 1459.58 187.053 1468.33 Q187.053 1477.06 183.974 1481.67 Q180.918 1486.25 175.108 1486.25 Q169.298 1486.25 166.219 1481.67 Q163.164 1477.06 163.164 1468.33 Q163.164 1459.58 166.219 1455 Q169.298 1450.39 175.108 1450.39 Z" fill="#000000" fill-rule="nonzero" fill-opacity="1" /><path clip-path="url(#clip920)" d="M581.526 1481.64 L589.165 1481.64 L589.165 1455.28 L580.855 1456.95 L580.855 1452.69 L589.119 1451.02 L593.795 1451.02 L593.795 1481.64 L601.433 1481.64 L601.433 1485.58 L581.526 1485.58 L581.526 1481.64 Z" fill="#000000" fill-rule="nonzero" fill-opacity="1" /><path clip-path="url(#clip920)" d="M620.878 1454.1 Q617.267 1454.1 615.438 1457.66 Q613.633 1461.2 613.633 1468.33 Q613.633 1475.44 615.438 1479.01 Q617.267 1482.55 620.878 1482.55 Q624.512 1482.55 626.318 1479.01 Q628.146 1475.44 628.146 1468.33 Q628.146 1461.2 626.318 1457.66 Q624.512 1454.1 620.878 1454.1 M620.878 1450.39 Q626.688 1450.39 629.744 1455 Q632.822 1459.58 632.822 1468.33 Q632.822 1477.06 629.744 1481.67 Q626.688 1486.25 620.878 1486.25 Q615.068 1486.25 611.989 1481.67 Q608.933 1477.06 608.933 1468.33 Q608.933 1459.58 611.989 1455 Q615.068 1450.39 620.878 1450.39 Z" fill="#000000" fill-rule="nonzero" fill-opacity="1" /><path clip-path="url(#clip920)" d="M1017.34 1481.64 L1033.66 1481.64 L1033.66 1485.58 L1011.72 1485.58 L1011.72 1481.64 Q1014.38 1478.89 1018.96 1474.26 Q1023.57 1469.61 1024.75 1468.27 Q1026.99 1465.74 1027.87 1464.01 Q1028.78 1462.25 1028.78 1460.56 Q1028.78 1457.8 1026.83 1456.07 Q1024.91 1454.33 1021.81 1454.33 Q1019.61 1454.33 1017.16 1455.09 Q1014.73 1455.86 1011.95 1457.41 L1011.95 1452.69 Q1014.77 1451.55 1017.23 1450.97 Q1019.68 1450.39 1021.72 1450.39 Q1027.09 1450.39 1030.28 1453.08 Q1033.48 1455.77 1033.48 1460.26 Q1033.48 1462.39 1032.67 1464.31 Q1031.88 1466.2 1029.77 1468.8 Q1029.19 1469.47 1026.09 1472.69 Q1022.99 1475.88 1017.34 1481.64 Z" fill="#000000" fill-rule="nonzero" fill-opacity="1" /><path clip-path="url(#clip920)" d="M1053.48 1454.1 Q1049.87 1454.1 1048.04 1457.66 Q1046.23 1461.2 1046.23 1468.33 Q1046.23 1475.44 1048.04 1479.01 Q1049.87 1482.55 1053.48 1482.55 Q1057.11 1482.55 1058.92 1479.01 Q1060.74 1475.44 1060.74 1468.33 Q1060.74 1461.2 1058.92 1457.66 Q1057.11 1454.1 1053.48 1454.1 M1053.48 1450.39 Q1059.29 1450.39 1062.34 1455 Q1065.42 1459.58 1065.42 1468.33 Q1065.42 1477.06 1062.34 1481.67 Q1059.29 1486.25 1053.48 1486.25 Q1047.67 1486.25 1044.59 1481.67 Q1041.53 1477.06 1041.53 1468.33 Q1041.53 1459.58 1044.59 1455 Q1047.67 1450.39 1053.48 1450.39 Z" fill="#000000" fill-rule="nonzero" fill-opacity="1" /><path clip-path="url(#clip920)" d="M1459.14 1466.95 Q1462.5 1467.66 1464.37 1469.93 Q1466.27 1472.2 1466.27 1475.53 Q1466.27 1480.65 1462.75 1483.45 Q1459.23 1486.25 1452.75 1486.25 Q1450.58 1486.25 1448.26 1485.81 Q1445.97 1485.39 1443.52 1484.54 L1443.52 1480.02 Q1445.46 1481.16 1447.78 1481.74 Q1450.09 1482.32 1452.61 1482.32 Q1457.01 1482.32 1459.3 1480.58 Q1461.62 1478.84 1461.62 1475.53 Q1461.62 1472.48 1459.47 1470.77 Q1457.34 1469.03 1453.52 1469.03 L1449.49 1469.03 L1449.49 1465.19 L1453.7 1465.19 Q1457.15 1465.19 1458.98 1463.82 Q1460.81 1462.43 1460.81 1459.84 Q1460.81 1457.18 1458.91 1455.77 Q1457.04 1454.33 1453.52 1454.33 Q1451.6 1454.33 1449.4 1454.75 Q1447.2 1455.16 1444.56 1456.04 L1444.56 1451.88 Q1447.22 1451.14 1449.54 1450.77 Q1451.87 1450.39 1453.93 1450.39 Q1459.26 1450.39 1462.36 1452.83 Q1465.46 1455.23 1465.46 1459.35 Q1465.46 1462.22 1463.82 1464.21 Q1462.17 1466.18 1459.14 1466.95 Z" fill="#000000" fill-rule="nonzero" fill-opacity="1" /><path clip-path="url(#clip920)" d="M1485.14 1454.1 Q1481.53 1454.1 1479.7 1457.66 Q1477.89 1461.2 1477.89 1468.33 Q1477.89 1475.44 1479.7 1479.01 Q1481.53 1482.55 1485.14 1482.55 Q1488.77 1482.55 1490.58 1479.01 Q1492.41 1475.44 1492.41 1468.33 Q1492.41 1461.2 1490.58 1457.66 Q1488.77 1454.1 1485.14 1454.1 M1485.14 1450.39 Q1490.95 1450.39 1494 1455 Q1497.08 1459.58 1497.08 1468.33 Q1497.08 1477.06 1494 1481.67 Q1490.95 1486.25 1485.14 1486.25 Q1479.33 1486.25 1476.25 1481.67 Q1473.19 1477.06 1473.19 1468.33 Q1473.19 1459.58 1476.25 1455 Q1479.33 1450.39 1485.14 1450.39 Z" fill="#000000" fill-rule="nonzero" fill-opacity="1" /><path clip-path="url(#clip920)" d="M1890.2 1455.09 L1878.4 1473.54 L1890.2 1473.54 L1890.2 1455.09 M1888.97 1451.02 L1894.85 1451.02 L1894.85 1473.54 L1899.78 1473.54 L1899.78 1477.43 L1894.85 1477.43 L1894.85 1485.58 L1890.2 1485.58 L1890.2 1477.43 L1874.6 1477.43 L1874.6 1472.92 L1888.97 1451.02 Z" fill="#000000" fill-rule="nonzero" fill-opacity="1" /><path clip-path="url(#clip920)" d="M1917.52 1454.1 Q1913.9 1454.1 1912.08 1457.66 Q1910.27 1461.2 1910.27 1468.33 Q1910.27 1475.44 1912.08 1479.01 Q1913.9 1482.55 1917.52 1482.55 Q1921.15 1482.55 1922.96 1479.01 Q1924.78 1475.44 1924.78 1468.33 Q1924.78 1461.2 1922.96 1457.66 Q1921.15 1454.1 1917.52 1454.1 M1917.52 1450.39 Q1923.33 1450.39 1926.38 1455 Q1929.46 1459.58 1929.46 1468.33 Q1929.46 1477.06 1926.38 1481.67 Q1923.33 1486.25 1917.52 1486.25 Q1911.71 1486.25 1908.63 1481.67 Q1905.57 1477.06 1905.57 1468.33 Q1905.57 1459.58 1908.63 1455 Q1911.71 1450.39 1917.52 1450.39 Z" fill="#000000" fill-rule="nonzero" fill-opacity="1" /><path clip-path="url(#clip920)" d="M2308.46 1451.02 L2326.82 1451.02 L2326.82 1454.96 L2312.74 1454.96 L2312.74 1463.43 Q2313.76 1463.08 2314.78 1462.92 Q2315.8 1462.73 2316.82 1462.73 Q2322.6 1462.73 2325.98 1465.9 Q2329.36 1469.08 2329.36 1474.49 Q2329.36 1480.07 2325.89 1483.17 Q2322.42 1486.25 2316.1 1486.25 Q2313.92 1486.25 2311.65 1485.88 Q2309.41 1485.51 2307 1484.77 L2307 1480.07 Q2309.08 1481.2 2311.31 1481.76 Q2313.53 1482.32 2316.01 1482.32 Q2320.01 1482.32 2322.35 1480.21 Q2324.69 1478.1 2324.69 1474.49 Q2324.69 1470.88 2322.35 1468.77 Q2320.01 1466.67 2316.01 1466.67 Q2314.13 1466.67 2312.26 1467.08 Q2310.4 1467.5 2308.46 1468.38 L2308.46 1451.02 Z" fill="#000000" fill-rule="nonzero" fill-opacity="1" /><path clip-path="url(#clip920)" d="M2348.57 1454.1 Q2344.96 1454.1 2343.13 1457.66 Q2341.33 1461.2 2341.33 1468.33 Q2341.33 1475.44 2343.13 1479.01 Q2344.96 1482.55 2348.57 1482.55 Q2352.21 1482.55 2354.01 1479.01 Q2355.84 1475.44 2355.84 1468.33 Q2355.84 1461.2 2354.01 1457.66 Q2352.21 1454.1 2348.57 1454.1 M2348.57 1450.39 Q2354.38 1450.39 2357.44 1455 Q2360.52 1459.58 2360.52 1468.33 Q2360.52 1477.06 2357.44 1481.67 Q2354.38 1486.25 2348.57 1486.25 Q2342.76 1486.25 2339.69 1481.67 Q2336.63 1477.06 2336.63 1468.33 Q2336.63 1459.58 2339.69 1455 Q2342.76 1450.39 2348.57 1450.39 Z" fill="#000000" fill-rule="nonzero" fill-opacity="1" /><path clip-path="url(#clip920)" d="M1070.88 1539.37 L1061.62 1539.37 L1058.94 1550 L1068.27 1550 L1070.88 1539.37 M1066.1 1521.26 L1062.79 1534.46 L1072.09 1534.46 L1075.43 1521.26 L1080.52 1521.26 L1077.24 1534.46 L1087.18 1534.46 L1087.18 1539.37 L1076 1539.37 L1073.39 1550 L1083.51 1550 L1083.51 1554.87 L1072.15 1554.87 L1068.84 1568.04 L1063.75 1568.04 L1067.03 1554.87 L1057.7 1554.87 L1054.42 1568.04 L1049.3 1568.04 L1052.61 1554.87 L1042.58 1554.87 L1042.58 1550 L1053.79 1550 L1056.46 1539.37 L1046.21 1539.37 L1046.21 1534.46 L1057.7 1534.46 L1060.95 1521.26 L1066.1 1521.26 Z" fill="#000000" fill-rule="nonzero" fill-opacity="1" /><path clip-path="url(#clip920)" d="M1132.85 1536.5 Q1128.14 1536.5 1125.4 1540.19 Q1122.66 1543.85 1122.66 1550.25 Q1122.66 1556.65 1125.37 1560.34 Q1128.11 1564 1132.85 1564 Q1137.53 1564 1140.27 1560.31 Q1143 1556.62 1143 1550.25 Q1143 1543.92 1140.27 1540.23 Q1137.53 1536.5 1132.85 1536.5 M1132.85 1531.54 Q1140.49 1531.54 1144.85 1536.5 Q1149.21 1541.47 1149.21 1550.25 Q1149.21 1559 1144.85 1564 Q1140.49 1568.97 1132.85 1568.97 Q1125.18 1568.97 1120.82 1564 Q1116.49 1559 1116.49 1550.25 Q1116.49 1541.47 1120.82 1536.5 Q1125.18 1531.54 1132.85 1531.54 Z" fill="#000000" fill-rule="nonzero" fill-opacity="1" /><path clip-path="url(#clip920)" d="M1176.96 1518.52 L1176.96 1523.39 L1171.36 1523.39 Q1168.21 1523.39 1166.97 1524.66 Q1165.76 1525.93 1165.76 1529.24 L1165.76 1532.4 L1175.4 1532.4 L1175.4 1536.95 L1165.76 1536.95 L1165.76 1568.04 L1159.87 1568.04 L1159.87 1536.95 L1154.27 1536.95 L1154.27 1532.4 L1159.87 1532.4 L1159.87 1529.91 Q1159.87 1523.96 1162.64 1521.26 Q1165.41 1518.52 1171.43 1518.52 L1176.96 1518.52 Z" fill="#000000" fill-rule="nonzero" fill-opacity="1" /><path clip-path="url(#clip920)" d="M1202.59 1532.4 L1208.44 1532.4 L1208.44 1568.04 L1202.59 1568.04 L1202.59 1532.4 M1202.59 1518.52 L1208.44 1518.52 L1208.44 1525.93 L1202.59 1525.93 L1202.59 1518.52 Z" fill="#000000" fill-rule="nonzero" fill-opacity="1" /><path clip-path="url(#clip920)" d="M1226.49 1522.27 L1226.49 1532.4 L1238.55 1532.4 L1238.55 1536.95 L1226.49 1536.95 L1226.49 1556.3 Q1226.49 1560.66 1227.67 1561.9 Q1228.88 1563.14 1232.54 1563.14 L1238.55 1563.14 L1238.55 1568.04 L1232.54 1568.04 Q1225.76 1568.04 1223.18 1565.53 Q1220.6 1562.98 1220.6 1556.3 L1220.6 1536.95 L1216.3 1536.95 L1216.3 1532.4 L1220.6 1532.4 L1220.6 1522.27 L1226.49 1522.27 Z" fill="#000000" fill-rule="nonzero" fill-opacity="1" /><path clip-path="url(#clip920)" d="M1276.75 1548.76 L1276.75 1551.62 L1249.82 1551.62 Q1250.2 1557.67 1253.45 1560.85 Q1256.73 1564 1262.55 1564 Q1265.92 1564 1269.08 1563.17 Q1272.26 1562.35 1275.38 1560.69 L1275.38 1566.23 Q1272.23 1567.57 1268.92 1568.27 Q1265.61 1568.97 1262.2 1568.97 Q1253.67 1568.97 1248.67 1564 Q1243.71 1559.04 1243.71 1550.57 Q1243.71 1541.82 1248.42 1536.69 Q1253.16 1531.54 1261.18 1531.54 Q1268.37 1531.54 1272.54 1536.18 Q1276.75 1540.8 1276.75 1548.76 M1270.89 1547.04 Q1270.83 1542.23 1268.18 1539.37 Q1265.57 1536.5 1261.25 1536.5 Q1256.34 1536.5 1253.38 1539.27 Q1250.46 1542.04 1250.01 1547.07 L1270.89 1547.04 Z" fill="#000000" fill-rule="nonzero" fill-opacity="1" /><path clip-path="url(#clip920)" d="M1307.01 1537.87 Q1306.03 1537.3 1304.85 1537.04 Q1303.7 1536.76 1302.3 1536.76 Q1297.34 1536.76 1294.67 1540 Q1292.02 1543.22 1292.02 1549.27 L1292.02 1568.04 L1286.14 1568.04 L1286.14 1532.4 L1292.02 1532.4 L1292.02 1537.93 Q1293.87 1534.69 1296.83 1533.13 Q1299.79 1531.54 1304.02 1531.54 Q1304.63 1531.54 1305.36 1531.63 Q1306.09 1531.7 1306.98 1531.85 L1307.01 1537.87 Z" fill="#000000" fill-rule="nonzero" fill-opacity="1" /><path clip-path="url(#clip920)" d="M1329.36 1550.12 Q1322.26 1550.12 1319.52 1551.75 Q1316.79 1553.37 1316.79 1557.29 Q1316.79 1560.4 1318.82 1562.25 Q1320.89 1564.07 1324.42 1564.07 Q1329.29 1564.07 1332.22 1560.63 Q1335.18 1557.16 1335.18 1551.43 L1335.18 1550.12 L1329.36 1550.12 M1341.04 1547.71 L1341.04 1568.04 L1335.18 1568.04 L1335.18 1562.63 Q1333.18 1565.88 1330.19 1567.44 Q1327.19 1568.97 1322.87 1568.97 Q1317.39 1568.97 1314.14 1565.91 Q1310.93 1562.82 1310.93 1557.67 Q1310.93 1551.65 1314.94 1548.6 Q1318.98 1545.54 1326.97 1545.54 L1335.18 1545.54 L1335.18 1544.97 Q1335.18 1540.93 1332.51 1538.73 Q1329.87 1536.5 1325.06 1536.5 Q1322.01 1536.5 1319.11 1537.23 Q1316.21 1537.97 1313.54 1539.43 L1313.54 1534.02 Q1316.75 1532.78 1319.78 1532.17 Q1322.8 1531.54 1325.67 1531.54 Q1333.4 1531.54 1337.22 1535.55 Q1341.04 1539.56 1341.04 1547.71 Z" fill="#000000" fill-rule="nonzero" fill-opacity="1" /><path clip-path="url(#clip920)" d="M1358.9 1522.27 L1358.9 1532.4 L1370.96 1532.4 L1370.96 1536.95 L1358.9 1536.95 L1358.9 1556.3 Q1358.9 1560.66 1360.07 1561.9 Q1361.28 1563.14 1364.94 1563.14 L1370.96 1563.14 L1370.96 1568.04 L1364.94 1568.04 Q1358.16 1568.04 1355.59 1565.53 Q1353.01 1562.98 1353.01 1556.3 L1353.01 1536.95 L1348.71 1536.95 L1348.71 1532.4 L1353.01 1532.4 L1353.01 1522.27 L1358.9 1522.27 Z" fill="#000000" fill-rule="nonzero" fill-opacity="1" /><path clip-path="url(#clip920)" d="M1378.66 1532.4 L1384.52 1532.4 L1384.52 1568.04 L1378.66 1568.04 L1378.66 1532.4 M1378.66 1518.52 L1384.52 1518.52 L1384.52 1525.93 L1378.66 1525.93 L1378.66 1518.52 Z" fill="#000000" fill-rule="nonzero" fill-opacity="1" /><path clip-path="url(#clip920)" d="M1410.58 1536.5 Q1405.87 1536.5 1403.14 1540.19 Q1400.4 1543.85 1400.4 1550.25 Q1400.4 1556.65 1403.11 1560.34 Q1405.84 1564 1410.58 1564 Q1415.26 1564 1418 1560.31 Q1420.74 1556.62 1420.74 1550.25 Q1420.74 1543.92 1418 1540.23 Q1415.26 1536.5 1410.58 1536.5 M1410.58 1531.54 Q1418.22 1531.54 1422.58 1536.5 Q1426.94 1541.47 1426.94 1550.25 Q1426.94 1559 1422.58 1564 Q1418.22 1568.97 1410.58 1568.97 Q1402.91 1568.97 1398.55 1564 Q1394.22 1559 1394.22 1550.25 Q1394.22 1541.47 1398.55 1536.5 Q1402.91 1531.54 1410.58 1531.54 Z" fill="#000000" fill-rule="nonzero" fill-opacity="1" /><path clip-path="url(#clip920)" d="M1466.28 1546.53 L1466.28 1568.04 L1460.43 1568.04 L1460.43 1546.72 Q1460.43 1541.66 1458.45 1539.14 Q1456.48 1536.63 1452.53 1536.63 Q1447.79 1536.63 1445.06 1539.65 Q1442.32 1542.68 1442.32 1547.9 L1442.32 1568.04 L1436.43 1568.04 L1436.43 1532.4 L1442.32 1532.4 L1442.32 1537.93 Q1444.42 1534.72 1447.25 1533.13 Q1450.12 1531.54 1453.84 1531.54 Q1459.98 1531.54 1463.13 1535.36 Q1466.28 1539.14 1466.28 1546.53 Z" fill="#000000" fill-rule="nonzero" fill-opacity="1" /><polyline clip-path="url(#clip922)" style="stroke:#000000; stroke-linecap:round; stroke-linejoin:round; stroke-width:2; stroke-opacity:0.1; fill:none" points="156.112,1386.4 2352.76,1386.4 "/>
<polyline clip-path="url(#clip922)" style="stroke:#000000; stroke-linecap:round; stroke-linejoin:round; stroke-width:2; stroke-opacity:0.1; fill:none" points="156.112,1049.28 2352.76,1049.28 "/>
<polyline clip-path="url(#clip922)" style="stroke:#000000; stroke-linecap:round; stroke-linejoin:round; stroke-width:2; stroke-opacity:0.1; fill:none" points="156.112,712.155 2352.76,712.155 "/>
<polyline clip-path="url(#clip922)" style="stroke:#000000; stroke-linecap:round; stroke-linejoin:round; stroke-width:2; stroke-opacity:0.1; fill:none" points="156.112,375.035 2352.76,375.035 "/>
<polyline clip-path="url(#clip920)" style="stroke:#000000; stroke-linecap:round; stroke-linejoin:round; stroke-width:4; stroke-opacity:1; fill:none" points="156.112,1423.18 156.112,123.472 "/>
<polyline clip-path="url(#clip920)" style="stroke:#000000; stroke-linecap:round; stroke-linejoin:round; stroke-width:4; stroke-opacity:1; fill:none" points="156.112,1386.4 175.01,1386.4 "/>
<polyline clip-path="url(#clip920)" style="stroke:#000000; stroke-linecap:round; stroke-linejoin:round; stroke-width:4; stroke-opacity:1; fill:none" points="156.112,1049.28 175.01,1049.28 "/>
<polyline clip-path="url(#clip920)" style="stroke:#000000; stroke-linecap:round; stroke-linejoin:round; stroke-width:4; stroke-opacity:1; fill:none" points="156.112,712.155 175.01,712.155 "/>
<polyline clip-path="url(#clip920)" style="stroke:#000000; stroke-linecap:round; stroke-linejoin:round; stroke-width:4; stroke-opacity:1; fill:none" points="156.112,375.035 175.01,375.035 "/>
<path clip-path="url(#clip920)" d="M62.9365 1372.19 Q59.3254 1372.19 57.4967 1375.76 Q55.6912 1379.3 55.6912 1386.43 Q55.6912 1393.54 57.4967 1397.1 Q59.3254 1400.64 62.9365 1400.64 Q66.5707 1400.64 68.3763 1397.1 Q70.205 1393.54 70.205 1386.43 Q70.205 1379.3 68.3763 1375.76 Q66.5707 1372.19 62.9365 1372.19 M62.9365 1368.49 Q68.7467 1368.49 71.8022 1373.1 Q74.8809 1377.68 74.8809 1386.43 Q74.8809 1395.16 71.8022 1399.76 Q68.7467 1404.35 62.9365 1404.35 Q57.1264 1404.35 54.0477 1399.76 Q50.9921 1395.16 50.9921 1386.43 Q50.9921 1377.68 54.0477 1373.1 Q57.1264 1368.49 62.9365 1368.49 Z" fill="#000000" fill-rule="nonzero" fill-opacity="1" /><path clip-path="url(#clip920)" d="M83.0984 1397.8 L87.9827 1397.8 L87.9827 1403.68 L83.0984 1403.68 L83.0984 1397.8 Z" fill="#000000" fill-rule="nonzero" fill-opacity="1" /><path clip-path="url(#clip920)" d="M108.168 1372.19 Q104.557 1372.19 102.728 1375.76 Q100.922 1379.3 100.922 1386.43 Q100.922 1393.54 102.728 1397.1 Q104.557 1400.64 108.168 1400.64 Q111.802 1400.64 113.608 1397.1 Q115.436 1393.54 115.436 1386.43 Q115.436 1379.3 113.608 1375.76 Q111.802 1372.19 108.168 1372.19 M108.168 1368.49 Q113.978 1368.49 117.033 1373.1 Q120.112 1377.68 120.112 1386.43 Q120.112 1395.16 117.033 1399.76 Q113.978 1404.35 108.168 1404.35 Q102.358 1404.35 99.2789 1399.76 Q96.2234 1395.16 96.2234 1386.43 Q96.2234 1377.68 99.2789 1373.1 Q102.358 1368.49 108.168 1368.49 Z" fill="#000000" fill-rule="nonzero" fill-opacity="1" /><path clip-path="url(#clip920)" d="M64.1634 1035.07 Q60.5523 1035.07 58.7236 1038.64 Q56.918 1042.18 56.918 1049.31 Q56.918 1056.42 58.7236 1059.98 Q60.5523 1063.52 64.1634 1063.52 Q67.7976 1063.52 69.6031 1059.98 Q71.4318 1056.42 71.4318 1049.31 Q71.4318 1042.18 69.6031 1038.64 Q67.7976 1035.07 64.1634 1035.07 M64.1634 1031.37 Q69.9735 1031.37 73.029 1035.98 Q76.1077 1040.56 76.1077 1049.31 Q76.1077 1058.04 73.029 1062.64 Q69.9735 1067.23 64.1634 1067.23 Q58.3532 1067.23 55.2745 1062.64 Q52.219 1058.04 52.219 1049.31 Q52.219 1040.56 55.2745 1035.98 Q58.3532 1031.37 64.1634 1031.37 Z" fill="#000000" fill-rule="nonzero" fill-opacity="1" /><path clip-path="url(#clip920)" d="M84.3253 1060.68 L89.2095 1060.68 L89.2095 1066.56 L84.3253 1066.56 L84.3253 1060.68 Z" fill="#000000" fill-rule="nonzero" fill-opacity="1" /><path clip-path="url(#clip920)" d="M100.205 1062.62 L107.844 1062.62 L107.844 1036.25 L99.5335 1037.92 L99.5335 1033.66 L107.797 1032 L112.473 1032 L112.473 1062.62 L120.112 1062.62 L120.112 1066.56 L100.205 1066.56 L100.205 1062.62 Z" fill="#000000" fill-rule="nonzero" fill-opacity="1" /><path clip-path="url(#clip920)" d="M64.5337 697.954 Q60.9226 697.954 59.0939 701.519 Q57.2884 705.06 57.2884 712.19 Q57.2884 719.296 59.0939 722.861 Q60.9226 726.403 64.5337 726.403 Q68.168 726.403 69.9735 722.861 Q71.8022 719.296 71.8022 712.19 Q71.8022 705.06 69.9735 701.519 Q68.168 697.954 64.5337 697.954 M64.5337 694.25 Q70.3439 694.25 73.3994 698.857 Q76.4781 703.44 76.4781 712.19 Q76.4781 720.917 73.3994 725.523 Q70.3439 730.106 64.5337 730.106 Q58.7236 730.106 55.6449 725.523 Q52.5893 720.917 52.5893 712.19 Q52.5893 703.44 55.6449 698.857 Q58.7236 694.25 64.5337 694.25 Z" fill="#000000" fill-rule="nonzero" fill-opacity="1" /><path clip-path="url(#clip920)" d="M84.6956 723.556 L89.5799 723.556 L89.5799 729.435 L84.6956 729.435 L84.6956 723.556 Z" fill="#000000" fill-rule="nonzero" fill-opacity="1" /><path clip-path="url(#clip920)" d="M103.793 725.5 L120.112 725.5 L120.112 729.435 L98.1678 729.435 L98.1678 725.5 Q100.83 722.745 105.413 718.116 Q110.02 713.463 111.2 712.12 Q113.445 709.597 114.325 707.861 Q115.228 706.102 115.228 704.412 Q115.228 701.657 113.283 699.921 Q111.362 698.185 108.26 698.185 Q106.061 698.185 103.608 698.949 Q101.177 699.713 98.3993 701.264 L98.3993 696.542 Q101.223 695.408 103.677 694.829 Q106.131 694.25 108.168 694.25 Q113.538 694.25 116.733 696.935 Q119.927 699.62 119.927 704.111 Q119.927 706.241 119.117 708.162 Q118.33 710.06 116.223 712.653 Q115.645 713.324 112.543 716.542 Q109.441 719.736 103.793 725.5 Z" fill="#000000" fill-rule="nonzero" fill-opacity="1" /><path clip-path="url(#clip920)" d="M63.5847 360.834 Q59.9736 360.834 58.1449 364.398 Q56.3393 367.94 56.3393 375.07 Q56.3393 382.176 58.1449 385.741 Q59.9736 389.282 63.5847 389.282 Q67.2189 389.282 69.0244 385.741 Q70.8531 382.176 70.8531 375.07 Q70.8531 367.94 69.0244 364.398 Q67.2189 360.834 63.5847 360.834 M63.5847 357.13 Q69.3948 357.13 72.4503 361.736 Q75.529 366.32 75.529 375.07 Q75.529 383.796 72.4503 388.403 Q69.3948 392.986 63.5847 392.986 Q57.7745 392.986 54.6958 388.403 Q51.6403 383.796 51.6403 375.07 Q51.6403 366.32 54.6958 361.736 Q57.7745 357.13 63.5847 357.13 Z" fill="#000000" fill-rule="nonzero" fill-opacity="1" /><path clip-path="url(#clip920)" d="M83.7466 386.435 L88.6308 386.435 L88.6308 392.315 L83.7466 392.315 L83.7466 386.435 Z" fill="#000000" fill-rule="nonzero" fill-opacity="1" /><path clip-path="url(#clip920)" d="M112.983 373.681 Q116.339 374.398 118.214 376.667 Q120.112 378.935 120.112 382.269 Q120.112 387.384 116.594 390.185 Q113.075 392.986 106.594 392.986 Q104.418 392.986 102.103 392.546 Q99.8113 392.13 97.3576 391.273 L97.3576 386.759 Q99.3021 387.894 101.617 388.472 Q103.932 389.051 106.455 389.051 Q110.853 389.051 113.145 387.315 Q115.459 385.579 115.459 382.269 Q115.459 379.213 113.307 377.5 Q111.177 375.764 107.358 375.764 L103.33 375.764 L103.33 371.921 L107.543 371.921 Q110.992 371.921 112.82 370.556 Q114.649 369.167 114.649 366.574 Q114.649 363.912 112.751 362.5 Q110.876 361.065 107.358 361.065 Q105.436 361.065 103.237 361.482 Q101.038 361.898 98.3993 362.778 L98.3993 358.611 Q101.061 357.871 103.376 357.5 Q105.714 357.13 107.774 357.13 Q113.098 357.13 116.2 359.56 Q119.302 361.968 119.302 366.088 Q119.302 368.958 117.658 370.949 Q116.015 372.917 112.983 373.681 Z" fill="#000000" fill-rule="nonzero" fill-opacity="1" /><path clip-path="url(#clip920)" d="M964.247 12.096 L972.43 12.096 L972.43 36.8875 L1002.16 36.8875 L1002.16 12.096 L1010.35 12.096 L1010.35 72.576 L1002.16 72.576 L1002.16 43.7741 L972.43 43.7741 L972.43 72.576 L964.247 72.576 L964.247 12.096 Z" fill="#000000" fill-rule="nonzero" fill-opacity="1" /><path clip-path="url(#clip920)" d="M1026.31 27.2059 L1033.76 27.2059 L1033.76 72.576 L1026.31 72.576 L1026.31 27.2059 M1026.31 9.54393 L1033.76 9.54393 L1033.76 18.9825 L1026.31 18.9825 L1026.31 9.54393 Z" fill="#000000" fill-rule="nonzero" fill-opacity="1" /><path clip-path="url(#clip920)" d="M1078.28 28.5427 L1078.28 35.5912 Q1075.12 33.9709 1071.72 33.1607 Q1068.32 32.3505 1064.67 32.3505 Q1059.12 32.3505 1056.32 34.0519 Q1053.57 35.7533 1053.57 39.156 Q1053.57 41.7486 1055.55 43.2475 Q1057.54 44.7058 1063.54 46.0426 L1066.09 46.6097 Q1074.03 48.3111 1077.35 51.4303 Q1080.71 54.509 1080.71 60.0587 Q1080.71 66.3781 1075.69 70.0644 Q1070.71 73.7508 1061.96 73.7508 Q1058.31 73.7508 1054.34 73.0216 Q1050.41 72.3329 1046.04 70.9151 L1046.04 63.2184 Q1050.17 65.3654 1054.18 66.4591 Q1058.19 67.5124 1062.12 67.5124 Q1067.38 67.5124 1070.22 65.73 Q1073.05 63.9071 1073.05 60.6258 Q1073.05 57.5877 1070.99 55.9673 Q1068.96 54.3469 1062.04 52.8481 L1059.44 52.2405 Q1052.52 50.7821 1049.44 47.7845 Q1046.36 44.7463 1046.36 39.4801 Q1046.36 33.0797 1050.9 29.5959 Q1055.43 26.1121 1063.78 26.1121 Q1067.91 26.1121 1071.56 26.7198 Q1075.2 27.3274 1078.28 28.5427 Z" fill="#000000" fill-rule="nonzero" fill-opacity="1" /><path clip-path="url(#clip920)" d="M1099.95 14.324 L1099.95 27.2059 L1115.31 27.2059 L1115.31 32.9987 L1099.95 32.9987 L1099.95 57.6282 Q1099.95 63.1779 1101.45 64.7578 Q1102.99 66.3376 1107.65 66.3376 L1115.31 66.3376 L1115.31 72.576 L1107.65 72.576 Q1099.02 72.576 1095.74 69.3758 Q1092.46 66.1351 1092.46 57.6282 L1092.46 32.9987 L1086.99 32.9987 L1086.99 27.2059 L1092.46 27.2059 L1092.46 14.324 L1099.95 14.324 Z" fill="#000000" fill-rule="nonzero" fill-opacity="1" /><path clip-path="url(#clip920)" d="M1142.69 32.4315 Q1136.69 32.4315 1133.21 37.1306 Q1129.73 41.7891 1129.73 49.9314 Q1129.73 58.0738 1133.17 62.7728 Q1136.65 67.4314 1142.69 67.4314 Q1148.64 67.4314 1152.13 62.7323 Q1155.61 58.0333 1155.61 49.9314 Q1155.61 41.8701 1152.13 37.1711 Q1148.64 32.4315 1142.69 32.4315 M1142.69 26.1121 Q1152.41 26.1121 1157.96 32.4315 Q1163.51 38.7509 1163.51 49.9314 Q1163.51 61.0714 1157.96 67.4314 Q1152.41 73.7508 1142.69 73.7508 Q1132.93 73.7508 1127.38 67.4314 Q1121.87 61.0714 1121.87 49.9314 Q1121.87 38.7509 1127.38 32.4315 Q1132.93 26.1121 1142.69 26.1121 Z" fill="#000000" fill-rule="nonzero" fill-opacity="1" /><path clip-path="url(#clip920)" d="M1202.16 34.1734 Q1200.9 33.4443 1199.4 33.1202 Q1197.94 32.7556 1196.16 32.7556 Q1189.84 32.7556 1186.44 36.8875 Q1183.08 40.9789 1183.08 48.6757 L1183.08 72.576 L1175.58 72.576 L1175.58 27.2059 L1183.08 27.2059 L1183.08 34.2544 Q1185.43 30.1225 1189.19 28.1376 Q1192.96 26.1121 1198.35 26.1121 Q1199.12 26.1121 1200.05 26.2337 Q1200.98 26.3147 1202.12 26.5172 L1202.16 34.1734 Z" fill="#000000" fill-rule="nonzero" fill-opacity="1" /><path clip-path="url(#clip920)" d="M1228.85 76.7889 Q1225.69 84.8907 1222.7 87.3618 Q1219.7 89.8329 1214.67 89.8329 L1208.72 89.8329 L1208.72 83.5945 L1213.09 83.5945 Q1216.17 83.5945 1217.87 82.1361 Q1219.58 80.6778 1221.64 75.2496 L1222.98 71.8468 L1204.63 27.2059 L1212.53 27.2059 L1226.71 62.6918 L1240.88 27.2059 L1248.78 27.2059 L1228.85 76.7889 Z" fill="#000000" fill-rule="nonzero" fill-opacity="1" /><path clip-path="url(#clip920)" d="M1301.36 72.576 L1278.27 12.096 L1286.82 12.096 L1305.98 63.0159 L1325.18 12.096 L1333.69 12.096 L1310.64 72.576 L1301.36 72.576 Z" fill="#000000" fill-rule="nonzero" fill-opacity="1" /><path clip-path="url(#clip920)" d="M1356.38 49.7694 Q1347.34 49.7694 1343.86 51.8354 Q1340.37 53.9013 1340.37 58.8839 Q1340.37 62.8538 1342.97 65.2034 Q1345.6 67.5124 1350.1 67.5124 Q1356.29 67.5124 1360.02 63.1374 Q1363.79 58.7219 1363.79 51.4303 L1363.79 49.7694 L1356.38 49.7694 M1371.24 46.6907 L1371.24 72.576 L1363.79 72.576 L1363.79 65.6895 Q1361.24 69.8214 1357.43 71.8063 Q1353.62 73.7508 1348.11 73.7508 Q1341.14 73.7508 1337.01 69.8619 Q1332.92 65.9325 1332.92 59.3701 Q1332.92 51.7138 1338.02 47.825 Q1343.17 43.9361 1353.34 43.9361 L1363.79 43.9361 L1363.79 43.2069 Q1363.79 38.0623 1360.39 35.2672 Q1357.02 32.4315 1350.91 32.4315 Q1347.02 32.4315 1343.33 33.3632 Q1339.64 34.295 1336.24 36.1584 L1336.24 29.2718 Q1340.33 27.692 1344.18 26.9223 Q1348.03 26.1121 1351.68 26.1121 Q1361.52 26.1121 1366.38 31.2163 Q1371.24 36.3204 1371.24 46.6907 Z" fill="#000000" fill-rule="nonzero" fill-opacity="1" /><path clip-path="url(#clip920)" d="M1386.59 9.54393 L1394.05 9.54393 L1394.05 72.576 L1386.59 72.576 L1386.59 9.54393 Z" fill="#000000" fill-rule="nonzero" fill-opacity="1" /><path clip-path="url(#clip920)" d="M1408.87 54.671 L1408.87 27.2059 L1416.33 27.2059 L1416.33 54.3874 Q1416.33 60.8284 1418.84 64.0691 Q1421.35 67.2693 1426.37 67.2693 Q1432.41 67.2693 1435.89 63.421 Q1439.42 59.5726 1439.42 52.9291 L1439.42 27.2059 L1446.87 27.2059 L1446.87 72.576 L1439.42 72.576 L1439.42 65.6084 Q1436.7 69.7404 1433.1 71.7658 Q1429.53 73.7508 1424.79 73.7508 Q1416.98 73.7508 1412.93 68.8897 Q1408.87 64.0286 1408.87 54.671 M1427.63 26.1121 L1427.63 26.1121 Z" fill="#000000" fill-rule="nonzero" fill-opacity="1" /><path clip-path="url(#clip920)" d="M1501.03 48.0275 L1501.03 51.6733 L1466.76 51.6733 Q1467.25 59.3701 1471.38 63.421 Q1475.55 67.4314 1482.97 67.4314 Q1487.26 67.4314 1491.27 66.3781 Q1495.32 65.3249 1499.29 63.2184 L1499.29 70.267 Q1495.28 71.9684 1491.07 72.8596 Q1486.85 73.7508 1482.52 73.7508 Q1471.66 73.7508 1465.3 67.4314 Q1458.98 61.1119 1458.98 50.3365 Q1458.98 39.1965 1464.98 32.6746 Q1471.02 26.1121 1481.22 26.1121 Q1490.38 26.1121 1495.69 32.0264 Q1501.03 37.9003 1501.03 48.0275 M1493.58 45.84 Q1493.5 39.7232 1490.14 36.0774 Q1486.81 32.4315 1481.3 32.4315 Q1475.07 32.4315 1471.3 35.9558 Q1467.57 39.4801 1467.01 45.8805 L1493.58 45.84 Z" fill="#000000" fill-rule="nonzero" fill-opacity="1" /><path clip-path="url(#clip920)" d="M1542.19 28.5427 L1542.19 35.5912 Q1539.03 33.9709 1535.63 33.1607 Q1532.22 32.3505 1528.58 32.3505 Q1523.03 32.3505 1520.23 34.0519 Q1517.48 35.7533 1517.48 39.156 Q1517.48 41.7486 1519.46 43.2475 Q1521.45 44.7058 1527.44 46.0426 L1530 46.6097 Q1537.94 48.3111 1541.26 51.4303 Q1544.62 54.509 1544.62 60.0587 Q1544.62 66.3781 1539.6 70.0644 Q1534.61 73.7508 1525.86 73.7508 Q1522.22 73.7508 1518.25 73.0216 Q1514.32 72.3329 1509.94 70.9151 L1509.94 63.2184 Q1514.08 65.3654 1518.09 66.4591 Q1522.1 67.5124 1526.03 67.5124 Q1531.29 67.5124 1534.13 65.73 Q1536.96 63.9071 1536.96 60.6258 Q1536.96 57.5877 1534.9 55.9673 Q1532.87 54.3469 1525.95 52.8481 L1523.35 52.2405 Q1516.43 50.7821 1513.35 47.7845 Q1510.27 44.7463 1510.27 39.4801 Q1510.27 33.0797 1514.81 29.5959 Q1519.34 26.1121 1527.69 26.1121 Q1531.82 26.1121 1535.47 26.7198 Q1539.11 27.3274 1542.19 28.5427 Z" fill="#000000" fill-rule="nonzero" fill-opacity="1" /><polyline clip-path="url(#clip922)" style="stroke:#009af9; stroke-linecap:round; stroke-linejoin:round; stroke-width:4; stroke-opacity:1; fill:none" points="218.281,1386.4 261.454,1386.4 304.627,1386.4 347.8,1386.4 390.973,1381.79 434.146,1369.2 477.319,1351.94 520.493,1330.52 563.666,1303.76 606.839,1272.44 650.012,1238.3 693.185,1202.98 736.358,1174.89 779.531,1152.03 822.704,1133.55 865.877,1118.7 909.05,1106.84 952.223,1097.42 995.396,1089.92 1038.57,1083.96 1081.74,1079.22 1124.91,1075.46 1168.09,1072.47 1211.26,1070.1 1254.43,1068.22 1297.61,1066.72 1340.78,1065.53 1383.95,1064.59 1427.13,1063.84 1470.3,1063.24 1513.47,1062.77 1556.65,1062.39 1599.82,1062.09 1642.99,1061.86 1686.16,1061.67 1729.34,1061.52 1772.51,1061.4 1815.68,1061.3 1858.86,1061.23 1902.03,1061.17 1945.2,1061.12 1988.38,1061.09 2031.55,1061.06 2074.72,1061.03 2117.89,1061.01 2161.07,1061 2204.24,1060.99 2247.41,1060.98 2290.59,1060.97 "/>
<polyline clip-path="url(#clip922)" style="stroke:#e26f46; stroke-linecap:round; stroke-linejoin:round; stroke-width:4; stroke-opacity:1; fill:none" points="218.281,1386.4 261.454,1386.4 304.627,1386.4 347.8,1386.4 390.973,1325.67 434.146,1223.99 477.319,1110.44 520.493,997.597 563.666,890.382 606.839,821.45 650.012,764.264 693.185,719.184 736.358,683.169 779.531,654.534 822.704,631.802 865.877,613.75 909.05,599.412 952.223,588.027 995.396,578.983 1038.57,571.801 1081.74,566.096 1124.91,561.565 1168.09,557.967 1211.26,555.109 1254.43,552.839 1297.61,551.036 1340.78,549.604 1383.95,548.467 1427.13,547.564 1470.3,546.846 1513.47,546.277 1556.65,545.824 1599.82,545.465 1642.99,545.179 1686.16,544.953 1729.34,544.773 1772.51,544.63 1815.68,544.516 1858.86,544.426 1902.03,544.354 1945.2,544.297 1988.38,544.252 2031.55,544.216 2074.72,544.188 2117.89,544.165 2161.07,544.147 2204.24,544.133 2247.41,544.121 2290.59,544.112 "/>
<polyline clip-path="url(#clip922)" style="stroke:#3da44d; stroke-linecap:round; stroke-linejoin:round; stroke-width:4; stroke-opacity:1; fill:none" points="218.281,1386.4 261.454,1386.4 304.627,1207.97 347.8,1042.78 390.973,867.481 434.146,695.297 477.319,536.203 520.493,454.5 563.666,389.84 606.839,340.75 650.012,302.826 693.185,273.132 736.358,249.753 779.531,231.272 822.704,216.629 865.877,205.014 909.05,195.795 952.223,188.475 995.396,182.663 1038.57,178.048 1081.74,174.382 1124.91,171.471 1168.09,169.158 1211.26,167.322 1254.43,165.864 1297.61,164.705 1340.78,163.785 1383.95,163.054 1427.13,162.474 1470.3,162.013 1513.47,161.647 1556.65,161.356 1599.82,161.125 1642.99,160.942 1686.16,160.796 1729.34,160.681 1772.51,160.589 1815.68,160.516 1858.86,160.458 1902.03,160.412 1945.2,160.375 1988.38,160.346 2031.55,160.323 2074.72,160.305 2117.89,160.29 2161.07,160.279 2204.24,160.269 2247.41,160.262 2290.59,160.256 "/>
<path clip-path="url(#clip920)" d="M1776.28 1379.86 L2279.53 1379.86 L2279.53 1172.5 L1776.28 1172.5  Z" fill="#ffffff" fill-rule="evenodd" fill-opacity="1"/>
<polyline clip-path="url(#clip920)" style="stroke:#000000; stroke-linecap:round; stroke-linejoin:round; stroke-width:4; stroke-opacity:1; fill:none" points="1776.28,1379.86 2279.53,1379.86 2279.53,1172.5 1776.28,1172.5 1776.28,1379.86 "/>
<polyline clip-path="url(#clip920)" style="stroke:#009af9; stroke-linecap:round; stroke-linejoin:round; stroke-width:4; stroke-opacity:1; fill:none" points="1800.69,1224.34 1947.13,1224.34 "/>
<path clip-path="url(#clip920)" d="M1971.54 1207.06 L1976.24 1207.06 L1976.24 1228.05 Q1976.24 1233.61 1978.25 1236.06 Q1980.27 1238.49 1984.78 1238.49 Q1989.27 1238.49 1991.29 1236.06 Q1993.3 1233.61 1993.3 1228.05 L1993.3 1207.06 L1998 1207.06 L1998 1228.63 Q1998 1235.39 1994.64 1238.84 Q1991.31 1242.29 1984.78 1242.29 Q1978.23 1242.29 1974.87 1238.84 Q1971.54 1235.39 1971.54 1228.63 L1971.54 1207.06 Z" fill="#000000" fill-rule="nonzero" fill-opacity="1" /><path clip-path="url(#clip920)" d="M2010.71 1237.73 L2010.71 1251.48 L2006.42 1251.48 L2006.42 1215.69 L2010.71 1215.69 L2010.71 1219.63 Q2012.05 1217.31 2014.09 1216.2 Q2016.15 1215.07 2018.99 1215.07 Q2023.72 1215.07 2026.66 1218.82 Q2029.62 1222.57 2029.62 1228.68 Q2029.62 1234.79 2026.66 1238.54 Q2023.72 1242.29 2018.99 1242.29 Q2016.15 1242.29 2014.09 1241.18 Q2012.05 1240.04 2010.71 1237.73 M2025.2 1228.68 Q2025.2 1223.98 2023.25 1221.32 Q2021.33 1218.63 2017.95 1218.63 Q2014.57 1218.63 2012.63 1221.32 Q2010.71 1223.98 2010.71 1228.68 Q2010.71 1233.38 2012.63 1236.06 Q2014.57 1238.72 2017.95 1238.72 Q2021.33 1238.72 2023.25 1236.06 Q2025.2 1233.38 2025.2 1228.68 Z" fill="#000000" fill-rule="nonzero" fill-opacity="1" /><path clip-path="url(#clip920)" d="M2040.8 1237.73 L2040.8 1251.48 L2036.52 1251.48 L2036.52 1215.69 L2040.8 1215.69 L2040.8 1219.63 Q2042.14 1217.31 2044.18 1216.2 Q2046.24 1215.07 2049.09 1215.07 Q2053.81 1215.07 2056.75 1218.82 Q2059.71 1222.57 2059.71 1228.68 Q2059.71 1234.79 2056.75 1238.54 Q2053.81 1242.29 2049.09 1242.29 Q2046.24 1242.29 2044.18 1241.18 Q2042.14 1240.04 2040.8 1237.73 M2055.29 1228.68 Q2055.29 1223.98 2053.35 1221.32 Q2051.42 1218.63 2048.05 1218.63 Q2044.67 1218.63 2042.72 1221.32 Q2040.8 1223.98 2040.8 1228.68 Q2040.8 1233.38 2042.72 1236.06 Q2044.67 1238.72 2048.05 1238.72 Q2051.42 1238.72 2053.35 1236.06 Q2055.29 1233.38 2055.29 1228.68 Z" fill="#000000" fill-rule="nonzero" fill-opacity="1" /><path clip-path="url(#clip920)" d="M2088.95 1227.59 L2088.95 1229.67 L2069.36 1229.67 Q2069.64 1234.07 2072 1236.38 Q2074.39 1238.68 2078.62 1238.68 Q2081.08 1238.68 2083.37 1238.07 Q2085.68 1237.47 2087.95 1236.27 L2087.95 1240.3 Q2085.66 1241.27 2083.25 1241.78 Q2080.85 1242.29 2078.37 1242.29 Q2072.17 1242.29 2068.53 1238.68 Q2064.92 1235.07 2064.92 1228.91 Q2064.92 1222.54 2068.35 1218.82 Q2071.79 1215.07 2077.63 1215.07 Q2082.86 1215.07 2085.89 1218.45 Q2088.95 1221.8 2088.95 1227.59 M2084.69 1226.34 Q2084.64 1222.84 2082.72 1220.76 Q2080.82 1218.68 2077.67 1218.68 Q2074.11 1218.68 2071.96 1220.69 Q2069.83 1222.7 2069.5 1226.36 L2084.69 1226.34 Z" fill="#000000" fill-rule="nonzero" fill-opacity="1" /><path clip-path="url(#clip920)" d="M2110.96 1219.67 Q2110.24 1219.26 2109.39 1219.07 Q2108.55 1218.86 2107.54 1218.86 Q2103.92 1218.86 2101.98 1221.22 Q2100.06 1223.56 2100.06 1227.96 L2100.06 1241.62 L2095.78 1241.62 L2095.78 1215.69 L2100.06 1215.69 L2100.06 1219.72 Q2101.4 1217.36 2103.55 1216.22 Q2105.71 1215.07 2108.79 1215.07 Q2109.23 1215.07 2109.76 1215.13 Q2110.29 1215.18 2110.94 1215.3 L2110.96 1219.67 Z" fill="#000000" fill-rule="nonzero" fill-opacity="1" /><path clip-path="url(#clip920)" d="M2135.36 1210.9 L2135.36 1223.88 L2141.24 1223.88 Q2144.5 1223.88 2146.29 1222.2 Q2148.07 1220.51 2148.07 1217.38 Q2148.07 1214.28 2146.29 1212.59 Q2144.5 1210.9 2141.24 1210.9 L2135.36 1210.9 M2130.68 1207.06 L2141.24 1207.06 Q2147.05 1207.06 2150.01 1209.7 Q2153 1212.31 2153 1217.38 Q2153 1222.5 2150.01 1225.11 Q2147.05 1227.73 2141.24 1227.73 L2135.36 1227.73 L2135.36 1241.62 L2130.68 1241.62 L2130.68 1207.06 Z" fill="#000000" fill-rule="nonzero" fill-opacity="1" /><path clip-path="url(#clip920)" d="M2167.44 1218.68 Q2164.02 1218.68 2162.03 1221.36 Q2160.04 1224.02 2160.04 1228.68 Q2160.04 1233.33 2162 1236.01 Q2163.99 1238.68 2167.44 1238.68 Q2170.85 1238.68 2172.84 1235.99 Q2174.83 1233.31 2174.83 1228.68 Q2174.83 1224.07 2172.84 1221.38 Q2170.85 1218.68 2167.44 1218.68 M2167.44 1215.07 Q2173 1215.07 2176.17 1218.68 Q2179.34 1222.29 2179.34 1228.68 Q2179.34 1235.04 2176.17 1238.68 Q2173 1242.29 2167.44 1242.29 Q2161.86 1242.29 2158.69 1238.68 Q2155.54 1235.04 2155.54 1228.68 Q2155.54 1222.29 2158.69 1218.68 Q2161.86 1215.07 2167.44 1215.07 Z" fill="#000000" fill-rule="nonzero" fill-opacity="1" /><path clip-path="url(#clip920)" d="M2186.4 1215.69 L2190.66 1215.69 L2190.66 1241.62 L2186.4 1241.62 L2186.4 1215.69 M2186.4 1205.6 L2190.66 1205.6 L2190.66 1210.99 L2186.4 1210.99 L2186.4 1205.6 Z" fill="#000000" fill-rule="nonzero" fill-opacity="1" /><path clip-path="url(#clip920)" d="M2221.12 1225.97 L2221.12 1241.62 L2216.86 1241.62 L2216.86 1226.11 Q2216.86 1222.43 2215.43 1220.6 Q2213.99 1218.77 2211.12 1218.77 Q2207.67 1218.77 2205.68 1220.97 Q2203.69 1223.17 2203.69 1226.96 L2203.69 1241.62 L2199.41 1241.62 L2199.41 1215.69 L2203.69 1215.69 L2203.69 1219.72 Q2205.22 1217.38 2207.28 1216.22 Q2209.36 1215.07 2212.07 1215.07 Q2216.54 1215.07 2218.83 1217.84 Q2221.12 1220.6 2221.12 1225.97 Z" fill="#000000" fill-rule="nonzero" fill-opacity="1" /><path clip-path="url(#clip920)" d="M2233.83 1208.33 L2233.83 1215.69 L2242.6 1215.69 L2242.6 1219 L2233.83 1219 L2233.83 1233.07 Q2233.83 1236.25 2234.69 1237.15 Q2235.57 1238.05 2238.23 1238.05 L2242.6 1238.05 L2242.6 1241.62 L2238.23 1241.62 Q2233.3 1241.62 2231.42 1239.79 Q2229.55 1237.94 2229.55 1233.07 L2229.55 1219 L2226.42 1219 L2226.42 1215.69 L2229.55 1215.69 L2229.55 1208.33 L2233.83 1208.33 Z" fill="#000000" fill-rule="nonzero" fill-opacity="1" /><polyline clip-path="url(#clip920)" style="stroke:#e26f46; stroke-linecap:round; stroke-linejoin:round; stroke-width:4; stroke-opacity:1; fill:none" points="1800.69,1276.18 1947.13,1276.18 "/>
<path clip-path="url(#clip920)" d="M1971.54 1258.9 L1978.51 1258.9 L1987.33 1282.41 L1996.19 1258.9 L2003.16 1258.9 L2003.16 1293.46 L1998.6 1293.46 L1998.6 1263.11 L1989.69 1286.81 L1984.99 1286.81 L1976.08 1263.11 L1976.08 1293.46 L1971.54 1293.46 L1971.54 1258.9 Z" fill="#000000" fill-rule="nonzero" fill-opacity="1" /><path clip-path="url(#clip920)" d="M2012.26 1267.53 L2016.52 1267.53 L2016.52 1293.46 L2012.26 1293.46 L2012.26 1267.53 M2012.26 1257.44 L2016.52 1257.44 L2016.52 1262.83 L2012.26 1262.83 L2012.26 1257.44 Z" fill="#000000" fill-rule="nonzero" fill-opacity="1" /><path clip-path="url(#clip920)" d="M2042.49 1271.47 L2042.49 1257.44 L2046.75 1257.44 L2046.75 1293.46 L2042.49 1293.46 L2042.49 1289.57 Q2041.15 1291.88 2039.09 1293.02 Q2037.05 1294.13 2034.18 1294.13 Q2029.48 1294.13 2026.52 1290.38 Q2023.58 1286.63 2023.58 1280.52 Q2023.58 1274.41 2026.52 1270.66 Q2029.48 1266.91 2034.18 1266.91 Q2037.05 1266.91 2039.09 1268.04 Q2041.15 1269.15 2042.49 1271.47 M2027.98 1280.52 Q2027.98 1285.22 2029.9 1287.9 Q2031.84 1290.56 2035.22 1290.56 Q2038.6 1290.56 2040.55 1287.9 Q2042.49 1285.22 2042.49 1280.52 Q2042.49 1275.82 2040.55 1273.16 Q2038.6 1270.47 2035.22 1270.47 Q2031.84 1270.47 2029.9 1273.16 Q2027.98 1275.82 2027.98 1280.52 Z" fill="#000000" fill-rule="nonzero" fill-opacity="1" /><path clip-path="url(#clip920)" d="M2072.58 1271.47 L2072.58 1257.44 L2076.84 1257.44 L2076.84 1293.46 L2072.58 1293.46 L2072.58 1289.57 Q2071.24 1291.88 2069.18 1293.02 Q2067.14 1294.13 2064.27 1294.13 Q2059.57 1294.13 2056.61 1290.38 Q2053.67 1286.63 2053.67 1280.52 Q2053.67 1274.41 2056.61 1270.66 Q2059.57 1266.91 2064.27 1266.91 Q2067.14 1266.91 2069.18 1268.04 Q2071.24 1269.15 2072.58 1271.47 M2058.07 1280.52 Q2058.07 1285.22 2059.99 1287.9 Q2061.93 1290.56 2065.31 1290.56 Q2068.69 1290.56 2070.64 1287.9 Q2072.58 1285.22 2072.58 1280.52 Q2072.58 1275.82 2070.64 1273.16 Q2068.69 1270.47 2065.31 1270.47 Q2061.93 1270.47 2059.99 1273.16 Q2058.07 1275.82 2058.07 1280.52 Z" fill="#000000" fill-rule="nonzero" fill-opacity="1" /><path clip-path="url(#clip920)" d="M2085.61 1257.44 L2089.87 1257.44 L2089.87 1293.46 L2085.61 1293.46 L2085.61 1257.44 Z" fill="#000000" fill-rule="nonzero" fill-opacity="1" /><path clip-path="url(#clip920)" d="M2120.96 1279.43 L2120.96 1281.51 L2101.38 1281.51 Q2101.66 1285.91 2104.02 1288.22 Q2106.4 1290.52 2110.64 1290.52 Q2113.09 1290.52 2115.38 1289.91 Q2117.7 1289.31 2119.97 1288.11 L2119.97 1292.14 Q2117.67 1293.11 2115.27 1293.62 Q2112.86 1294.13 2110.38 1294.13 Q2104.18 1294.13 2100.54 1290.52 Q2096.93 1286.91 2096.93 1280.75 Q2096.93 1274.38 2100.36 1270.66 Q2103.81 1266.91 2109.64 1266.91 Q2114.87 1266.91 2117.91 1270.29 Q2120.96 1273.64 2120.96 1279.43 M2116.7 1278.18 Q2116.66 1274.68 2114.73 1272.6 Q2112.84 1270.52 2109.69 1270.52 Q2106.12 1270.52 2103.97 1272.53 Q2101.84 1274.54 2101.52 1278.2 L2116.7 1278.18 Z" fill="#000000" fill-rule="nonzero" fill-opacity="1" /><path clip-path="url(#clip920)" d="M2147.88 1262.74 L2147.88 1275.72 L2153.76 1275.72 Q2157.03 1275.72 2158.81 1274.04 Q2160.59 1272.35 2160.59 1269.22 Q2160.59 1266.12 2158.81 1264.43 Q2157.03 1262.74 2153.76 1262.74 L2147.88 1262.74 M2143.21 1258.9 L2153.76 1258.9 Q2159.57 1258.9 2162.54 1261.54 Q2165.52 1264.15 2165.52 1269.22 Q2165.52 1274.34 2162.54 1276.95 Q2159.57 1279.57 2153.76 1279.57 L2147.88 1279.57 L2147.88 1293.46 L2143.21 1293.46 L2143.21 1258.9 Z" fill="#000000" fill-rule="nonzero" fill-opacity="1" /><path clip-path="url(#clip920)" d="M2179.97 1270.52 Q2176.54 1270.52 2174.55 1273.2 Q2172.56 1275.86 2172.56 1280.52 Q2172.56 1285.17 2174.53 1287.85 Q2176.52 1290.52 2179.97 1290.52 Q2183.37 1290.52 2185.36 1287.83 Q2187.35 1285.15 2187.35 1280.52 Q2187.35 1275.91 2185.36 1273.22 Q2183.37 1270.52 2179.97 1270.52 M2179.97 1266.91 Q2185.52 1266.91 2188.69 1270.52 Q2191.86 1274.13 2191.86 1280.52 Q2191.86 1286.88 2188.69 1290.52 Q2185.52 1294.13 2179.97 1294.13 Q2174.39 1294.13 2171.22 1290.52 Q2168.07 1286.88 2168.07 1280.52 Q2168.07 1274.13 2171.22 1270.52 Q2174.39 1266.91 2179.97 1266.91 Z" fill="#000000" fill-rule="nonzero" fill-opacity="1" /><path clip-path="url(#clip920)" d="M2198.92 1267.53 L2203.18 1267.53 L2203.18 1293.46 L2198.92 1293.46 L2198.92 1267.53 M2198.92 1257.44 L2203.18 1257.44 L2203.18 1262.83 L2198.92 1262.83 L2198.92 1257.44 Z" fill="#000000" fill-rule="nonzero" fill-opacity="1" /><path clip-path="url(#clip920)" d="M2233.65 1277.81 L2233.65 1293.46 L2229.39 1293.46 L2229.39 1277.95 Q2229.39 1274.27 2227.95 1272.44 Q2226.52 1270.61 2223.65 1270.61 Q2220.2 1270.61 2218.21 1272.81 Q2216.22 1275.01 2216.22 1278.8 L2216.22 1293.46 L2211.93 1293.46 L2211.93 1267.53 L2216.22 1267.53 L2216.22 1271.56 Q2217.74 1269.22 2219.8 1268.06 Q2221.89 1266.91 2224.6 1266.91 Q2229.06 1266.91 2231.35 1269.68 Q2233.65 1272.44 2233.65 1277.81 Z" fill="#000000" fill-rule="nonzero" fill-opacity="1" /><path clip-path="url(#clip920)" d="M2246.35 1260.17 L2246.35 1267.53 L2255.13 1267.53 L2255.13 1270.84 L2246.35 1270.84 L2246.35 1284.91 Q2246.35 1288.09 2247.21 1288.99 Q2248.09 1289.89 2250.75 1289.89 L2255.13 1289.89 L2255.13 1293.46 L2250.75 1293.46 Q2245.82 1293.46 2243.95 1291.63 Q2242.07 1289.78 2242.07 1284.91 L2242.07 1270.84 L2238.95 1270.84 L2238.95 1267.53 L2242.07 1267.53 L2242.07 1260.17 L2246.35 1260.17 Z" fill="#000000" fill-rule="nonzero" fill-opacity="1" /><polyline clip-path="url(#clip920)" style="stroke:#3da44d; stroke-linecap:round; stroke-linejoin:round; stroke-width:4; stroke-opacity:1; fill:none" points="1800.69,1328.02 1947.13,1328.02 "/>
<path clip-path="url(#clip920)" d="M1971.54 1310.74 L1976.22 1310.74 L1976.22 1341.36 L1993.05 1341.36 L1993.05 1345.3 L1971.54 1345.3 L1971.54 1310.74 Z" fill="#000000" fill-rule="nonzero" fill-opacity="1" /><path clip-path="url(#clip920)" d="M2006.98 1322.36 Q2003.55 1322.36 2001.56 1325.04 Q1999.57 1327.7 1999.57 1332.36 Q1999.57 1337.01 2001.54 1339.69 Q2003.53 1342.36 2006.98 1342.36 Q2010.38 1342.36 2012.37 1339.67 Q2014.36 1336.99 2014.36 1332.36 Q2014.36 1327.75 2012.37 1325.06 Q2010.38 1322.36 2006.98 1322.36 M2006.98 1318.75 Q2012.54 1318.75 2015.71 1322.36 Q2018.88 1325.97 2018.88 1332.36 Q2018.88 1338.72 2015.71 1342.36 Q2012.54 1345.97 2006.98 1345.97 Q2001.4 1345.97 1998.23 1342.36 Q1995.08 1338.72 1995.08 1332.36 Q1995.08 1325.97 1998.23 1322.36 Q2001.4 1318.75 2006.98 1318.75 Z" fill="#000000" fill-rule="nonzero" fill-opacity="1" /><path clip-path="url(#clip920)" d="M2023.46 1319.37 L2027.72 1319.37 L2033.05 1339.6 L2038.35 1319.37 L2043.37 1319.37 L2048.69 1339.6 L2053.99 1319.37 L2058.25 1319.37 L2051.47 1345.3 L2046.45 1345.3 L2040.87 1324.05 L2035.27 1345.3 L2030.24 1345.3 L2023.46 1319.37 Z" fill="#000000" fill-rule="nonzero" fill-opacity="1" /><path clip-path="url(#clip920)" d="M2086.89 1331.27 L2086.89 1333.35 L2067.3 1333.35 Q2067.58 1337.75 2069.94 1340.06 Q2072.33 1342.36 2076.56 1342.36 Q2079.02 1342.36 2081.31 1341.75 Q2083.62 1341.15 2085.89 1339.95 L2085.89 1343.98 Q2083.6 1344.95 2081.19 1345.46 Q2078.79 1345.97 2076.31 1345.97 Q2070.11 1345.97 2066.47 1342.36 Q2062.86 1338.75 2062.86 1332.59 Q2062.86 1326.22 2066.29 1322.5 Q2069.73 1318.75 2075.57 1318.75 Q2080.8 1318.75 2083.83 1322.13 Q2086.89 1325.48 2086.89 1331.27 M2082.63 1330.02 Q2082.58 1326.52 2080.66 1324.44 Q2078.76 1322.36 2075.61 1322.36 Q2072.05 1322.36 2069.9 1324.37 Q2067.77 1326.38 2067.44 1330.04 L2082.63 1330.02 Z" fill="#000000" fill-rule="nonzero" fill-opacity="1" /><path clip-path="url(#clip920)" d="M2108.9 1323.35 Q2108.18 1322.94 2107.33 1322.75 Q2106.49 1322.54 2105.48 1322.54 Q2101.86 1322.54 2099.92 1324.9 Q2098 1327.24 2098 1331.64 L2098 1345.3 L2093.72 1345.3 L2093.72 1319.37 L2098 1319.37 L2098 1323.4 Q2099.34 1321.04 2101.49 1319.9 Q2103.65 1318.75 2106.73 1318.75 Q2107.17 1318.75 2107.7 1318.81 Q2108.23 1318.86 2108.88 1318.98 L2108.9 1323.35 Z" fill="#000000" fill-rule="nonzero" fill-opacity="1" /><path clip-path="url(#clip920)" d="M2133.3 1314.58 L2133.3 1327.56 L2139.18 1327.56 Q2142.44 1327.56 2144.23 1325.88 Q2146.01 1324.19 2146.01 1321.06 Q2146.01 1317.96 2144.23 1316.27 Q2142.44 1314.58 2139.18 1314.58 L2133.3 1314.58 M2128.62 1310.74 L2139.18 1310.74 Q2144.99 1310.74 2147.95 1313.38 Q2150.94 1315.99 2150.94 1321.06 Q2150.94 1326.18 2147.95 1328.79 Q2144.99 1331.41 2139.18 1331.41 L2133.3 1331.41 L2133.3 1345.3 L2128.62 1345.3 L2128.62 1310.74 Z" fill="#000000" fill-rule="nonzero" fill-opacity="1" /><path clip-path="url(#clip920)" d="M2165.38 1322.36 Q2161.96 1322.36 2159.97 1325.04 Q2157.98 1327.7 2157.98 1332.36 Q2157.98 1337.01 2159.94 1339.69 Q2161.93 1342.36 2165.38 1342.36 Q2168.79 1342.36 2170.78 1339.67 Q2172.77 1336.99 2172.77 1332.36 Q2172.77 1327.75 2170.78 1325.06 Q2168.79 1322.36 2165.38 1322.36 M2165.38 1318.75 Q2170.94 1318.75 2174.11 1322.36 Q2177.28 1325.97 2177.28 1332.36 Q2177.28 1338.72 2174.11 1342.36 Q2170.94 1345.97 2165.38 1345.97 Q2159.8 1345.97 2156.63 1342.36 Q2153.48 1338.72 2153.48 1332.36 Q2153.48 1325.97 2156.63 1322.36 Q2159.8 1318.75 2165.38 1318.75 Z" fill="#000000" fill-rule="nonzero" fill-opacity="1" /><path clip-path="url(#clip920)" d="M2184.34 1319.37 L2188.6 1319.37 L2188.6 1345.3 L2184.34 1345.3 L2184.34 1319.37 M2184.34 1309.28 L2188.6 1309.28 L2188.6 1314.67 L2184.34 1314.67 L2184.34 1309.28 Z" fill="#000000" fill-rule="nonzero" fill-opacity="1" /><path clip-path="url(#clip920)" d="M2219.06 1329.65 L2219.06 1345.3 L2214.8 1345.3 L2214.8 1329.79 Q2214.8 1326.11 2213.37 1324.28 Q2211.93 1322.45 2209.06 1322.45 Q2205.61 1322.45 2203.62 1324.65 Q2201.63 1326.85 2201.63 1330.64 L2201.63 1345.3 L2197.35 1345.3 L2197.35 1319.37 L2201.63 1319.37 L2201.63 1323.4 Q2203.16 1321.06 2205.22 1319.9 Q2207.3 1318.75 2210.01 1318.75 Q2214.48 1318.75 2216.77 1321.52 Q2219.06 1324.28 2219.06 1329.65 Z" fill="#000000" fill-rule="nonzero" fill-opacity="1" /><path clip-path="url(#clip920)" d="M2231.77 1312.01 L2231.77 1319.37 L2240.54 1319.37 L2240.54 1322.68 L2231.77 1322.68 L2231.77 1336.75 Q2231.77 1339.93 2232.63 1340.83 Q2233.51 1341.73 2236.17 1341.73 L2240.54 1341.73 L2240.54 1345.3 L2236.17 1345.3 Q2231.24 1345.3 2229.36 1343.47 Q2227.49 1341.62 2227.49 1336.75 L2227.49 1322.68 L2224.36 1322.68 L2224.36 1319.37 L2227.49 1319.37 L2227.49 1312.01 L2231.77 1312.01 Z" fill="#000000" fill-rule="nonzero" fill-opacity="1" /></svg>
