<?xml version="1.0" encoding="utf-8"?>
<svg xmlns="http://www.w3.org/2000/svg" xmlns:xlink="http://www.w3.org/1999/xlink" width="500" height="500" viewBox="0 0 2000 2000">
<defs>
  <clipPath id="clip840">
    <rect x="0" y="0" width="2000" height="2000"/>
  </clipPath>
</defs>
<path clip-path="url(#clip840)" d="M0 2000 L2000 2000 L2000 0 L0 0  Z" fill="#ffffff" fill-rule="evenodd" fill-opacity="1"/>
<defs>
  <clipPath id="clip841">
    <rect x="400" y="200" width="1401" height="1401"/>
  </clipPath>
</defs>
<path clip-path="url(#clip840)" d="M136.696 1770.93 L1752.76 1770.93 L1752.76 247.952 L136.696 247.952  Z" fill="#ffffff" fill-rule="evenodd" fill-opacity="1"/>
<defs>
  <clipPath id="clip842">
    <rect x="136" y="247" width="1617" height="1524"/>
  </clipPath>
</defs>
<polyline clip-path="url(#clip842)" style="stroke:#000000; stroke-linecap:round; stroke-linejoin:round; stroke-width:2; stroke-opacity:0.1; fill:none" points="437.067,1770.93 437.067,247.952 "/>
<polyline clip-path="url(#clip842)" style="stroke:#000000; stroke-linecap:round; stroke-linejoin:round; stroke-width:2; stroke-opacity:0.1; fill:none" points="754.354,1770.93 754.354,247.952 "/>
<polyline clip-path="url(#clip842)" style="stroke:#000000; stroke-linecap:round; stroke-linejoin:round; stroke-width:2; stroke-opacity:0.1; fill:none" points="1071.64,1770.93 1071.64,247.952 "/>
<polyline clip-path="url(#clip842)" style="stroke:#000000; stroke-linecap:round; stroke-linejoin:round; stroke-width:2; stroke-opacity:0.1; fill:none" points="1388.93,1770.93 1388.93,247.952 "/>
<polyline clip-path="url(#clip842)" style="stroke:#000000; stroke-linecap:round; stroke-linejoin:round; stroke-width:2; stroke-opacity:0.1; fill:none" points="1706.21,1770.93 1706.21,247.952 "/>
<polyline clip-path="url(#clip840)" style="stroke:#000000; stroke-linecap:round; stroke-linejoin:round; stroke-width:4; stroke-opacity:1; fill:none" points="136.696,1770.93 1752.76,1770.93 "/>
<polyline clip-path="url(#clip840)" style="stroke:#000000; stroke-linecap:round; stroke-linejoin:round; stroke-width:4; stroke-opacity:1; fill:none" points="437.067,1770.93 437.067,1754.11 "/>
<polyline clip-path="url(#clip840)" style="stroke:#000000; stroke-linecap:round; stroke-linejoin:round; stroke-width:4; stroke-opacity:1; fill:none" points="754.354,1770.93 754.354,1754.11 "/>
<polyline clip-path="url(#clip840)" style="stroke:#000000; stroke-linecap:round; stroke-linejoin:round; stroke-width:4; stroke-opacity:1; fill:none" points="1071.64,1770.93 1071.64,1754.11 "/>
<polyline clip-path="url(#clip840)" style="stroke:#000000; stroke-linecap:round; stroke-linejoin:round; stroke-width:4; stroke-opacity:1; fill:none" points="1388.93,1770.93 1388.93,1754.11 "/>
<polyline clip-path="url(#clip840)" style="stroke:#000000; stroke-linecap:round; stroke-linejoin:round; stroke-width:4; stroke-opacity:1; fill:none" points="1706.21,1770.93 1706.21,1754.11 "/>
<path clip-path="url(#clip840)" d="M427.345 1795.57 L445.701 1795.57 L445.701 1799.5 L431.627 1799.5 L431.627 1807.98 Q432.646 1807.63 433.664 1807.47 Q434.683 1807.28 435.701 1807.28 Q441.488 1807.28 444.868 1810.45 Q448.248 1813.62 448.248 1819.04 Q448.248 1824.62 444.775 1827.72 Q441.303 1830.8 434.984 1830.8 Q432.808 1830.8 430.539 1830.43 Q428.294 1830.06 425.887 1829.32 L425.887 1824.62 Q427.97 1825.75 430.192 1826.31 Q432.414 1826.86 434.891 1826.86 Q438.896 1826.86 441.234 1824.76 Q443.572 1822.65 443.572 1819.04 Q443.572 1815.43 441.234 1813.32 Q438.896 1811.22 434.891 1811.22 Q433.016 1811.22 431.141 1811.63 Q429.289 1812.05 427.345 1812.93 L427.345 1795.57 Z" fill="#000000" fill-rule="nonzero" fill-opacity="1" /><path clip-path="url(#clip840)" d="M729.041 1826.19 L736.68 1826.19 L736.68 1799.83 L728.37 1801.49 L728.37 1797.23 L736.634 1795.57 L741.31 1795.57 L741.31 1826.19 L748.949 1826.19 L748.949 1830.13 L729.041 1830.13 L729.041 1826.19 Z" fill="#000000" fill-rule="nonzero" fill-opacity="1" /><path clip-path="url(#clip840)" d="M768.393 1798.65 Q764.782 1798.65 762.953 1802.21 Q761.148 1805.75 761.148 1812.88 Q761.148 1819.99 762.953 1823.55 Q764.782 1827.1 768.393 1827.1 Q772.027 1827.1 773.833 1823.55 Q775.662 1819.99 775.662 1812.88 Q775.662 1805.75 773.833 1802.21 Q772.027 1798.65 768.393 1798.65 M768.393 1794.94 Q774.203 1794.94 777.259 1799.55 Q780.337 1804.13 780.337 1812.88 Q780.337 1821.61 777.259 1826.22 Q774.203 1830.8 768.393 1830.8 Q762.583 1830.8 759.504 1826.22 Q756.449 1821.61 756.449 1812.88 Q756.449 1804.13 759.504 1799.55 Q762.583 1794.94 768.393 1794.94 Z" fill="#000000" fill-rule="nonzero" fill-opacity="1" /><path clip-path="url(#clip840)" d="M1046.83 1826.19 L1054.46 1826.19 L1054.46 1799.83 L1046.15 1801.49 L1046.15 1797.23 L1054.42 1795.57 L1059.09 1795.57 L1059.09 1826.19 L1066.73 1826.19 L1066.73 1830.13 L1046.83 1830.13 L1046.83 1826.19 Z" fill="#000000" fill-rule="nonzero" fill-opacity="1" /><path clip-path="url(#clip840)" d="M1076.22 1795.57 L1094.58 1795.57 L1094.58 1799.5 L1080.51 1799.5 L1080.51 1807.98 Q1081.52 1807.63 1082.54 1807.47 Q1083.56 1807.28 1084.58 1807.28 Q1090.37 1807.28 1093.75 1810.45 Q1097.13 1813.62 1097.13 1819.04 Q1097.13 1824.62 1093.65 1827.72 Q1090.18 1830.8 1083.86 1830.8 Q1081.69 1830.8 1079.42 1830.43 Q1077.17 1830.06 1074.77 1829.32 L1074.77 1824.62 Q1076.85 1825.75 1079.07 1826.31 Q1081.29 1826.86 1083.77 1826.86 Q1087.77 1826.86 1090.11 1824.76 Q1092.45 1822.65 1092.45 1819.04 Q1092.45 1815.43 1090.11 1813.32 Q1087.77 1811.22 1083.77 1811.22 Q1081.89 1811.22 1080.02 1811.63 Q1078.17 1812.05 1076.22 1812.93 L1076.22 1795.57 Z" fill="#000000" fill-rule="nonzero" fill-opacity="1" /><path clip-path="url(#clip840)" d="M1367.7 1826.19 L1384.02 1826.19 L1384.02 1830.13 L1362.08 1830.13 L1362.08 1826.19 Q1364.74 1823.44 1369.32 1818.81 Q1373.93 1814.16 1375.11 1812.81 Q1377.35 1810.29 1378.23 1808.55 Q1379.14 1806.79 1379.14 1805.1 Q1379.14 1802.35 1377.19 1800.61 Q1375.27 1798.88 1372.17 1798.88 Q1369.97 1798.88 1367.52 1799.64 Q1365.08 1800.41 1362.31 1801.96 L1362.31 1797.23 Q1365.13 1796.1 1367.58 1795.52 Q1370.04 1794.94 1372.08 1794.94 Q1377.45 1794.94 1380.64 1797.63 Q1383.83 1800.31 1383.83 1804.8 Q1383.83 1806.93 1383.02 1808.85 Q1382.24 1810.75 1380.13 1813.35 Q1379.55 1814.02 1376.45 1817.23 Q1373.35 1820.43 1367.7 1826.19 Z" fill="#000000" fill-rule="nonzero" fill-opacity="1" /><path clip-path="url(#clip840)" d="M1403.83 1798.65 Q1400.22 1798.65 1398.39 1802.21 Q1396.59 1805.75 1396.59 1812.88 Q1396.59 1819.99 1398.39 1823.55 Q1400.22 1827.1 1403.83 1827.1 Q1407.47 1827.1 1409.27 1823.55 Q1411.1 1819.99 1411.1 1812.88 Q1411.1 1805.75 1409.27 1802.21 Q1407.47 1798.65 1403.83 1798.65 M1403.83 1794.94 Q1409.64 1794.94 1412.7 1799.55 Q1415.78 1804.13 1415.78 1812.88 Q1415.78 1821.61 1412.7 1826.22 Q1409.64 1830.8 1403.83 1830.8 Q1398.02 1830.8 1394.95 1826.22 Q1391.89 1821.61 1391.89 1812.88 Q1391.89 1804.13 1394.95 1799.55 Q1398.02 1794.94 1403.83 1794.94 Z" fill="#000000" fill-rule="nonzero" fill-opacity="1" /><path clip-path="url(#clip840)" d="M1685.48 1826.19 L1701.8 1826.19 L1701.8 1830.13 L1679.86 1830.13 L1679.86 1826.19 Q1682.52 1823.44 1687.1 1818.81 Q1691.71 1814.16 1692.89 1812.81 Q1695.14 1810.29 1696.02 1808.55 Q1696.92 1806.79 1696.92 1805.1 Q1696.92 1802.35 1694.98 1800.61 Q1693.05 1798.88 1689.95 1798.88 Q1687.75 1798.88 1685.3 1799.64 Q1682.87 1800.41 1680.09 1801.96 L1680.09 1797.23 Q1682.92 1796.1 1685.37 1795.52 Q1687.82 1794.94 1689.86 1794.94 Q1695.23 1794.94 1698.42 1797.63 Q1701.62 1800.31 1701.62 1804.8 Q1701.62 1806.93 1700.81 1808.85 Q1700.02 1810.75 1697.92 1813.35 Q1697.34 1814.02 1694.23 1817.23 Q1691.13 1820.43 1685.48 1826.19 Z" fill="#000000" fill-rule="nonzero" fill-opacity="1" /><path clip-path="url(#clip840)" d="M1711.66 1795.57 L1730.02 1795.57 L1730.02 1799.5 L1715.95 1799.5 L1715.95 1807.98 Q1716.97 1807.63 1717.98 1807.47 Q1719 1807.28 1720.02 1807.28 Q1725.81 1807.28 1729.19 1810.45 Q1732.57 1813.62 1732.57 1819.04 Q1732.57 1824.62 1729.1 1827.72 Q1725.62 1830.8 1719.3 1830.8 Q1717.13 1830.8 1714.86 1830.43 Q1712.61 1830.06 1710.21 1829.32 L1710.21 1824.62 Q1712.29 1825.75 1714.51 1826.31 Q1716.73 1826.86 1719.21 1826.86 Q1723.22 1826.86 1725.55 1824.76 Q1727.89 1822.65 1727.89 1819.04 Q1727.89 1815.43 1725.55 1813.32 Q1723.22 1811.22 1719.21 1811.22 Q1717.34 1811.22 1715.46 1811.63 Q1713.61 1812.05 1711.66 1812.93 L1711.66 1795.57 Z" fill="#000000" fill-rule="nonzero" fill-opacity="1" /><polyline clip-path="url(#clip842)" style="stroke:#000000; stroke-linecap:round; stroke-linejoin:round; stroke-width:2; stroke-opacity:0.1; fill:none" points="136.696,1517.1 1752.76,1517.1 "/>
<polyline clip-path="url(#clip842)" style="stroke:#000000; stroke-linecap:round; stroke-linejoin:round; stroke-width:2; stroke-opacity:0.1; fill:none" points="136.696,1199.81 1752.76,1199.81 "/>
<polyline clip-path="url(#clip842)" style="stroke:#000000; stroke-linecap:round; stroke-linejoin:round; stroke-width:2; stroke-opacity:0.1; fill:none" points="136.696,882.525 1752.76,882.525 "/>
<polyline clip-path="url(#clip842)" style="stroke:#000000; stroke-linecap:round; stroke-linejoin:round; stroke-width:2; stroke-opacity:0.1; fill:none" points="136.696,565.239 1752.76,565.239 "/>
<polyline clip-path="url(#clip842)" style="stroke:#000000; stroke-linecap:round; stroke-linejoin:round; stroke-width:2; stroke-opacity:0.1; fill:none" points="136.696,247.952 1752.76,247.952 "/>
<polyline clip-path="url(#clip840)" style="stroke:#000000; stroke-linecap:round; stroke-linejoin:round; stroke-width:4; stroke-opacity:1; fill:none" points="136.696,1770.93 136.696,247.952 "/>
<polyline clip-path="url(#clip840)" style="stroke:#000000; stroke-linecap:round; stroke-linejoin:round; stroke-width:4; stroke-opacity:1; fill:none" points="136.696,1517.1 153.512,1517.1 "/>
<polyline clip-path="url(#clip840)" style="stroke:#000000; stroke-linecap:round; stroke-linejoin:round; stroke-width:4; stroke-opacity:1; fill:none" points="136.696,1199.81 153.512,1199.81 "/>
<polyline clip-path="url(#clip840)" style="stroke:#000000; stroke-linecap:round; stroke-linejoin:round; stroke-width:4; stroke-opacity:1; fill:none" points="136.696,882.525 153.512,882.525 "/>
<polyline clip-path="url(#clip840)" style="stroke:#000000; stroke-linecap:round; stroke-linejoin:round; stroke-width:4; stroke-opacity:1; fill:none" points="136.696,565.239 153.512,565.239 "/>
<polyline clip-path="url(#clip840)" style="stroke:#000000; stroke-linecap:round; stroke-linejoin:round; stroke-width:4; stroke-opacity:1; fill:none" points="136.696,247.952 153.512,247.952 "/>
<path clip-path="url(#clip840)" d="M85.7929 1499.82 L104.149 1499.82 L104.149 1503.75 L90.0753 1503.75 L90.0753 1512.23 Q91.0938 1511.88 92.1123 1511.72 Q93.1308 1511.53 94.1493 1511.53 Q99.9363 1511.53 103.316 1514.7 Q106.696 1517.87 106.696 1523.29 Q106.696 1528.87 103.223 1531.97 Q99.7511 1535.05 93.4317 1535.05 Q91.2558 1535.05 88.9873 1534.68 Q86.7419 1534.31 84.3346 1533.57 L84.3346 1528.87 Q86.4179 1530 88.6401 1530.56 Q90.8623 1531.11 93.3391 1531.11 Q97.3437 1531.11 99.6817 1529.01 Q102.02 1526.9 102.02 1523.29 Q102.02 1519.68 99.6817 1517.57 Q97.3437 1515.47 93.3391 1515.47 Q91.4641 1515.47 89.5892 1515.88 Q87.7373 1516.3 85.7929 1517.18 L85.7929 1499.82 Z" fill="#000000" fill-rule="nonzero" fill-opacity="1" /><path clip-path="url(#clip840)" d="M55.3995 1213.16 L63.0384 1213.16 L63.0384 1186.79 L54.7282 1188.46 L54.7282 1184.2 L62.9921 1182.53 L67.668 1182.53 L67.668 1213.16 L75.3068 1213.16 L75.3068 1217.09 L55.3995 1217.09 L55.3995 1213.16 Z" fill="#000000" fill-rule="nonzero" fill-opacity="1" /><path clip-path="url(#clip840)" d="M94.7512 1185.61 Q91.1401 1185.61 89.3114 1189.18 Q87.5058 1192.72 87.5058 1199.85 Q87.5058 1206.95 89.3114 1210.52 Q91.1401 1214.06 94.7512 1214.06 Q98.3854 1214.06 100.191 1210.52 Q102.02 1206.95 102.02 1199.85 Q102.02 1192.72 100.191 1189.18 Q98.3854 1185.61 94.7512 1185.61 M94.7512 1181.91 Q100.561 1181.91 103.617 1186.51 Q106.696 1191.1 106.696 1199.85 Q106.696 1208.57 103.617 1213.18 Q100.561 1217.76 94.7512 1217.76 Q88.941 1217.76 85.8623 1213.18 Q82.8068 1208.57 82.8068 1199.85 Q82.8068 1191.1 85.8623 1186.51 Q88.941 1181.91 94.7512 1181.91 Z" fill="#000000" fill-rule="nonzero" fill-opacity="1" /><path clip-path="url(#clip840)" d="M56.3949 895.87 L64.0337 895.87 L64.0337 869.505 L55.7236 871.171 L55.7236 866.912 L63.9874 865.245 L68.6633 865.245 L68.6633 895.87 L76.3022 895.87 L76.3022 899.805 L56.3949 899.805 L56.3949 895.87 Z" fill="#000000" fill-rule="nonzero" fill-opacity="1" /><path clip-path="url(#clip840)" d="M85.7929 865.245 L104.149 865.245 L104.149 869.181 L90.0753 869.181 L90.0753 877.653 Q91.0938 877.305 92.1123 877.143 Q93.1308 876.958 94.1493 876.958 Q99.9363 876.958 103.316 880.13 Q106.696 883.301 106.696 888.717 Q106.696 894.296 103.223 897.398 Q99.7511 900.477 93.4317 900.477 Q91.2558 900.477 88.9873 900.106 Q86.7419 899.736 84.3346 898.995 L84.3346 894.296 Q86.4179 895.43 88.6401 895.986 Q90.8623 896.541 93.3391 896.541 Q97.3437 896.541 99.6817 894.435 Q102.02 892.329 102.02 888.717 Q102.02 885.106 99.6817 883 Q97.3437 880.893 93.3391 880.893 Q91.4641 880.893 89.5892 881.31 Q87.7373 881.727 85.7929 882.606 L85.7929 865.245 Z" fill="#000000" fill-rule="nonzero" fill-opacity="1" /><path clip-path="url(#clip840)" d="M58.6171 578.584 L74.9365 578.584 L74.9365 582.519 L52.9921 582.519 L52.9921 578.584 Q55.6541 575.829 60.2375 571.199 Q64.8439 566.547 66.0245 565.204 Q68.2698 562.681 69.1494 560.945 Q70.0522 559.186 70.0522 557.496 Q70.0522 554.741 68.1078 553.005 Q66.1865 551.269 63.0847 551.269 Q60.8856 551.269 58.4319 552.033 Q56.0014 552.797 53.2236 554.348 L53.2236 549.625 Q56.0477 548.491 58.5014 547.912 Q60.955 547.334 62.9921 547.334 Q68.3624 547.334 71.5568 550.019 Q74.7513 552.704 74.7513 557.195 Q74.7513 559.324 73.9411 561.246 Q73.1541 563.144 71.0476 565.736 Q70.4689 566.408 67.367 569.625 Q64.2652 572.82 58.6171 578.584 Z" fill="#000000" fill-rule="nonzero" fill-opacity="1" /><path clip-path="url(#clip840)" d="M94.7512 551.037 Q91.1401 551.037 89.3114 554.602 Q87.5058 558.144 87.5058 565.273 Q87.5058 572.38 89.3114 575.945 Q91.1401 579.486 94.7512 579.486 Q98.3854 579.486 100.191 575.945 Q102.02 572.38 102.02 565.273 Q102.02 558.144 100.191 554.602 Q98.3854 551.037 94.7512 551.037 M94.7512 547.334 Q100.561 547.334 103.617 551.94 Q106.696 556.524 106.696 565.273 Q106.696 574 103.617 578.607 Q100.561 583.19 94.7512 583.19 Q88.941 583.19 85.8623 578.607 Q82.8068 574 82.8068 565.273 Q82.8068 556.524 85.8623 551.94 Q88.941 547.334 94.7512 547.334 Z" fill="#000000" fill-rule="nonzero" fill-opacity="1" /><path clip-path="url(#clip840)" d="M59.6125 261.297 L75.9318 261.297 L75.9318 265.232 L53.9875 265.232 L53.9875 261.297 Q56.6495 258.542 61.2328 253.913 Q65.8393 249.26 67.0198 247.917 Q69.2652 245.394 70.1448 243.658 Q71.0476 241.899 71.0476 240.209 Q71.0476 237.455 69.1032 235.718 Q67.1819 233.982 64.08 233.982 Q61.881 233.982 59.4273 234.746 Q56.9967 235.51 54.219 237.061 L54.219 232.339 Q57.043 231.205 59.4967 230.626 Q61.9504 230.047 63.9874 230.047 Q69.3578 230.047 72.5522 232.732 Q75.7466 235.417 75.7466 239.908 Q75.7466 242.038 74.9365 243.959 Q74.1494 245.857 72.0429 248.45 Q71.4642 249.121 68.3624 252.339 Q65.2606 255.533 59.6125 261.297 Z" fill="#000000" fill-rule="nonzero" fill-opacity="1" /><path clip-path="url(#clip840)" d="M85.7929 230.672 L104.149 230.672 L104.149 234.607 L90.0753 234.607 L90.0753 243.079 Q91.0938 242.732 92.1123 242.57 Q93.1308 242.385 94.1493 242.385 Q99.9363 242.385 103.316 245.556 Q106.696 248.728 106.696 254.144 Q106.696 259.723 103.223 262.825 Q99.7511 265.903 93.4317 265.903 Q91.2558 265.903 88.9873 265.533 Q86.7419 265.163 84.3346 264.422 L84.3346 259.723 Q86.4179 260.857 88.6401 261.413 Q90.8623 261.968 93.3391 261.968 Q97.3437 261.968 99.6817 259.862 Q102.02 257.755 102.02 254.144 Q102.02 250.533 99.6817 248.427 Q97.3437 246.32 93.3391 246.32 Q91.4641 246.32 89.5892 246.737 Q87.7373 247.154 85.7929 248.033 L85.7929 230.672 Z" fill="#000000" fill-rule="nonzero" fill-opacity="1" /><path clip-path="url(#clip840)" d="M41.8399 18.8205 L41.8399 41.5461 L52.1292 41.5461 Q57.841 41.5461 60.9602 38.5889 Q64.0794 35.6318 64.0794 30.163 Q64.0794 24.7348 60.9602 21.7777 Q57.841 18.8205 52.1292 18.8205 L41.8399 18.8205 M33.6571 12.096 L52.1292 12.096 Q62.297 12.096 67.4822 16.714 Q72.7078 21.2916 72.7078 30.163 Q72.7078 39.1155 67.4822 43.6931 Q62.297 48.2706 52.1292 48.2706 L41.8399 48.2706 L41.8399 72.576 L33.6571 72.576 L33.6571 12.096 Z" fill="#000000" fill-rule="nonzero" fill-opacity="1" /><path clip-path="url(#clip840)" d="M97.9855 32.4315 Q91.9901 32.4315 88.5064 37.1306 Q85.0226 41.7891 85.0226 49.9314 Q85.0226 58.0738 88.4658 62.7728 Q91.9496 67.4314 97.9855 67.4314 Q103.94 67.4314 107.424 62.7323 Q110.908 58.0333 110.908 49.9314 Q110.908 41.8701 107.424 37.1711 Q103.94 32.4315 97.9855 32.4315 M97.9855 26.1121 Q107.708 26.1121 113.257 32.4315 Q118.807 38.7509 118.807 49.9314 Q118.807 61.0714 113.257 67.4314 Q107.708 73.7508 97.9855 73.7508 Q88.2228 73.7508 82.6731 67.4314 Q77.1638 61.0714 77.1638 49.9314 Q77.1638 38.7509 82.6731 32.4315 Q88.2228 26.1121 97.9855 26.1121 Z" fill="#000000" fill-rule="nonzero" fill-opacity="1" /><path clip-path="url(#clip840)" d="M138.535 14.324 L138.535 27.2059 L153.888 27.2059 L153.888 32.9987 L138.535 32.9987 L138.535 57.6282 Q138.535 63.1779 140.034 64.7578 Q141.573 66.3376 146.232 66.3376 L153.888 66.3376 L153.888 72.576 L146.232 72.576 Q137.603 72.576 134.322 69.3758 Q131.041 66.1351 131.041 57.6282 L131.041 32.9987 L125.572 32.9987 L125.572 27.2059 L131.041 27.2059 L131.041 14.324 L138.535 14.324 Z" fill="#000000" fill-rule="nonzero" fill-opacity="1" /><path clip-path="url(#clip840)" d="M202.499 48.0275 L202.499 51.6733 L168.228 51.6733 Q168.714 59.3701 172.846 63.421 Q177.019 67.4314 184.432 67.4314 Q188.726 67.4314 192.736 66.3781 Q196.787 65.3249 200.757 63.2184 L200.757 70.267 Q196.747 71.9684 192.534 72.8596 Q188.321 73.7508 183.986 73.7508 Q173.13 73.7508 166.77 67.4314 Q160.45 61.1119 160.45 50.3365 Q160.45 39.1965 166.446 32.6746 Q172.482 26.1121 182.69 26.1121 Q191.845 26.1121 197.152 32.0264 Q202.499 37.9003 202.499 48.0275 M195.045 45.84 Q194.964 39.7232 191.602 36.0774 Q188.28 32.4315 182.771 32.4315 Q176.533 32.4315 172.765 35.9558 Q169.038 39.4801 168.471 45.8805 L195.045 45.84 Z" fill="#000000" fill-rule="nonzero" fill-opacity="1" /><path clip-path="url(#clip840)" d="M252.446 45.1919 L252.446 72.576 L244.993 72.576 L244.993 45.4349 Q244.993 38.994 242.481 35.7938 Q239.97 32.5936 234.947 32.5936 Q228.911 32.5936 225.427 36.4419 Q221.943 40.2903 221.943 46.9338 L221.943 72.576 L214.449 72.576 L214.449 27.2059 L221.943 27.2059 L221.943 34.2544 Q224.617 30.163 228.222 28.1376 Q231.868 26.1121 236.607 26.1121 Q244.426 26.1121 248.436 30.9732 Q252.446 35.7938 252.446 45.1919 Z" fill="#000000" fill-rule="nonzero" fill-opacity="1" /><path clip-path="url(#clip840)" d="M274.686 14.324 L274.686 27.2059 L290.039 27.2059 L290.039 32.9987 L274.686 32.9987 L274.686 57.6282 Q274.686 63.1779 276.185 64.7578 Q277.724 66.3376 282.383 66.3376 L290.039 66.3376 L290.039 72.576 L282.383 72.576 Q273.754 72.576 270.473 69.3758 Q267.192 66.1351 267.192 57.6282 L267.192 32.9987 L261.723 32.9987 L261.723 27.2059 L267.192 27.2059 L267.192 14.324 L274.686 14.324 Z" fill="#000000" fill-rule="nonzero" fill-opacity="1" /><path clip-path="url(#clip840)" d="M299.842 27.2059 L307.296 27.2059 L307.296 72.576 L299.842 72.576 L299.842 27.2059 M299.842 9.54393 L307.296 9.54393 L307.296 18.9825 L299.842 18.9825 L299.842 9.54393 Z" fill="#000000" fill-rule="nonzero" fill-opacity="1" /><path clip-path="url(#clip840)" d="M343.511 49.7694 Q334.477 49.7694 330.993 51.8354 Q327.51 53.9013 327.51 58.8839 Q327.51 62.8538 330.102 65.2034 Q332.735 67.5124 337.232 67.5124 Q343.43 67.5124 347.157 63.1374 Q350.924 58.7219 350.924 51.4303 L350.924 49.7694 L343.511 49.7694 M358.378 46.6907 L358.378 72.576 L350.924 72.576 L350.924 65.6895 Q348.372 69.8214 344.564 71.8063 Q340.756 73.7508 335.247 73.7508 Q328.279 73.7508 324.147 69.8619 Q320.056 65.9325 320.056 59.3701 Q320.056 51.7138 325.16 47.825 Q330.305 43.9361 340.473 43.9361 L350.924 43.9361 L350.924 43.2069 Q350.924 38.0623 347.521 35.2672 Q344.159 32.4315 338.042 32.4315 Q334.153 32.4315 330.467 33.3632 Q326.781 34.295 323.378 36.1584 L323.378 29.2718 Q327.469 27.692 331.318 26.9223 Q335.166 26.1121 338.812 26.1121 Q348.655 26.1121 353.517 31.2163 Q358.378 36.3204 358.378 46.6907 Z" fill="#000000" fill-rule="nonzero" fill-opacity="1" /><path clip-path="url(#clip840)" d="M373.731 9.54393 L381.184 9.54393 L381.184 72.576 L373.731 72.576 L373.731 9.54393 Z" fill="#000000" fill-rule="nonzero" fill-opacity="1" /><path clip-path="url(#clip840)" d="M440.732 32.4315 Q434.737 32.4315 431.253 37.1306 Q427.77 41.7891 427.77 49.9314 Q427.77 58.0738 431.213 62.7728 Q434.697 67.4314 440.732 67.4314 Q446.687 67.4314 450.171 62.7323 Q453.655 58.0333 453.655 49.9314 Q453.655 41.8701 450.171 37.1711 Q446.687 32.4315 440.732 32.4315 M440.732 26.1121 Q450.455 26.1121 456.004 32.4315 Q461.554 38.7509 461.554 49.9314 Q461.554 61.0714 456.004 67.4314 Q450.455 73.7508 440.732 73.7508 Q430.97 73.7508 425.42 67.4314 Q419.911 61.0714 419.911 49.9314 Q419.911 38.7509 425.42 32.4315 Q430.97 26.1121 440.732 26.1121 Z" fill="#000000" fill-rule="nonzero" fill-opacity="1" /><path clip-path="url(#clip840)" d="M496.878 9.54393 L496.878 15.7418 L489.748 15.7418 Q485.738 15.7418 484.158 17.3622 Q482.619 18.9825 482.619 23.1955 L482.619 27.2059 L494.893 27.2059 L494.893 32.9987 L482.619 32.9987 L482.619 72.576 L475.125 72.576 L475.125 32.9987 L467.995 32.9987 L467.995 27.2059 L475.125 27.2059 L475.125 24.0462 Q475.125 16.471 478.649 13.0277 Q482.173 9.54393 489.829 9.54393 L496.878 9.54393 Z" fill="#000000" fill-rule="nonzero" fill-opacity="1" /><path clip-path="url(#clip840)" d="M529.488 9.54393 L536.941 9.54393 L536.941 72.576 L529.488 72.576 L529.488 9.54393 Z" fill="#000000" fill-rule="nonzero" fill-opacity="1" /><path clip-path="url(#clip840)" d="M552.537 27.2059 L559.991 27.2059 L559.991 72.576 L552.537 72.576 L552.537 27.2059 M552.537 9.54393 L559.991 9.54393 L559.991 18.9825 L552.537 18.9825 L552.537 9.54393 Z" fill="#000000" fill-rule="nonzero" fill-opacity="1" /><path clip-path="url(#clip840)" d="M613.301 45.1919 L613.301 72.576 L605.847 72.576 L605.847 45.4349 Q605.847 38.994 603.336 35.7938 Q600.824 32.5936 595.801 32.5936 Q589.765 32.5936 586.281 36.4419 Q582.798 40.2903 582.798 46.9338 L582.798 72.576 L575.304 72.576 L575.304 27.2059 L582.798 27.2059 L582.798 34.2544 Q585.471 30.163 589.077 28.1376 Q592.722 26.1121 597.462 26.1121 Q605.28 26.1121 609.291 30.9732 Q613.301 35.7938 613.301 45.1919 Z" fill="#000000" fill-rule="nonzero" fill-opacity="1" /><path clip-path="url(#clip840)" d="M666.975 48.0275 L666.975 51.6733 L632.705 51.6733 Q633.191 59.3701 637.323 63.421 Q641.495 67.4314 648.908 67.4314 Q653.202 67.4314 657.213 66.3781 Q661.264 65.3249 665.234 63.2184 L665.234 70.267 Q661.223 71.9684 657.01 72.8596 Q652.797 73.7508 648.463 73.7508 Q637.606 73.7508 631.247 67.4314 Q624.927 61.1119 624.927 50.3365 Q624.927 39.1965 630.922 32.6746 Q636.958 26.1121 647.167 26.1121 Q656.322 26.1121 661.628 32.0264 Q666.975 37.9003 666.975 48.0275 M659.522 45.84 Q659.441 39.7232 656.079 36.0774 Q652.757 32.4315 647.248 32.4315 Q641.009 32.4315 637.242 35.9558 Q633.515 39.4801 632.948 45.8805 L659.522 45.84 Z" fill="#000000" fill-rule="nonzero" fill-opacity="1" /><path clip-path="url(#clip840)" d="M738.231 28.9478 L738.231 35.9153 Q735.071 34.1734 731.871 33.3227 Q728.711 32.4315 725.471 32.4315 Q718.219 32.4315 714.209 37.0496 Q710.199 41.6271 710.199 49.9314 Q710.199 58.2358 714.209 62.8538 Q718.219 67.4314 725.471 67.4314 Q728.711 67.4314 731.871 66.5807 Q735.071 65.6895 738.231 63.9476 L738.231 70.8341 Q735.112 72.2924 731.749 73.0216 Q728.428 73.7508 724.66 73.7508 Q714.412 73.7508 708.376 67.3098 Q702.34 60.8689 702.34 49.9314 Q702.34 38.832 708.416 32.472 Q714.533 26.1121 725.146 26.1121 Q728.59 26.1121 731.871 26.8413 Q735.152 27.5299 738.231 28.9478 Z" fill="#000000" fill-rule="nonzero" fill-opacity="1" /><path clip-path="url(#clip840)" d="M788.908 45.1919 L788.908 72.576 L781.454 72.576 L781.454 45.4349 Q781.454 38.994 778.942 35.7938 Q776.431 32.5936 771.408 32.5936 Q765.372 32.5936 761.888 36.4419 Q758.404 40.2903 758.404 46.9338 L758.404 72.576 L750.91 72.576 L750.91 9.54393 L758.404 9.54393 L758.404 34.2544 Q761.078 30.163 764.683 28.1376 Q768.329 26.1121 773.069 26.1121 Q780.887 26.1121 784.897 30.9732 Q788.908 35.7938 788.908 45.1919 Z" fill="#000000" fill-rule="nonzero" fill-opacity="1" /><path clip-path="url(#clip840)" d="M824.394 49.7694 Q815.36 49.7694 811.876 51.8354 Q808.393 53.9013 808.393 58.8839 Q808.393 62.8538 810.985 65.2034 Q813.618 67.5124 818.115 67.5124 Q824.313 67.5124 828.039 63.1374 Q831.807 58.7219 831.807 51.4303 L831.807 49.7694 L824.394 49.7694 M839.26 46.6907 L839.26 72.576 L831.807 72.576 L831.807 65.6895 Q829.255 69.8214 825.447 71.8063 Q821.639 73.7508 816.13 73.7508 Q809.162 73.7508 805.03 69.8619 Q800.939 65.9325 800.939 59.3701 Q800.939 51.7138 806.043 47.825 Q811.188 43.9361 821.355 43.9361 L831.807 43.9361 L831.807 43.2069 Q831.807 38.0623 828.404 35.2672 Q825.042 32.4315 818.925 32.4315 Q815.036 32.4315 811.35 33.3632 Q807.663 34.295 804.261 36.1584 L804.261 29.2718 Q808.352 27.692 812.2 26.9223 Q816.049 26.1121 819.695 26.1121 Q829.538 26.1121 834.399 31.2163 Q839.26 36.3204 839.26 46.6907 Z" fill="#000000" fill-rule="nonzero" fill-opacity="1" /><path clip-path="url(#clip840)" d="M880.904 34.1734 Q879.648 33.4443 878.149 33.1202 Q876.691 32.7556 874.908 32.7556 Q868.589 32.7556 865.186 36.8875 Q861.824 40.9789 861.824 48.6757 L861.824 72.576 L854.33 72.576 L854.33 27.2059 L861.824 27.2059 L861.824 34.2544 Q864.173 30.1225 867.941 28.1376 Q871.708 26.1121 877.096 26.1121 Q877.866 26.1121 878.797 26.2337 Q879.729 26.3147 880.863 26.5172 L880.904 34.1734 Z" fill="#000000" fill-rule="nonzero" fill-opacity="1" /><path clip-path="url(#clip840)" d="M917.119 49.3643 Q917.119 41.2625 913.757 36.8065 Q910.435 32.3505 904.399 32.3505 Q898.404 32.3505 895.041 36.8065 Q891.72 41.2625 891.72 49.3643 Q891.72 57.4256 895.041 61.8816 Q898.404 66.3376 904.399 66.3376 Q910.435 66.3376 913.757 61.8816 Q917.119 57.4256 917.119 49.3643 M924.572 66.9452 Q924.572 78.5308 919.428 84.1616 Q914.283 89.8329 903.67 89.8329 Q899.74 89.8329 896.257 89.2252 Q892.773 88.6581 889.492 87.4428 L889.492 80.1917 Q892.773 81.9741 895.973 82.8248 Q899.173 83.6755 902.495 83.6755 Q909.827 83.6755 913.473 79.8271 Q917.119 76.0193 917.119 68.282 L917.119 64.5957 Q914.81 68.6061 911.204 70.5911 Q907.599 72.576 902.576 72.576 Q894.231 72.576 889.127 66.2161 Q884.023 59.8562 884.023 49.3643 Q884.023 38.832 889.127 32.472 Q894.231 26.1121 902.576 26.1121 Q907.599 26.1121 911.204 28.0971 Q914.81 30.082 917.119 34.0924 L917.119 27.2059 L924.572 27.2059 L924.572 66.9452 Z" fill="#000000" fill-rule="nonzero" fill-opacity="1" /><path clip-path="url(#clip840)" d="M978.733 48.0275 L978.733 51.6733 L944.462 51.6733 Q944.949 59.3701 949.08 63.421 Q953.253 67.4314 960.666 67.4314 Q964.96 67.4314 968.97 66.3781 Q973.021 65.3249 976.991 63.2184 L976.991 70.267 Q972.981 71.9684 968.768 72.8596 Q964.555 73.7508 960.22 73.7508 Q949.364 73.7508 943.004 67.4314 Q936.685 61.1119 936.685 50.3365 Q936.685 39.1965 942.68 32.6746 Q948.716 26.1121 958.924 26.1121 Q968.079 26.1121 973.386 32.0264 Q978.733 37.9003 978.733 48.0275 M971.279 45.84 Q971.198 39.7232 967.836 36.0774 Q964.514 32.4315 959.005 32.4315 Q952.767 32.4315 948.999 35.9558 Q945.273 39.4801 944.705 45.8805 L971.279 45.84 Z" fill="#000000" fill-rule="nonzero" fill-opacity="1" /><path clip-path="url(#clip840)" d="M1017.34 27.2059 L1024.79 27.2059 L1024.79 72.576 L1017.34 72.576 L1017.34 27.2059 M1017.34 9.54393 L1024.79 9.54393 L1024.79 18.9825 L1017.34 18.9825 L1017.34 9.54393 Z" fill="#000000" fill-rule="nonzero" fill-opacity="1" /><path clip-path="url(#clip840)" d="M1078.1 45.1919 L1078.1 72.576 L1070.65 72.576 L1070.65 45.4349 Q1070.65 38.994 1068.14 35.7938 Q1065.62 32.5936 1060.6 32.5936 Q1054.57 32.5936 1051.08 36.4419 Q1047.6 40.2903 1047.6 46.9338 L1047.6 72.576 L1040.1 72.576 L1040.1 27.2059 L1047.6 27.2059 L1047.6 34.2544 Q1050.27 30.163 1053.88 28.1376 Q1057.52 26.1121 1062.26 26.1121 Q1070.08 26.1121 1074.09 30.9732 Q1078.1 35.7938 1078.1 45.1919 Z" fill="#000000" fill-rule="nonzero" fill-opacity="1" /><path clip-path="url(#clip840)" d="M1158.15 48.0275 L1158.15 51.6733 L1123.88 51.6733 Q1124.36 59.3701 1128.49 63.421 Q1132.67 67.4314 1140.08 67.4314 Q1144.37 67.4314 1148.38 66.3781 Q1152.44 65.3249 1156.41 63.2184 L1156.41 70.267 Q1152.4 71.9684 1148.18 72.8596 Q1143.97 73.7508 1139.63 73.7508 Q1128.78 73.7508 1122.42 67.4314 Q1116.1 61.1119 1116.1 50.3365 Q1116.1 39.1965 1122.09 32.6746 Q1128.13 26.1121 1138.34 26.1121 Q1147.49 26.1121 1152.8 32.0264 Q1158.15 37.9003 1158.15 48.0275 M1150.69 45.84 Q1150.61 39.7232 1147.25 36.0774 Q1143.93 32.4315 1138.42 32.4315 Q1132.18 32.4315 1128.41 35.9558 Q1124.69 39.4801 1124.12 45.8805 L1150.69 45.84 Z" fill="#000000" fill-rule="nonzero" fill-opacity="1" /><path clip-path="url(#clip840)" d="M1191 49.7694 Q1181.97 49.7694 1178.48 51.8354 Q1175 53.9013 1175 58.8839 Q1175 62.8538 1177.59 65.2034 Q1180.23 67.5124 1184.72 67.5124 Q1190.92 67.5124 1194.65 63.1374 Q1198.41 58.7219 1198.41 51.4303 L1198.41 49.7694 L1191 49.7694 M1205.87 46.6907 L1205.87 72.576 L1198.41 72.576 L1198.41 65.6895 Q1195.86 69.8214 1192.05 71.8063 Q1188.25 73.7508 1182.74 73.7508 Q1175.77 73.7508 1171.64 69.8619 Q1167.55 65.9325 1167.55 59.3701 Q1167.55 51.7138 1172.65 47.825 Q1177.79 43.9361 1187.96 43.9361 L1198.41 43.9361 L1198.41 43.2069 Q1198.41 38.0623 1195.01 35.2672 Q1191.65 32.4315 1185.53 32.4315 Q1181.64 32.4315 1177.96 33.3632 Q1174.27 34.295 1170.87 36.1584 L1170.87 29.2718 Q1174.96 27.692 1178.81 26.9223 Q1182.66 26.1121 1186.3 26.1121 Q1196.15 26.1121 1201.01 31.2163 Q1205.87 36.3204 1205.87 46.6907 Z" fill="#000000" fill-rule="nonzero" fill-opacity="1" /><path clip-path="url(#clip840)" d="M1247.51 34.1734 Q1246.25 33.4443 1244.76 33.1202 Q1243.3 32.7556 1241.52 32.7556 Q1235.2 32.7556 1231.79 36.8875 Q1228.43 40.9789 1228.43 48.6757 L1228.43 72.576 L1220.94 72.576 L1220.94 27.2059 L1228.43 27.2059 L1228.43 34.2544 Q1230.78 30.1225 1234.55 28.1376 Q1238.32 26.1121 1243.7 26.1121 Q1244.47 26.1121 1245.4 26.2337 Q1246.34 26.3147 1247.47 26.5172 L1247.51 34.1734 Z" fill="#000000" fill-rule="nonzero" fill-opacity="1" /><path clip-path="url(#clip840)" d="M1262.7 14.324 L1262.7 27.2059 L1278.05 27.2059 L1278.05 32.9987 L1262.7 32.9987 L1262.7 57.6282 Q1262.7 63.1779 1264.2 64.7578 Q1265.74 66.3376 1270.4 66.3376 L1278.05 66.3376 L1278.05 72.576 L1270.4 72.576 Q1261.77 72.576 1258.49 69.3758 Q1255.21 66.1351 1255.21 57.6282 L1255.21 32.9987 L1249.74 32.9987 L1249.74 27.2059 L1255.21 27.2059 L1255.21 14.324 L1262.7 14.324 Z" fill="#000000" fill-rule="nonzero" fill-opacity="1" /><path clip-path="url(#clip840)" d="M1325.57 45.1919 L1325.57 72.576 L1318.12 72.576 L1318.12 45.4349 Q1318.12 38.994 1315.61 35.7938 Q1313.09 32.5936 1308.07 32.5936 Q1302.04 32.5936 1298.55 36.4419 Q1295.07 40.2903 1295.07 46.9338 L1295.07 72.576 L1287.57 72.576 L1287.57 9.54393 L1295.07 9.54393 L1295.07 34.2544 Q1297.74 30.163 1301.35 28.1376 Q1304.99 26.1121 1309.73 26.1121 Q1317.55 26.1121 1321.56 30.9732 Q1325.57 35.7938 1325.57 45.1919 Z" fill="#000000" fill-rule="nonzero" fill-opacity="1" /><path clip-path="url(#clip840)" d="M1379.25 48.0275 L1379.25 51.6733 L1344.98 51.6733 Q1345.46 59.3701 1349.59 63.421 Q1353.77 67.4314 1361.18 67.4314 Q1365.47 67.4314 1369.48 66.3781 Q1373.53 65.3249 1377.5 63.2184 L1377.5 70.267 Q1373.49 71.9684 1369.28 72.8596 Q1365.07 73.7508 1360.73 73.7508 Q1349.88 73.7508 1343.52 67.4314 Q1337.2 61.1119 1337.2 50.3365 Q1337.2 39.1965 1343.19 32.6746 Q1349.23 26.1121 1359.44 26.1121 Q1368.59 26.1121 1373.9 32.0264 Q1379.25 37.9003 1379.25 48.0275 M1371.79 45.84 Q1371.71 39.7232 1368.35 36.0774 Q1365.03 32.4315 1359.52 32.4315 Q1353.28 32.4315 1349.51 35.9558 Q1345.79 39.4801 1345.22 45.8805 L1371.79 45.84 Z" fill="#000000" fill-rule="nonzero" fill-opacity="1" /><path clip-path="url(#clip840)" d="M1421.33 34.0924 L1421.33 9.54393 L1428.79 9.54393 L1428.79 72.576 L1421.33 72.576 L1421.33 65.7705 Q1418.99 69.8214 1415.38 71.8063 Q1411.82 73.7508 1406.79 73.7508 Q1398.57 73.7508 1393.38 67.1883 Q1388.24 60.6258 1388.24 49.9314 Q1388.24 39.2371 1393.38 32.6746 Q1398.57 26.1121 1406.79 26.1121 Q1411.82 26.1121 1415.38 28.0971 Q1418.99 30.0415 1421.33 34.0924 M1395.94 49.9314 Q1395.94 58.1548 1399.3 62.8538 Q1402.7 67.5124 1408.62 67.5124 Q1414.53 67.5124 1417.93 62.8538 Q1421.33 58.1548 1421.33 49.9314 Q1421.33 41.7081 1417.93 37.0496 Q1414.53 32.3505 1408.62 32.3505 Q1402.7 32.3505 1399.3 37.0496 Q1395.94 41.7081 1395.94 49.9314 Z" fill="#000000" fill-rule="nonzero" fill-opacity="1" /><path clip-path="url(#clip840)" d="M1503.16 28.9478 L1503.16 35.9153 Q1500 34.1734 1496.8 33.3227 Q1493.64 32.4315 1490.4 32.4315 Q1483.15 32.4315 1479.14 37.0496 Q1475.13 41.6271 1475.13 49.9314 Q1475.13 58.2358 1479.14 62.8538 Q1483.15 67.4314 1490.4 67.4314 Q1493.64 67.4314 1496.8 66.5807 Q1500 65.6895 1503.16 63.9476 L1503.16 70.8341 Q1500.04 72.2924 1496.68 73.0216 Q1493.36 73.7508 1489.59 73.7508 Q1479.34 73.7508 1473.31 67.3098 Q1467.27 60.8689 1467.27 49.9314 Q1467.27 38.832 1473.35 32.472 Q1479.47 26.1121 1490.08 26.1121 Q1493.52 26.1121 1496.8 26.8413 Q1500.08 27.5299 1503.16 28.9478 Z" fill="#000000" fill-rule="nonzero" fill-opacity="1" /><path clip-path="url(#clip840)" d="M1533.71 32.4315 Q1527.71 32.4315 1524.23 37.1306 Q1520.74 41.7891 1520.74 49.9314 Q1520.74 58.0738 1524.19 62.7728 Q1527.67 67.4314 1533.71 67.4314 Q1539.66 67.4314 1543.15 62.7323 Q1546.63 58.0333 1546.63 49.9314 Q1546.63 41.8701 1543.15 37.1711 Q1539.66 32.4315 1533.71 32.4315 M1533.71 26.1121 Q1543.43 26.1121 1548.98 32.4315 Q1554.53 38.7509 1554.53 49.9314 Q1554.53 61.0714 1548.98 67.4314 Q1543.43 73.7508 1533.71 73.7508 Q1523.94 73.7508 1518.39 67.4314 Q1512.89 61.0714 1512.89 49.9314 Q1512.89 38.7509 1518.39 32.4315 Q1523.94 26.1121 1533.71 26.1121 Z" fill="#000000" fill-rule="nonzero" fill-opacity="1" /><path clip-path="url(#clip840)" d="M1604.6 45.1919 L1604.6 72.576 L1597.14 72.576 L1597.14 45.4349 Q1597.14 38.994 1594.63 35.7938 Q1592.12 32.5936 1587.1 32.5936 Q1581.06 32.5936 1577.58 36.4419 Q1574.09 40.2903 1574.09 46.9338 L1574.09 72.576 L1566.6 72.576 L1566.6 27.2059 L1574.09 27.2059 L1574.09 34.2544 Q1576.77 30.163 1580.37 28.1376 Q1584.02 26.1121 1588.76 26.1121 Q1596.58 26.1121 1600.59 30.9732 Q1604.6 35.7938 1604.6 45.1919 Z" fill="#000000" fill-rule="nonzero" fill-opacity="1" /><path clip-path="url(#clip840)" d="M1626.84 14.324 L1626.84 27.2059 L1642.19 27.2059 L1642.19 32.9987 L1626.84 32.9987 L1626.84 57.6282 Q1626.84 63.1779 1628.34 64.7578 Q1629.88 66.3376 1634.53 66.3376 L1642.19 66.3376 L1642.19 72.576 L1634.53 72.576 Q1625.91 72.576 1622.62 69.3758 Q1619.34 66.1351 1619.34 57.6282 L1619.34 32.9987 L1613.87 32.9987 L1613.87 27.2059 L1619.34 27.2059 L1619.34 14.324 L1626.84 14.324 Z" fill="#000000" fill-rule="nonzero" fill-opacity="1" /><path clip-path="url(#clip840)" d="M1672.61 49.7694 Q1663.58 49.7694 1660.1 51.8354 Q1656.61 53.9013 1656.61 58.8839 Q1656.61 62.8538 1659.2 65.2034 Q1661.84 67.5124 1666.33 67.5124 Q1672.53 67.5124 1676.26 63.1374 Q1680.03 58.7219 1680.03 51.4303 L1680.03 49.7694 L1672.61 49.7694 M1687.48 46.6907 L1687.48 72.576 L1680.03 72.576 L1680.03 65.6895 Q1677.47 69.8214 1673.67 71.8063 Q1669.86 73.7508 1664.35 73.7508 Q1657.38 73.7508 1653.25 69.8619 Q1649.16 65.9325 1649.16 59.3701 Q1649.16 51.7138 1654.26 47.825 Q1659.41 43.9361 1669.57 43.9361 L1680.03 43.9361 L1680.03 43.2069 Q1680.03 38.0623 1676.62 35.2672 Q1673.26 32.4315 1667.14 32.4315 Q1663.25 32.4315 1659.57 33.3632 Q1655.88 34.295 1652.48 36.1584 L1652.48 29.2718 Q1656.57 27.692 1660.42 26.9223 Q1664.27 26.1121 1667.91 26.1121 Q1677.76 26.1121 1682.62 31.2163 Q1687.48 36.3204 1687.48 46.6907 Z" fill="#000000" fill-rule="nonzero" fill-opacity="1" /><path clip-path="url(#clip840)" d="M1702.83 27.2059 L1710.29 27.2059 L1710.29 72.576 L1702.83 72.576 L1702.83 27.2059 M1702.83 9.54393 L1710.29 9.54393 L1710.29 18.9825 L1702.83 18.9825 L1702.83 9.54393 Z" fill="#000000" fill-rule="nonzero" fill-opacity="1" /><path clip-path="url(#clip840)" d="M1763.6 45.1919 L1763.6 72.576 L1756.14 72.576 L1756.14 45.4349 Q1756.14 38.994 1753.63 35.7938 Q1751.12 32.5936 1746.1 32.5936 Q1740.06 32.5936 1736.58 36.4419 Q1733.09 40.2903 1733.09 46.9338 L1733.09 72.576 L1725.6 72.576 L1725.6 27.2059 L1733.09 27.2059 L1733.09 34.2544 Q1735.77 30.163 1739.37 28.1376 Q1743.02 26.1121 1747.76 26.1121 Q1755.57 26.1121 1759.59 30.9732 Q1763.6 35.7938 1763.6 45.1919 Z" fill="#000000" fill-rule="nonzero" fill-opacity="1" /><path clip-path="url(#clip840)" d="M1817.27 48.0275 L1817.27 51.6733 L1783 51.6733 Q1783.49 59.3701 1787.62 63.421 Q1791.79 67.4314 1799.2 67.4314 Q1803.5 67.4314 1807.51 66.3781 Q1811.56 65.3249 1815.53 63.2184 L1815.53 70.267 Q1811.52 71.9684 1807.31 72.8596 Q1803.09 73.7508 1798.76 73.7508 Q1787.9 73.7508 1781.54 67.4314 Q1775.22 61.1119 1775.22 50.3365 Q1775.22 39.1965 1781.22 32.6746 Q1787.25 26.1121 1797.46 26.1121 Q1806.62 26.1121 1811.92 32.0264 Q1817.27 37.9003 1817.27 48.0275 M1809.82 45.84 Q1809.74 39.7232 1806.37 36.0774 Q1803.05 32.4315 1797.54 32.4315 Q1791.3 32.4315 1787.54 35.9558 Q1783.81 39.4801 1783.24 45.8805 L1809.82 45.84 Z" fill="#000000" fill-rule="nonzero" fill-opacity="1" /><path clip-path="url(#clip840)" d="M1855.79 34.1734 Q1854.54 33.4443 1853.04 33.1202 Q1851.58 32.7556 1849.8 32.7556 Q1843.48 32.7556 1840.08 36.8875 Q1836.71 40.9789 1836.71 48.6757 L1836.71 72.576 L1829.22 72.576 L1829.22 27.2059 L1836.71 27.2059 L1836.71 34.2544 Q1839.06 30.1225 1842.83 28.1376 Q1846.6 26.1121 1851.99 26.1121 Q1852.76 26.1121 1853.69 26.2337 Q1854.62 26.3147 1855.75 26.5172 L1855.79 34.1734 Z" fill="#000000" fill-rule="nonzero" fill-opacity="1" /><polyline clip-path="url(#clip842)" style="stroke:#030212; stroke-linecap:round; stroke-linejoin:round; stroke-width:4; stroke-opacity:1; fill:none" points="246.695,1714.65 239.515,1707.47 211.376,1644.01 202.598,1580.56 199.593,1517.1 200.642,1453.64 204.221,1390.18 210.089,1326.73 218.424,1263.27 229.568,1199.81 243.949,1136.35 246.695,1124.41 263.35,1072.9 287.461,1009.44 310.153,957.89 317.78,945.983 358.087,882.525 373.61,859.065 412.765,819.068 437.067,793.662 493.043,755.611 500.524,750.146 563.982,719.53 627.439,701.933 690.896,693.644 754.354,693.097 817.811,699.906 881.268,714.465 944.726,737.798 980.025,755.611 1008.18,770.81 1071.64,816.255 1074.93,819.068 1135.1,879.234 1137.91,882.525 1183.36,945.983 1198.56,974.141 1216.37,1009.44 1239.7,1072.9 1254.26,1136.35 1261.07,1199.81 1260.52,1263.27 1252.23,1326.73 1234.64,1390.18 1204.02,1453.64 1198.56,1461.12 1160.5,1517.1 1135.1,1541.4 1095.1,1580.56 1071.64,1596.08 1008.18,1636.39 996.275,1644.01 944.726,1666.7 881.268,1690.82 829.756,1707.47 817.811,1710.22 754.354,1724.6 690.896,1735.74 627.439,1744.08 563.982,1749.94 500.524,1753.52 437.067,1754.57 373.61,1751.57 310.153,1742.79 246.695,1714.65 "/>
<polyline clip-path="url(#clip842)" style="stroke:#0a0723; stroke-linecap:round; stroke-linejoin:round; stroke-width:4; stroke-opacity:1; fill:none" points="310.153,1714.65 295.792,1707.47 246.695,1658.37 239.515,1644.01 221.958,1580.56 215.947,1517.1 218.046,1453.64 225.205,1390.18 236.939,1326.73 246.695,1285.54 254.13,1263.27 278.433,1199.81 309.732,1136.35 310.153,1135.47 356.005,1072.9 373.61,1049.36 422.194,1009.44 437.067,995.827 500.524,960.611 550.022,945.983 563.982,940.883 627.439,931.925 690.896,934.972 738.896,945.983 754.354,949.474 817.811,975.494 869.766,1009.44 881.268,1018.13 936.039,1072.9 944.726,1084.4 978.671,1136.35 1004.69,1199.81 1008.18,1215.27 1019.19,1263.27 1022.24,1326.73 1013.28,1390.18 1008.18,1404.14 993.554,1453.64 958.338,1517.1 944.726,1531.97 904.807,1580.56 881.268,1598.16 818.694,1644.01 817.811,1644.43 754.354,1675.73 690.896,1700.04 668.621,1707.47 627.439,1717.23 563.982,1728.96 500.524,1736.12 437.067,1738.22 373.61,1732.21 310.153,1714.65 "/>
<polyline clip-path="url(#clip842)" style="stroke:#140b36; stroke-linecap:round; stroke-linejoin:round; stroke-width:4; stroke-opacity:1; fill:none" points="373.61,1712.85 356.375,1707.47 310.153,1687.45 266.721,1644.01 246.695,1597.79 241.318,1580.56 232.302,1517.1 235.45,1453.64 246.189,1390.18 246.695,1387.87 264.553,1326.73 291.96,1263.27 310.153,1227.41 332.885,1199.81 373.61,1150.94 395.893,1136.35 437.067,1104.48 500.524,1079.56 544.361,1072.9 563.982,1068.91 627.439,1071.87 631.5,1072.9 690.896,1087.96 754.354,1121.88 772.861,1136.35 817.811,1181.3 832.289,1199.81 866.209,1263.27 881.268,1322.67 882.297,1326.73 885.26,1390.18 881.268,1409.81 874.607,1453.64 849.687,1517.1 817.811,1558.27 803.223,1580.56 754.354,1621.28 726.758,1644.01 690.896,1662.21 627.439,1689.61 566.3,1707.47 563.982,1707.98 500.524,1718.72 437.067,1721.86 373.61,1712.85 "/>
<polyline clip-path="url(#clip842)" style="stroke:#200c4a; stroke-linecap:round; stroke-linejoin:round; stroke-width:4; stroke-opacity:1; fill:none" points="437.067,1705.86 373.61,1695.08 310.153,1660.56 293.607,1644.01 259.09,1580.56 248.309,1517.1 252.262,1453.64 266.913,1390.18 292.601,1326.73 310.153,1292.04 333.964,1263.27 373.61,1217.62 404.506,1199.81 437.067,1177.03 500.524,1157.82 563.982,1155.71 627.439,1169.77 683.896,1199.81 690.896,1204.2 749.966,1263.27 754.354,1270.27 784.4,1326.73 798.451,1390.18 796.35,1453.64 777.134,1517.1 754.354,1549.66 736.55,1580.56 690.896,1620.2 662.123,1644.01 627.439,1661.56 563.982,1687.25 500.524,1701.9 437.067,1705.86 "/>
<polyline clip-path="url(#clip842)" style="stroke:#300a5c; stroke-linecap:round; stroke-linejoin:round; stroke-width:4; stroke-opacity:1; fill:none" points="437.067,1692.4 373.61,1677.92 320.493,1644.01 310.153,1633.67 276.25,1580.56 261.763,1517.1 267.992,1453.64 287.63,1390.18 310.153,1342.98 322.357,1326.73 373.61,1268.31 383.419,1263.27 437.067,1229.32 500.524,1216.62 563.982,1222.32 627.439,1249.02 647.012,1263.27 690.896,1307.15 705.149,1326.73 731.85,1390.18 737.543,1453.64 724.848,1517.1 690.896,1570.75 685.854,1580.56 627.439,1631.81 611.188,1644.01 563.982,1666.54 500.524,1686.17 437.067,1692.4 "/>
<polyline clip-path="url(#clip842)" style="stroke:#3e0966; stroke-linecap:round; stroke-linejoin:round; stroke-width:4; stroke-opacity:1; fill:none" points="437.067,1678.95 373.61,1660.76 347.379,1644.01 310.153,1606.79 293.41,1580.56 275.218,1517.1 283.722,1453.64 308.348,1390.18 310.153,1386.4 354.967,1326.73 373.61,1305.48 437.067,1271.31 500.524,1264.33 563.982,1276.73 627.439,1317.82 636.341,1326.73 677.439,1390.18 689.836,1453.64 682.854,1517.1 648.687,1580.56 627.439,1599.2 567.765,1644.01 563.982,1645.82 500.524,1670.44 437.067,1678.95 "/>
<polyline clip-path="url(#clip842)" style="stroke:#4b0c6b; stroke-linecap:round; stroke-linejoin:round; stroke-width:4; stroke-opacity:1; fill:none" points="437.067,1665.49 374.564,1644.01 373.61,1643.66 310.501,1580.56 310.153,1579.6 288.672,1517.1 299.453,1453.64 310.153,1426.55 329.915,1390.18 373.61,1337.84 396.137,1326.73 437.067,1302.47 500.524,1299.46 563.982,1323.27 568.98,1326.73 627.439,1385.19 630.893,1390.18 654.701,1453.64 651.691,1517.1 627.439,1558.03 616.33,1580.56 563.982,1624.25 527.619,1644.01 500.524,1654.71 437.067,1665.49 "/>
<polyline clip-path="url(#clip842)" style="stroke:#58106d; stroke-linecap:round; stroke-linejoin:round; stroke-width:4; stroke-opacity:1; fill:none" points="437.067,1652.04 413.714,1644.01 373.61,1629.36 324.802,1580.56 310.153,1540.45 302.127,1517.1 310.153,1475.79 314.46,1453.64 351.564,1390.18 373.61,1363.77 437.067,1331.06 500.524,1332.4 563.982,1363.36 590.804,1390.18 621.764,1453.64 623.103,1517.1 590.394,1580.56 563.982,1602.6 500.524,1639.71 478.378,1644.01 437.067,1652.04 "/>
<polyline clip-path="url(#clip842)" style="stroke:#66156e; stroke-linecap:round; stroke-linejoin:round; stroke-width:4; stroke-opacity:1; fill:none" points="500.524,1626.24 437.067,1640.48 373.61,1615.06 339.103,1580.56 313.682,1517.1 327.93,1453.64 373.213,1390.18 373.61,1389.71 437.067,1350.62 500.524,1357.73 551.233,1390.18 563.982,1402.93 596.437,1453.64 603.549,1517.1 564.458,1580.56 563.982,1580.95 500.524,1626.24 "/>
<polyline clip-path="url(#clip842)" style="stroke:#731a6d; stroke-linecap:round; stroke-linejoin:round; stroke-width:4; stroke-opacity:1; fill:none" points="500.524,1612.77 437.067,1631.73 373.61,1600.76 353.404,1580.56 322.431,1517.1 341.401,1453.64 373.61,1408.65 404.677,1390.18 437.067,1370.17 500.524,1383.06 511.662,1390.18 563.982,1442.5 571.11,1453.64 583.995,1517.1 563.982,1549.49 545.512,1580.56 500.524,1612.77 "/>
<polyline clip-path="url(#clip842)" style="stroke:#801f6b; stroke-linecap:round; stroke-linejoin:round; stroke-width:4; stroke-opacity:1; fill:none" points="500.524,1599.29 437.067,1622.99 373.61,1586.46 367.705,1580.56 331.179,1517.1 354.871,1453.64 373.61,1427.47 436.325,1390.18 437.067,1389.73 439.074,1390.18 500.524,1403.73 550.44,1453.64 563.982,1515.09 564.441,1517.1 563.982,1517.84 526.698,1580.56 500.524,1599.29 "/>
<polyline clip-path="url(#clip842)" style="stroke:#8d2369; stroke-linecap:round; stroke-linejoin:round; stroke-width:4; stroke-opacity:1; fill:none" points="500.524,1585.82 437.067,1614.24 382.006,1580.56 373.61,1572.16 339.927,1517.1 368.341,1453.64 373.61,1446.28 437.067,1400.53 500.524,1422.57 531.595,1453.64 553.641,1517.1 507.883,1580.56 500.524,1585.82 "/>
<polyline clip-path="url(#clip842)" style="stroke:#992864; stroke-linecap:round; stroke-linejoin:round; stroke-width:4; stroke-opacity:1; fill:none" points="500.524,1572.2 489.354,1580.56 437.067,1605.49 396.307,1580.56 373.61,1557.86 348.676,1517.1 373.61,1464.81 381.965,1453.64 437.067,1411.11 500.524,1441.42 512.749,1453.64 543.051,1517.1 500.524,1572.2 "/>
<polyline clip-path="url(#clip842)" style="stroke:#a72d5f; stroke-linecap:round; stroke-linejoin:round; stroke-width:4; stroke-opacity:1; fill:none" points="500.524,1558.48 471.009,1580.56 437.067,1596.74 410.608,1580.56 373.61,1543.56 357.424,1517.1 373.61,1483.16 395.686,1453.64 437.067,1421.7 493.903,1453.64 500.524,1460.26 532.461,1517.1 500.524,1558.48 "/>
<polyline clip-path="url(#clip842)" style="stroke:#b43358; stroke-linecap:round; stroke-linejoin:round; stroke-width:4; stroke-opacity:1; fill:none" points="500.524,1544.76 452.663,1580.56 437.067,1587.99 424.909,1580.56 373.61,1529.26 366.173,1517.1 373.61,1501.5 409.407,1453.64 437.067,1432.29 475.057,1453.64 500.524,1479.11 521.871,1517.1 500.524,1544.76 "/>
<polyline clip-path="url(#clip842)" style="stroke:#bf3951; stroke-linecap:round; stroke-linejoin:round; stroke-width:4; stroke-opacity:1; fill:none" points="500.524,1531.04 437.067,1579.93 374.238,1517.1 423.129,1453.64 437.067,1442.88 456.211,1453.64 500.524,1497.95 511.282,1517.1 500.524,1531.04 "/>
<polyline clip-path="url(#clip842)" style="stroke:#cb4049; stroke-linecap:round; stroke-linejoin:round; stroke-width:4; stroke-opacity:1; fill:none" points="500.524,1517.32 437.067,1575.74 378.426,1517.1 436.85,1453.64 437.067,1453.47 437.365,1453.64 500.524,1516.8 500.692,1517.1 500.524,1517.32 "/>
<polyline clip-path="url(#clip842)" style="stroke:#d64a3f; stroke-linecap:round; stroke-linejoin:round; stroke-width:4; stroke-opacity:1; fill:none" points="496.058,1517.1 437.067,1571.55 382.615,1517.1 437.067,1458.11 496.058,1517.1 "/>
<polyline clip-path="url(#clip842)" style="stroke:#df5436; stroke-linecap:round; stroke-linejoin:round; stroke-width:4; stroke-opacity:1; fill:none" points="491.521,1517.1 437.067,1567.36 386.804,1517.1 437.067,1462.65 491.521,1517.1 "/>
<polyline clip-path="url(#clip842)" style="stroke:#e75f2c; stroke-linecap:round; stroke-linejoin:round; stroke-width:4; stroke-opacity:1; fill:none" points="486.983,1517.1 437.067,1563.17 390.992,1517.1 437.067,1467.18 486.983,1517.1 "/>
<polyline clip-path="url(#clip842)" style="stroke:#ee6c22; stroke-linecap:round; stroke-linejoin:round; stroke-width:4; stroke-opacity:1; fill:none" points="482.445,1517.1 437.067,1558.98 395.181,1517.1 437.067,1471.72 482.445,1517.1 "/>
<polyline clip-path="url(#clip842)" style="stroke:#f37918; stroke-linecap:round; stroke-linejoin:round; stroke-width:4; stroke-opacity:1; fill:none" points="477.907,1517.1 437.067,1554.8 399.369,1517.1 437.067,1476.26 477.907,1517.1 "/>
<polyline clip-path="url(#clip842)" style="stroke:#f8880c; stroke-linecap:round; stroke-linejoin:round; stroke-width:4; stroke-opacity:1; fill:none" points="473.369,1517.1 437.067,1550.61 403.558,1517.1 437.067,1480.8 473.369,1517.1 "/>
<polyline clip-path="url(#clip842)" style="stroke:#fa9706; stroke-linecap:round; stroke-linejoin:round; stroke-width:4; stroke-opacity:1; fill:none" points="468.832,1517.1 437.067,1546.42 407.747,1517.1 437.067,1485.33 468.832,1517.1 "/>
<polyline clip-path="url(#clip842)" style="stroke:#fba60b; stroke-linecap:round; stroke-linejoin:round; stroke-width:4; stroke-opacity:1; fill:none" points="464.294,1517.1 437.067,1542.23 411.935,1517.1 437.067,1489.87 464.294,1517.1 "/>
<polyline clip-path="url(#clip842)" style="stroke:#fbb51a; stroke-linecap:round; stroke-linejoin:round; stroke-width:4; stroke-opacity:1; fill:none" points="459.756,1517.1 437.067,1538.04 416.124,1517.1 437.067,1494.41 459.756,1517.1 "/>
<polyline clip-path="url(#clip842)" style="stroke:#f9c72f; stroke-linecap:round; stroke-linejoin:round; stroke-width:4; stroke-opacity:1; fill:none" points="455.218,1517.1 437.067,1533.85 420.313,1517.1 437.067,1498.95 455.218,1517.1 "/>
<polyline clip-path="url(#clip842)" style="stroke:#f5d745; stroke-linecap:round; stroke-linejoin:round; stroke-width:4; stroke-opacity:1; fill:none" points="450.681,1517.1 437.067,1529.66 424.501,1517.1 437.067,1503.49 450.681,1517.1 "/>
<polyline clip-path="url(#clip842)" style="stroke:#f2e660; stroke-linecap:round; stroke-linejoin:round; stroke-width:4; stroke-opacity:1; fill:none" points="446.143,1517.1 437.067,1525.48 428.69,1517.1 437.067,1508.02 446.143,1517.1 "/>
<polyline clip-path="url(#clip842)" style="stroke:#f2f381; stroke-linecap:round; stroke-linejoin:round; stroke-width:4; stroke-opacity:1; fill:none" points="441.605,1517.1 437.067,1521.29 432.879,1517.1 437.067,1512.56 441.605,1517.1 "/>
<defs>
  <clipPath id="clip843">
    <rect x="1792" y="247" width="61" height="1524"/>
  </clipPath>
</defs>
<polyline clip-path="url(#clip843)" style="stroke:#030212; stroke-linecap:round; stroke-linejoin:round; stroke-width:4; stroke-opacity:1; fill:none" points="1792.76,1721.8 1852.76,1721.8 "/>
<polyline clip-path="url(#clip843)" style="stroke:#0a0723; stroke-linecap:round; stroke-linejoin:round; stroke-width:4; stroke-opacity:1; fill:none" points="1792.76,1672.67 1852.76,1672.67 "/>
<polyline clip-path="url(#clip843)" style="stroke:#160b39; stroke-linecap:round; stroke-linejoin:round; stroke-width:4; stroke-opacity:1; fill:none" points="1792.76,1623.54 1852.76,1623.54 "/>
<polyline clip-path="url(#clip843)" style="stroke:#220b4c; stroke-linecap:round; stroke-linejoin:round; stroke-width:4; stroke-opacity:1; fill:none" points="1792.76,1574.41 1852.76,1574.41 "/>
<polyline clip-path="url(#clip843)" style="stroke:#300a5c; stroke-linecap:round; stroke-linejoin:round; stroke-width:4; stroke-opacity:1; fill:none" points="1792.76,1525.29 1852.76,1525.29 "/>
<polyline clip-path="url(#clip843)" style="stroke:#3e0966; stroke-linecap:round; stroke-linejoin:round; stroke-width:4; stroke-opacity:1; fill:none" points="1792.76,1476.16 1852.76,1476.16 "/>
<polyline clip-path="url(#clip843)" style="stroke:#4d0c6b; stroke-linecap:round; stroke-linejoin:round; stroke-width:4; stroke-opacity:1; fill:none" points="1792.76,1427.03 1852.76,1427.03 "/>
<polyline clip-path="url(#clip843)" style="stroke:#5a116d; stroke-linecap:round; stroke-linejoin:round; stroke-width:4; stroke-opacity:1; fill:none" points="1792.76,1377.9 1852.76,1377.9 "/>
<polyline clip-path="url(#clip843)" style="stroke:#66156e; stroke-linecap:round; stroke-linejoin:round; stroke-width:4; stroke-opacity:1; fill:none" points="1792.76,1328.77 1852.76,1328.77 "/>
<polyline clip-path="url(#clip843)" style="stroke:#731a6d; stroke-linecap:round; stroke-linejoin:round; stroke-width:4; stroke-opacity:1; fill:none" points="1792.76,1279.65 1852.76,1279.65 "/>
<polyline clip-path="url(#clip843)" style="stroke:#801f6b; stroke-linecap:round; stroke-linejoin:round; stroke-width:4; stroke-opacity:1; fill:none" points="1792.76,1230.52 1852.76,1230.52 "/>
<polyline clip-path="url(#clip843)" style="stroke:#8e2468; stroke-linecap:round; stroke-linejoin:round; stroke-width:4; stroke-opacity:1; fill:none" points="1792.76,1181.39 1852.76,1181.39 "/>
<polyline clip-path="url(#clip843)" style="stroke:#9b2864; stroke-linecap:round; stroke-linejoin:round; stroke-width:4; stroke-opacity:1; fill:none" points="1792.76,1132.26 1852.76,1132.26 "/>
<polyline clip-path="url(#clip843)" style="stroke:#a72d5f; stroke-linecap:round; stroke-linejoin:round; stroke-width:4; stroke-opacity:1; fill:none" points="1792.76,1083.13 1852.76,1083.13 "/>
<polyline clip-path="url(#clip843)" style="stroke:#b43358; stroke-linecap:round; stroke-linejoin:round; stroke-width:4; stroke-opacity:1; fill:none" points="1792.76,1034 1852.76,1034 "/>
<polyline clip-path="url(#clip843)" style="stroke:#c13a50; stroke-linecap:round; stroke-linejoin:round; stroke-width:4; stroke-opacity:1; fill:none" points="1792.76,984.876 1852.76,984.876 "/>
<polyline clip-path="url(#clip843)" style="stroke:#cc4148; stroke-linecap:round; stroke-linejoin:round; stroke-width:4; stroke-opacity:1; fill:none" points="1792.76,935.748 1852.76,935.748 "/>
<polyline clip-path="url(#clip843)" style="stroke:#d64a3f; stroke-linecap:round; stroke-linejoin:round; stroke-width:4; stroke-opacity:1; fill:none" points="1792.76,886.619 1852.76,886.619 "/>
<polyline clip-path="url(#clip843)" style="stroke:#df5436; stroke-linecap:round; stroke-linejoin:round; stroke-width:4; stroke-opacity:1; fill:none" points="1792.76,837.491 1852.76,837.491 "/>
<polyline clip-path="url(#clip843)" style="stroke:#e8612b; stroke-linecap:round; stroke-linejoin:round; stroke-width:4; stroke-opacity:1; fill:none" points="1792.76,788.363 1852.76,788.363 "/>
<polyline clip-path="url(#clip843)" style="stroke:#ef6d21; stroke-linecap:round; stroke-linejoin:round; stroke-width:4; stroke-opacity:1; fill:none" points="1792.76,739.235 1852.76,739.235 "/>
<polyline clip-path="url(#clip843)" style="stroke:#f47a16; stroke-linecap:round; stroke-linejoin:round; stroke-width:4; stroke-opacity:1; fill:none" points="1792.76,690.106 1852.76,690.106 "/>
<polyline clip-path="url(#clip843)" style="stroke:#f8880c; stroke-linecap:round; stroke-linejoin:round; stroke-width:4; stroke-opacity:1; fill:none" points="1792.76,640.978 1852.76,640.978 "/>
<polyline clip-path="url(#clip843)" style="stroke:#fa9706; stroke-linecap:round; stroke-linejoin:round; stroke-width:4; stroke-opacity:1; fill:none" points="1792.76,591.85 1852.76,591.85 "/>
<polyline clip-path="url(#clip843)" style="stroke:#fba80d; stroke-linecap:round; stroke-linejoin:round; stroke-width:4; stroke-opacity:1; fill:none" points="1792.76,542.722 1852.76,542.722 "/>
<polyline clip-path="url(#clip843)" style="stroke:#fbb71c; stroke-linecap:round; stroke-linejoin:round; stroke-width:4; stroke-opacity:1; fill:none" points="1792.76,493.593 1852.76,493.593 "/>
<polyline clip-path="url(#clip843)" style="stroke:#f9c72f; stroke-linecap:round; stroke-linejoin:round; stroke-width:4; stroke-opacity:1; fill:none" points="1792.76,444.465 1852.76,444.465 "/>
<polyline clip-path="url(#clip843)" style="stroke:#f5d745; stroke-linecap:round; stroke-linejoin:round; stroke-width:4; stroke-opacity:1; fill:none" points="1792.76,395.337 1852.76,395.337 "/>
<polyline clip-path="url(#clip843)" style="stroke:#f1e864; stroke-linecap:round; stroke-linejoin:round; stroke-width:4; stroke-opacity:1; fill:none" points="1792.76,346.209 1852.76,346.209 "/>
<polyline clip-path="url(#clip843)" style="stroke:#f2f485; stroke-linecap:round; stroke-linejoin:round; stroke-width:4; stroke-opacity:1; fill:none" points="1792.76,297.08 1852.76,297.08 "/>
<path clip-path="url(#clip840)" d="M1894.7 1753.1 Q1891.09 1753.1 1889.26 1756.66 Q1887.45 1760.2 1887.45 1767.33 Q1887.45 1774.44 1889.26 1778.01 Q1891.09 1781.55 1894.7 1781.55 Q1898.33 1781.55 1900.14 1778.01 Q1901.97 1774.44 1901.97 1767.33 Q1901.97 1760.2 1900.14 1756.66 Q1898.33 1753.1 1894.7 1753.1 M1894.7 1749.39 Q1900.51 1749.39 1903.57 1754 Q1906.64 1758.58 1906.64 1767.33 Q1906.64 1776.06 1903.57 1780.67 Q1900.51 1785.25 1894.7 1785.25 Q1888.89 1785.25 1885.81 1780.67 Q1882.76 1776.06 1882.76 1767.33 Q1882.76 1758.58 1885.81 1754 Q1888.89 1749.39 1894.7 1749.39 Z" fill="#000000" fill-rule="nonzero" fill-opacity="1" /><path clip-path="url(#clip840)" d="M1883.43 1494.38 L1891.07 1494.38 L1891.07 1468.02 L1882.76 1469.68 L1882.76 1465.42 L1891.02 1463.76 L1895.7 1463.76 L1895.7 1494.38 L1903.33 1494.38 L1903.33 1498.32 L1883.43 1498.32 L1883.43 1494.38 Z" fill="#000000" fill-rule="nonzero" fill-opacity="1" /><path clip-path="url(#clip840)" d="M1888.38 1208.12 L1904.7 1208.12 L1904.7 1212.06 L1882.76 1212.06 L1882.76 1208.12 Q1885.42 1205.37 1890 1200.74 Q1894.61 1196.08 1895.79 1194.74 Q1898.03 1192.22 1898.91 1190.48 Q1899.82 1188.72 1899.82 1187.03 Q1899.82 1184.28 1897.87 1182.54 Q1895.95 1180.81 1892.85 1180.81 Q1890.65 1180.81 1888.2 1181.57 Q1885.77 1182.33 1882.99 1183.89 L1882.99 1179.16 Q1885.81 1178.03 1888.27 1177.45 Q1890.72 1176.87 1892.76 1176.87 Q1898.13 1176.87 1901.32 1179.56 Q1904.52 1182.24 1904.52 1186.73 Q1904.52 1188.86 1903.7 1190.78 Q1902.92 1192.68 1900.81 1195.27 Q1900.23 1195.95 1897.13 1199.16 Q1894.03 1202.36 1888.38 1208.12 Z" fill="#000000" fill-rule="nonzero" fill-opacity="1" /><path clip-path="url(#clip840)" d="M1898.38 907.162 Q1901.74 907.879 1903.61 910.148 Q1905.51 912.416 1905.51 915.75 Q1905.51 920.865 1901.99 923.666 Q1898.47 926.467 1891.99 926.467 Q1889.82 926.467 1887.5 926.027 Q1885.21 925.611 1882.76 924.754 L1882.76 920.24 Q1884.7 921.375 1887.02 921.953 Q1889.33 922.532 1891.85 922.532 Q1896.25 922.532 1898.54 920.796 Q1900.86 919.06 1900.86 915.75 Q1900.86 912.694 1898.7 910.981 Q1896.58 909.245 1892.76 909.245 L1888.73 909.245 L1888.73 905.402 L1892.94 905.402 Q1896.39 905.402 1898.22 904.037 Q1900.05 902.648 1900.05 900.055 Q1900.05 897.393 1898.15 895.981 Q1896.27 894.546 1892.76 894.546 Q1890.83 894.546 1888.64 894.963 Q1886.44 895.379 1883.8 896.259 L1883.8 892.092 Q1886.46 891.352 1888.77 890.981 Q1891.11 890.611 1893.17 890.611 Q1898.5 890.611 1901.6 893.041 Q1904.7 895.449 1904.7 899.569 Q1904.7 902.439 1903.06 904.43 Q1901.41 906.398 1898.38 907.162 Z" fill="#000000" fill-rule="nonzero" fill-opacity="1" /><path clip-path="url(#clip840)" d="M1898.36 609.049 L1886.55 627.498 L1898.36 627.498 L1898.36 609.049 M1897.13 604.975 L1903.01 604.975 L1903.01 627.498 L1907.94 627.498 L1907.94 631.387 L1903.01 631.387 L1903.01 639.535 L1898.36 639.535 L1898.36 631.387 L1882.76 631.387 L1882.76 626.873 L1897.13 604.975 Z" fill="#000000" fill-rule="nonzero" fill-opacity="1" /><path clip-path="url(#clip840)" d="M1884.21 318.714 L1902.57 318.714 L1902.57 322.649 L1888.5 322.649 L1888.5 331.121 Q1889.52 330.774 1890.53 330.612 Q1891.55 330.427 1892.57 330.427 Q1898.36 330.427 1901.74 333.598 Q1905.12 336.769 1905.12 342.186 Q1905.12 347.764 1901.64 350.866 Q1898.17 353.945 1891.85 353.945 Q1889.68 353.945 1887.41 353.575 Q1885.16 353.204 1882.76 352.464 L1882.76 347.764 Q1884.84 348.899 1887.06 349.454 Q1889.28 350.01 1891.76 350.01 Q1895.77 350.01 1898.1 347.903 Q1900.44 345.797 1900.44 342.186 Q1900.44 338.575 1898.1 336.468 Q1895.77 334.362 1891.76 334.362 Q1889.89 334.362 1888.01 334.778 Q1886.16 335.195 1884.21 336.075 L1884.21 318.714 Z" fill="#000000" fill-rule="nonzero" fill-opacity="1" /><polyline clip-path="url(#clip840)" style="stroke:#000000; stroke-linecap:round; stroke-linejoin:round; stroke-width:4; stroke-opacity:1; fill:none" points="1852.76,1770.93 1852.76,1770.93 1872.76,1770.93 1852.76,1770.93 1852.76,1484.67 1872.76,1484.67 1852.76,1484.67 1852.76,1198.41 1872.76,1198.41 1852.76,1198.41 1852.76,912.145 1872.76,912.145 1852.76,912.145 1852.76,625.884 1872.76,625.884 1852.76,625.884 1852.76,339.623 1872.76,339.623 1852.76,339.623 1852.76,247.952 "/>
</svg>
