<?xml version="1.0" encoding="utf-8"?>
<svg xmlns="http://www.w3.org/2000/svg" xmlns:xlink="http://www.w3.org/1999/xlink" width="600" height="400" viewBox="0 0 2400 1600">
<defs>
  <clipPath id="clip840">
    <rect x="0" y="0" width="2400" height="1600"/>
  </clipPath>
</defs>
<path clip-path="url(#clip840)" d="M0 1600 L2400 1600 L2400 0 L0 0  Z" fill="#ffffff" fill-rule="evenodd" fill-opacity="1"/>
<defs>
  <clipPath id="clip841">
    <rect x="480" y="0" width="1681" height="1600"/>
  </clipPath>
</defs>
<path clip-path="url(#clip840)" d="M141.853 1486.45 L2112.76 1486.45 L2112.76 123.472 L141.853 123.472  Z" fill="#ffffff" fill-rule="evenodd" fill-opacity="1"/>
<defs>
  <clipPath id="clip842">
    <rect x="141" y="123" width="1972" height="1364"/>
  </clipPath>
</defs>
<polyline clip-path="url(#clip842)" style="stroke:#000000; stroke-linecap:round; stroke-linejoin:round; stroke-width:2; stroke-opacity:0.1; fill:none" points="442.499,1486.45 442.499,123.472 "/>
<polyline clip-path="url(#clip842)" style="stroke:#000000; stroke-linecap:round; stroke-linejoin:round; stroke-width:2; stroke-opacity:0.1; fill:none" points="776.551,1486.45 776.551,123.472 "/>
<polyline clip-path="url(#clip842)" style="stroke:#000000; stroke-linecap:round; stroke-linejoin:round; stroke-width:2; stroke-opacity:0.1; fill:none" points="1110.6,1486.45 1110.6,123.472 "/>
<polyline clip-path="url(#clip842)" style="stroke:#000000; stroke-linecap:round; stroke-linejoin:round; stroke-width:2; stroke-opacity:0.1; fill:none" points="1444.65,1486.45 1444.65,123.472 "/>
<polyline clip-path="url(#clip842)" style="stroke:#000000; stroke-linecap:round; stroke-linejoin:round; stroke-width:2; stroke-opacity:0.1; fill:none" points="1778.7,1486.45 1778.7,123.472 "/>
<polyline clip-path="url(#clip842)" style="stroke:#000000; stroke-linecap:round; stroke-linejoin:round; stroke-width:2; stroke-opacity:0.1; fill:none" points="2112.76,1486.45 2112.76,123.472 "/>
<polyline clip-path="url(#clip840)" style="stroke:#000000; stroke-linecap:round; stroke-linejoin:round; stroke-width:4; stroke-opacity:1; fill:none" points="141.853,1486.45 2112.76,1486.45 "/>
<polyline clip-path="url(#clip840)" style="stroke:#000000; stroke-linecap:round; stroke-linejoin:round; stroke-width:4; stroke-opacity:1; fill:none" points="442.499,1486.45 442.499,1467.55 "/>
<polyline clip-path="url(#clip840)" style="stroke:#000000; stroke-linecap:round; stroke-linejoin:round; stroke-width:4; stroke-opacity:1; fill:none" points="776.551,1486.45 776.551,1467.55 "/>
<polyline clip-path="url(#clip840)" style="stroke:#000000; stroke-linecap:round; stroke-linejoin:round; stroke-width:4; stroke-opacity:1; fill:none" points="1110.6,1486.45 1110.6,1467.55 "/>
<polyline clip-path="url(#clip840)" style="stroke:#000000; stroke-linecap:round; stroke-linejoin:round; stroke-width:4; stroke-opacity:1; fill:none" points="1444.65,1486.45 1444.65,1467.55 "/>
<polyline clip-path="url(#clip840)" style="stroke:#000000; stroke-linecap:round; stroke-linejoin:round; stroke-width:4; stroke-opacity:1; fill:none" points="1778.7,1486.45 1778.7,1467.55 "/>
<polyline clip-path="url(#clip840)" style="stroke:#000000; stroke-linecap:round; stroke-linejoin:round; stroke-width:4; stroke-opacity:1; fill:none" points="2112.76,1486.45 2112.76,1467.55 "/>
<path clip-path="url(#clip840)" d="M417.187 1544.91 L424.826 1544.91 L424.826 1518.55 L416.516 1520.21 L416.516 1515.95 L424.779 1514.29 L429.455 1514.29 L429.455 1544.91 L437.094 1544.91 L437.094 1548.85 L417.187 1548.85 L417.187 1544.91 Z" fill="#000000" fill-rule="nonzero" fill-opacity="1" /><path clip-path="url(#clip840)" d="M456.538 1517.37 Q452.927 1517.37 451.099 1520.93 Q449.293 1524.47 449.293 1531.6 Q449.293 1538.71 451.099 1542.27 Q452.927 1545.82 456.538 1545.82 Q460.173 1545.82 461.978 1542.27 Q463.807 1538.71 463.807 1531.6 Q463.807 1524.47 461.978 1520.93 Q460.173 1517.37 456.538 1517.37 M456.538 1513.66 Q462.349 1513.66 465.404 1518.27 Q468.483 1522.85 468.483 1531.6 Q468.483 1540.33 465.404 1544.94 Q462.349 1549.52 456.538 1549.52 Q450.728 1549.52 447.65 1544.94 Q444.594 1540.33 444.594 1531.6 Q444.594 1522.85 447.65 1518.27 Q450.728 1513.66 456.538 1513.66 Z" fill="#000000" fill-rule="nonzero" fill-opacity="1" /><path clip-path="url(#clip840)" d="M755.324 1544.91 L771.643 1544.91 L771.643 1548.85 L749.699 1548.85 L749.699 1544.91 Q752.361 1542.16 756.944 1537.53 Q761.551 1532.88 762.731 1531.53 Q764.976 1529.01 765.856 1527.27 Q766.759 1525.51 766.759 1523.82 Q766.759 1521.07 764.814 1519.33 Q762.893 1517.6 759.791 1517.6 Q757.592 1517.6 755.139 1518.36 Q752.708 1519.13 749.93 1520.68 L749.93 1515.95 Q752.754 1514.82 755.208 1514.24 Q757.662 1513.66 759.699 1513.66 Q765.069 1513.66 768.264 1516.35 Q771.458 1519.03 771.458 1523.52 Q771.458 1525.65 770.648 1527.57 Q769.861 1529.47 767.754 1532.07 Q767.176 1532.74 764.074 1535.95 Q760.972 1539.15 755.324 1544.91 Z" fill="#000000" fill-rule="nonzero" fill-opacity="1" /><path clip-path="url(#clip840)" d="M791.458 1517.37 Q787.847 1517.37 786.018 1520.93 Q784.213 1524.47 784.213 1531.6 Q784.213 1538.71 786.018 1542.27 Q787.847 1545.82 791.458 1545.82 Q795.092 1545.82 796.898 1542.27 Q798.726 1538.71 798.726 1531.6 Q798.726 1524.47 796.898 1520.93 Q795.092 1517.37 791.458 1517.37 M791.458 1513.66 Q797.268 1513.66 800.324 1518.27 Q803.402 1522.85 803.402 1531.6 Q803.402 1540.33 800.324 1544.94 Q797.268 1549.52 791.458 1549.52 Q785.648 1549.52 782.569 1544.94 Q779.513 1540.33 779.513 1531.6 Q779.513 1522.85 782.569 1518.27 Q785.648 1513.66 791.458 1513.66 Z" fill="#000000" fill-rule="nonzero" fill-opacity="1" /><path clip-path="url(#clip840)" d="M1099.44 1530.21 Q1102.8 1530.93 1104.68 1533.2 Q1106.57 1535.47 1106.57 1538.8 Q1106.57 1543.92 1103.06 1546.72 Q1099.54 1549.52 1093.06 1549.52 Q1090.88 1549.52 1088.56 1549.08 Q1086.27 1548.66 1083.82 1547.81 L1083.82 1543.29 Q1085.76 1544.43 1088.08 1545.01 Q1090.39 1545.58 1092.92 1545.58 Q1097.31 1545.58 1099.61 1543.85 Q1101.92 1542.11 1101.92 1538.8 Q1101.92 1535.75 1099.77 1534.03 Q1097.64 1532.3 1093.82 1532.3 L1089.79 1532.3 L1089.79 1528.45 L1094 1528.45 Q1097.45 1528.45 1099.28 1527.09 Q1101.11 1525.7 1101.11 1523.11 Q1101.11 1520.45 1099.21 1519.03 Q1097.34 1517.6 1093.82 1517.6 Q1091.9 1517.6 1089.7 1518.01 Q1087.5 1518.43 1084.86 1519.31 L1084.86 1515.14 Q1087.52 1514.4 1089.84 1514.03 Q1092.18 1513.66 1094.24 1513.66 Q1099.56 1513.66 1102.66 1516.09 Q1105.76 1518.5 1105.76 1522.62 Q1105.76 1525.49 1104.12 1527.48 Q1102.48 1529.45 1099.44 1530.21 Z" fill="#000000" fill-rule="nonzero" fill-opacity="1" /><path clip-path="url(#clip840)" d="M1125.44 1517.37 Q1121.83 1517.37 1120 1520.93 Q1118.19 1524.47 1118.19 1531.6 Q1118.19 1538.71 1120 1542.27 Q1121.83 1545.82 1125.44 1545.82 Q1129.07 1545.82 1130.88 1542.27 Q1132.71 1538.71 1132.71 1531.6 Q1132.71 1524.47 1130.88 1520.93 Q1129.07 1517.37 1125.44 1517.37 M1125.44 1513.66 Q1131.25 1513.66 1134.31 1518.27 Q1137.38 1522.85 1137.38 1531.6 Q1137.38 1540.33 1134.31 1544.94 Q1131.25 1549.52 1125.44 1549.52 Q1119.63 1549.52 1116.55 1544.94 Q1113.5 1540.33 1113.5 1531.6 Q1113.5 1522.85 1116.55 1518.27 Q1119.63 1513.66 1125.44 1513.66 Z" fill="#000000" fill-rule="nonzero" fill-opacity="1" /><path clip-path="url(#clip840)" d="M1432.82 1518.36 L1421.02 1536.81 L1432.82 1536.81 L1432.82 1518.36 M1431.6 1514.29 L1437.48 1514.29 L1437.48 1536.81 L1442.41 1536.81 L1442.41 1540.7 L1437.48 1540.7 L1437.48 1548.85 L1432.82 1548.85 L1432.82 1540.7 L1417.22 1540.7 L1417.22 1536.19 L1431.6 1514.29 Z" fill="#000000" fill-rule="nonzero" fill-opacity="1" /><path clip-path="url(#clip840)" d="M1460.14 1517.37 Q1456.53 1517.37 1454.7 1520.93 Q1452.89 1524.47 1452.89 1531.6 Q1452.89 1538.71 1454.7 1542.27 Q1456.53 1545.82 1460.14 1545.82 Q1463.77 1545.82 1465.58 1542.27 Q1467.41 1538.71 1467.41 1531.6 Q1467.41 1524.47 1465.58 1520.93 Q1463.77 1517.37 1460.14 1517.37 M1460.14 1513.66 Q1465.95 1513.66 1469 1518.27 Q1472.08 1522.85 1472.08 1531.6 Q1472.08 1540.33 1469 1544.94 Q1465.95 1549.52 1460.14 1549.52 Q1454.33 1549.52 1451.25 1544.94 Q1448.19 1540.33 1448.19 1531.6 Q1448.19 1522.85 1451.25 1518.27 Q1454.33 1513.66 1460.14 1513.66 Z" fill="#000000" fill-rule="nonzero" fill-opacity="1" /><path clip-path="url(#clip840)" d="M1753.4 1514.29 L1771.76 1514.29 L1771.76 1518.22 L1757.69 1518.22 L1757.69 1526.7 Q1758.7 1526.35 1759.72 1526.19 Q1760.74 1526 1761.76 1526 Q1767.55 1526 1770.93 1529.17 Q1774.31 1532.34 1774.31 1537.76 Q1774.31 1543.34 1770.83 1546.44 Q1767.36 1549.52 1761.04 1549.52 Q1758.87 1549.52 1756.6 1549.15 Q1754.35 1548.78 1751.95 1548.04 L1751.95 1543.34 Q1754.03 1544.47 1756.25 1545.03 Q1758.47 1545.58 1760.95 1545.58 Q1764.95 1545.58 1767.29 1543.48 Q1769.63 1541.37 1769.63 1537.76 Q1769.63 1534.15 1767.29 1532.04 Q1764.95 1529.94 1760.95 1529.94 Q1759.08 1529.94 1757.2 1530.35 Q1755.35 1530.77 1753.4 1531.65 L1753.4 1514.29 Z" fill="#000000" fill-rule="nonzero" fill-opacity="1" /><path clip-path="url(#clip840)" d="M1793.52 1517.37 Q1789.91 1517.37 1788.08 1520.93 Q1786.27 1524.47 1786.27 1531.6 Q1786.27 1538.71 1788.08 1542.27 Q1789.91 1545.82 1793.52 1545.82 Q1797.15 1545.82 1798.96 1542.27 Q1800.79 1538.71 1800.79 1531.6 Q1800.79 1524.47 1798.96 1520.93 Q1797.15 1517.37 1793.52 1517.37 M1793.52 1513.66 Q1799.33 1513.66 1802.38 1518.27 Q1805.46 1522.85 1805.46 1531.6 Q1805.46 1540.33 1802.38 1544.94 Q1799.33 1549.52 1793.52 1549.52 Q1787.71 1549.52 1784.63 1544.94 Q1781.57 1540.33 1781.57 1531.6 Q1781.57 1522.85 1784.63 1518.27 Q1787.71 1513.66 1793.52 1513.66 Z" fill="#000000" fill-rule="nonzero" fill-opacity="1" /><path clip-path="url(#clip840)" d="M2098.16 1529.7 Q2095.01 1529.7 2093.16 1531.86 Q2091.33 1534.01 2091.33 1537.76 Q2091.33 1541.49 2093.16 1543.66 Q2095.01 1545.82 2098.16 1545.82 Q2101.31 1545.82 2103.14 1543.66 Q2104.99 1541.49 2104.99 1537.76 Q2104.99 1534.01 2103.14 1531.86 Q2101.31 1529.7 2098.16 1529.7 M2107.44 1515.05 L2107.44 1519.31 Q2105.68 1518.48 2103.88 1518.04 Q2102.1 1517.6 2100.34 1517.6 Q2095.71 1517.6 2093.25 1520.72 Q2090.82 1523.85 2090.48 1530.17 Q2091.84 1528.15 2093.9 1527.09 Q2095.96 1526 2098.44 1526 Q2103.65 1526 2106.66 1529.17 Q2109.69 1532.32 2109.69 1537.76 Q2109.69 1543.08 2106.54 1546.3 Q2103.39 1549.52 2098.16 1549.52 Q2092.17 1549.52 2088.99 1544.94 Q2085.82 1540.33 2085.82 1531.6 Q2085.82 1523.41 2089.71 1518.55 Q2093.6 1513.66 2100.15 1513.66 Q2101.91 1513.66 2103.69 1514.01 Q2105.5 1514.36 2107.44 1515.05 Z" fill="#000000" fill-rule="nonzero" fill-opacity="1" /><path clip-path="url(#clip840)" d="M2127.74 1517.37 Q2124.13 1517.37 2122.3 1520.93 Q2120.5 1524.47 2120.5 1531.6 Q2120.5 1538.71 2122.3 1542.27 Q2124.13 1545.82 2127.74 1545.82 Q2131.38 1545.82 2133.18 1542.27 Q2135.01 1538.71 2135.01 1531.6 Q2135.01 1524.47 2133.18 1520.93 Q2131.38 1517.37 2127.74 1517.37 M2127.74 1513.66 Q2133.55 1513.66 2136.61 1518.27 Q2139.69 1522.85 2139.69 1531.6 Q2139.69 1540.33 2136.61 1544.94 Q2133.55 1549.52 2127.74 1549.52 Q2121.93 1549.52 2118.86 1544.94 Q2115.8 1540.33 2115.8 1531.6 Q2115.8 1522.85 2118.86 1518.27 Q2121.93 1513.66 2127.74 1513.66 Z" fill="#000000" fill-rule="nonzero" fill-opacity="1" /><polyline clip-path="url(#clip842)" style="stroke:#000000; stroke-linecap:round; stroke-linejoin:round; stroke-width:2; stroke-opacity:0.1; fill:none" points="141.853,1171.92 2112.76,1171.92 "/>
<polyline clip-path="url(#clip842)" style="stroke:#000000; stroke-linecap:round; stroke-linejoin:round; stroke-width:2; stroke-opacity:0.1; fill:none" points="141.853,822.434 2112.76,822.434 "/>
<polyline clip-path="url(#clip842)" style="stroke:#000000; stroke-linecap:round; stroke-linejoin:round; stroke-width:2; stroke-opacity:0.1; fill:none" points="141.853,472.953 2112.76,472.953 "/>
<polyline clip-path="url(#clip842)" style="stroke:#000000; stroke-linecap:round; stroke-linejoin:round; stroke-width:2; stroke-opacity:0.1; fill:none" points="141.853,123.472 2112.76,123.472 "/>
<polyline clip-path="url(#clip840)" style="stroke:#000000; stroke-linecap:round; stroke-linejoin:round; stroke-width:4; stroke-opacity:1; fill:none" points="141.853,1486.45 141.853,123.472 "/>
<polyline clip-path="url(#clip840)" style="stroke:#000000; stroke-linecap:round; stroke-linejoin:round; stroke-width:4; stroke-opacity:1; fill:none" points="141.853,1171.92 158.699,1171.92 "/>
<polyline clip-path="url(#clip840)" style="stroke:#000000; stroke-linecap:round; stroke-linejoin:round; stroke-width:4; stroke-opacity:1; fill:none" points="141.853,822.434 158.699,822.434 "/>
<polyline clip-path="url(#clip840)" style="stroke:#000000; stroke-linecap:round; stroke-linejoin:round; stroke-width:4; stroke-opacity:1; fill:none" points="141.853,472.953 158.699,472.953 "/>
<polyline clip-path="url(#clip840)" style="stroke:#000000; stroke-linecap:round; stroke-linejoin:round; stroke-width:4; stroke-opacity:1; fill:none" points="141.853,123.472 158.699,123.472 "/>
<path clip-path="url(#clip840)" d="M54.5569 1185.26 L62.1958 1185.26 L62.1958 1158.89 L53.8856 1160.56 L53.8856 1156.3 L62.1495 1154.64 L66.8254 1154.64 L66.8254 1185.26 L74.4642 1185.26 L74.4642 1189.2 L54.5569 1189.2 L54.5569 1185.26 Z" fill="#000000" fill-rule="nonzero" fill-opacity="1" /><path clip-path="url(#clip840)" d="M93.9086 1157.71 Q90.2975 1157.71 88.4688 1161.28 Q86.6632 1164.82 86.6632 1171.95 Q86.6632 1179.06 88.4688 1182.62 Q90.2975 1186.16 93.9086 1186.16 Q97.5428 1186.16 99.3483 1182.62 Q101.177 1179.06 101.177 1171.95 Q101.177 1164.82 99.3483 1161.28 Q97.5428 1157.71 93.9086 1157.71 M93.9086 1154.01 Q99.7187 1154.01 102.774 1158.62 Q105.853 1163.2 105.853 1171.95 Q105.853 1180.68 102.774 1185.28 Q99.7187 1189.87 93.9086 1189.87 Q88.0984 1189.87 85.0197 1185.28 Q81.9642 1180.68 81.9642 1171.95 Q81.9642 1163.2 85.0197 1158.62 Q88.0984 1154.01 93.9086 1154.01 Z" fill="#000000" fill-rule="nonzero" fill-opacity="1" /><path clip-path="url(#clip840)" d="M57.7745 835.779 L74.0939 835.779 L74.0939 839.714 L52.1495 839.714 L52.1495 835.779 Q54.8115 833.024 59.3949 828.395 Q64.0013 823.742 65.1819 822.399 Q67.4272 819.876 68.3068 818.14 Q69.2096 816.381 69.2096 814.691 Q69.2096 811.936 67.2652 810.2 Q65.3439 808.464 62.2421 808.464 Q60.043 808.464 57.5893 809.228 Q55.1588 809.992 52.381 811.543 L52.381 806.821 Q55.2051 805.686 57.6588 805.108 Q60.1124 804.529 62.1495 804.529 Q67.5198 804.529 70.7142 807.214 Q73.9087 809.899 73.9087 814.39 Q73.9087 816.52 73.0985 818.441 Q72.3115 820.339 70.205 822.932 Q69.6263 823.603 66.5245 826.821 Q63.4226 830.015 57.7745 835.779 Z" fill="#000000" fill-rule="nonzero" fill-opacity="1" /><path clip-path="url(#clip840)" d="M93.9086 808.233 Q90.2975 808.233 88.4688 811.798 Q86.6632 815.339 86.6632 822.469 Q86.6632 829.575 88.4688 833.14 Q90.2975 836.682 93.9086 836.682 Q97.5428 836.682 99.3483 833.14 Q101.177 829.575 101.177 822.469 Q101.177 815.339 99.3483 811.798 Q97.5428 808.233 93.9086 808.233 M93.9086 804.529 Q99.7187 804.529 102.774 809.136 Q105.853 813.719 105.853 822.469 Q105.853 831.196 102.774 835.802 Q99.7187 840.385 93.9086 840.385 Q88.0984 840.385 85.0197 835.802 Q81.9642 831.196 81.9642 822.469 Q81.9642 813.719 85.0197 809.136 Q88.0984 804.529 93.9086 804.529 Z" fill="#000000" fill-rule="nonzero" fill-opacity="1" /><path clip-path="url(#clip840)" d="M67.9133 471.599 Q71.2698 472.317 73.1448 474.585 Q75.0429 476.854 75.0429 480.187 Q75.0429 485.303 71.5244 488.103 Q68.0059 490.904 61.5245 490.904 Q59.3486 490.904 57.0338 490.465 Q54.7421 490.048 52.2884 489.191 L52.2884 484.678 Q54.2328 485.812 56.5477 486.391 Q58.8625 486.969 61.3856 486.969 Q65.7837 486.969 68.0754 485.233 Q70.3902 483.497 70.3902 480.187 Q70.3902 477.131 68.2374 475.418 Q66.1078 473.682 62.2884 473.682 L58.2606 473.682 L58.2606 469.84 L62.4735 469.84 Q65.9226 469.84 67.7513 468.474 Q69.58 467.085 69.58 464.492 Q69.58 461.83 67.6819 460.418 Q65.8069 458.983 62.2884 458.983 Q60.3671 458.983 58.168 459.4 Q55.969 459.817 53.3301 460.696 L53.3301 456.53 Q55.9921 455.789 58.3069 455.418 Q60.6449 455.048 62.705 455.048 Q68.0291 455.048 71.1309 457.479 Q74.2327 459.886 74.2327 464.006 Q74.2327 466.877 72.5892 468.867 Q70.9457 470.835 67.9133 471.599 Z" fill="#000000" fill-rule="nonzero" fill-opacity="1" /><path clip-path="url(#clip840)" d="M93.9086 458.752 Q90.2975 458.752 88.4688 462.317 Q86.6632 465.858 86.6632 472.988 Q86.6632 480.094 88.4688 483.659 Q90.2975 487.201 93.9086 487.201 Q97.5428 487.201 99.3483 483.659 Q101.177 480.094 101.177 472.988 Q101.177 465.858 99.3483 462.317 Q97.5428 458.752 93.9086 458.752 M93.9086 455.048 Q99.7187 455.048 102.774 459.655 Q105.853 464.238 105.853 472.988 Q105.853 481.715 102.774 486.321 Q99.7187 490.904 93.9086 490.904 Q88.0984 490.904 85.0197 486.321 Q81.9642 481.715 81.9642 472.988 Q81.9642 464.238 85.0197 459.655 Q88.0984 455.048 93.9086 455.048 Z" fill="#000000" fill-rule="nonzero" fill-opacity="1" /><path clip-path="url(#clip840)" d="M66.5939 110.266 L54.7884 128.715 L66.5939 128.715 L66.5939 110.266 M65.367 106.192 L71.2466 106.192 L71.2466 128.715 L76.1772 128.715 L76.1772 132.604 L71.2466 132.604 L71.2466 140.752 L66.5939 140.752 L66.5939 132.604 L50.9921 132.604 L50.9921 128.09 L65.367 106.192 Z" fill="#000000" fill-rule="nonzero" fill-opacity="1" /><path clip-path="url(#clip840)" d="M93.9086 109.271 Q90.2975 109.271 88.4688 112.836 Q86.6632 116.377 86.6632 123.507 Q86.6632 130.613 88.4688 134.178 Q90.2975 137.72 93.9086 137.72 Q97.5428 137.72 99.3483 134.178 Q101.177 130.613 101.177 123.507 Q101.177 116.377 99.3483 112.836 Q97.5428 109.271 93.9086 109.271 M93.9086 105.567 Q99.7187 105.567 102.774 110.174 Q105.853 114.757 105.853 123.507 Q105.853 132.234 102.774 136.84 Q99.7187 141.423 93.9086 141.423 Q88.0984 141.423 85.0197 136.84 Q81.9642 132.234 81.9642 123.507 Q81.9642 114.757 85.0197 110.174 Q88.0984 105.567 93.9086 105.567 Z" fill="#000000" fill-rule="nonzero" fill-opacity="1" /><path clip-path="url(#clip840)" d="M435.937 14.0809 L435.937 22.0612 Q431.278 19.8332 427.146 18.7395 Q423.014 17.6457 419.166 17.6457 Q412.482 17.6457 408.836 20.2383 Q405.231 22.8309 405.231 27.611 Q405.231 31.6214 407.621 33.6873 Q410.051 35.7128 416.776 36.9686 L421.718 37.9813 Q430.873 39.7232 435.207 44.1387 Q439.582 48.5136 439.582 55.8863 Q439.582 64.6767 433.668 69.2137 Q427.794 73.7508 416.411 73.7508 Q412.117 73.7508 407.256 72.7785 Q402.436 71.8063 397.25 69.9024 L397.25 61.4765 Q402.233 64.2716 407.013 65.6895 Q411.793 67.1073 416.411 67.1073 Q423.419 67.1073 427.227 64.3527 Q431.035 61.598 431.035 56.4939 Q431.035 52.0379 428.28 49.5264 Q425.566 47.0148 419.328 45.759 L414.345 44.7868 Q405.19 42.9639 401.099 39.075 Q397.007 35.1862 397.007 28.2591 Q397.007 20.2383 402.638 15.6203 Q408.309 11.0023 418.234 11.0023 Q422.488 11.0023 426.903 11.7719 Q431.319 12.5416 435.937 14.0809 Z" fill="#000000" fill-rule="nonzero" fill-opacity="1" /><path clip-path="url(#clip840)" d="M459.391 14.324 L459.391 27.2059 L474.744 27.2059 L474.744 32.9987 L459.391 32.9987 L459.391 57.6282 Q459.391 63.1779 460.89 64.7578 Q462.43 66.3376 467.088 66.3376 L474.744 66.3376 L474.744 72.576 L467.088 72.576 Q458.46 72.576 455.178 69.3758 Q451.897 66.1351 451.897 57.6282 L451.897 32.9987 L446.428 32.9987 L446.428 27.2059 L451.897 27.2059 L451.897 14.324 L459.391 14.324 Z" fill="#000000" fill-rule="nonzero" fill-opacity="1" /><path clip-path="url(#clip840)" d="M510.838 34.1734 Q509.582 33.4443 508.083 33.1202 Q506.625 32.7556 504.842 32.7556 Q498.523 32.7556 495.12 36.8875 Q491.758 40.9789 491.758 48.6757 L491.758 72.576 L484.264 72.576 L484.264 27.2059 L491.758 27.2059 L491.758 34.2544 Q494.108 30.1225 497.875 28.1376 Q501.642 26.1121 507.03 26.1121 Q507.8 26.1121 508.731 26.2337 Q509.663 26.3147 510.797 26.5172 L510.838 34.1734 Z" fill="#000000" fill-rule="nonzero" fill-opacity="1" /><path clip-path="url(#clip840)" d="M555.641 48.0275 L555.641 51.6733 L521.37 51.6733 Q521.856 59.3701 525.988 63.421 Q530.161 67.4314 537.574 67.4314 Q541.868 67.4314 545.878 66.3781 Q549.929 65.3249 553.899 63.2184 L553.899 70.267 Q549.889 71.9684 545.676 72.8596 Q541.463 73.7508 537.128 73.7508 Q526.272 73.7508 519.912 67.4314 Q513.592 61.1119 513.592 50.3365 Q513.592 39.1965 519.588 32.6746 Q525.624 26.1121 535.832 26.1121 Q544.987 26.1121 550.294 32.0264 Q555.641 37.9003 555.641 48.0275 M548.187 45.84 Q548.106 39.7232 544.744 36.0774 Q541.422 32.4315 535.913 32.4315 Q529.675 32.4315 525.907 35.9558 Q522.18 39.4801 521.613 45.8805 L548.187 45.84 Z" fill="#000000" fill-rule="nonzero" fill-opacity="1" /><path clip-path="url(#clip840)" d="M588.494 49.7694 Q579.46 49.7694 575.976 51.8354 Q572.493 53.9013 572.493 58.8839 Q572.493 62.8538 575.085 65.2034 Q577.718 67.5124 582.215 67.5124 Q588.413 67.5124 592.139 63.1374 Q595.907 58.7219 595.907 51.4303 L595.907 49.7694 L588.494 49.7694 M603.36 46.6907 L603.36 72.576 L595.907 72.576 L595.907 65.6895 Q593.355 69.8214 589.547 71.8063 Q585.739 73.7508 580.23 73.7508 Q573.262 73.7508 569.13 69.8619 Q565.039 65.9325 565.039 59.3701 Q565.039 51.7138 570.143 47.825 Q575.288 43.9361 585.455 43.9361 L595.907 43.9361 L595.907 43.2069 Q595.907 38.0623 592.504 35.2672 Q589.142 32.4315 583.025 32.4315 Q579.136 32.4315 575.45 33.3632 Q571.763 34.295 568.361 36.1584 L568.361 29.2718 Q572.452 27.692 576.3 26.9223 Q580.149 26.1121 583.795 26.1121 Q593.638 26.1121 598.499 31.2163 Q603.36 36.3204 603.36 46.6907 Z" fill="#000000" fill-rule="nonzero" fill-opacity="1" /><path clip-path="url(#clip840)" d="M654.037 35.9153 Q656.832 30.8922 660.721 28.5022 Q664.61 26.1121 669.876 26.1121 Q676.965 26.1121 680.814 31.0947 Q684.662 36.0368 684.662 45.1919 L684.662 72.576 L677.168 72.576 L677.168 45.4349 Q677.168 38.913 674.859 35.7533 Q672.55 32.5936 667.81 32.5936 Q662.018 32.5936 658.655 36.4419 Q655.293 40.2903 655.293 46.9338 L655.293 72.576 L647.799 72.576 L647.799 45.4349 Q647.799 38.8725 645.49 35.7533 Q643.181 32.5936 638.36 32.5936 Q632.649 32.5936 629.286 36.4824 Q625.924 40.3308 625.924 46.9338 L625.924 72.576 L618.43 72.576 L618.43 27.2059 L625.924 27.2059 L625.924 34.2544 Q628.476 30.082 632.041 28.0971 Q635.606 26.1121 640.507 26.1121 Q645.449 26.1121 648.893 28.6237 Q652.376 31.1352 654.037 35.9153 Z" fill="#000000" fill-rule="nonzero" fill-opacity="1" /><path clip-path="url(#clip840)" d="M726.224 12.096 L760.981 12.096 L760.981 18.9825 L734.407 18.9825 L734.407 36.8065 L758.389 36.8065 L758.389 43.6931 L734.407 43.6931 L734.407 72.576 L726.224 72.576 L726.224 12.096 Z" fill="#000000" fill-rule="nonzero" fill-opacity="1" /><path clip-path="url(#clip840)" d="M811.334 45.1919 L811.334 72.576 L803.88 72.576 L803.88 45.4349 Q803.88 38.994 801.369 35.7938 Q798.857 32.5936 793.834 32.5936 Q787.798 32.5936 784.314 36.4419 Q780.831 40.2903 780.831 46.9338 L780.831 72.576 L773.336 72.576 L773.336 27.2059 L780.831 27.2059 L780.831 34.2544 Q783.504 30.163 787.109 28.1376 Q790.755 26.1121 795.495 26.1121 Q803.313 26.1121 807.324 30.9732 Q811.334 35.7938 811.334 45.1919 Z" fill="#000000" fill-rule="nonzero" fill-opacity="1" /><path clip-path="url(#clip840)" d="M848.805 46.5287 L870.639 46.5287 L870.639 53.1722 L848.805 53.1722 L848.805 46.5287 Z" fill="#000000" fill-rule="nonzero" fill-opacity="1" /><path clip-path="url(#clip840)" d="M937.884 44.2197 Q940.517 45.1109 942.988 48.0275 Q945.5 50.9442 948.011 56.0483 L956.316 72.576 L947.525 72.576 L939.788 57.061 Q936.79 50.9847 933.955 48.9997 Q931.16 47.0148 926.299 47.0148 L917.387 47.0148 L917.387 72.576 L909.204 72.576 L909.204 12.096 L927.676 12.096 Q938.046 12.096 943.15 16.4305 Q948.254 20.7649 948.254 29.5149 Q948.254 35.2267 945.581 38.994 Q942.948 42.7613 937.884 44.2197 M917.387 18.8205 L917.387 40.2903 L927.676 40.2903 Q933.59 40.2903 936.588 37.5762 Q939.626 34.8216 939.626 29.5149 Q939.626 24.2082 936.588 21.5346 Q933.59 18.8205 927.676 18.8205 L917.387 18.8205 Z" fill="#000000" fill-rule="nonzero" fill-opacity="1" /><path clip-path="url(#clip840)" d="M1001.6 48.0275 L1001.6 51.6733 L967.334 51.6733 Q967.82 59.3701 971.952 63.421 Q976.125 67.4314 983.538 67.4314 Q987.832 67.4314 991.842 66.3781 Q995.893 65.3249 999.863 63.2184 L999.863 70.267 Q995.853 71.9684 991.64 72.8596 Q987.427 73.7508 983.092 73.7508 Q972.236 73.7508 965.876 67.4314 Q959.556 61.1119 959.556 50.3365 Q959.556 39.1965 965.552 32.6746 Q971.588 26.1121 981.796 26.1121 Q990.951 26.1121 996.258 32.0264 Q1001.6 37.9003 1001.6 48.0275 M994.151 45.84 Q994.07 39.7232 990.708 36.0774 Q987.386 32.4315 981.877 32.4315 Q975.639 32.4315 971.871 35.9558 Q968.144 39.4801 967.577 45.8805 L994.151 45.84 Z" fill="#000000" fill-rule="nonzero" fill-opacity="1" /><path clip-path="url(#clip840)" d="M1043.69 34.0924 L1043.69 9.54393 L1051.15 9.54393 L1051.15 72.576 L1043.69 72.576 L1043.69 65.7705 Q1041.34 69.8214 1037.74 71.8063 Q1034.17 73.7508 1029.15 73.7508 Q1020.93 73.7508 1015.74 67.1883 Q1010.6 60.6258 1010.6 49.9314 Q1010.6 39.2371 1015.74 32.6746 Q1020.93 26.1121 1029.15 26.1121 Q1034.17 26.1121 1037.74 28.0971 Q1041.34 30.0415 1043.69 34.0924 M1018.29 49.9314 Q1018.29 58.1548 1021.66 62.8538 Q1025.06 67.5124 1030.97 67.5124 Q1036.89 67.5124 1040.29 62.8538 Q1043.69 58.1548 1043.69 49.9314 Q1043.69 41.7081 1040.29 37.0496 Q1036.89 32.3505 1030.97 32.3505 Q1025.06 32.3505 1021.66 37.0496 Q1018.29 41.7081 1018.29 49.9314 Z" fill="#000000" fill-rule="nonzero" fill-opacity="1" /><path clip-path="url(#clip840)" d="M1065.73 54.671 L1065.73 27.2059 L1073.18 27.2059 L1073.18 54.3874 Q1073.18 60.8284 1075.7 64.0691 Q1078.21 67.2693 1083.23 67.2693 Q1089.27 67.2693 1092.75 63.421 Q1096.27 59.5726 1096.27 52.9291 L1096.27 27.2059 L1103.73 27.2059 L1103.73 72.576 L1096.27 72.576 L1096.27 65.6084 Q1093.56 69.7404 1089.96 71.7658 Q1086.39 73.7508 1081.65 73.7508 Q1073.83 73.7508 1069.78 68.8897 Q1065.73 64.0286 1065.73 54.671 M1084.49 26.1121 L1084.49 26.1121 Z" fill="#000000" fill-rule="nonzero" fill-opacity="1" /><path clip-path="url(#clip840)" d="M1151.73 28.9478 L1151.73 35.9153 Q1148.57 34.1734 1145.37 33.3227 Q1142.21 32.4315 1138.97 32.4315 Q1131.72 32.4315 1127.71 37.0496 Q1123.7 41.6271 1123.7 49.9314 Q1123.7 58.2358 1127.71 62.8538 Q1131.72 67.4314 1138.97 67.4314 Q1142.21 67.4314 1145.37 66.5807 Q1148.57 65.6895 1151.73 63.9476 L1151.73 70.8341 Q1148.61 72.2924 1145.25 73.0216 Q1141.93 73.7508 1138.16 73.7508 Q1127.91 73.7508 1121.88 67.3098 Q1115.84 60.8689 1115.84 49.9314 Q1115.84 38.832 1121.92 32.472 Q1128.03 26.1121 1138.65 26.1121 Q1142.09 26.1121 1145.37 26.8413 Q1148.65 27.5299 1151.73 28.9478 Z" fill="#000000" fill-rule="nonzero" fill-opacity="1" /><path clip-path="url(#clip840)" d="M1203.5 48.0275 L1203.5 51.6733 L1169.23 51.6733 Q1169.72 59.3701 1173.85 63.421 Q1178.02 67.4314 1185.43 67.4314 Q1189.73 67.4314 1193.74 66.3781 Q1197.79 65.3249 1201.76 63.2184 L1201.76 70.267 Q1197.75 71.9684 1193.54 72.8596 Q1189.32 73.7508 1184.99 73.7508 Q1174.13 73.7508 1167.77 67.4314 Q1161.45 61.1119 1161.45 50.3365 Q1161.45 39.1965 1167.45 32.6746 Q1173.48 26.1121 1183.69 26.1121 Q1192.85 26.1121 1198.15 32.0264 Q1203.5 37.9003 1203.5 48.0275 M1196.05 45.84 Q1195.97 39.7232 1192.61 36.0774 Q1189.28 32.4315 1183.77 32.4315 Q1177.54 32.4315 1173.77 35.9558 Q1170.04 39.4801 1169.47 45.8805 L1196.05 45.84 Z" fill="#000000" fill-rule="nonzero" fill-opacity="1" /><path clip-path="url(#clip840)" d="M1245.59 34.0924 L1245.59 9.54393 L1253.04 9.54393 L1253.04 72.576 L1245.59 72.576 L1245.59 65.7705 Q1243.24 69.8214 1239.64 71.8063 Q1236.07 73.7508 1231.05 73.7508 Q1222.82 73.7508 1217.64 67.1883 Q1212.49 60.6258 1212.49 49.9314 Q1212.49 39.2371 1217.64 32.6746 Q1222.82 26.1121 1231.05 26.1121 Q1236.07 26.1121 1239.64 28.0971 Q1243.24 30.0415 1245.59 34.0924 M1220.19 49.9314 Q1220.19 58.1548 1223.55 62.8538 Q1226.96 67.5124 1232.87 67.5124 Q1238.79 67.5124 1242.19 62.8538 Q1245.59 58.1548 1245.59 49.9314 Q1245.59 41.7081 1242.19 37.0496 Q1238.79 32.3505 1232.87 32.3505 Q1226.96 32.3505 1223.55 37.0496 Q1220.19 41.7081 1220.19 49.9314 Z" fill="#000000" fill-rule="nonzero" fill-opacity="1" /><path clip-path="url(#clip840)" d="M1289.71 12.096 L1297.97 12.096 L1310.69 63.2184 L1323.37 12.096 L1332.56 12.096 L1345.28 63.2184 L1357.96 12.096 L1366.27 12.096 L1351.08 72.576 L1340.79 72.576 L1328.03 20.0763 L1315.14 72.576 L1304.86 72.576 L1289.71 12.096 Z" fill="#000000" fill-rule="nonzero" fill-opacity="1" /><path clip-path="url(#clip840)" d="M1374.98 27.2059 L1382.43 27.2059 L1382.43 72.576 L1374.98 72.576 L1374.98 27.2059 M1374.98 9.54393 L1382.43 9.54393 L1382.43 18.9825 L1374.98 18.9825 L1374.98 9.54393 Z" fill="#000000" fill-rule="nonzero" fill-opacity="1" /><path clip-path="url(#clip840)" d="M1427.88 34.0924 L1427.88 9.54393 L1435.34 9.54393 L1435.34 72.576 L1427.88 72.576 L1427.88 65.7705 Q1425.53 69.8214 1421.93 71.8063 Q1418.36 73.7508 1413.34 73.7508 Q1405.12 73.7508 1399.93 67.1883 Q1394.79 60.6258 1394.79 49.9314 Q1394.79 39.2371 1399.93 32.6746 Q1405.12 26.1121 1413.34 26.1121 Q1418.36 26.1121 1421.93 28.0971 Q1425.53 30.0415 1427.88 34.0924 M1402.48 49.9314 Q1402.48 58.1548 1405.84 62.8538 Q1409.25 67.5124 1415.16 67.5124 Q1421.08 67.5124 1424.48 62.8538 Q1427.88 58.1548 1427.88 49.9314 Q1427.88 41.7081 1424.48 37.0496 Q1421.08 32.3505 1415.16 32.3505 Q1409.25 32.3505 1405.84 37.0496 Q1402.48 41.7081 1402.48 49.9314 Z" fill="#000000" fill-rule="nonzero" fill-opacity="1" /><path clip-path="url(#clip840)" d="M1458.06 14.324 L1458.06 27.2059 L1473.41 27.2059 L1473.41 32.9987 L1458.06 32.9987 L1458.06 57.6282 Q1458.06 63.1779 1459.56 64.7578 Q1461.1 66.3376 1465.76 66.3376 L1473.41 66.3376 L1473.41 72.576 L1465.76 72.576 Q1457.13 72.576 1453.85 69.3758 Q1450.57 66.1351 1450.57 57.6282 L1450.57 32.9987 L1445.1 32.9987 L1445.1 27.2059 L1450.57 27.2059 L1450.57 14.324 L1458.06 14.324 Z" fill="#000000" fill-rule="nonzero" fill-opacity="1" /><path clip-path="url(#clip840)" d="M1520.93 45.1919 L1520.93 72.576 L1513.48 72.576 L1513.48 45.4349 Q1513.48 38.994 1510.97 35.7938 Q1508.45 32.5936 1503.43 32.5936 Q1497.4 32.5936 1493.91 36.4419 Q1490.43 40.2903 1490.43 46.9338 L1490.43 72.576 L1482.93 72.576 L1482.93 9.54393 L1490.43 9.54393 L1490.43 34.2544 Q1493.1 30.163 1496.71 28.1376 Q1500.35 26.1121 1505.09 26.1121 Q1512.91 26.1121 1516.92 30.9732 Q1520.93 35.7938 1520.93 45.1919 Z" fill="#000000" fill-rule="nonzero" fill-opacity="1" /><path clip-path="url(#clip840)" d="M1579.75 32.4315 Q1573.75 32.4315 1570.27 37.1306 Q1566.79 41.7891 1566.79 49.9314 Q1566.79 58.0738 1570.23 62.7728 Q1573.71 67.4314 1579.75 67.4314 Q1585.7 67.4314 1589.19 62.7323 Q1592.67 58.0333 1592.67 49.9314 Q1592.67 41.8701 1589.19 37.1711 Q1585.7 32.4315 1579.75 32.4315 M1579.75 26.1121 Q1589.47 26.1121 1595.02 32.4315 Q1600.57 38.7509 1600.57 49.9314 Q1600.57 61.0714 1595.02 67.4314 Q1589.47 73.7508 1579.75 73.7508 Q1569.99 73.7508 1564.44 67.4314 Q1558.93 61.0714 1558.93 49.9314 Q1558.93 38.7509 1564.44 32.4315 Q1569.99 26.1121 1579.75 26.1121 Z" fill="#000000" fill-rule="nonzero" fill-opacity="1" /><path clip-path="url(#clip840)" d="M1612.16 54.671 L1612.16 27.2059 L1619.61 27.2059 L1619.61 54.3874 Q1619.61 60.8284 1622.12 64.0691 Q1624.63 67.2693 1629.66 67.2693 Q1635.69 67.2693 1639.18 63.421 Q1642.7 59.5726 1642.7 52.9291 L1642.7 27.2059 L1650.15 27.2059 L1650.15 72.576 L1642.7 72.576 L1642.7 65.6084 Q1639.99 69.7404 1636.38 71.7658 Q1632.82 73.7508 1628.08 73.7508 Q1620.26 73.7508 1616.21 68.8897 Q1612.16 64.0286 1612.16 54.671 M1630.91 26.1121 L1630.91 26.1121 Z" fill="#000000" fill-rule="nonzero" fill-opacity="1" /><path clip-path="url(#clip840)" d="M1672.88 14.324 L1672.88 27.2059 L1688.23 27.2059 L1688.23 32.9987 L1672.88 32.9987 L1672.88 57.6282 Q1672.88 63.1779 1674.38 64.7578 Q1675.92 66.3376 1680.58 66.3376 L1688.23 66.3376 L1688.23 72.576 L1680.58 72.576 Q1671.95 72.576 1668.67 69.3758 Q1665.39 66.1351 1665.39 57.6282 L1665.39 32.9987 L1659.92 32.9987 L1659.92 27.2059 L1665.39 27.2059 L1665.39 14.324 L1672.88 14.324 Z" fill="#000000" fill-rule="nonzero" fill-opacity="1" /><path clip-path="url(#clip840)" d="M1721 9.54393 L1721 15.7418 L1713.88 15.7418 Q1709.86 15.7418 1708.29 17.3622 Q1706.75 18.9825 1706.75 23.1955 L1706.75 27.2059 L1719.02 27.2059 L1719.02 32.9987 L1706.75 32.9987 L1706.75 72.576 L1699.25 72.576 L1699.25 32.9987 L1692.12 32.9987 L1692.12 27.2059 L1699.25 27.2059 L1699.25 24.0462 Q1699.25 16.471 1702.78 13.0277 Q1706.3 9.54393 1713.96 9.54393 L1721 9.54393 Z" fill="#000000" fill-rule="nonzero" fill-opacity="1" /><path clip-path="url(#clip840)" d="M1727.24 9.54393 L1734.7 9.54393 L1734.7 72.576 L1727.24 72.576 L1727.24 9.54393 Z" fill="#000000" fill-rule="nonzero" fill-opacity="1" /><path clip-path="url(#clip840)" d="M1767.87 32.4315 Q1761.88 32.4315 1758.39 37.1306 Q1754.91 41.7891 1754.91 49.9314 Q1754.91 58.0738 1758.35 62.7728 Q1761.84 67.4314 1767.87 67.4314 Q1773.83 67.4314 1777.31 62.7323 Q1780.8 58.0333 1780.8 49.9314 Q1780.8 41.8701 1777.31 37.1711 Q1773.83 32.4315 1767.87 32.4315 M1767.87 26.1121 Q1777.6 26.1121 1783.15 32.4315 Q1788.7 38.7509 1788.7 49.9314 Q1788.7 61.0714 1783.15 67.4314 Q1777.6 73.7508 1767.87 73.7508 Q1758.11 73.7508 1752.56 67.4314 Q1747.05 61.0714 1747.05 49.9314 Q1747.05 38.7509 1752.56 32.4315 Q1758.11 26.1121 1767.87 26.1121 Z" fill="#000000" fill-rule="nonzero" fill-opacity="1" /><path clip-path="url(#clip840)" d="M1796.72 27.2059 L1804.17 27.2059 L1813.49 62.6108 L1822.76 27.2059 L1831.55 27.2059 L1840.87 62.6108 L1850.15 27.2059 L1857.6 27.2059 L1845.73 72.576 L1836.94 72.576 L1827.18 35.3887 L1817.38 72.576 L1808.59 72.576 L1796.72 27.2059 Z" fill="#000000" fill-rule="nonzero" fill-opacity="1" /><polyline clip-path="url(#clip842)" style="stroke:#f2f485; stroke-linecap:round; stroke-linejoin:round; stroke-width:4; stroke-opacity:1; fill:none" points="141.853,1477.71 175.258,1457.33 208.663,1452.91 227.542,1451.5 242.068,1450.29 275.473,1448.7 308.879,1447.66 342.284,1446.93 375.689,1446.38 409.094,1445.94 442.499,1445.59 475.904,1445.29 509.309,1445.03 542.715,1444.79 576.12,1444.56 609.525,1444.33 642.93,1444.11 676.335,1443.87 709.74,1443.61 743.145,1443.32 776.551,1443 809.956,1442.63 843.361,1442.19 876.766,1441.68 910.171,1441.07 943.576,1440.34 976.981,1439.44 1010.39,1438.35 1043.79,1436.99 1077.2,1435.28 1110.6,1433.11 1144.01,1430.3 1177.41,1426.59 1210.82,1421.58 1235.42,1416.55 1244.22,1414.63 1277.63,1404.77 1311.03,1389.55 1323.02,1381.6 1344.44,1364.98 1360.04,1346.66 1377.84,1320.59 1382.09,1311.71 1396.91,1276.76 1409.03,1241.81 1411.25,1236.29 1418.81,1206.86 1427.27,1171.92 1444.65,1157.33 1478.06,1154.67 1511.46,1153.06 1544.87,1152.08 1578.27,1151.44 1611.68,1151.03 1645.08,1150.74 1678.49,1150.55 1711.89,1150.41 1745.3,1150.31 1778.7,1150.24 1812.11,1150.19 1845.51,1150.16 1878.92,1150.13 1912.33,1150.11 1945.73,1150.1 1979.14,1150.09 2012.54,1150.08 2045.95,1150.08 2079.35,1150.08 2112.76,1150.07 "/>
<polyline clip-path="url(#clip842)" style="stroke:#f5d948; stroke-linecap:round; stroke-linejoin:round; stroke-width:4; stroke-opacity:1; fill:none" points="2112.76,1106.39 2079.35,1106.4 2045.95,1106.41 2012.54,1106.42 1979.14,1106.44 1945.73,1106.47 1912.33,1106.5 1878.92,1106.55 1845.51,1106.63 1812.11,1106.72 1778.7,1106.86 1745.3,1107.06 1711.89,1107.34 1678.49,1107.72 1645.08,1108.27 1611.68,1109.06 1578.27,1110.19 1544.87,1111.86 1511.46,1114.38 1478.06,1118.37 1444.65,1125.45 1422.92,1136.97 1411.25,1145.05 1379.84,1171.92 1377.84,1175.05 1348.07,1206.86 1344.44,1211.58 1312.15,1241.81 1311.03,1242.94 1277.63,1268.4 1262.94,1276.76 1244.22,1287.73 1210.82,1302.54 1183.73,1311.71 1177.41,1313.85 1144.01,1322.91 1110.6,1329.94 1077.2,1335.51 1043.79,1339.96 1010.39,1343.57 976.981,1346.51 975.069,1346.66 943.576,1348.97 910.171,1350.99 876.766,1352.68 843.361,1354.11 809.956,1355.32 776.551,1356.36 743.145,1357.27 709.74,1358.07 676.335,1358.8 642.93,1359.48 609.525,1360.12 576.12,1360.75 542.715,1361.38 509.309,1362.05 475.904,1362.77 442.499,1363.57 409.094,1364.5 375.689,1365.59 342.284,1366.93 308.879,1368.6 275.473,1370.75 242.068,1373.61 208.663,1377.52 183.447,1381.6 175.258,1382.91 141.853,1390.34 "/>
<polyline clip-path="url(#clip842)" style="stroke:#f1e864; stroke-linecap:round; stroke-linejoin:round; stroke-width:4; stroke-opacity:1; fill:none" points="141.853,1434.03 175.258,1422.32 208.663,1416.56 208.763,1416.55 242.068,1412.73 275.473,1410.21 308.879,1408.44 342.284,1407.14 375.689,1406.13 409.094,1405.32 442.499,1404.65 475.904,1404.08 509.309,1403.57 542.715,1403.1 576.12,1402.66 609.525,1402.22 642.93,1401.78 676.335,1401.31 709.74,1400.81 743.145,1400.25 776.551,1399.62 809.956,1398.89 843.361,1398.05 876.766,1397.06 910.171,1395.87 943.576,1394.45 976.981,1392.73 1010.39,1390.61 1043.79,1388 1077.2,1384.73 1102.62,1381.6 1110.6,1380.61 1144.01,1375.42 1177.41,1368.67 1210.82,1359.71 1244.22,1347.39 1245.78,1346.66 1277.63,1331 1304.83,1311.71 1311.03,1307.21 1341.02,1276.76 1344.44,1273.3 1366.65,1241.81 1377.84,1226.77 1387.89,1206.86 1408.96,1171.92 1411.25,1169.96 1444.65,1142.74 1478.06,1137.42 1483.14,1136.97 1511.46,1134.08 1544.87,1132.13 1578.27,1130.9 1611.68,1130.09 1645.08,1129.54 1678.49,1129.15 1711.89,1128.88 1745.3,1128.69 1778.7,1128.56 1812.11,1128.46 1845.51,1128.39 1878.92,1128.34 1912.33,1128.31 1945.73,1128.28 1979.14,1128.27 2012.54,1128.25 2045.95,1128.24 2079.35,1128.24 2112.76,1128.23 "/>
<polyline clip-path="url(#clip842)" style="stroke:#f8c931; stroke-linecap:round; stroke-linejoin:round; stroke-width:4; stroke-opacity:1; fill:none" points="2112.76,1084.54 2079.35,1084.56 2045.95,1084.57 2012.54,1084.59 1979.14,1084.61 1945.73,1084.64 1912.33,1084.69 1878.92,1084.75 1845.51,1084.84 1812.11,1084.97 1778.7,1085.14 1745.3,1085.39 1711.89,1085.73 1678.49,1086.21 1645.08,1086.89 1611.68,1087.86 1578.27,1089.24 1544.87,1091.26 1511.46,1094.29 1478.06,1099.03 1465.21,1102.02 1444.65,1106.41 1411.25,1121.1 1384.54,1136.97 1377.84,1142.34 1344.44,1167.64 1337.97,1171.92 1311.03,1193.78 1290.75,1206.86 1277.63,1216.38 1244.22,1235.27 1229.68,1241.81 1210.82,1250.75 1177.41,1263.25 1144.01,1273.14 1128.94,1276.76 1110.6,1281.24 1077.2,1287.85 1043.79,1293.2 1010.39,1297.56 976.981,1301.15 943.576,1304.12 910.171,1306.6 876.766,1308.69 843.361,1310.45 815.668,1311.71 809.956,1311.97 776.551,1313.28 743.145,1314.42 709.74,1315.44 676.335,1316.36 642.93,1317.21 609.525,1318.02 576.12,1318.82 542.715,1319.61 509.309,1320.45 475.904,1321.33 442.499,1322.32 409.094,1323.43 375.689,1324.72 342.284,1326.25 308.879,1328.1 275.473,1330.39 242.068,1333.24 208.663,1336.83 175.258,1341.3 141.853,1346.66 "/>
<polyline clip-path="url(#clip842)" style="stroke:#fbb91e; stroke-linecap:round; stroke-linejoin:round; stroke-width:4; stroke-opacity:1; fill:none" points="141.853,1302.97 175.258,1298.83 208.663,1295.13 242.068,1291.96 275.473,1289.28 308.879,1287.03 342.284,1285.13 375.689,1283.51 409.094,1282.11 442.499,1280.87 475.904,1279.77 509.309,1278.75 542.715,1277.79 576.12,1276.87 580.024,1276.76 609.525,1275.94 642.93,1275 676.335,1274.01 709.74,1272.94 743.145,1271.76 776.551,1270.44 809.956,1268.93 843.361,1267.2 876.766,1265.18 910.171,1262.8 943.576,1259.98 976.981,1256.63 1010.39,1252.61 1043.79,1247.77 1077.2,1241.88 1077.54,1241.81 1110.6,1234.96 1144.01,1226.55 1177.41,1216.27 1202.3,1206.86 1210.82,1203.82 1244.22,1189.39 1277.48,1171.92 1277.63,1171.84 1311.03,1153.14 1336.36,1136.97 1344.44,1132.67 1377.84,1113.76 1400.95,1102.02 1411.25,1097.54 1444.65,1085.5 1478.06,1078.27 1511.46,1073.57 1544.87,1070.37 1578.27,1068.14 1601.1,1067.07 1611.68,1066.56 1645.08,1065.44 1678.49,1064.65 1711.89,1064.09 1745.3,1063.69 1778.7,1063.4 1812.11,1063.2 1845.51,1063.05 1878.92,1062.94 1912.33,1062.87 1945.73,1062.82 1979.14,1062.78 2012.54,1062.75 2045.95,1062.73 2079.35,1062.72 2112.76,1062.7 "/>
<polyline clip-path="url(#clip842)" style="stroke:#fbaa0e; stroke-linecap:round; stroke-linejoin:round; stroke-width:4; stroke-opacity:1; fill:none" points="2112.76,1040.86 2079.35,1040.87 2045.95,1040.89 2012.54,1040.91 1979.14,1040.94 1945.73,1040.98 1912.33,1041.04 1878.92,1041.12 1845.51,1041.23 1812.11,1041.39 1778.7,1041.62 1745.3,1041.93 1711.89,1042.36 1678.49,1042.97 1645.08,1043.81 1611.68,1044.99 1578.27,1046.63 1544.87,1048.95 1511.46,1052.23 1478.06,1056.96 1444.65,1063.84 1433.3,1067.07 1411.25,1073.64 1377.84,1086.48 1344.44,1101.28 1342.71,1102.02 1311.03,1117.57 1277.63,1133.17 1268.44,1136.97 1244.22,1148.1 1210.82,1161.27 1179.21,1171.92 1177.41,1172.56 1144.01,1182.58 1110.6,1190.94 1077.2,1197.94 1043.79,1203.81 1023.16,1206.86 1010.39,1208.79 976.981,1213.03 943.576,1216.59 910.171,1219.6 876.766,1222.15 843.361,1224.34 809.956,1226.22 776.551,1227.86 743.145,1229.3 709.74,1230.59 676.335,1231.77 642.93,1232.86 609.525,1233.89 576.12,1234.9 542.715,1235.92 509.309,1236.96 475.904,1238.05 442.499,1239.23 409.094,1240.53 379.757,1241.81 375.689,1241.99 342.284,1243.62 308.879,1245.49 275.473,1247.62 242.068,1250.07 208.663,1252.85 175.258,1255.94 141.853,1259.29 "/>
<polyline clip-path="url(#clip842)" style="stroke:#fb9b06; stroke-linecap:round; stroke-linejoin:round; stroke-width:4; stroke-opacity:1; fill:none" points="141.853,1215.6 175.258,1212.82 208.663,1210.19 242.068,1207.76 255.595,1206.86 275.473,1205.55 308.879,1203.55 342.284,1201.77 375.689,1200.17 409.094,1198.73 442.499,1197.42 475.904,1196.21 509.309,1195.08 542.715,1193.99 576.12,1192.94 609.525,1191.87 642.93,1190.79 676.335,1189.64 709.74,1188.41 743.145,1187.06 776.551,1185.55 809.956,1183.85 843.361,1181.9 876.766,1179.65 910.171,1177.02 943.576,1173.96 962.51,1171.92 976.981,1170.38 1010.39,1166.22 1043.79,1161.34 1077.2,1155.6 1110.6,1148.85 1144.01,1140.93 1158.2,1136.97 1177.41,1131.9 1210.82,1121.72 1244.22,1110.18 1265.18,1102.02 1277.63,1097.63 1311.03,1084.76 1344.44,1071.77 1356.67,1067.07 1377.84,1059.76 1411.25,1049.33 1444.65,1041.02 1478.06,1034.98 1499.8,1032.12 1511.46,1030.56 1544.87,1027.31 1578.27,1024.97 1611.68,1023.29 1645.08,1022.08 1678.49,1021.21 1711.89,1020.58 1745.3,1020.13 1778.7,1019.8 1812.11,1019.57 1845.51,1019.4 1878.92,1019.29 1912.33,1019.2 1945.73,1019.14 1979.14,1019.1 2012.54,1019.07 2045.95,1019.05 2079.35,1019.03 2112.76,1019.02 "/>
<polyline clip-path="url(#clip842)" style="stroke:#f57e14; stroke-linecap:round; stroke-linejoin:round; stroke-width:4; stroke-opacity:1; fill:none" points="2112.76,975.332 2079.35,975.343 2045.95,975.357 2012.54,975.376 1979.14,975.402 1945.73,975.441 1912.33,975.496 1878.92,975.575 1845.51,975.687 1812.11,975.845 1778.7,976.067 1745.3,976.377 1711.89,976.806 1678.49,977.398 1645.08,978.211 1611.68,979.324 1578.27,980.836 1544.87,982.88 1511.46,985.619 1478.06,989.246 1444.65,993.951 1426.01,997.175 1411.25,999.803 1377.84,1006.79 1344.44,1014.72 1311.03,1023.2 1277.63,1031.83 1276.41,1032.12 1244.22,1040.52 1210.82,1048.76 1177.41,1056.37 1144.01,1063.26 1123.19,1067.07 1110.6,1069.49 1077.2,1075.06 1043.79,1079.94 1010.39,1084.17 976.981,1087.85 943.576,1091.04 910.171,1093.8 876.766,1096.2 843.361,1098.29 809.956,1100.13 776.551,1101.75 770.41,1102.02 743.145,1103.21 709.74,1104.53 676.335,1105.74 642.93,1106.87 609.525,1107.95 576.12,1109.01 542.715,1110.06 509.309,1111.12 475.904,1112.23 442.499,1113.38 409.094,1114.61 375.689,1115.93 342.284,1117.35 308.879,1118.89 275.473,1120.55 242.068,1122.32 208.663,1124.21 175.258,1126.19 141.853,1128.23 "/>
<polyline clip-path="url(#clip842)" style="stroke:#f0701e; stroke-linecap:round; stroke-linejoin:round; stroke-width:4; stroke-opacity:1; fill:none" points="141.853,1084.54 175.258,1082.77 208.663,1081.04 242.068,1079.38 275.473,1077.79 308.879,1076.3 342.284,1074.9 375.689,1073.59 409.094,1072.36 442.499,1071.21 475.904,1070.11 509.309,1069.07 542.715,1068.05 575.565,1067.07 576.12,1067.05 609.525,1066.05 642.93,1065.03 676.335,1063.97 709.74,1062.83 743.145,1061.61 776.551,1060.27 809.956,1058.78 843.361,1057.1 876.766,1055.19 910.171,1053.02 943.576,1050.54 976.981,1047.7 1010.39,1044.44 1043.79,1040.71 1077.2,1036.47 1107.37,1032.12 1110.6,1031.67 1144.01,1026.41 1177.41,1020.6 1210.82,1014.28 1244.22,1007.52 1277.63,1000.49 1292.85,997.175 1311.03,993.464 1344.44,986.656 1377.84,980.274 1411.25,974.577 1444.65,969.745 1478.06,965.828 1511.46,962.744 1518.63,962.226 1544.87,960.333 1578.27,958.501 1611.68,957.132 1645.08,956.118 1678.49,955.373 1711.89,954.829 1745.3,954.435 1778.7,954.151 1812.11,953.947 1845.51,953.802 1878.92,953.7 1912.33,953.629 1945.73,953.58 1979.14,953.547 2012.54,953.524 2045.95,953.509 2079.35,953.498 2112.76,953.489 "/>
<polyline clip-path="url(#clip842)" style="stroke:#ea6428; stroke-linecap:round; stroke-linejoin:round; stroke-width:4; stroke-opacity:1; fill:none" points="2112.76,931.647 2079.35,931.652 2045.95,931.659 2012.54,931.67 1979.14,931.687 1945.73,931.714 1912.33,931.754 1878.92,931.814 1845.51,931.901 1812.11,932.025 1778.7,932.201 1745.3,932.446 1711.89,932.788 1678.49,933.258 1645.08,933.9 1611.68,934.769 1578.27,935.933 1544.87,937.474 1511.46,939.485 1478.06,942.064 1444.65,945.288 1411.25,949.191 1377.84,953.721 1344.44,958.751 1322.42,962.226 1311.03,964.123 1277.63,969.696 1244.22,975.258 1210.82,980.645 1177.41,985.74 1144.01,990.468 1110.6,994.79 1090.02,997.175 1077.2,998.717 1043.79,1002.26 1010.39,1005.39 976.981,1008.15 943.576,1010.58 910.171,1012.7 876.766,1014.58 843.361,1016.23 809.956,1017.69 776.551,1019.01 743.145,1020.19 709.74,1021.28 676.335,1022.3 642.93,1023.26 609.525,1024.19 576.12,1025.11 542.715,1026.03 509.309,1026.97 475.904,1027.94 442.499,1028.95 409.094,1030.01 375.689,1031.14 348.1,1032.12 342.284,1032.33 308.879,1033.59 275.473,1034.93 242.068,1036.33 208.663,1037.8 175.258,1039.31 141.853,1040.86 "/>
<polyline clip-path="url(#clip842)" style="stroke:#e35832; stroke-linecap:round; stroke-linejoin:round; stroke-width:4; stroke-opacity:1; fill:none" points="141.853,997.175 175.258,995.825 208.663,994.5 242.068,993.211 275.473,991.97 308.879,990.783 342.284,989.653 375.689,988.583 409.094,987.569 442.499,986.61 475.904,985.698 509.309,984.827 542.715,983.986 576.12,983.167 609.525,982.357 642.93,981.542 676.335,980.709 709.74,979.84 743.145,978.919 776.551,977.925 809.956,976.837 843.361,975.631 876.766,974.283 910.171,972.764 943.576,971.046 976.981,969.1 1010.39,966.898 1043.79,964.414 1069.88,962.226 1077.2,961.632 1110.6,958.568 1144.01,955.198 1177.41,951.535 1210.82,947.614 1244.22,943.496 1277.63,939.266 1311.03,935.038 1344.44,930.944 1376.41,927.278 1377.84,927.121 1411.25,923.664 1444.65,920.654 1478.06,918.133 1511.46,916.09 1544.87,914.479 1578.27,913.237 1611.68,912.295 1645.08,911.59 1678.49,911.07 1711.89,910.689 1745.3,910.414 1778.7,910.218 1812.11,910.078 1845.51,909.981 1878.92,909.915 1912.33,909.87 1945.73,909.841 1979.14,909.823 2012.54,909.813 2045.95,909.807 2079.35,909.805 2112.76,909.804 "/>
<polyline clip-path="url(#clip842)" style="stroke:#d04544; stroke-linecap:round; stroke-linejoin:round; stroke-width:4; stroke-opacity:1; fill:none" points="2112.76,866.119 2079.35,866.11 2045.95,866.101 2012.54,866.093 1979.14,866.088 1945.73,866.085 1912.33,866.087 1878.92,866.096 1845.51,866.114 1812.11,866.147 1778.7,866.198 1745.3,866.277 1711.89,866.393 1678.49,866.559 1645.08,866.792 1611.68,867.112 1578.27,867.544 1544.87,868.114 1511.46,868.851 1478.06,869.778 1444.65,870.913 1411.25,872.253 1377.84,873.78 1344.44,875.459 1311.03,877.24 1277.63,879.071 1244.22,880.9 1210.82,882.683 1177.41,884.384 1144.01,885.978 1110.6,887.448 1077.2,888.788 1043.79,889.998 1010.39,891.082 976.981,892.05 966.013,892.33 943.576,892.915 910.171,893.689 876.766,894.385 843.361,895.018 809.956,895.6 776.551,896.145 743.145,896.666 709.74,897.172 676.335,897.675 642.93,898.184 609.525,898.707 576.12,899.251 542.715,899.823 509.309,900.428 475.904,901.072 442.499,901.757 409.094,902.487 375.689,903.263 342.284,904.085 308.879,904.951 275.473,905.86 242.068,906.806 208.663,907.784 175.258,908.786 141.853,909.804 "/>
<polyline clip-path="url(#clip842)" style="stroke:#c53d4d; stroke-linecap:round; stroke-linejoin:round; stroke-width:4; stroke-opacity:1; fill:none" points="141.853,866.119 175.258,865.245 208.663,864.384 242.068,863.544 275.473,862.731 308.879,861.952 342.284,861.211 375.689,860.511 409.094,859.855 442.499,859.244 475.904,858.679 509.309,858.16 542.715,857.684 565.983,857.382 576.12,857.251 609.525,856.856 642.93,856.499 676.335,856.174 709.74,855.878 743.145,855.605 776.551,855.351 809.956,855.109 843.361,854.872 876.766,854.634 910.171,854.388 943.576,854.123 976.981,853.834 1010.39,853.51 1043.79,853.145 1077.2,852.732 1110.6,852.266 1144.01,851.743 1177.41,851.164 1210.82,850.534 1244.22,849.861 1277.63,849.16 1311.03,848.447 1344.44,847.746 1377.84,847.08 1411.25,846.469 1444.65,845.931 1478.06,845.477 1511.46,845.108 1544.87,844.82 1578.27,844.602 1611.68,844.443 1645.08,844.332 1678.49,844.257 1711.89,844.21 1745.3,844.182 1778.7,844.17 1812.11,844.167 1845.51,844.171 1878.92,844.179 1912.33,844.191 1945.73,844.204 1979.14,844.218 2012.54,844.232 2045.95,844.247 2079.35,844.262 2112.76,844.277 "/>
<polyline clip-path="url(#clip842)" style="stroke:#ae305b; stroke-linecap:round; stroke-linejoin:round; stroke-width:4; stroke-opacity:1; fill:none" points="2112.76,800.591 2079.35,800.566 2045.95,800.539 2012.54,800.51 1979.14,800.478 1945.73,800.441 1912.33,800.397 1878.92,800.345 1845.51,800.282 1812.11,800.204 1778.7,800.106 1745.3,799.984 1711.89,799.829 1678.49,799.633 1645.08,799.385 1611.68,799.071 1578.27,798.674 1544.87,798.178 1511.46,797.562 1478.06,796.811 1444.65,795.912 1411.25,794.862 1377.84,793.668 1344.44,792.348 1311.03,790.928 1277.63,789.44 1244.22,787.915 1234.6,787.486 1210.82,786.383 1177.41,784.874 1144.01,783.416 1110.6,782.029 1077.2,780.728 1043.79,779.525 1010.39,778.425 976.981,777.433 943.576,776.548 910.171,775.771 876.766,775.097 843.361,774.524 809.956,774.047 776.551,773.663 743.145,773.366 709.74,773.153 676.335,773.02 642.93,772.962 609.525,772.976 576.12,773.059 542.715,773.208 509.309,773.418 475.904,773.688 442.499,774.013 409.094,774.391 375.689,774.817 342.284,775.287 308.879,775.797 275.473,776.341 242.068,776.915 208.663,777.511 175.258,778.125 141.853,778.749 "/>
<polyline clip-path="url(#clip842)" style="stroke:#a12b61; stroke-linecap:round; stroke-linejoin:round; stroke-width:4; stroke-opacity:1; fill:none" points="141.853,735.064 175.258,734.549 208.663,734.043 242.068,733.553 275.473,733.085 308.879,732.646 342.284,732.242 375.689,731.877 409.094,731.559 442.499,731.291 475.904,731.079 509.309,730.929 542.715,730.846 576.12,730.835 609.525,730.903 642.93,731.055 676.335,731.299 709.74,731.642 743.145,732.092 776.551,732.657 809.956,733.348 843.361,734.174 876.766,735.146 910.171,736.273 943.576,737.566 976.981,739.034 1010.39,740.682 1043.79,742.516 1077.2,744.534 1110.6,746.731 1144.01,749.092 1177.41,751.595 1189.23,752.538 1210.82,754.192 1244.22,756.847 1277.63,759.515 1311.03,762.138 1344.44,764.65 1377.84,766.992 1411.25,769.108 1444.65,770.963 1478.06,772.542 1511.46,773.85 1544.87,774.911 1578.27,775.756 1611.68,776.422 1645.08,776.942 1678.49,777.345 1711.89,777.657 1745.3,777.899 1778.7,778.086 1812.11,778.231 1845.51,778.344 1878.92,778.434 1912.33,778.505 1945.73,778.563 1979.14,778.61 2012.54,778.651 2045.95,778.686 2079.35,778.718 2112.76,778.749 "/>
<polyline clip-path="url(#clip842)" style="stroke:#952666; stroke-linecap:round; stroke-linejoin:round; stroke-width:4; stroke-opacity:1; fill:none" points="2112.76,756.906 2079.35,756.871 2045.95,756.834 2012.54,756.793 1979.14,756.745 1945.73,756.688 1912.33,756.617 1878.92,756.528 1845.51,756.414 1812.11,756.267 1778.7,756.077 1745.3,755.83 1711.89,755.506 1678.49,755.082 1645.08,754.528 1611.68,753.808 1578.27,752.877 1568.66,752.538 1544.87,751.692 1511.46,750.198 1478.06,748.343 1444.65,746.087 1411.25,743.415 1377.84,740.348 1344.44,736.943 1311.03,733.284 1277.63,729.472 1244.22,725.607 1210.82,721.78 1177.41,718.068 1172.77,717.59 1144.01,714.496 1110.6,711.141 1077.2,708.04 1043.79,705.207 1010.39,702.647 976.981,700.354 943.576,698.32 910.171,696.528 876.766,694.965 843.361,693.612 809.956,692.453 776.551,691.472 743.145,690.651 709.74,689.978 676.335,689.438 642.93,689.019 609.525,688.71 576.12,688.501 542.715,688.382 509.309,688.346 475.904,688.384 442.499,688.489 409.094,688.654 375.689,688.874 342.284,689.14 308.879,689.448 275.473,689.791 242.068,690.161 208.663,690.554 175.258,690.962 141.853,691.379 "/>
<polyline clip-path="url(#clip842)" style="stroke:#88216a; stroke-linecap:round; stroke-linejoin:round; stroke-width:4; stroke-opacity:1; fill:none" points="141.853,647.694 175.258,647.365 208.663,647.045 242.068,646.739 275.473,646.455 308.879,646.2 342.284,645.979 375.689,645.8 409.094,645.67 442.499,645.597 475.904,645.588 509.309,645.651 542.715,645.796 576.12,646.032 609.525,646.37 642.93,646.822 676.335,647.402 689.777,647.694 709.74,648.123 743.145,649 776.551,650.053 809.956,651.301 843.361,652.767 876.766,654.473 910.171,656.444 943.576,658.705 976.981,661.28 1010.39,664.193 1043.79,667.462 1077.2,671.1 1110.6,675.11 1144.01,679.479 1166.28,682.642 1177.41,684.15 1210.82,689.032 1244.22,694.098 1277.63,699.241 1311.03,704.33 1344.44,709.215 1377.84,713.746 1409.46,717.59 1411.25,717.799 1444.65,721.333 1478.06,724.299 1511.46,726.716 1544.87,728.641 1578.27,730.148 1611.68,731.314 1645.08,732.208 1678.49,732.89 1711.89,733.409 1745.3,733.802 1778.7,734.1 1812.11,734.328 1845.51,734.501 1878.92,734.635 1912.33,734.738 1945.73,734.82 1979.14,734.885 2012.54,734.939 2045.95,734.984 2079.35,735.025 2112.76,735.064 "/>
<polyline clip-path="url(#clip842)" style="stroke:#6e186e; stroke-linecap:round; stroke-linejoin:round; stroke-width:4; stroke-opacity:1; fill:none" points="2112.76,691.379 2079.35,691.336 2045.95,691.29 2012.54,691.238 1979.14,691.177 1945.73,691.101 1912.33,691.004 1878.92,690.88 1845.51,690.718 1812.11,690.504 1778.7,690.222 1745.3,689.845 1711.89,689.344 1678.49,688.675 1645.08,687.783 1611.68,686.596 1578.27,685.02 1544.87,682.941 1541.13,682.642 1511.46,680.268 1478.06,676.832 1444.65,672.478 1411.25,667.104 1377.84,660.749 1344.44,653.596 1318.46,647.694 1311.03,645.89 1277.63,637.808 1244.22,629.72 1210.82,621.881 1177.41,614.467 1168.88,612.745 1144.01,607.445 1110.6,601.006 1077.2,595.214 1043.79,590.05 1010.39,585.481 976.981,581.463 943.576,577.949 941.907,577.797 910.171,574.852 876.766,572.177 843.361,569.877 809.956,567.908 776.551,566.232 743.145,564.812 709.74,563.618 676.335,562.623 642.93,561.801 609.525,561.133 576.12,560.599 542.715,560.183 509.309,559.871 475.904,559.649 442.499,559.507 409.094,559.434 375.689,559.42 342.284,559.457 308.879,559.537 275.473,559.652 242.068,559.795 208.663,559.959 175.258,560.138 141.853,560.323 "/>
<polyline clip-path="url(#clip842)" style="stroke:#62146e; stroke-linecap:round; stroke-linejoin:round; stroke-width:4; stroke-opacity:1; fill:none" points="141.853,516.638 175.258,516.509 208.663,516.386 242.068,516.278 275.473,516.189 308.879,516.128 342.284,516.102 375.689,516.118 409.094,516.184 442.499,516.311 475.904,516.506 509.309,516.783 542.715,517.151 576.12,517.627 609.525,518.224 642.93,518.961 676.335,519.858 709.74,520.939 743.145,522.231 776.551,523.764 809.956,525.575 843.361,527.704 876.766,530.198 910.171,533.108 943.576,536.496 976.981,540.428 994.709,542.849 1010.39,544.932 1043.79,550.044 1077.2,555.875 1110.6,562.49 1144.01,569.938 1175.58,577.797 1177.41,578.228 1210.82,587.009 1244.22,596.428 1277.63,606.28 1298.91,612.745 1311.03,616.141 1344.44,625.578 1377.84,634.345 1411.25,642.027 1440.95,647.694 1444.65,648.38 1478.06,653.522 1511.46,657.495 1544.87,660.514 1578.27,662.786 1611.68,664.489 1645.08,665.761 1678.49,666.71 1711.89,667.418 1745.3,667.946 1778.7,668.34 1812.11,668.636 1845.51,668.858 1878.92,669.027 1912.33,669.155 1945.73,669.254 1979.14,669.332 2012.54,669.394 2045.95,669.447 2079.35,669.493 2112.76,669.536 "/>
<polyline clip-path="url(#clip842)" style="stroke:#480b6a; stroke-linecap:round; stroke-linejoin:round; stroke-width:4; stroke-opacity:1; fill:none" points="2112.76,625.851 2079.35,625.811 2045.95,625.767 2012.54,625.718 1979.14,625.658 1945.73,625.584 1912.33,625.488 1878.92,625.364 1845.51,625.199 1812.11,624.98 1778.7,624.687 1745.3,624.292 1711.89,623.759 1678.49,623.036 1645.08,622.052 1611.68,620.71 1578.27,618.87 1544.87,616.338 1511.46,612.839 1510.81,612.745 1478.06,608.176 1444.65,601.743 1411.25,592.847 1377.84,581.619 1367.34,577.797 1344.44,568.503 1311.03,554.299 1283.75,542.849 1277.63,539.947 1244.22,525.709 1210.82,512.766 1196.56,507.901 1177.41,500.868 1144.01,490.286 1110.6,481.148 1077.2,473.278 1075.58,472.953 1043.79,466.325 1010.39,460.404 976.981,455.367 943.576,451.082 910.171,447.437 876.766,444.339 843.361,441.706 809.956,439.473 784.033,438.005 776.551,437.578 743.145,435.968 709.74,434.616 676.335,433.483 642.93,432.539 609.525,431.757 576.12,431.115 542.715,430.593 509.309,430.175 475.904,429.846 442.499,429.594 409.094,429.408 375.689,429.277 342.284,429.194 308.879,429.149 275.473,429.136 242.068,429.148 208.663,429.178 175.258,429.22 141.853,429.268 "/>
<polyline clip-path="url(#clip842)" style="stroke:#3b0964; stroke-linecap:round; stroke-linejoin:round; stroke-width:4; stroke-opacity:1; fill:none" points="141.853,385.583 175.258,385.561 208.663,385.544 242.068,385.539 275.473,385.55 308.879,385.584 342.284,385.646 375.689,385.745 409.094,385.887 442.499,386.08 475.904,386.334 509.309,386.659 542.715,387.067 576.12,387.573 609.525,388.191 642.93,388.942 676.335,389.846 709.74,390.93 743.145,392.224 776.551,393.765 809.956,395.596 843.361,397.771 876.766,400.351 906.286,403.057 910.171,403.409 943.576,406.984 976.981,411.214 1010.39,416.225 1043.79,422.171 1077.2,429.244 1110.6,437.685 1111.67,438.005 1144.01,447.314 1177.41,458.681 1210.82,472.147 1212.5,472.953 1244.22,486.886 1277.63,503.695 1284.84,507.901 1311.03,521.134 1344.44,538.866 1351.71,542.849 1377.84,555.032 1411.25,568.777 1440.3,577.797 1444.65,579.09 1478.06,586.372 1511.46,591.37 1544.87,594.862 1578.27,597.343 1611.68,599.125 1645.08,600.415 1678.49,601.354 1711.89,602.041 1745.3,602.546 1778.7,602.919 1812.11,603.195 1845.51,603.401 1878.92,603.555 1912.33,603.672 1945.73,603.761 1979.14,603.83 2012.54,603.885 2045.95,603.931 2079.35,603.971 2112.76,604.008 "/>
<polyline clip-path="url(#clip842)" style="stroke:#2d0a58; stroke-linecap:round; stroke-linejoin:round; stroke-width:4; stroke-opacity:1; fill:none" points="2112.76,582.166 2079.35,582.133 2045.95,582.097 2012.54,582.057 1979.14,582.007 1945.73,581.945 1912.33,581.866 1878.92,581.761 1845.51,581.622 1812.11,581.436 1778.7,581.186 1745.3,580.846 1711.89,580.384 1678.49,579.749 1645.08,578.873 1615.64,577.797 1611.68,577.655 1578.27,575.974 1544.87,573.611 1511.46,570.243 1478.06,565.325 1444.65,557.757 1411.25,545.081 1406.31,542.849 1377.84,527.811 1344.93,507.901 1344.44,507.519 1311.03,484.89 1291.15,472.953 1277.63,463.534 1244.22,444.329 1231.04,438.005 1210.82,427.521 1177.41,413.346 1147.99,403.057 1144.01,401.607 1110.6,391.517 1077.2,383.231 1043.79,376.375 1010.39,370.672 992.49,368.109 976.981,365.862 943.576,361.808 910.171,358.421 876.766,355.585 843.361,353.206 809.956,351.207 776.551,349.528 743.145,348.118 709.74,346.935 676.335,345.944 642.93,345.118 609.525,344.431 576.12,343.863 542.715,343.397 509.309,343.019 475.904,342.715 442.499,342.474 409.094,342.288 375.689,342.148 342.284,342.046 308.879,341.975 275.473,341.93 242.068,341.905 208.663,341.894 175.258,341.894 141.853,341.898 "/>
<polyline clip-path="url(#clip842)" style="stroke:#1f0c47; stroke-linecap:round; stroke-linejoin:round; stroke-width:4; stroke-opacity:1; fill:none" points="141.853,298.213 141.853,298.213 175.258,298.219 208.663,298.23 242.068,298.249 275.473,298.28 308.879,298.328 342.284,298.397 375.689,298.493 409.094,298.621 442.499,298.788 475.904,299 509.309,299.267 542.715,299.597 576.12,300.001 609.525,300.492 642.93,301.086 676.335,301.8 709.74,302.655 743.145,303.677 776.551,304.896 809.956,306.351 843.361,308.086 876.766,310.159 910.171,312.637 943.576,315.61 976.981,319.188 1010.39,323.514 1043.79,328.775 1066.7,333.161 1077.2,335.154 1110.6,342.811 1144.01,352.259 1177.41,364.073 1186.66,368.109 1210.82,378.319 1244.22,396.058 1254.69,403.057 1277.63,417.341 1303.78,438.005 1311.03,443.06 1344.44,471.906 1345.37,472.953 1377.84,499.024 1388.54,507.901 1411.25,521.805 1444.65,537.239 1470.11,542.849 1478.06,544.767 1511.46,549.701 1544.87,552.874 1578.27,555.011 1611.68,556.49 1645.08,557.535 1678.49,558.281 1711.89,558.82 1745.3,559.212 1778.7,559.499 1812.11,559.71 1845.51,559.867 1878.92,559.984 1912.33,560.072 1945.73,560.139 1979.14,560.191 2012.54,560.232 2045.95,560.266 2079.35,560.296 2112.76,560.323 "/>
<polyline clip-path="url(#clip842)" style="stroke:#090621; stroke-linecap:round; stroke-linejoin:round; stroke-width:4; stroke-opacity:1; fill:none" points="2112.76,516.638 2079.35,516.624 2045.95,516.608 2012.54,516.589 1979.14,516.567 1945.73,516.539 1912.33,516.503 1878.92,516.456 1845.51,516.393 1812.11,516.308 1778.7,516.193 1745.3,516.036 1711.89,515.82 1678.49,515.522 1645.08,515.104 1611.68,514.511 1578.27,513.651 1544.87,512.364 1511.46,510.342 1488.27,507.901 1478.06,506.964 1444.65,501.613 1411.25,473.451 1410.68,472.953 1390.59,438.005 1377.84,411.539 1371.93,403.057 1349.9,368.109 1344.44,359.473 1321.63,333.161 1311.03,321.481 1281.9,298.213 1277.63,294.972 1244.22,275.633 1214.38,263.265 1210.82,261.842 1177.41,251.241 1144.01,243.263 1110.6,237.111 1077.2,232.278 1043.79,228.427 1042.63,228.316 1010.39,225.283 976.981,222.737 943.576,220.658 910.171,218.95 876.766,217.54 843.361,216.37 809.956,215.397 776.551,214.586 743.145,213.908 709.74,213.343 676.335,212.87 642.93,212.477 609.525,212.149 576.12,211.878 542.715,211.655 509.309,211.472 475.904,211.323 442.499,211.203 409.094,211.108 375.689,211.034 342.284,210.977 308.879,210.934 275.473,210.902 242.068,210.88 208.663,210.864 175.258,210.852 141.853,210.842 "/>
<polyline clip-path="url(#clip842)" style="stroke:#020210; stroke-linecap:round; stroke-linejoin:round; stroke-width:4; stroke-opacity:1; fill:none" points="141.853,167.157 175.258,167.163 208.663,167.17 242.068,167.179 275.473,167.191 308.879,167.208 342.284,167.23 375.689,167.26 409.094,167.299 442.499,167.348 475.904,167.409 509.309,167.486 542.715,167.58 576.12,167.694 609.525,167.833 642.93,168.001 676.335,168.203 709.74,168.445 743.145,168.735 776.551,169.082 809.956,169.499 843.361,169.998 876.766,170.6 910.171,171.326 943.576,172.207 976.981,173.281 1010.39,174.6 1043.79,176.233 1077.2,178.275 1110.6,180.864 1144.01,184.195 1177.41,188.569 1205.06,193.368 1210.82,194.43 1244.22,202.376 1277.63,213.85 1305.78,228.316 1311.03,231.352 1344.44,259.483 1347.56,263.265 1371.63,298.213 1377.84,308.983 1388.03,333.161 1400.4,368.109 1411.11,403.057 1411.25,403.426 1419.82,438.005 1427.78,472.953 1444.65,487.283 1478.06,489.959 1511.46,491.593 1544.87,492.609 1578.27,493.267 1611.68,493.708 1645.08,494.012 1678.49,494.226 1711.89,494.378 1745.3,494.489 1778.7,494.569 1812.11,494.627 1845.51,494.671 1878.92,494.703 1912.33,494.727 1945.73,494.745 1979.14,494.76 2012.54,494.771 2045.95,494.78 2079.35,494.788 2112.76,494.796 "/>
<polyline clip-path="url(#clip842)" style="stroke:#130a34; stroke-linecap:round; stroke-linejoin:round; stroke-width:4; stroke-opacity:1; fill:none" points="2112.76,538.481 2079.35,538.459 2045.95,538.436 2012.54,538.409 1979.14,538.377 1945.73,538.336 1912.33,538.283 1878.92,538.214 1845.51,538.121 1812.11,537.998 1778.7,537.83 1745.3,537.602 1711.89,537.29 1678.49,536.859 1645.08,536.26 1611.68,535.417 1578.27,534.215 1544.87,532.466 1511.46,529.849 1478.06,525.736 1444.65,518.447 1425.18,507.901 1411.25,498.031 1382.67,472.953 1377.84,465.111 1353.7,438.005 1344.44,425.241 1322.54,403.057 1311.03,390.311 1284.28,368.109 1277.63,362.38 1244.22,340.321 1230.12,333.161 1210.82,323.241 1177.41,309.941 1144.01,299.657 1138.23,298.213 1110.6,291.305 1077.2,284.65 1043.79,279.313 1010.39,274.987 976.981,271.451 943.576,268.542 910.171,266.135 876.766,264.136 859.375,263.265 843.361,262.464 809.956,261.065 776.551,259.897 743.145,258.92 709.74,258.105 676.335,257.423 642.93,256.855 609.525,256.383 576.12,255.992 542.715,255.67 509.309,255.406 475.904,255.193 442.499,255.022 409.094,254.887 375.689,254.782 342.284,254.702 308.879,254.643 275.473,254.601 242.068,254.571 208.663,254.552 175.258,254.538 141.853,254.527 "/>
<polyline clip-path="url(#clip842)" style="stroke:#550f6d; stroke-linecap:round; stroke-linejoin:round; stroke-width:4; stroke-opacity:1; fill:none" points="141.853,472.953 175.258,472.87 208.663,472.793 242.068,472.73 275.473,472.685 308.879,472.668 342.284,472.683 375.689,472.74 409.094,472.847 430.634,472.953 442.499,473.012 475.904,473.245 509.309,473.558 542.715,473.962 576.12,474.474 609.525,475.108 642.93,475.883 676.335,476.822 709.74,477.948 743.145,479.292 776.551,480.887 809.956,482.772 843.361,484.992 876.766,487.6 910.171,490.657 943.576,494.233 976.981,498.411 1010.39,503.283 1037.57,507.901 1043.79,508.927 1077.2,515.31 1110.6,522.64 1144.01,531.016 1177.41,540.526 1184.55,542.849 1210.82,550.809 1244.22,561.945 1277.63,573.835 1288.02,577.797 1311.03,585.732 1344.44,597.281 1377.84,607.981 1394.53,612.745 1411.25,617.235 1444.65,624.842 1478.06,630.679 1511.46,635.045 1544.87,638.292 1578.27,640.702 1611.68,642.492 1645.08,643.819 1678.49,644.804 1711.89,645.535 1745.3,646.079 1778.7,646.483 1812.11,646.785 1845.51,647.012 1878.92,647.183 1912.33,647.312 1945.73,647.412 1979.14,647.49 2012.54,647.553 2045.95,647.605 2079.35,647.651 2112.76,647.694 "/>
<polyline clip-path="url(#clip842)" style="stroke:#7b1d6c; stroke-linecap:round; stroke-linejoin:round; stroke-width:4; stroke-opacity:1; fill:none" points="2112.76,713.221 2079.35,713.18 2045.95,713.136 2012.54,713.086 1979.14,713.028 1945.73,712.956 1912.33,712.865 1878.92,712.749 1845.51,712.599 1812.11,712.402 1778.7,712.142 1745.3,711.799 1711.89,711.345 1678.49,710.743 1645.08,709.948 1611.68,708.899 1578.27,707.522 1544.87,705.727 1511.46,703.413 1478.06,700.469 1444.65,696.803 1411.25,692.369 1377.84,687.21 1351.08,682.642 1344.44,681.452 1311.03,675.222 1277.63,668.73 1244.22,662.194 1210.82,655.799 1177.41,649.685 1165.59,647.694 1144.01,643.868 1110.6,638.466 1077.2,633.553 1043.79,629.131 1010.39,625.185 976.981,621.691 943.576,618.617 910.171,615.928 876.766,613.59 862.745,612.745 843.361,611.559 809.956,609.81 776.551,608.32 743.145,607.06 709.74,606.005 676.335,605.131 642.93,604.416 609.525,603.844 576.12,603.397 542.715,603.062 509.309,602.825 475.904,602.675 442.499,602.601 409.094,602.595 375.689,602.647 342.284,602.749 308.879,602.894 275.473,603.074 242.068,603.283 208.663,603.512 175.258,603.757 141.853,604.008 "/>
<polyline clip-path="url(#clip842)" style="stroke:#ba3655; stroke-linecap:round; stroke-linejoin:round; stroke-width:4; stroke-opacity:1; fill:none" points="141.853,822.434 175.258,821.691 208.663,820.96 242.068,820.246 275.473,819.558 308.879,818.9 342.284,818.277 375.689,817.695 409.094,817.156 442.499,816.663 475.904,816.219 509.309,815.825 542.715,815.482 576.12,815.191 609.525,814.953 642.93,814.767 676.335,814.633 709.74,814.552 743.145,814.522 776.551,814.542 809.956,814.613 843.361,814.733 876.766,814.9 910.171,815.112 943.576,815.368 976.981,815.664 1010.39,815.996 1043.79,816.361 1077.2,816.753 1110.6,817.166 1144.01,817.594 1177.41,818.029 1210.82,818.464 1244.22,818.89 1277.63,819.299 1311.03,819.686 1344.44,820.044 1377.84,820.37 1411.25,820.661 1444.65,820.917 1478.06,821.139 1511.46,821.33 1544.87,821.494 1578.27,821.634 1611.68,821.753 1645.08,821.855 1678.49,821.942 1711.89,822.016 1745.3,822.08 1778.7,822.136 1812.11,822.183 1845.51,822.225 1878.92,822.261 1912.33,822.293 1945.73,822.321 1979.14,822.347 2012.54,822.371 2045.95,822.393 2079.35,822.414 2112.76,822.434 "/>
<polyline clip-path="url(#clip842)" style="stroke:#da4e3b; stroke-linecap:round; stroke-linejoin:round; stroke-width:4; stroke-opacity:1; fill:none" points="2112.76,887.962 2079.35,887.958 2045.95,887.955 2012.54,887.954 1979.14,887.957 1945.73,887.965 1912.33,887.982 1878.92,888.01 1845.51,888.054 1812.11,888.121 1778.7,888.22 1745.3,888.362 1711.89,888.563 1678.49,888.843 1645.08,889.229 1611.68,889.752 1578.27,890.451 1544.87,891.37 1517.69,892.33 1511.46,892.553 1478.06,894.032 1444.65,895.845 1411.25,897.997 1377.84,900.464 1344.44,903.189 1311.03,906.092 1277.63,909.085 1244.22,912.082 1210.82,915.006 1177.41,917.799 1144.01,920.419 1110.6,922.838 1077.2,925.044 1043.79,927.037 1039.21,927.278 1010.39,928.835 976.981,930.436 943.576,931.858 910.171,933.12 876.766,934.243 843.361,935.249 809.956,936.157 776.551,936.987 743.145,937.756 709.74,938.481 676.335,939.177 642.93,939.857 609.525,940.534 576.12,941.218 542.715,941.92 509.309,942.648 475.904,943.41 442.499,944.213 409.094,945.06 375.689,945.955 342.284,946.901 308.879,947.897 275.473,948.942 242.068,950.031 208.663,951.157 175.258,952.313 141.853,953.489 "/>
<polyline clip-path="url(#clip842)" style="stroke:#f98c09; stroke-linecap:round; stroke-linejoin:round; stroke-width:4; stroke-opacity:1; fill:none" points="141.853,1171.92 175.258,1169.55 208.663,1167.28 242.068,1165.13 275.473,1163.15 308.879,1161.32 342.284,1159.66 375.689,1158.14 409.094,1156.74 442.499,1155.46 475.904,1154.26 509.309,1153.13 542.715,1152.04 576.12,1150.97 609.525,1149.89 642.93,1148.79 676.335,1147.63 709.74,1146.39 743.145,1145.03 776.551,1143.52 809.956,1141.82 843.361,1139.88 876.766,1137.65 885.588,1136.97 910.171,1135.09 943.576,1132.14 976.981,1128.71 1010.39,1124.73 1043.79,1120.09 1077.2,1114.71 1110.6,1108.46 1140.38,1102.02 1144.01,1101.27 1177.41,1093.33 1210.82,1084.42 1244.22,1074.57 1267.51,1067.07 1277.63,1064.08 1311.03,1053.51 1344.44,1043.03 1377.84,1033.26 1382.07,1032.12 1411.25,1024.73 1444.65,1017.68 1478.06,1012.27 1511.46,1008.23 1544.87,1005.23 1578.27,1003.03 1611.68,1001.41 1645.08,1000.23 1678.49,999.369 1711.89,998.743 1745.3,998.29 1778.7,997.963 1812.11,997.728 1845.51,997.56 1878.92,997.441 1912.33,997.356 1945.73,997.297 1979.14,997.255 2012.54,997.225 2045.95,997.204 2079.35,997.188 2112.76,997.175 "/>
<defs>
  <clipPath id="clip843">
    <rect x="2160" y="123" width="73" height="1364"/>
  </clipPath>
</defs>
<polyline clip-path="url(#clip843)" style="stroke:#030212; stroke-linecap:round; stroke-linejoin:round; stroke-width:4; stroke-opacity:1; fill:none" points="2160.76,1443.85 2232.76,1443.85 "/>
<polyline clip-path="url(#clip843)" style="stroke:#0a0723; stroke-linecap:round; stroke-linejoin:round; stroke-width:4; stroke-opacity:1; fill:none" points="2160.76,1401.26 2232.76,1401.26 "/>
<polyline clip-path="url(#clip843)" style="stroke:#140b36; stroke-linecap:round; stroke-linejoin:round; stroke-width:4; stroke-opacity:1; fill:none" points="2160.76,1358.67 2232.76,1358.67 "/>
<polyline clip-path="url(#clip843)" style="stroke:#200c4a; stroke-linecap:round; stroke-linejoin:round; stroke-width:4; stroke-opacity:1; fill:none" points="2160.76,1316.08 2232.76,1316.08 "/>
<polyline clip-path="url(#clip843)" style="stroke:#2e0a5a; stroke-linecap:round; stroke-linejoin:round; stroke-width:4; stroke-opacity:1; fill:none" points="2160.76,1273.48 2232.76,1273.48 "/>
<polyline clip-path="url(#clip843)" style="stroke:#3c0965; stroke-linecap:round; stroke-linejoin:round; stroke-width:4; stroke-opacity:1; fill:none" points="2160.76,1230.89 2232.76,1230.89 "/>
<polyline clip-path="url(#clip843)" style="stroke:#4a0b6a; stroke-linecap:round; stroke-linejoin:round; stroke-width:4; stroke-opacity:1; fill:none" points="2160.76,1188.3 2232.76,1188.3 "/>
<polyline clip-path="url(#clip843)" style="stroke:#570f6d; stroke-linecap:round; stroke-linejoin:round; stroke-width:4; stroke-opacity:1; fill:none" points="2160.76,1145.7 2232.76,1145.7 "/>
<polyline clip-path="url(#clip843)" style="stroke:#63146e; stroke-linecap:round; stroke-linejoin:round; stroke-width:4; stroke-opacity:1; fill:none" points="2160.76,1103.11 2232.76,1103.11 "/>
<polyline clip-path="url(#clip843)" style="stroke:#70196e; stroke-linecap:round; stroke-linejoin:round; stroke-width:4; stroke-opacity:1; fill:none" points="2160.76,1060.52 2232.76,1060.52 "/>
<polyline clip-path="url(#clip843)" style="stroke:#7d1d6c; stroke-linecap:round; stroke-linejoin:round; stroke-width:4; stroke-opacity:1; fill:none" points="2160.76,1017.92 2232.76,1017.92 "/>
<polyline clip-path="url(#clip843)" style="stroke:#892269; stroke-linecap:round; stroke-linejoin:round; stroke-width:4; stroke-opacity:1; fill:none" points="2160.76,975.332 2232.76,975.332 "/>
<polyline clip-path="url(#clip843)" style="stroke:#962666; stroke-linecap:round; stroke-linejoin:round; stroke-width:4; stroke-opacity:1; fill:none" points="2160.76,932.739 2232.76,932.739 "/>
<polyline clip-path="url(#clip843)" style="stroke:#a32b61; stroke-linecap:round; stroke-linejoin:round; stroke-width:4; stroke-opacity:1; fill:none" points="2160.76,890.146 2232.76,890.146 "/>
<polyline clip-path="url(#clip843)" style="stroke:#af315b; stroke-linecap:round; stroke-linejoin:round; stroke-width:4; stroke-opacity:1; fill:none" points="2160.76,847.553 2232.76,847.553 "/>
<polyline clip-path="url(#clip843)" style="stroke:#bb3754; stroke-linecap:round; stroke-linejoin:round; stroke-width:4; stroke-opacity:1; fill:none" points="2160.76,804.96 2232.76,804.96 "/>
<polyline clip-path="url(#clip843)" style="stroke:#c53d4d; stroke-linecap:round; stroke-linejoin:round; stroke-width:4; stroke-opacity:1; fill:none" points="2160.76,762.367 2232.76,762.367 "/>
<polyline clip-path="url(#clip843)" style="stroke:#d04544; stroke-linecap:round; stroke-linejoin:round; stroke-width:4; stroke-opacity:1; fill:none" points="2160.76,719.774 2232.76,719.774 "/>
<polyline clip-path="url(#clip843)" style="stroke:#da4e3b; stroke-linecap:round; stroke-linejoin:round; stroke-width:4; stroke-opacity:1; fill:none" points="2160.76,677.181 2232.76,677.181 "/>
<polyline clip-path="url(#clip843)" style="stroke:#e35832; stroke-linecap:round; stroke-linejoin:round; stroke-width:4; stroke-opacity:1; fill:none" points="2160.76,634.588 2232.76,634.588 "/>
<polyline clip-path="url(#clip843)" style="stroke:#ea6428; stroke-linecap:round; stroke-linejoin:round; stroke-width:4; stroke-opacity:1; fill:none" points="2160.76,591.995 2232.76,591.995 "/>
<polyline clip-path="url(#clip843)" style="stroke:#f0701e; stroke-linecap:round; stroke-linejoin:round; stroke-width:4; stroke-opacity:1; fill:none" points="2160.76,549.402 2232.76,549.402 "/>
<polyline clip-path="url(#clip843)" style="stroke:#f57e14; stroke-linecap:round; stroke-linejoin:round; stroke-width:4; stroke-opacity:1; fill:none" points="2160.76,506.809 2232.76,506.809 "/>
<polyline clip-path="url(#clip843)" style="stroke:#f98c09; stroke-linecap:round; stroke-linejoin:round; stroke-width:4; stroke-opacity:1; fill:none" points="2160.76,464.216 2232.76,464.216 "/>
<polyline clip-path="url(#clip843)" style="stroke:#fb9b06; stroke-linecap:round; stroke-linejoin:round; stroke-width:4; stroke-opacity:1; fill:none" points="2160.76,421.623 2232.76,421.623 "/>
<polyline clip-path="url(#clip843)" style="stroke:#fbaa0e; stroke-linecap:round; stroke-linejoin:round; stroke-width:4; stroke-opacity:1; fill:none" points="2160.76,379.03 2232.76,379.03 "/>
<polyline clip-path="url(#clip843)" style="stroke:#fbb91e; stroke-linecap:round; stroke-linejoin:round; stroke-width:4; stroke-opacity:1; fill:none" points="2160.76,336.437 2232.76,336.437 "/>
<polyline clip-path="url(#clip843)" style="stroke:#f8c931; stroke-linecap:round; stroke-linejoin:round; stroke-width:4; stroke-opacity:1; fill:none" points="2160.76,293.844 2232.76,293.844 "/>
<polyline clip-path="url(#clip843)" style="stroke:#f5d948; stroke-linecap:round; stroke-linejoin:round; stroke-width:4; stroke-opacity:1; fill:none" points="2160.76,251.251 2232.76,251.251 "/>
<polyline clip-path="url(#clip843)" style="stroke:#f1e864; stroke-linecap:round; stroke-linejoin:round; stroke-width:4; stroke-opacity:1; fill:none" points="2160.76,208.658 2232.76,208.658 "/>
<polyline clip-path="url(#clip843)" style="stroke:#f2f485; stroke-linecap:round; stroke-linejoin:round; stroke-width:4; stroke-opacity:1; fill:none" points="2160.76,166.065 2232.76,166.065 "/>
<path clip-path="url(#clip840)" d="M2268.76 1483.27 L2298.43 1483.27 L2298.43 1487.21 L2268.76 1487.21 L2268.76 1483.27 Z" fill="#000000" fill-rule="nonzero" fill-opacity="1" /><path clip-path="url(#clip840)" d="M2312.55 1496.16 L2328.87 1496.16 L2328.87 1500.1 L2306.93 1500.1 L2306.93 1496.16 Q2309.59 1493.41 2314.17 1488.78 Q2318.78 1484.13 2319.96 1482.78 Q2322.2 1480.26 2323.08 1478.53 Q2323.99 1476.77 2323.99 1475.08 Q2323.99 1472.32 2322.04 1470.59 Q2320.12 1468.85 2317.02 1468.85 Q2314.82 1468.85 2312.37 1469.61 Q2309.94 1470.38 2307.16 1471.93 L2307.16 1467.21 Q2309.98 1466.07 2312.44 1465.49 Q2314.89 1464.91 2316.93 1464.91 Q2322.3 1464.91 2325.49 1467.6 Q2328.69 1470.28 2328.69 1474.78 Q2328.69 1476.9 2327.88 1478.83 Q2327.09 1480.72 2324.98 1483.32 Q2324.4 1483.99 2321.3 1487.21 Q2318.2 1490.4 2312.55 1496.16 Z" fill="#000000" fill-rule="nonzero" fill-opacity="1" /><path clip-path="url(#clip840)" d="M2338.69 1494.22 L2343.57 1494.22 L2343.57 1500.1 L2338.69 1500.1 L2338.69 1494.22 Z" fill="#000000" fill-rule="nonzero" fill-opacity="1" /><path clip-path="url(#clip840)" d="M2363.76 1468.62 Q2360.14 1468.62 2358.32 1472.18 Q2356.51 1475.72 2356.51 1482.85 Q2356.51 1489.96 2358.32 1493.53 Q2360.14 1497.07 2363.76 1497.07 Q2367.39 1497.07 2369.2 1493.53 Q2371.02 1489.96 2371.02 1482.85 Q2371.02 1475.72 2369.2 1472.18 Q2367.39 1468.62 2363.76 1468.62 M2363.76 1464.91 Q2369.57 1464.91 2372.62 1469.52 Q2375.7 1474.1 2375.7 1482.85 Q2375.7 1491.58 2372.62 1496.19 Q2369.57 1500.77 2363.76 1500.77 Q2357.95 1500.77 2354.87 1496.19 Q2351.81 1491.58 2351.81 1482.85 Q2351.81 1474.1 2354.87 1469.52 Q2357.95 1464.91 2363.76 1464.91 Z" fill="#000000" fill-rule="nonzero" fill-opacity="1" /><path clip-path="url(#clip840)" d="M2268.76 1312.9 L2298.43 1312.9 L2298.43 1316.83 L2268.76 1316.83 L2268.76 1312.9 Z" fill="#000000" fill-rule="nonzero" fill-opacity="1" /><path clip-path="url(#clip840)" d="M2309.33 1325.79 L2316.97 1325.79 L2316.97 1299.43 L2308.66 1301.09 L2308.66 1296.83 L2316.93 1295.17 L2321.6 1295.17 L2321.6 1325.79 L2329.24 1325.79 L2329.24 1329.73 L2309.33 1329.73 L2309.33 1325.79 Z" fill="#000000" fill-rule="nonzero" fill-opacity="1" /><path clip-path="url(#clip840)" d="M2338.69 1323.85 L2343.57 1323.85 L2343.57 1329.73 L2338.69 1329.73 L2338.69 1323.85 Z" fill="#000000" fill-rule="nonzero" fill-opacity="1" /><path clip-path="url(#clip840)" d="M2353.8 1295.17 L2372.16 1295.17 L2372.16 1299.1 L2358.08 1299.1 L2358.08 1307.57 Q2359.1 1307.23 2360.12 1307.07 Q2361.14 1306.88 2362.16 1306.88 Q2367.95 1306.88 2371.32 1310.05 Q2374.7 1313.22 2374.7 1318.64 Q2374.7 1324.22 2371.23 1327.32 Q2367.76 1330.4 2361.44 1330.4 Q2359.26 1330.4 2357 1330.03 Q2354.75 1329.66 2352.34 1328.92 L2352.34 1324.22 Q2354.43 1325.35 2356.65 1325.91 Q2358.87 1326.46 2361.35 1326.46 Q2365.35 1326.46 2367.69 1324.36 Q2370.03 1322.25 2370.03 1318.64 Q2370.03 1315.03 2367.69 1312.92 Q2365.35 1310.82 2361.35 1310.82 Q2359.47 1310.82 2357.6 1311.23 Q2355.75 1311.65 2353.8 1312.53 L2353.8 1295.17 Z" fill="#000000" fill-rule="nonzero" fill-opacity="1" /><path clip-path="url(#clip840)" d="M2268.76 1142.53 L2298.43 1142.53 L2298.43 1146.46 L2268.76 1146.46 L2268.76 1142.53 Z" fill="#000000" fill-rule="nonzero" fill-opacity="1" /><path clip-path="url(#clip840)" d="M2309.33 1155.42 L2316.97 1155.42 L2316.97 1129.05 L2308.66 1130.72 L2308.66 1126.46 L2316.93 1124.8 L2321.6 1124.8 L2321.6 1155.42 L2329.24 1155.42 L2329.24 1159.36 L2309.33 1159.36 L2309.33 1155.42 Z" fill="#000000" fill-rule="nonzero" fill-opacity="1" /><path clip-path="url(#clip840)" d="M2338.69 1153.48 L2343.57 1153.48 L2343.57 1159.36 L2338.69 1159.36 L2338.69 1153.48 Z" fill="#000000" fill-rule="nonzero" fill-opacity="1" /><path clip-path="url(#clip840)" d="M2363.76 1127.87 Q2360.14 1127.87 2358.32 1131.44 Q2356.51 1134.98 2356.51 1142.11 Q2356.51 1149.22 2358.32 1152.78 Q2360.14 1156.32 2363.76 1156.32 Q2367.39 1156.32 2369.2 1152.78 Q2371.02 1149.22 2371.02 1142.11 Q2371.02 1134.98 2369.2 1131.44 Q2367.39 1127.87 2363.76 1127.87 M2363.76 1124.17 Q2369.57 1124.17 2372.62 1128.78 Q2375.7 1133.36 2375.7 1142.11 Q2375.7 1150.84 2372.62 1155.44 Q2369.57 1160.03 2363.76 1160.03 Q2357.95 1160.03 2354.87 1155.44 Q2351.81 1150.84 2351.81 1142.11 Q2351.81 1133.36 2354.87 1128.78 Q2357.95 1124.17 2363.76 1124.17 Z" fill="#000000" fill-rule="nonzero" fill-opacity="1" /><path clip-path="url(#clip840)" d="M2268.76 972.155 L2298.43 972.155 L2298.43 976.09 L2268.76 976.09 L2268.76 972.155 Z" fill="#000000" fill-rule="nonzero" fill-opacity="1" /><path clip-path="url(#clip840)" d="M2318.52 957.502 Q2314.91 957.502 2313.08 961.067 Q2311.28 964.608 2311.28 971.738 Q2311.28 978.844 2313.08 982.409 Q2314.91 985.951 2318.52 985.951 Q2322.16 985.951 2323.96 982.409 Q2325.79 978.844 2325.79 971.738 Q2325.79 964.608 2323.96 961.067 Q2322.16 957.502 2318.52 957.502 M2318.52 953.798 Q2324.33 953.798 2327.39 958.405 Q2330.47 962.988 2330.47 971.738 Q2330.47 980.465 2327.39 985.071 Q2324.33 989.654 2318.52 989.654 Q2312.71 989.654 2309.64 985.071 Q2306.58 980.465 2306.58 971.738 Q2306.58 962.988 2309.64 958.405 Q2312.71 953.798 2318.52 953.798 Z" fill="#000000" fill-rule="nonzero" fill-opacity="1" /><path clip-path="url(#clip840)" d="M2338.69 983.104 L2343.57 983.104 L2343.57 988.983 L2338.69 988.983 L2338.69 983.104 Z" fill="#000000" fill-rule="nonzero" fill-opacity="1" /><path clip-path="url(#clip840)" d="M2353.8 954.423 L2372.16 954.423 L2372.16 958.358 L2358.08 958.358 L2358.08 966.831 Q2359.1 966.483 2360.12 966.321 Q2361.14 966.136 2362.16 966.136 Q2367.95 966.136 2371.32 969.307 Q2374.7 972.479 2374.7 977.895 Q2374.7 983.474 2371.23 986.576 Q2367.76 989.654 2361.44 989.654 Q2359.26 989.654 2357 989.284 Q2354.75 988.914 2352.34 988.173 L2352.34 983.474 Q2354.43 984.608 2356.65 985.164 Q2358.87 985.719 2361.35 985.719 Q2365.35 985.719 2367.69 983.613 Q2370.03 981.506 2370.03 977.895 Q2370.03 974.284 2367.69 972.178 Q2365.35 970.071 2361.35 970.071 Q2359.47 970.071 2357.6 970.488 Q2355.75 970.905 2353.8 971.784 L2353.8 954.423 Z" fill="#000000" fill-rule="nonzero" fill-opacity="1" /><path clip-path="url(#clip840)" d="M2280.7 787.13 Q2277.09 787.13 2275.26 790.695 Q2273.45 794.236 2273.45 801.366 Q2273.45 808.472 2275.26 812.037 Q2277.09 815.579 2280.7 815.579 Q2284.33 815.579 2286.14 812.037 Q2287.97 808.472 2287.97 801.366 Q2287.97 794.236 2286.14 790.695 Q2284.33 787.13 2280.7 787.13 M2280.7 783.426 Q2286.51 783.426 2289.57 788.033 Q2292.64 792.616 2292.64 801.366 Q2292.64 810.093 2289.57 814.699 Q2286.51 819.282 2280.7 819.282 Q2274.89 819.282 2271.81 814.699 Q2268.76 810.093 2268.76 801.366 Q2268.76 792.616 2271.81 788.033 Q2274.89 783.426 2280.7 783.426 Z" fill="#000000" fill-rule="nonzero" fill-opacity="1" /><path clip-path="url(#clip840)" d="M2280.7 616.758 Q2277.09 616.758 2275.26 620.323 Q2273.45 623.864 2273.45 630.994 Q2273.45 638.1 2275.26 641.665 Q2277.09 645.207 2280.7 645.207 Q2284.33 645.207 2286.14 641.665 Q2287.97 638.1 2287.97 630.994 Q2287.97 623.864 2286.14 620.323 Q2284.33 616.758 2280.7 616.758 M2280.7 613.054 Q2286.51 613.054 2289.57 617.661 Q2292.64 622.244 2292.64 630.994 Q2292.64 639.721 2289.57 644.327 Q2286.51 648.911 2280.7 648.911 Q2274.89 648.911 2271.81 644.327 Q2268.76 639.721 2268.76 630.994 Q2268.76 622.244 2271.81 617.661 Q2274.89 613.054 2280.7 613.054 Z" fill="#000000" fill-rule="nonzero" fill-opacity="1" /><path clip-path="url(#clip840)" d="M2300.86 642.36 L2305.75 642.36 L2305.75 648.239 L2300.86 648.239 L2300.86 642.36 Z" fill="#000000" fill-rule="nonzero" fill-opacity="1" /><path clip-path="url(#clip840)" d="M2315.98 613.679 L2334.33 613.679 L2334.33 617.614 L2320.26 617.614 L2320.26 626.087 Q2321.28 625.739 2322.3 625.577 Q2323.32 625.392 2324.33 625.392 Q2330.12 625.392 2333.5 628.563 Q2336.88 631.735 2336.88 637.151 Q2336.88 642.73 2333.41 645.832 Q2329.94 648.911 2323.62 648.911 Q2321.44 648.911 2319.17 648.54 Q2316.93 648.17 2314.52 647.429 L2314.52 642.73 Q2316.6 643.864 2318.83 644.42 Q2321.05 644.975 2323.52 644.975 Q2327.53 644.975 2329.87 642.869 Q2332.2 640.762 2332.2 637.151 Q2332.2 633.54 2329.87 631.434 Q2327.53 629.327 2323.52 629.327 Q2321.65 629.327 2319.77 629.744 Q2317.92 630.161 2315.98 631.04 L2315.98 613.679 Z" fill="#000000" fill-rule="nonzero" fill-opacity="1" /><path clip-path="url(#clip840)" d="M2269.43 473.932 L2277.07 473.932 L2277.07 447.566 L2268.76 449.233 L2268.76 444.974 L2277.02 443.307 L2281.7 443.307 L2281.7 473.932 L2289.33 473.932 L2289.33 477.867 L2269.43 477.867 L2269.43 473.932 Z" fill="#000000" fill-rule="nonzero" fill-opacity="1" /><path clip-path="url(#clip840)" d="M2298.78 471.988 L2303.66 471.988 L2303.66 477.867 L2298.78 477.867 L2298.78 471.988 Z" fill="#000000" fill-rule="nonzero" fill-opacity="1" /><path clip-path="url(#clip840)" d="M2323.85 446.386 Q2320.24 446.386 2318.41 449.951 Q2316.6 453.492 2316.6 460.622 Q2316.6 467.728 2318.41 471.293 Q2320.24 474.835 2323.85 474.835 Q2327.48 474.835 2329.29 471.293 Q2331.12 467.728 2331.12 460.622 Q2331.12 453.492 2329.29 449.951 Q2327.48 446.386 2323.85 446.386 M2323.85 442.682 Q2329.66 442.682 2332.71 447.289 Q2335.79 451.872 2335.79 460.622 Q2335.79 469.349 2332.71 473.955 Q2329.66 478.539 2323.85 478.539 Q2318.04 478.539 2314.96 473.955 Q2311.9 469.349 2311.9 460.622 Q2311.9 451.872 2314.96 447.289 Q2318.04 442.682 2323.85 442.682 Z" fill="#000000" fill-rule="nonzero" fill-opacity="1" /><path clip-path="url(#clip840)" d="M2269.43 303.56 L2277.07 303.56 L2277.07 277.195 L2268.76 278.861 L2268.76 274.602 L2277.02 272.935 L2281.7 272.935 L2281.7 303.56 L2289.33 303.56 L2289.33 307.495 L2269.43 307.495 L2269.43 303.56 Z" fill="#000000" fill-rule="nonzero" fill-opacity="1" /><path clip-path="url(#clip840)" d="M2298.78 301.616 L2303.66 301.616 L2303.66 307.495 L2298.78 307.495 L2298.78 301.616 Z" fill="#000000" fill-rule="nonzero" fill-opacity="1" /><path clip-path="url(#clip840)" d="M2313.89 272.935 L2332.25 272.935 L2332.25 276.87 L2318.18 276.87 L2318.18 285.343 Q2319.2 284.995 2320.21 284.833 Q2321.23 284.648 2322.25 284.648 Q2328.04 284.648 2331.42 287.819 Q2334.8 290.991 2334.8 296.407 Q2334.8 301.986 2331.33 305.088 Q2327.85 308.167 2321.53 308.167 Q2319.36 308.167 2317.09 307.796 Q2314.84 307.426 2312.44 306.685 L2312.44 301.986 Q2314.52 303.12 2316.74 303.676 Q2318.96 304.231 2321.44 304.231 Q2325.45 304.231 2327.78 302.125 Q2330.12 300.018 2330.12 296.407 Q2330.12 292.796 2327.78 290.69 Q2325.45 288.583 2321.44 288.583 Q2319.57 288.583 2317.69 289 Q2315.84 289.417 2313.89 290.296 L2313.89 272.935 Z" fill="#000000" fill-rule="nonzero" fill-opacity="1" /><path clip-path="url(#clip840)" d="M2274.38 133.188 L2290.7 133.188 L2290.7 137.123 L2268.76 137.123 L2268.76 133.188 Q2271.42 130.434 2276 125.804 Q2280.61 121.151 2281.79 119.809 Q2284.03 117.285 2284.91 115.549 Q2285.82 113.79 2285.82 112.1 Q2285.82 109.346 2283.87 107.61 Q2281.95 105.873 2278.85 105.873 Q2276.65 105.873 2274.2 106.637 Q2271.77 107.401 2268.99 108.952 L2268.99 104.23 Q2271.81 103.096 2274.27 102.517 Q2276.72 101.938 2278.76 101.938 Q2284.13 101.938 2287.32 104.624 Q2290.52 107.309 2290.52 111.799 Q2290.52 113.929 2289.7 115.85 Q2288.92 117.748 2286.81 120.341 Q2286.23 121.012 2283.13 124.23 Q2280.03 127.424 2274.38 133.188 Z" fill="#000000" fill-rule="nonzero" fill-opacity="1" /><path clip-path="url(#clip840)" d="M2300.51 131.244 L2305.4 131.244 L2305.4 137.123 L2300.51 137.123 L2300.51 131.244 Z" fill="#000000" fill-rule="nonzero" fill-opacity="1" /><path clip-path="url(#clip840)" d="M2325.58 105.642 Q2321.97 105.642 2320.14 109.207 Q2318.34 112.748 2318.34 119.878 Q2318.34 126.984 2320.14 130.549 Q2321.97 134.091 2325.58 134.091 Q2329.22 134.091 2331.02 130.549 Q2332.85 126.984 2332.85 119.878 Q2332.85 112.748 2331.02 109.207 Q2329.22 105.642 2325.58 105.642 M2325.58 101.938 Q2331.39 101.938 2334.45 106.545 Q2337.53 111.128 2337.53 119.878 Q2337.53 128.605 2334.45 133.211 Q2331.39 137.795 2325.58 137.795 Q2319.77 137.795 2316.7 133.211 Q2313.64 128.605 2313.64 119.878 Q2313.64 111.128 2316.7 106.545 Q2319.77 101.938 2325.58 101.938 Z" fill="#000000" fill-rule="nonzero" fill-opacity="1" /><polyline clip-path="url(#clip840)" style="stroke:#000000; stroke-linecap:round; stroke-linejoin:round; stroke-width:4; stroke-opacity:1; fill:none" points="2232.76,1486.45 2232.76,1486.45 2256.76,1486.45 2232.76,1486.45 2232.76,1316.08 2256.76,1316.08 2232.76,1316.08 2232.76,1145.7 2256.76,1145.7 2232.76,1145.7 2232.76,975.332 2256.76,975.332 2232.76,975.332 2232.76,804.96 2256.76,804.96 2232.76,804.96 2232.76,634.588 2256.76,634.588 2232.76,634.588 2232.76,464.216 2256.76,464.216 2232.76,464.216 2232.76,293.844 2256.76,293.844 2232.76,293.844 2232.76,123.472 2256.76,123.472 2232.76,123.472 "/>
</svg>
