<?xml version="1.0" encoding="utf-8"?>
<svg xmlns="http://www.w3.org/2000/svg" xmlns:xlink="http://www.w3.org/1999/xlink" width="600" height="400" viewBox="0 0 2400 1600">
<defs>
  <clipPath id="clip880">
    <rect x="0" y="0" width="2400" height="1600"/>
  </clipPath>
</defs>
<path clip-path="url(#clip880)" d="M0 1600 L2400 1600 L2400 0 L0 0  Z" fill="#ffffff" fill-rule="evenodd" fill-opacity="1"/>
<defs>
  <clipPath id="clip881">
    <rect x="480" y="0" width="1681" height="1600"/>
  </clipPath>
</defs>
<path clip-path="url(#clip880)" d="M156.112 1423.18 L2352.76 1423.18 L2352.76 123.472 L156.112 123.472  Z" fill="#ffffff" fill-rule="evenodd" fill-opacity="1"/>
<defs>
  <clipPath id="clip882">
    <rect x="156" y="123" width="2198" height="1301"/>
  </clipPath>
</defs>
<polyline clip-path="url(#clip882)" style="stroke:#000000; stroke-linecap:round; stroke-linejoin:round; stroke-width:2; stroke-opacity:0.1; fill:none" points="197.349,1423.18 197.349,123.472 "/>
<polyline clip-path="url(#clip882)" style="stroke:#000000; stroke-linecap:round; stroke-linejoin:round; stroke-width:2; stroke-opacity:0.1; fill:none" points="720.658,1423.18 720.658,123.472 "/>
<polyline clip-path="url(#clip882)" style="stroke:#000000; stroke-linecap:round; stroke-linejoin:round; stroke-width:2; stroke-opacity:0.1; fill:none" points="1243.97,1423.18 1243.97,123.472 "/>
<polyline clip-path="url(#clip882)" style="stroke:#000000; stroke-linecap:round; stroke-linejoin:round; stroke-width:2; stroke-opacity:0.1; fill:none" points="1767.28,1423.18 1767.28,123.472 "/>
<polyline clip-path="url(#clip882)" style="stroke:#000000; stroke-linecap:round; stroke-linejoin:round; stroke-width:2; stroke-opacity:0.1; fill:none" points="2290.59,1423.18 2290.59,123.472 "/>
<polyline clip-path="url(#clip880)" style="stroke:#000000; stroke-linecap:round; stroke-linejoin:round; stroke-width:4; stroke-opacity:1; fill:none" points="156.112,1423.18 2352.76,1423.18 "/>
<polyline clip-path="url(#clip880)" style="stroke:#000000; stroke-linecap:round; stroke-linejoin:round; stroke-width:4; stroke-opacity:1; fill:none" points="197.349,1423.18 197.349,1404.28 "/>
<polyline clip-path="url(#clip880)" style="stroke:#000000; stroke-linecap:round; stroke-linejoin:round; stroke-width:4; stroke-opacity:1; fill:none" points="720.658,1423.18 720.658,1404.28 "/>
<polyline clip-path="url(#clip880)" style="stroke:#000000; stroke-linecap:round; stroke-linejoin:round; stroke-width:4; stroke-opacity:1; fill:none" points="1243.97,1423.18 1243.97,1404.28 "/>
<polyline clip-path="url(#clip880)" style="stroke:#000000; stroke-linecap:round; stroke-linejoin:round; stroke-width:4; stroke-opacity:1; fill:none" points="1767.28,1423.18 1767.28,1404.28 "/>
<polyline clip-path="url(#clip880)" style="stroke:#000000; stroke-linecap:round; stroke-linejoin:round; stroke-width:4; stroke-opacity:1; fill:none" points="2290.59,1423.18 2290.59,1404.28 "/>
<path clip-path="url(#clip880)" d="M197.349 1454.1 Q193.738 1454.1 191.909 1457.66 Q190.104 1461.2 190.104 1468.33 Q190.104 1475.44 191.909 1479.01 Q193.738 1482.55 197.349 1482.55 Q200.983 1482.55 202.789 1479.01 Q204.617 1475.44 204.617 1468.33 Q204.617 1461.2 202.789 1457.66 Q200.983 1454.1 197.349 1454.1 M197.349 1450.39 Q203.159 1450.39 206.215 1455 Q209.293 1459.58 209.293 1468.33 Q209.293 1477.06 206.215 1481.67 Q203.159 1486.25 197.349 1486.25 Q191.539 1486.25 188.46 1481.67 Q185.405 1477.06 185.405 1468.33 Q185.405 1459.58 188.46 1455 Q191.539 1450.39 197.349 1450.39 Z" fill="#000000" fill-rule="nonzero" fill-opacity="1" /><path clip-path="url(#clip880)" d="M699.929 1481.64 L716.249 1481.64 L716.249 1485.58 L694.304 1485.58 L694.304 1481.64 Q696.966 1478.89 701.55 1474.26 Q706.156 1469.61 707.337 1468.27 Q709.582 1465.74 710.462 1464.01 Q711.364 1462.25 711.364 1460.56 Q711.364 1457.8 709.42 1456.07 Q707.499 1454.33 704.397 1454.33 Q702.198 1454.33 699.744 1455.09 Q697.314 1455.86 694.536 1457.41 L694.536 1452.69 Q697.36 1451.55 699.814 1450.97 Q702.267 1450.39 704.304 1450.39 Q709.675 1450.39 712.869 1453.08 Q716.063 1455.77 716.063 1460.26 Q716.063 1462.39 715.253 1464.31 Q714.466 1466.2 712.36 1468.8 Q711.781 1469.47 708.679 1472.69 Q705.577 1475.88 699.929 1481.64 Z" fill="#000000" fill-rule="nonzero" fill-opacity="1" /><path clip-path="url(#clip880)" d="M726.11 1451.02 L744.466 1451.02 L744.466 1454.96 L730.392 1454.96 L730.392 1463.43 Q731.411 1463.08 732.429 1462.92 Q733.448 1462.73 734.466 1462.73 Q740.253 1462.73 743.633 1465.9 Q747.012 1469.08 747.012 1474.49 Q747.012 1480.07 743.54 1483.17 Q740.068 1486.25 733.749 1486.25 Q731.573 1486.25 729.304 1485.88 Q727.059 1485.51 724.651 1484.77 L724.651 1480.07 Q726.735 1481.2 728.957 1481.76 Q731.179 1482.32 733.656 1482.32 Q737.661 1482.32 739.999 1480.21 Q742.336 1478.1 742.336 1474.49 Q742.336 1470.88 739.999 1468.77 Q737.661 1466.67 733.656 1466.67 Q731.781 1466.67 729.906 1467.08 Q728.054 1467.5 726.11 1468.38 L726.11 1451.02 Z" fill="#000000" fill-rule="nonzero" fill-opacity="1" /><path clip-path="url(#clip880)" d="M1218.67 1451.02 L1237.02 1451.02 L1237.02 1454.96 L1222.95 1454.96 L1222.95 1463.43 Q1223.97 1463.08 1224.99 1462.92 Q1226 1462.73 1227.02 1462.73 Q1232.81 1462.73 1236.19 1465.9 Q1239.57 1469.08 1239.57 1474.49 Q1239.57 1480.07 1236.1 1483.17 Q1232.63 1486.25 1226.31 1486.25 Q1224.13 1486.25 1221.86 1485.88 Q1219.62 1485.51 1217.21 1484.77 L1217.21 1480.07 Q1219.29 1481.2 1221.51 1481.76 Q1223.74 1482.32 1226.21 1482.32 Q1230.22 1482.32 1232.56 1480.21 Q1234.89 1478.1 1234.89 1474.49 Q1234.89 1470.88 1232.56 1468.77 Q1230.22 1466.67 1226.21 1466.67 Q1224.34 1466.67 1222.46 1467.08 Q1220.61 1467.5 1218.67 1468.38 L1218.67 1451.02 Z" fill="#000000" fill-rule="nonzero" fill-opacity="1" /><path clip-path="url(#clip880)" d="M1258.78 1454.1 Q1255.17 1454.1 1253.34 1457.66 Q1251.54 1461.2 1251.54 1468.33 Q1251.54 1475.44 1253.34 1479.01 Q1255.17 1482.55 1258.78 1482.55 Q1262.42 1482.55 1264.22 1479.01 Q1266.05 1475.44 1266.05 1468.33 Q1266.05 1461.2 1264.22 1457.66 Q1262.42 1454.1 1258.78 1454.1 M1258.78 1450.39 Q1264.59 1450.39 1267.65 1455 Q1270.73 1459.58 1270.73 1468.33 Q1270.73 1477.06 1267.65 1481.67 Q1264.59 1486.25 1258.78 1486.25 Q1252.97 1486.25 1249.89 1481.67 Q1246.84 1477.06 1246.84 1468.33 Q1246.84 1459.58 1249.89 1455 Q1252.97 1450.39 1258.78 1450.39 Z" fill="#000000" fill-rule="nonzero" fill-opacity="1" /><path clip-path="url(#clip880)" d="M1741.13 1451.02 L1763.35 1451.02 L1763.35 1453.01 L1750.81 1485.58 L1745.92 1485.58 L1757.73 1454.96 L1741.13 1454.96 L1741.13 1451.02 Z" fill="#000000" fill-rule="nonzero" fill-opacity="1" /><path clip-path="url(#clip880)" d="M1772.52 1451.02 L1790.88 1451.02 L1790.88 1454.96 L1776.8 1454.96 L1776.8 1463.43 Q1777.82 1463.08 1778.84 1462.92 Q1779.86 1462.73 1780.88 1462.73 Q1786.66 1462.73 1790.04 1465.9 Q1793.42 1469.08 1793.42 1474.49 Q1793.42 1480.07 1789.95 1483.17 Q1786.48 1486.25 1780.16 1486.25 Q1777.98 1486.25 1775.71 1485.88 Q1773.47 1485.51 1771.06 1484.77 L1771.06 1480.07 Q1773.15 1481.2 1775.37 1481.76 Q1777.59 1482.32 1780.07 1482.32 Q1784.07 1482.32 1786.41 1480.21 Q1788.75 1478.1 1788.75 1474.49 Q1788.75 1470.88 1786.41 1468.77 Q1784.07 1466.67 1780.07 1466.67 Q1778.19 1466.67 1776.32 1467.08 Q1774.46 1467.5 1772.52 1468.38 L1772.52 1451.02 Z" fill="#000000" fill-rule="nonzero" fill-opacity="1" /><path clip-path="url(#clip880)" d="M2250.19 1481.64 L2257.83 1481.64 L2257.83 1455.28 L2249.52 1456.95 L2249.52 1452.69 L2257.79 1451.02 L2262.46 1451.02 L2262.46 1481.64 L2270.1 1481.64 L2270.1 1485.58 L2250.19 1485.58 L2250.19 1481.64 Z" fill="#000000" fill-rule="nonzero" fill-opacity="1" /><path clip-path="url(#clip880)" d="M2289.55 1454.1 Q2285.93 1454.1 2284.11 1457.66 Q2282.3 1461.2 2282.3 1468.33 Q2282.3 1475.44 2284.11 1479.01 Q2285.93 1482.55 2289.55 1482.55 Q2293.18 1482.55 2294.98 1479.01 Q2296.81 1475.44 2296.81 1468.33 Q2296.81 1461.2 2294.98 1457.66 Q2293.18 1454.1 2289.55 1454.1 M2289.55 1450.39 Q2295.36 1450.39 2298.41 1455 Q2301.49 1459.58 2301.49 1468.33 Q2301.49 1477.06 2298.41 1481.67 Q2295.36 1486.25 2289.55 1486.25 Q2283.73 1486.25 2280.66 1481.67 Q2277.6 1477.06 2277.6 1468.33 Q2277.6 1459.58 2280.66 1455 Q2283.73 1450.39 2289.55 1450.39 Z" fill="#000000" fill-rule="nonzero" fill-opacity="1" /><path clip-path="url(#clip880)" d="M2319.71 1454.1 Q2316.1 1454.1 2314.27 1457.66 Q2312.46 1461.2 2312.46 1468.33 Q2312.46 1475.44 2314.27 1479.01 Q2316.1 1482.55 2319.71 1482.55 Q2323.34 1482.55 2325.15 1479.01 Q2326.98 1475.44 2326.98 1468.33 Q2326.98 1461.2 2325.15 1457.66 Q2323.34 1454.1 2319.71 1454.1 M2319.71 1450.39 Q2325.52 1450.39 2328.57 1455 Q2331.65 1459.58 2331.65 1468.33 Q2331.65 1477.06 2328.57 1481.67 Q2325.52 1486.25 2319.71 1486.25 Q2313.9 1486.25 2310.82 1481.67 Q2307.76 1477.06 2307.76 1468.33 Q2307.76 1459.58 2310.82 1455 Q2313.9 1450.39 2319.71 1450.39 Z" fill="#000000" fill-rule="nonzero" fill-opacity="1" /><path clip-path="url(#clip880)" d="M1070.88 1539.37 L1061.62 1539.37 L1058.94 1550 L1068.27 1550 L1070.88 1539.37 M1066.1 1521.26 L1062.79 1534.46 L1072.09 1534.46 L1075.43 1521.26 L1080.52 1521.26 L1077.24 1534.46 L1087.18 1534.46 L1087.18 1539.37 L1076 1539.37 L1073.39 1550 L1083.51 1550 L1083.51 1554.87 L1072.15 1554.87 L1068.84 1568.04 L1063.75 1568.04 L1067.03 1554.87 L1057.7 1554.87 L1054.42 1568.04 L1049.3 1568.04 L1052.61 1554.87 L1042.58 1554.87 L1042.58 1550 L1053.79 1550 L1056.46 1539.37 L1046.21 1539.37 L1046.21 1534.46 L1057.7 1534.46 L1060.95 1521.26 L1066.1 1521.26 Z" fill="#000000" fill-rule="nonzero" fill-opacity="1" /><path clip-path="url(#clip880)" d="M1132.85 1536.5 Q1128.14 1536.5 1125.4 1540.19 Q1122.66 1543.85 1122.66 1550.25 Q1122.66 1556.65 1125.37 1560.34 Q1128.11 1564 1132.85 1564 Q1137.53 1564 1140.27 1560.31 Q1143 1556.62 1143 1550.25 Q1143 1543.92 1140.27 1540.23 Q1137.53 1536.5 1132.85 1536.5 M1132.85 1531.54 Q1140.49 1531.54 1144.85 1536.5 Q1149.21 1541.47 1149.21 1550.25 Q1149.21 1559 1144.85 1564 Q1140.49 1568.97 1132.85 1568.97 Q1125.18 1568.97 1120.82 1564 Q1116.49 1559 1116.49 1550.25 Q1116.49 1541.47 1120.82 1536.5 Q1125.18 1531.54 1132.85 1531.54 Z" fill="#000000" fill-rule="nonzero" fill-opacity="1" /><path clip-path="url(#clip880)" d="M1176.96 1518.52 L1176.96 1523.39 L1171.36 1523.39 Q1168.21 1523.39 1166.97 1524.66 Q1165.76 1525.93 1165.76 1529.24 L1165.76 1532.4 L1175.4 1532.4 L1175.4 1536.95 L1165.76 1536.95 L1165.76 1568.04 L1159.87 1568.04 L1159.87 1536.95 L1154.27 1536.95 L1154.27 1532.4 L1159.87 1532.4 L1159.87 1529.91 Q1159.87 1523.96 1162.64 1521.26 Q1165.41 1518.52 1171.43 1518.52 L1176.96 1518.52 Z" fill="#000000" fill-rule="nonzero" fill-opacity="1" /><path clip-path="url(#clip880)" d="M1202.59 1532.4 L1208.44 1532.4 L1208.44 1568.04 L1202.59 1568.04 L1202.59 1532.4 M1202.59 1518.52 L1208.44 1518.52 L1208.44 1525.93 L1202.59 1525.93 L1202.59 1518.52 Z" fill="#000000" fill-rule="nonzero" fill-opacity="1" /><path clip-path="url(#clip880)" d="M1226.49 1522.27 L1226.49 1532.4 L1238.55 1532.4 L1238.55 1536.95 L1226.49 1536.95 L1226.49 1556.3 Q1226.49 1560.66 1227.67 1561.9 Q1228.88 1563.14 1232.54 1563.14 L1238.55 1563.14 L1238.55 1568.04 L1232.54 1568.04 Q1225.76 1568.04 1223.18 1565.53 Q1220.6 1562.98 1220.6 1556.3 L1220.6 1536.95 L1216.3 1536.95 L1216.3 1532.4 L1220.6 1532.4 L1220.6 1522.27 L1226.49 1522.27 Z" fill="#000000" fill-rule="nonzero" fill-opacity="1" /><path clip-path="url(#clip880)" d="M1276.75 1548.76 L1276.75 1551.62 L1249.82 1551.62 Q1250.2 1557.67 1253.45 1560.85 Q1256.73 1564 1262.55 1564 Q1265.92 1564 1269.08 1563.17 Q1272.26 1562.35 1275.38 1560.69 L1275.38 1566.23 Q1272.23 1567.57 1268.92 1568.27 Q1265.61 1568.97 1262.2 1568.97 Q1253.67 1568.97 1248.67 1564 Q1243.71 1559.04 1243.71 1550.57 Q1243.71 1541.82 1248.42 1536.69 Q1253.16 1531.54 1261.18 1531.54 Q1268.37 1531.54 1272.54 1536.18 Q1276.75 1540.8 1276.75 1548.76 M1270.89 1547.04 Q1270.83 1542.23 1268.18 1539.37 Q1265.57 1536.5 1261.25 1536.5 Q1256.34 1536.5 1253.38 1539.27 Q1250.46 1542.04 1250.01 1547.07 L1270.89 1547.04 Z" fill="#000000" fill-rule="nonzero" fill-opacity="1" /><path clip-path="url(#clip880)" d="M1307.01 1537.87 Q1306.03 1537.3 1304.85 1537.04 Q1303.7 1536.76 1302.3 1536.76 Q1297.34 1536.76 1294.67 1540 Q1292.02 1543.22 1292.02 1549.27 L1292.02 1568.04 L1286.14 1568.04 L1286.14 1532.4 L1292.02 1532.4 L1292.02 1537.93 Q1293.87 1534.69 1296.83 1533.13 Q1299.79 1531.54 1304.02 1531.54 Q1304.63 1531.54 1305.36 1531.63 Q1306.09 1531.7 1306.98 1531.85 L1307.01 1537.87 Z" fill="#000000" fill-rule="nonzero" fill-opacity="1" /><path clip-path="url(#clip880)" d="M1329.36 1550.12 Q1322.26 1550.12 1319.52 1551.75 Q1316.79 1553.37 1316.79 1557.29 Q1316.79 1560.4 1318.82 1562.25 Q1320.89 1564.07 1324.42 1564.07 Q1329.29 1564.07 1332.22 1560.63 Q1335.18 1557.16 1335.18 1551.43 L1335.18 1550.12 L1329.36 1550.12 M1341.04 1547.71 L1341.04 1568.04 L1335.18 1568.04 L1335.18 1562.63 Q1333.18 1565.88 1330.19 1567.44 Q1327.19 1568.97 1322.87 1568.97 Q1317.39 1568.97 1314.14 1565.91 Q1310.93 1562.82 1310.93 1557.67 Q1310.93 1551.65 1314.94 1548.6 Q1318.98 1545.54 1326.97 1545.54 L1335.18 1545.54 L1335.18 1544.97 Q1335.18 1540.93 1332.51 1538.73 Q1329.87 1536.5 1325.06 1536.5 Q1322.01 1536.5 1319.11 1537.23 Q1316.21 1537.97 1313.54 1539.43 L1313.54 1534.02 Q1316.75 1532.78 1319.78 1532.17 Q1322.8 1531.54 1325.67 1531.54 Q1333.4 1531.54 1337.22 1535.55 Q1341.04 1539.56 1341.04 1547.71 Z" fill="#000000" fill-rule="nonzero" fill-opacity="1" /><path clip-path="url(#clip880)" d="M1358.9 1522.27 L1358.9 1532.4 L1370.96 1532.4 L1370.96 1536.95 L1358.9 1536.95 L1358.9 1556.3 Q1358.9 1560.66 1360.07 1561.9 Q1361.28 1563.14 1364.94 1563.14 L1370.96 1563.14 L1370.96 1568.04 L1364.94 1568.04 Q1358.16 1568.04 1355.59 1565.53 Q1353.01 1562.98 1353.01 1556.3 L1353.01 1536.95 L1348.71 1536.95 L1348.71 1532.4 L1353.01 1532.4 L1353.01 1522.27 L1358.9 1522.27 Z" fill="#000000" fill-rule="nonzero" fill-opacity="1" /><path clip-path="url(#clip880)" d="M1378.66 1532.4 L1384.52 1532.4 L1384.52 1568.04 L1378.66 1568.04 L1378.66 1532.4 M1378.66 1518.52 L1384.52 1518.52 L1384.52 1525.93 L1378.66 1525.93 L1378.66 1518.52 Z" fill="#000000" fill-rule="nonzero" fill-opacity="1" /><path clip-path="url(#clip880)" d="M1410.58 1536.5 Q1405.87 1536.5 1403.14 1540.19 Q1400.4 1543.85 1400.4 1550.25 Q1400.4 1556.65 1403.11 1560.34 Q1405.84 1564 1410.58 1564 Q1415.26 1564 1418 1560.31 Q1420.74 1556.62 1420.74 1550.25 Q1420.74 1543.92 1418 1540.23 Q1415.26 1536.5 1410.58 1536.5 M1410.58 1531.54 Q1418.22 1531.54 1422.58 1536.5 Q1426.94 1541.47 1426.94 1550.25 Q1426.94 1559 1422.58 1564 Q1418.22 1568.97 1410.58 1568.97 Q1402.91 1568.97 1398.55 1564 Q1394.22 1559 1394.22 1550.25 Q1394.22 1541.47 1398.55 1536.5 Q1402.91 1531.54 1410.58 1531.54 Z" fill="#000000" fill-rule="nonzero" fill-opacity="1" /><path clip-path="url(#clip880)" d="M1466.28 1546.53 L1466.28 1568.04 L1460.43 1568.04 L1460.43 1546.72 Q1460.43 1541.66 1458.45 1539.14 Q1456.48 1536.63 1452.53 1536.63 Q1447.79 1536.63 1445.06 1539.65 Q1442.32 1542.68 1442.32 1547.9 L1442.32 1568.04 L1436.43 1568.04 L1436.43 1532.4 L1442.32 1532.4 L1442.32 1537.93 Q1444.42 1534.72 1447.25 1533.13 Q1450.12 1531.54 1453.84 1531.54 Q1459.98 1531.54 1463.13 1535.36 Q1466.28 1539.14 1466.28 1546.53 Z" fill="#000000" fill-rule="nonzero" fill-opacity="1" /><polyline clip-path="url(#clip882)" style="stroke:#000000; stroke-linecap:round; stroke-linejoin:round; stroke-width:2; stroke-opacity:0.1; fill:none" points="156.112,1386.4 2352.76,1386.4 "/>
<polyline clip-path="url(#clip882)" style="stroke:#000000; stroke-linecap:round; stroke-linejoin:round; stroke-width:2; stroke-opacity:0.1; fill:none" points="156.112,1145.39 2352.76,1145.39 "/>
<polyline clip-path="url(#clip882)" style="stroke:#000000; stroke-linecap:round; stroke-linejoin:round; stroke-width:2; stroke-opacity:0.1; fill:none" points="156.112,904.383 2352.76,904.383 "/>
<polyline clip-path="url(#clip882)" style="stroke:#000000; stroke-linecap:round; stroke-linejoin:round; stroke-width:2; stroke-opacity:0.1; fill:none" points="156.112,663.376 2352.76,663.376 "/>
<polyline clip-path="url(#clip882)" style="stroke:#000000; stroke-linecap:round; stroke-linejoin:round; stroke-width:2; stroke-opacity:0.1; fill:none" points="156.112,422.37 2352.76,422.37 "/>
<polyline clip-path="url(#clip882)" style="stroke:#000000; stroke-linecap:round; stroke-linejoin:round; stroke-width:2; stroke-opacity:0.1; fill:none" points="156.112,181.364 2352.76,181.364 "/>
<polyline clip-path="url(#clip880)" style="stroke:#000000; stroke-linecap:round; stroke-linejoin:round; stroke-width:4; stroke-opacity:1; fill:none" points="156.112,1423.18 156.112,123.472 "/>
<polyline clip-path="url(#clip880)" style="stroke:#000000; stroke-linecap:round; stroke-linejoin:round; stroke-width:4; stroke-opacity:1; fill:none" points="156.112,1386.4 175.01,1386.4 "/>
<polyline clip-path="url(#clip880)" style="stroke:#000000; stroke-linecap:round; stroke-linejoin:round; stroke-width:4; stroke-opacity:1; fill:none" points="156.112,1145.39 175.01,1145.39 "/>
<polyline clip-path="url(#clip880)" style="stroke:#000000; stroke-linecap:round; stroke-linejoin:round; stroke-width:4; stroke-opacity:1; fill:none" points="156.112,904.383 175.01,904.383 "/>
<polyline clip-path="url(#clip880)" style="stroke:#000000; stroke-linecap:round; stroke-linejoin:round; stroke-width:4; stroke-opacity:1; fill:none" points="156.112,663.376 175.01,663.376 "/>
<polyline clip-path="url(#clip880)" style="stroke:#000000; stroke-linecap:round; stroke-linejoin:round; stroke-width:4; stroke-opacity:1; fill:none" points="156.112,422.37 175.01,422.37 "/>
<polyline clip-path="url(#clip880)" style="stroke:#000000; stroke-linecap:round; stroke-linejoin:round; stroke-width:4; stroke-opacity:1; fill:none" points="156.112,181.364 175.01,181.364 "/>
<path clip-path="url(#clip880)" d="M62.9365 1372.19 Q59.3254 1372.19 57.4967 1375.76 Q55.6912 1379.3 55.6912 1386.43 Q55.6912 1393.54 57.4967 1397.1 Q59.3254 1400.64 62.9365 1400.64 Q66.5707 1400.64 68.3763 1397.1 Q70.205 1393.54 70.205 1386.43 Q70.205 1379.3 68.3763 1375.76 Q66.5707 1372.19 62.9365 1372.19 M62.9365 1368.49 Q68.7467 1368.49 71.8022 1373.1 Q74.8809 1377.68 74.8809 1386.43 Q74.8809 1395.16 71.8022 1399.76 Q68.7467 1404.35 62.9365 1404.35 Q57.1264 1404.35 54.0477 1399.76 Q50.9921 1395.16 50.9921 1386.43 Q50.9921 1377.68 54.0477 1373.1 Q57.1264 1368.49 62.9365 1368.49 Z" fill="#000000" fill-rule="nonzero" fill-opacity="1" /><path clip-path="url(#clip880)" d="M83.0984 1397.8 L87.9827 1397.8 L87.9827 1403.68 L83.0984 1403.68 L83.0984 1397.8 Z" fill="#000000" fill-rule="nonzero" fill-opacity="1" /><path clip-path="url(#clip880)" d="M108.168 1372.19 Q104.557 1372.19 102.728 1375.76 Q100.922 1379.3 100.922 1386.43 Q100.922 1393.54 102.728 1397.1 Q104.557 1400.64 108.168 1400.64 Q111.802 1400.64 113.608 1397.1 Q115.436 1393.54 115.436 1386.43 Q115.436 1379.3 113.608 1375.76 Q111.802 1372.19 108.168 1372.19 M108.168 1368.49 Q113.978 1368.49 117.033 1373.1 Q120.112 1377.68 120.112 1386.43 Q120.112 1395.16 117.033 1399.76 Q113.978 1404.35 108.168 1404.35 Q102.358 1404.35 99.2789 1399.76 Q96.2234 1395.16 96.2234 1386.43 Q96.2234 1377.68 99.2789 1373.1 Q102.358 1368.49 108.168 1368.49 Z" fill="#000000" fill-rule="nonzero" fill-opacity="1" /><path clip-path="url(#clip880)" d="M63.9319 1131.19 Q60.3208 1131.19 58.4921 1134.75 Q56.6865 1138.29 56.6865 1145.42 Q56.6865 1152.53 58.4921 1156.1 Q60.3208 1159.64 63.9319 1159.64 Q67.5661 1159.64 69.3717 1156.1 Q71.2004 1152.53 71.2004 1145.42 Q71.2004 1138.29 69.3717 1134.75 Q67.5661 1131.19 63.9319 1131.19 M63.9319 1127.48 Q69.742 1127.48 72.7976 1132.09 Q75.8763 1136.67 75.8763 1145.42 Q75.8763 1154.15 72.7976 1158.76 Q69.742 1163.34 63.9319 1163.34 Q58.1217 1163.34 55.043 1158.76 Q51.9875 1154.15 51.9875 1145.42 Q51.9875 1136.67 55.043 1132.09 Q58.1217 1127.48 63.9319 1127.48 Z" fill="#000000" fill-rule="nonzero" fill-opacity="1" /><path clip-path="url(#clip880)" d="M84.0938 1156.79 L88.978 1156.79 L88.978 1162.67 L84.0938 1162.67 L84.0938 1156.79 Z" fill="#000000" fill-rule="nonzero" fill-opacity="1" /><path clip-path="url(#clip880)" d="M99.2095 1128.11 L117.566 1128.11 L117.566 1132.04 L103.492 1132.04 L103.492 1140.52 Q104.51 1140.17 105.529 1140.01 Q106.547 1139.82 107.566 1139.82 Q113.353 1139.82 116.733 1142.99 Q120.112 1146.16 120.112 1151.58 Q120.112 1157.16 116.64 1160.26 Q113.168 1163.34 106.848 1163.34 Q104.672 1163.34 102.404 1162.97 Q100.159 1162.6 97.7511 1161.86 L97.7511 1157.16 Q99.8345 1158.29 102.057 1158.85 Q104.279 1159.41 106.756 1159.41 Q110.76 1159.41 113.098 1157.3 Q115.436 1155.19 115.436 1151.58 Q115.436 1147.97 113.098 1145.86 Q110.76 1143.76 106.756 1143.76 Q104.881 1143.76 103.006 1144.17 Q101.154 1144.59 99.2095 1145.47 L99.2095 1128.11 Z" fill="#000000" fill-rule="nonzero" fill-opacity="1" /><path clip-path="url(#clip880)" d="M53.7467 917.728 L61.3856 917.728 L61.3856 891.362 L53.0754 893.029 L53.0754 888.769 L61.3393 887.103 L66.0152 887.103 L66.0152 917.728 L73.654 917.728 L73.654 921.663 L53.7467 921.663 L53.7467 917.728 Z" fill="#000000" fill-rule="nonzero" fill-opacity="1" /><path clip-path="url(#clip880)" d="M83.0984 915.783 L87.9827 915.783 L87.9827 921.663 L83.0984 921.663 L83.0984 915.783 Z" fill="#000000" fill-rule="nonzero" fill-opacity="1" /><path clip-path="url(#clip880)" d="M108.168 890.181 Q104.557 890.181 102.728 893.746 Q100.922 897.288 100.922 904.418 Q100.922 911.524 102.728 915.089 Q104.557 918.63 108.168 918.63 Q111.802 918.63 113.608 915.089 Q115.436 911.524 115.436 904.418 Q115.436 897.288 113.608 893.746 Q111.802 890.181 108.168 890.181 M108.168 886.478 Q113.978 886.478 117.033 891.084 Q120.112 895.668 120.112 904.418 Q120.112 913.144 117.033 917.751 Q113.978 922.334 108.168 922.334 Q102.358 922.334 99.2789 917.751 Q96.2234 913.144 96.2234 904.418 Q96.2234 895.668 99.2789 891.084 Q102.358 886.478 108.168 886.478 Z" fill="#000000" fill-rule="nonzero" fill-opacity="1" /><path clip-path="url(#clip880)" d="M54.7421 676.721 L62.381 676.721 L62.381 650.356 L54.0708 652.022 L54.0708 647.763 L62.3347 646.096 L67.0106 646.096 L67.0106 676.721 L74.6494 676.721 L74.6494 680.656 L54.7421 680.656 L54.7421 676.721 Z" fill="#000000" fill-rule="nonzero" fill-opacity="1" /><path clip-path="url(#clip880)" d="M84.0938 674.777 L88.978 674.777 L88.978 680.656 L84.0938 680.656 L84.0938 674.777 Z" fill="#000000" fill-rule="nonzero" fill-opacity="1" /><path clip-path="url(#clip880)" d="M99.2095 646.096 L117.566 646.096 L117.566 650.032 L103.492 650.032 L103.492 658.504 Q104.51 658.156 105.529 657.994 Q106.547 657.809 107.566 657.809 Q113.353 657.809 116.733 660.981 Q120.112 664.152 120.112 669.568 Q120.112 675.147 116.64 678.249 Q113.168 681.328 106.848 681.328 Q104.672 681.328 102.404 680.957 Q100.159 680.587 97.7511 679.846 L97.7511 675.147 Q99.8345 676.281 102.057 676.837 Q104.279 677.393 106.756 677.393 Q110.76 677.393 113.098 675.286 Q115.436 673.18 115.436 669.568 Q115.436 665.957 113.098 663.851 Q110.76 661.744 106.756 661.744 Q104.881 661.744 103.006 662.161 Q101.154 662.578 99.2095 663.457 L99.2095 646.096 Z" fill="#000000" fill-rule="nonzero" fill-opacity="1" /><path clip-path="url(#clip880)" d="M56.9643 435.715 L73.2837 435.715 L73.2837 439.65 L51.3393 439.65 L51.3393 435.715 Q54.0014 432.96 58.5847 428.331 Q63.1911 423.678 64.3717 422.335 Q66.617 419.812 67.4967 418.076 Q68.3994 416.317 68.3994 414.627 Q68.3994 411.872 66.455 410.136 Q64.5337 408.4 61.4319 408.4 Q59.2328 408.4 56.7791 409.164 Q54.3486 409.928 51.5708 411.479 L51.5708 406.757 Q54.3949 405.622 56.8486 405.044 Q59.3023 404.465 61.3393 404.465 Q66.7096 404.465 69.9041 407.15 Q73.0985 409.835 73.0985 414.326 Q73.0985 416.456 72.2883 418.377 Q71.5013 420.275 69.3948 422.868 Q68.8161 423.539 65.7143 426.756 Q62.6124 429.951 56.9643 435.715 Z" fill="#000000" fill-rule="nonzero" fill-opacity="1" /><path clip-path="url(#clip880)" d="M83.0984 433.77 L87.9827 433.77 L87.9827 439.65 L83.0984 439.65 L83.0984 433.77 Z" fill="#000000" fill-rule="nonzero" fill-opacity="1" /><path clip-path="url(#clip880)" d="M108.168 408.169 Q104.557 408.169 102.728 411.733 Q100.922 415.275 100.922 422.405 Q100.922 429.511 102.728 433.076 Q104.557 436.618 108.168 436.618 Q111.802 436.618 113.608 433.076 Q115.436 429.511 115.436 422.405 Q115.436 415.275 113.608 411.733 Q111.802 408.169 108.168 408.169 M108.168 404.465 Q113.978 404.465 117.033 409.071 Q120.112 413.655 120.112 422.405 Q120.112 431.131 117.033 435.738 Q113.978 440.321 108.168 440.321 Q102.358 440.321 99.2789 435.738 Q96.2234 431.131 96.2234 422.405 Q96.2234 413.655 99.2789 409.071 Q102.358 404.465 108.168 404.465 Z" fill="#000000" fill-rule="nonzero" fill-opacity="1" /><path clip-path="url(#clip880)" d="M57.9597 194.708 L74.279 194.708 L74.279 198.644 L52.3347 198.644 L52.3347 194.708 Q54.9967 191.954 59.58 187.324 Q64.1865 182.671 65.367 181.329 Q67.6124 178.806 68.492 177.07 Q69.3948 175.31 69.3948 173.62 Q69.3948 170.866 67.4504 169.13 Q65.5291 167.394 62.4272 167.394 Q60.2282 167.394 57.7745 168.158 Q55.344 168.921 52.5662 170.472 L52.5662 165.75 Q55.3903 164.616 57.8439 164.037 Q60.2976 163.459 62.3347 163.459 Q67.705 163.459 70.8994 166.144 Q74.0939 168.829 74.0939 173.32 Q74.0939 175.449 73.2837 177.37 Q72.4966 179.269 70.3902 181.861 Q69.8115 182.532 66.7096 185.75 Q63.6078 188.944 57.9597 194.708 Z" fill="#000000" fill-rule="nonzero" fill-opacity="1" /><path clip-path="url(#clip880)" d="M84.0938 192.764 L88.978 192.764 L88.978 198.644 L84.0938 198.644 L84.0938 192.764 Z" fill="#000000" fill-rule="nonzero" fill-opacity="1" /><path clip-path="url(#clip880)" d="M99.2095 164.084 L117.566 164.084 L117.566 168.019 L103.492 168.019 L103.492 176.491 Q104.51 176.144 105.529 175.982 Q106.547 175.796 107.566 175.796 Q113.353 175.796 116.733 178.968 Q120.112 182.139 120.112 187.556 Q120.112 193.134 116.64 196.236 Q113.168 199.315 106.848 199.315 Q104.672 199.315 102.404 198.944 Q100.159 198.574 97.7511 197.833 L97.7511 193.134 Q99.8345 194.269 102.057 194.824 Q104.279 195.38 106.756 195.38 Q110.76 195.38 113.098 193.273 Q115.436 191.167 115.436 187.556 Q115.436 183.945 113.098 181.838 Q110.76 179.732 106.756 179.732 Q104.881 179.732 103.006 180.148 Q101.154 180.565 99.2095 181.445 L99.2095 164.084 Z" fill="#000000" fill-rule="nonzero" fill-opacity="1" /><path clip-path="url(#clip880)" d="M1021.63 44.2197 Q1024.26 45.1109 1026.73 48.0275 Q1029.24 50.9442 1031.76 56.0483 L1040.06 72.576 L1031.27 72.576 L1023.53 57.061 Q1020.53 50.9847 1017.7 48.9997 Q1014.9 47.0148 1010.04 47.0148 L1001.13 47.0148 L1001.13 72.576 L992.948 72.576 L992.948 12.096 L1011.42 12.096 Q1021.79 12.096 1026.89 16.4305 Q1032 20.7649 1032 29.5149 Q1032 35.2267 1029.33 38.994 Q1026.69 42.7613 1021.63 44.2197 M1001.13 18.8205 L1001.13 40.2903 L1011.42 40.2903 Q1017.33 40.2903 1020.33 37.5762 Q1023.37 34.8216 1023.37 29.5149 Q1023.37 24.2082 1020.33 21.5346 Q1017.33 18.8205 1011.42 18.8205 L1001.13 18.8205 Z" fill="#000000" fill-rule="nonzero" fill-opacity="1" /><path clip-path="url(#clip880)" d="M1085.35 48.0275 L1085.35 51.6733 L1051.08 51.6733 Q1051.56 59.3701 1055.7 63.421 Q1059.87 67.4314 1067.28 67.4314 Q1071.58 67.4314 1075.59 66.3781 Q1079.64 65.3249 1083.61 63.2184 L1083.61 70.267 Q1079.6 71.9684 1075.38 72.8596 Q1071.17 73.7508 1066.84 73.7508 Q1055.98 73.7508 1049.62 67.4314 Q1043.3 61.1119 1043.3 50.3365 Q1043.3 39.1965 1049.3 32.6746 Q1055.33 26.1121 1065.54 26.1121 Q1074.7 26.1121 1080 32.0264 Q1085.35 37.9003 1085.35 48.0275 M1077.9 45.84 Q1077.81 39.7232 1074.45 36.0774 Q1071.13 32.4315 1065.62 32.4315 Q1059.38 32.4315 1055.62 35.9558 Q1051.89 39.4801 1051.32 45.8805 L1077.9 45.84 Z" fill="#000000" fill-rule="nonzero" fill-opacity="1" /><path clip-path="url(#clip880)" d="M1126.51 28.5427 L1126.51 35.5912 Q1123.35 33.9709 1119.94 33.1607 Q1116.54 32.3505 1112.9 32.3505 Q1107.35 32.3505 1104.55 34.0519 Q1101.8 35.7533 1101.8 39.156 Q1101.8 41.7486 1103.78 43.2475 Q1105.77 44.7058 1111.76 46.0426 L1114.31 46.6097 Q1122.25 48.3111 1125.57 51.4303 Q1128.94 54.509 1128.94 60.0587 Q1128.94 66.3781 1123.91 70.0644 Q1118.93 73.7508 1110.18 73.7508 Q1106.54 73.7508 1102.57 73.0216 Q1098.64 72.3329 1094.26 70.9151 L1094.26 63.2184 Q1098.39 65.3654 1102.4 66.4591 Q1106.41 67.5124 1110.34 67.5124 Q1115.61 67.5124 1118.45 65.73 Q1121.28 63.9071 1121.28 60.6258 Q1121.28 57.5877 1119.21 55.9673 Q1117.19 54.3469 1110.26 52.8481 L1107.67 52.2405 Q1100.74 50.7821 1097.66 47.7845 Q1094.59 44.7463 1094.59 39.4801 Q1094.59 33.0797 1099.12 29.5959 Q1103.66 26.1121 1112 26.1121 Q1116.14 26.1121 1119.78 26.7198 Q1123.43 27.3274 1126.51 28.5427 Z" fill="#000000" fill-rule="nonzero" fill-opacity="1" /><path clip-path="url(#clip880)" d="M1140.81 27.2059 L1148.26 27.2059 L1148.26 72.576 L1140.81 72.576 L1140.81 27.2059 M1140.81 9.54393 L1148.26 9.54393 L1148.26 18.9825 L1140.81 18.9825 L1140.81 9.54393 Z" fill="#000000" fill-rule="nonzero" fill-opacity="1" /><path clip-path="url(#clip880)" d="M1193.71 34.0924 L1193.71 9.54393 L1201.16 9.54393 L1201.16 72.576 L1193.71 72.576 L1193.71 65.7705 Q1191.36 69.8214 1187.76 71.8063 Q1184.19 73.7508 1179.17 73.7508 Q1170.94 73.7508 1165.76 67.1883 Q1160.62 60.6258 1160.62 49.9314 Q1160.62 39.2371 1165.76 32.6746 Q1170.94 26.1121 1179.17 26.1121 Q1184.19 26.1121 1187.76 28.0971 Q1191.36 30.0415 1193.71 34.0924 M1168.31 49.9314 Q1168.31 58.1548 1171.67 62.8538 Q1175.08 67.5124 1180.99 67.5124 Q1186.91 67.5124 1190.31 62.8538 Q1193.71 58.1548 1193.71 49.9314 Q1193.71 41.7081 1190.31 37.0496 Q1186.91 32.3505 1180.99 32.3505 Q1175.08 32.3505 1171.67 37.0496 Q1168.31 41.7081 1168.31 49.9314 Z" fill="#000000" fill-rule="nonzero" fill-opacity="1" /><path clip-path="url(#clip880)" d="M1215.75 54.671 L1215.75 27.2059 L1223.2 27.2059 L1223.2 54.3874 Q1223.2 60.8284 1225.71 64.0691 Q1228.22 67.2693 1233.25 67.2693 Q1239.28 67.2693 1242.77 63.421 Q1246.29 59.5726 1246.29 52.9291 L1246.29 27.2059 L1253.75 27.2059 L1253.75 72.576 L1246.29 72.576 L1246.29 65.6084 Q1243.58 69.7404 1239.97 71.7658 Q1236.41 73.7508 1231.67 73.7508 Q1223.85 73.7508 1219.8 68.8897 Q1215.75 64.0286 1215.75 54.671 M1234.5 26.1121 L1234.5 26.1121 Z" fill="#000000" fill-rule="nonzero" fill-opacity="1" /><path clip-path="url(#clip880)" d="M1289.72 49.7694 Q1280.68 49.7694 1277.2 51.8354 Q1273.72 53.9013 1273.72 58.8839 Q1273.72 62.8538 1276.31 65.2034 Q1278.94 67.5124 1283.44 67.5124 Q1289.64 67.5124 1293.36 63.1374 Q1297.13 58.7219 1297.13 51.4303 L1297.13 49.7694 L1289.72 49.7694 M1304.58 46.6907 L1304.58 72.576 L1297.13 72.576 L1297.13 65.6895 Q1294.58 69.8214 1290.77 71.8063 Q1286.96 73.7508 1281.45 73.7508 Q1274.49 73.7508 1270.35 69.8619 Q1266.26 65.9325 1266.26 59.3701 Q1266.26 51.7138 1271.37 47.825 Q1276.51 43.9361 1286.68 43.9361 L1297.13 43.9361 L1297.13 43.2069 Q1297.13 38.0623 1293.73 35.2672 Q1290.37 32.4315 1284.25 32.4315 Q1280.36 32.4315 1276.67 33.3632 Q1272.99 34.295 1269.58 36.1584 L1269.58 29.2718 Q1273.68 27.692 1277.52 26.9223 Q1281.37 26.1121 1285.02 26.1121 Q1294.86 26.1121 1299.72 31.2163 Q1304.58 36.3204 1304.58 46.6907 Z" fill="#000000" fill-rule="nonzero" fill-opacity="1" /><path clip-path="url(#clip880)" d="M1319.94 9.54393 L1327.39 9.54393 L1327.39 72.576 L1319.94 72.576 L1319.94 9.54393 Z" fill="#000000" fill-rule="nonzero" fill-opacity="1" /><path clip-path="url(#clip880)" d="M1377.87 18.8205 L1377.87 41.5461 L1388.15 41.5461 Q1393.87 41.5461 1396.99 38.5889 Q1400.1 35.6318 1400.1 30.163 Q1400.1 24.7348 1396.99 21.7777 Q1393.87 18.8205 1388.15 18.8205 L1377.87 18.8205 M1369.68 12.096 L1388.15 12.096 Q1398.32 12.096 1403.51 16.714 Q1408.73 21.2916 1408.73 30.163 Q1408.73 39.1155 1403.51 43.6931 Q1398.32 48.2706 1388.15 48.2706 L1377.87 48.2706 L1377.87 72.576 L1369.68 72.576 L1369.68 12.096 Z" fill="#000000" fill-rule="nonzero" fill-opacity="1" /><path clip-path="url(#clip880)" d="M1419.39 9.54393 L1426.84 9.54393 L1426.84 72.576 L1419.39 72.576 L1419.39 9.54393 Z" fill="#000000" fill-rule="nonzero" fill-opacity="1" /><path clip-path="url(#clip880)" d="M1460.02 32.4315 Q1454.02 32.4315 1450.54 37.1306 Q1447.05 41.7891 1447.05 49.9314 Q1447.05 58.0738 1450.5 62.7728 Q1453.98 67.4314 1460.02 67.4314 Q1465.97 67.4314 1469.46 62.7323 Q1472.94 58.0333 1472.94 49.9314 Q1472.94 41.8701 1469.46 37.1711 Q1465.97 32.4315 1460.02 32.4315 M1460.02 26.1121 Q1469.74 26.1121 1475.29 32.4315 Q1480.84 38.7509 1480.84 49.9314 Q1480.84 61.0714 1475.29 67.4314 Q1469.74 73.7508 1460.02 73.7508 Q1450.25 73.7508 1444.7 67.4314 Q1439.2 61.0714 1439.2 49.9314 Q1439.2 38.7509 1444.7 32.4315 Q1450.25 26.1121 1460.02 26.1121 Z" fill="#000000" fill-rule="nonzero" fill-opacity="1" /><path clip-path="url(#clip880)" d="M1500.57 14.324 L1500.57 27.2059 L1515.92 27.2059 L1515.92 32.9987 L1500.57 32.9987 L1500.57 57.6282 Q1500.57 63.1779 1502.07 64.7578 Q1503.61 66.3376 1508.26 66.3376 L1515.92 66.3376 L1515.92 72.576 L1508.26 72.576 Q1499.64 72.576 1496.35 69.3758 Q1493.07 66.1351 1493.07 57.6282 L1493.07 32.9987 L1487.6 32.9987 L1487.6 27.2059 L1493.07 27.2059 L1493.07 14.324 L1500.57 14.324 Z" fill="#000000" fill-rule="nonzero" fill-opacity="1" /><polyline clip-path="url(#clip882)" style="stroke:#009af9; stroke-linecap:round; stroke-linejoin:round; stroke-width:4; stroke-opacity:1; fill:none" points="218.281,160.256 239.214,870.851 260.146,909.734 281.078,909.734 302.011,909.734 322.943,909.734 343.876,909.734 364.808,909.734 385.74,909.734 406.673,909.734 427.605,909.734 448.537,909.734 469.47,909.734 490.402,909.734 511.335,909.734 532.267,909.734 553.199,909.734 574.132,909.734 595.064,909.734 615.996,909.734 636.929,909.734 657.861,909.734 678.794,909.734 699.726,909.734 720.658,909.734 741.591,909.734 762.523,909.734 783.456,909.734 804.388,909.734 825.32,909.734 846.253,909.734 867.185,909.734 888.117,909.734 909.05,909.734 929.982,909.734 950.915,909.734 971.847,909.734 992.779,909.734 1013.71,909.734 1034.64,909.734 1055.58,909.734 1076.51,909.734 1097.44,909.734 1118.37,909.734 1139.31,909.734 1160.24,909.734 1181.17,909.734 1202.1,909.734 1223.04,909.734 1243.97,1386.4 1264.9,1386.4 1285.83,1386.4 1306.76,1386.4 1327.7,1386.4 1348.63,1386.4 1369.56,1386.4 1390.49,1386.4 1411.43,1386.4 1432.36,1386.4 1453.29,1386.4 1474.22,1386.4 1495.16,1386.4 1516.09,1386.4 1537.02,1386.4 1557.95,1386.4 1578.89,1386.4 1599.82,1386.4 1620.75,1386.4 1641.68,1386.4 1662.62,1386.4 1683.55,1386.4 1704.48,1386.4 1725.41,1386.4 1746.34,1386.4 1767.28,1386.4 1788.21,1386.4 1809.14,1386.4 1830.07,1386.4 1851.01,1386.4 1871.94,1386.4 1892.87,1386.4 1913.8,1386.4 1934.74,1386.4 1955.67,1386.4 1976.6,1386.4 1997.53,1386.4 2018.47,1386.4 2039.4,1386.4 2060.33,1386.4 2081.26,1386.4 2102.2,1386.4 2123.13,1386.4 2144.06,1386.4 2164.99,1386.4 2185.92,1386.4 2206.86,1386.4 2227.79,1386.4 2248.72,1386.4 2269.65,1386.4 2290.59,1386.4 "/>
<path clip-path="url(#clip880)" d="M1120.25 270.476 L2279.53 270.476 L2279.53 166.796 L1120.25 166.796  Z" fill="#ffffff" fill-rule="evenodd" fill-opacity="1"/>
<polyline clip-path="url(#clip880)" style="stroke:#000000; stroke-linecap:round; stroke-linejoin:round; stroke-width:4; stroke-opacity:1; fill:none" points="1120.25,270.476 2279.53,270.476 2279.53,166.796 1120.25,166.796 1120.25,270.476 "/>
<polyline clip-path="url(#clip880)" style="stroke:#009af9; stroke-linecap:round; stroke-linejoin:round; stroke-width:4; stroke-opacity:1; fill:none" points="1144.65,218.636 1291.1,218.636 "/>
<path clip-path="url(#clip880)" d="M1315.5 201.356 L1322.47 201.356 L1331.29 224.874 L1340.16 201.356 L1347.12 201.356 L1347.12 235.916 L1342.56 235.916 L1342.56 205.569 L1333.65 229.272 L1328.95 229.272 L1320.04 205.569 L1320.04 235.916 L1315.5 235.916 L1315.5 201.356 Z" fill="#000000" fill-rule="nonzero" fill-opacity="1" /><path clip-path="url(#clip880)" d="M1368 222.883 Q1362.84 222.883 1360.85 224.064 Q1358.86 225.244 1358.86 228.092 Q1358.86 230.36 1360.34 231.703 Q1361.85 233.022 1364.41 233.022 Q1367.96 233.022 1370.09 230.522 Q1372.24 227.999 1372.24 223.832 L1372.24 222.883 L1368 222.883 M1376.5 221.124 L1376.5 235.916 L1372.24 235.916 L1372.24 231.981 Q1370.78 234.342 1368.6 235.476 Q1366.43 236.587 1363.28 236.587 Q1359.3 236.587 1356.94 234.365 Q1354.6 232.119 1354.6 228.369 Q1354.6 223.994 1357.52 221.772 Q1360.46 219.55 1366.27 219.55 L1372.24 219.55 L1372.24 219.133 Q1372.24 216.194 1370.29 214.596 Q1368.37 212.976 1364.88 212.976 Q1362.66 212.976 1360.55 213.508 Q1358.44 214.041 1356.5 215.106 L1356.5 211.17 Q1358.84 210.268 1361.03 209.828 Q1363.23 209.365 1365.32 209.365 Q1370.94 209.365 1373.72 212.282 Q1376.5 215.198 1376.5 221.124 Z" fill="#000000" fill-rule="nonzero" fill-opacity="1" /><path clip-path="url(#clip880)" d="M1406.82 209.99 L1397.45 222.606 L1407.31 235.916 L1402.28 235.916 L1394.74 225.731 L1387.19 235.916 L1382.17 235.916 L1392.24 222.351 L1383.03 209.99 L1388.05 209.99 L1394.92 219.226 L1401.8 209.99 L1406.82 209.99 Z" fill="#000000" fill-rule="nonzero" fill-opacity="1" /><path clip-path="url(#clip880)" d="M1413.33 209.99 L1417.59 209.99 L1417.59 235.916 L1413.33 235.916 L1413.33 209.99 M1413.33 199.897 L1417.59 199.897 L1417.59 205.291 L1413.33 205.291 L1413.33 199.897 Z" fill="#000000" fill-rule="nonzero" fill-opacity="1" /><path clip-path="url(#clip880)" d="M1446.68 214.967 Q1448.28 212.096 1450.5 210.731 Q1452.72 209.365 1455.73 209.365 Q1459.78 209.365 1461.98 212.212 Q1464.18 215.036 1464.18 220.268 L1464.18 235.916 L1459.9 235.916 L1459.9 220.407 Q1459.9 216.68 1458.58 214.874 Q1457.26 213.069 1454.55 213.069 Q1451.24 213.069 1449.32 215.268 Q1447.4 217.467 1447.4 221.263 L1447.4 235.916 L1443.12 235.916 L1443.12 220.407 Q1443.12 216.657 1441.8 214.874 Q1440.48 213.069 1437.72 213.069 Q1434.46 213.069 1432.54 215.291 Q1430.62 217.49 1430.62 221.263 L1430.62 235.916 L1426.34 235.916 L1426.34 209.99 L1430.62 209.99 L1430.62 214.018 Q1432.08 211.633 1434.11 210.499 Q1436.15 209.365 1438.95 209.365 Q1441.78 209.365 1443.74 210.8 Q1445.73 212.235 1446.68 214.967 Z" fill="#000000" fill-rule="nonzero" fill-opacity="1" /><path clip-path="url(#clip880)" d="M1472.24 225.684 L1472.24 209.99 L1476.5 209.99 L1476.5 225.522 Q1476.5 229.203 1477.93 231.055 Q1479.37 232.883 1482.24 232.883 Q1485.69 232.883 1487.68 230.684 Q1489.69 228.485 1489.69 224.689 L1489.69 209.99 L1493.95 209.99 L1493.95 235.916 L1489.69 235.916 L1489.69 231.934 Q1488.14 234.295 1486.08 235.453 Q1484.04 236.587 1481.34 236.587 Q1476.87 236.587 1474.55 233.809 Q1472.24 231.031 1472.24 225.684 M1482.96 209.365 L1482.96 209.365 Z" fill="#000000" fill-rule="nonzero" fill-opacity="1" /><path clip-path="url(#clip880)" d="M1522.91 214.967 Q1524.51 212.096 1526.73 210.731 Q1528.95 209.365 1531.96 209.365 Q1536.01 209.365 1538.21 212.212 Q1540.41 215.036 1540.41 220.268 L1540.41 235.916 L1536.13 235.916 L1536.13 220.407 Q1536.13 216.68 1534.81 214.874 Q1533.49 213.069 1530.78 213.069 Q1527.47 213.069 1525.55 215.268 Q1523.63 217.467 1523.63 221.263 L1523.63 235.916 L1519.34 235.916 L1519.34 220.407 Q1519.34 216.657 1518.02 214.874 Q1516.71 213.069 1513.95 213.069 Q1510.69 213.069 1508.77 215.291 Q1506.84 217.49 1506.84 221.263 L1506.84 235.916 L1502.56 235.916 L1502.56 209.99 L1506.84 209.99 L1506.84 214.018 Q1508.3 211.633 1510.34 210.499 Q1512.38 209.365 1515.18 209.365 Q1518 209.365 1519.97 210.8 Q1521.96 212.235 1522.91 214.967 Z" fill="#000000" fill-rule="nonzero" fill-opacity="1" /><path clip-path="url(#clip880)" d="M1574.02 212.976 Q1570.59 212.976 1568.6 215.661 Q1566.61 218.323 1566.61 222.976 Q1566.61 227.629 1568.58 230.314 Q1570.57 232.976 1574.02 232.976 Q1577.42 232.976 1579.41 230.291 Q1581.4 227.606 1581.4 222.976 Q1581.4 218.37 1579.41 215.684 Q1577.42 212.976 1574.02 212.976 M1574.02 209.365 Q1579.58 209.365 1582.75 212.976 Q1585.92 216.587 1585.92 222.976 Q1585.92 229.342 1582.75 232.976 Q1579.58 236.587 1574.02 236.587 Q1568.44 236.587 1565.27 232.976 Q1562.12 229.342 1562.12 222.976 Q1562.12 216.587 1565.27 212.976 Q1568.44 209.365 1574.02 209.365 Z" fill="#000000" fill-rule="nonzero" fill-opacity="1" /><path clip-path="url(#clip880)" d="M1606.1 199.897 L1606.1 203.439 L1602.03 203.439 Q1599.74 203.439 1598.83 204.365 Q1597.95 205.291 1597.95 207.698 L1597.95 209.99 L1604.97 209.99 L1604.97 213.3 L1597.95 213.3 L1597.95 235.916 L1593.67 235.916 L1593.67 213.3 L1589.6 213.3 L1589.6 209.99 L1593.67 209.99 L1593.67 208.184 Q1593.67 203.856 1595.69 201.888 Q1597.7 199.897 1602.08 199.897 L1606.1 199.897 Z" fill="#000000" fill-rule="nonzero" fill-opacity="1" /><path clip-path="url(#clip880)" d="M1639.76 213.971 Q1639.04 213.555 1638.19 213.37 Q1637.35 213.161 1636.33 213.161 Q1632.72 213.161 1630.78 215.522 Q1628.86 217.86 1628.86 222.258 L1628.86 235.916 L1624.58 235.916 L1624.58 209.99 L1628.86 209.99 L1628.86 214.018 Q1630.2 211.657 1632.35 210.522 Q1634.51 209.365 1637.58 209.365 Q1638.02 209.365 1638.56 209.434 Q1639.09 209.481 1639.74 209.596 L1639.76 213.971 Z" fill="#000000" fill-rule="nonzero" fill-opacity="1" /><path clip-path="url(#clip880)" d="M1665.36 221.888 L1665.36 223.971 L1645.78 223.971 Q1646.06 228.369 1648.42 230.684 Q1650.8 232.976 1655.04 232.976 Q1657.49 232.976 1659.78 232.374 Q1662.1 231.772 1664.37 230.569 L1664.37 234.596 Q1662.07 235.568 1659.67 236.078 Q1657.26 236.587 1654.78 236.587 Q1648.58 236.587 1644.95 232.976 Q1641.33 229.365 1641.33 223.207 Q1641.33 216.842 1644.76 213.115 Q1648.21 209.365 1654.04 209.365 Q1659.27 209.365 1662.31 212.745 Q1665.36 216.101 1665.36 221.888 M1661.1 220.638 Q1661.06 217.143 1659.14 215.059 Q1657.24 212.976 1654.09 212.976 Q1650.52 212.976 1648.37 214.99 Q1646.24 217.004 1645.92 220.661 L1661.1 220.638 Z" fill="#000000" fill-rule="nonzero" fill-opacity="1" /><path clip-path="url(#clip880)" d="M1688.88 210.754 L1688.88 214.782 Q1687.07 213.856 1685.13 213.393 Q1683.19 212.93 1681.1 212.93 Q1677.93 212.93 1676.33 213.902 Q1674.76 214.874 1674.76 216.819 Q1674.76 218.3 1675.89 219.157 Q1677.03 219.99 1680.45 220.754 L1681.91 221.078 Q1686.45 222.05 1688.35 223.832 Q1690.27 225.592 1690.27 228.763 Q1690.27 232.374 1687.4 234.481 Q1684.55 236.587 1679.55 236.587 Q1677.47 236.587 1675.2 236.17 Q1672.95 235.777 1670.45 234.967 L1670.45 230.569 Q1672.82 231.795 1675.11 232.42 Q1677.4 233.022 1679.64 233.022 Q1682.65 233.022 1684.27 232.004 Q1685.89 230.962 1685.89 229.087 Q1685.89 227.351 1684.71 226.425 Q1683.56 225.499 1679.6 224.643 L1678.12 224.295 Q1674.16 223.462 1672.4 221.749 Q1670.64 220.013 1670.64 217.004 Q1670.64 213.346 1673.23 211.356 Q1675.82 209.365 1680.59 209.365 Q1682.95 209.365 1685.04 209.712 Q1687.12 210.059 1688.88 210.754 Z" fill="#000000" fill-rule="nonzero" fill-opacity="1" /><path clip-path="url(#clip880)" d="M1697.05 209.99 L1701.31 209.99 L1701.31 235.916 L1697.05 235.916 L1697.05 209.99 M1697.05 199.897 L1701.31 199.897 L1701.31 205.291 L1697.05 205.291 L1697.05 199.897 Z" fill="#000000" fill-rule="nonzero" fill-opacity="1" /><path clip-path="url(#clip880)" d="M1727.28 213.925 L1727.28 199.897 L1731.54 199.897 L1731.54 235.916 L1727.28 235.916 L1727.28 232.027 Q1725.94 234.342 1723.88 235.476 Q1721.84 236.587 1718.97 236.587 Q1714.27 236.587 1711.31 232.837 Q1708.37 229.087 1708.37 222.976 Q1708.37 216.865 1711.31 213.115 Q1714.27 209.365 1718.97 209.365 Q1721.84 209.365 1723.88 210.499 Q1725.94 211.61 1727.28 213.925 M1712.77 222.976 Q1712.77 227.675 1714.69 230.36 Q1716.63 233.022 1720.01 233.022 Q1723.39 233.022 1725.34 230.36 Q1727.28 227.675 1727.28 222.976 Q1727.28 218.277 1725.34 215.615 Q1723.39 212.93 1720.01 212.93 Q1716.63 212.93 1714.69 215.615 Q1712.77 218.277 1712.77 222.976 Z" fill="#000000" fill-rule="nonzero" fill-opacity="1" /><path clip-path="url(#clip880)" d="M1739.88 225.684 L1739.88 209.99 L1744.13 209.99 L1744.13 225.522 Q1744.13 229.203 1745.57 231.055 Q1747.01 232.883 1749.88 232.883 Q1753.32 232.883 1755.32 230.684 Q1757.33 228.485 1757.33 224.689 L1757.33 209.99 L1761.59 209.99 L1761.59 235.916 L1757.33 235.916 L1757.33 231.934 Q1755.78 234.295 1753.72 235.453 Q1751.68 236.587 1748.97 236.587 Q1744.51 236.587 1742.19 233.809 Q1739.88 231.031 1739.88 225.684 M1750.59 209.365 L1750.59 209.365 Z" fill="#000000" fill-rule="nonzero" fill-opacity="1" /><path clip-path="url(#clip880)" d="M1782.14 222.883 Q1776.98 222.883 1774.99 224.064 Q1773 225.244 1773 228.092 Q1773 230.36 1774.48 231.703 Q1775.99 233.022 1778.56 233.022 Q1782.1 233.022 1784.23 230.522 Q1786.38 227.999 1786.38 223.832 L1786.38 222.883 L1782.14 222.883 M1790.64 221.124 L1790.64 235.916 L1786.38 235.916 L1786.38 231.981 Q1784.92 234.342 1782.75 235.476 Q1780.57 236.587 1777.42 236.587 Q1773.44 236.587 1771.08 234.365 Q1768.74 232.119 1768.74 228.369 Q1768.74 223.994 1771.66 221.772 Q1774.6 219.55 1780.41 219.55 L1786.38 219.55 L1786.38 219.133 Q1786.38 216.194 1784.44 214.596 Q1782.51 212.976 1779.02 212.976 Q1776.8 212.976 1774.69 213.508 Q1772.58 214.041 1770.64 215.106 L1770.64 211.17 Q1772.98 210.268 1775.18 209.828 Q1777.38 209.365 1779.46 209.365 Q1785.08 209.365 1787.86 212.282 Q1790.64 215.198 1790.64 221.124 Z" fill="#000000" fill-rule="nonzero" fill-opacity="1" /><path clip-path="url(#clip880)" d="M1799.41 199.897 L1803.67 199.897 L1803.67 235.916 L1799.41 235.916 L1799.41 199.897 Z" fill="#000000" fill-rule="nonzero" fill-opacity="1" /><path clip-path="url(#clip880)" d="M1844.23 219.712 Q1845.73 220.221 1847.14 221.888 Q1848.58 223.555 1850.01 226.471 L1854.76 235.916 L1849.74 235.916 L1845.31 227.05 Q1843.6 223.578 1841.98 222.444 Q1840.38 221.309 1837.61 221.309 L1832.51 221.309 L1832.51 235.916 L1827.84 235.916 L1827.84 201.356 L1838.39 201.356 Q1844.32 201.356 1847.24 203.833 Q1850.15 206.309 1850.15 211.309 Q1850.15 214.573 1848.62 216.726 Q1847.12 218.879 1844.23 219.712 M1832.51 205.198 L1832.51 217.467 L1838.39 217.467 Q1841.77 217.467 1843.49 215.916 Q1845.22 214.342 1845.22 211.309 Q1845.22 208.277 1843.49 206.749 Q1841.77 205.198 1838.39 205.198 L1832.51 205.198 Z" fill="#000000" fill-rule="nonzero" fill-opacity="1" /><path clip-path="url(#clip880)" d="M1875.66 209.99 L1879.92 209.99 L1879.92 235.916 L1875.66 235.916 L1875.66 209.99 M1875.66 199.897 L1879.92 199.897 L1879.92 205.291 L1875.66 205.291 L1875.66 199.897 Z" fill="#000000" fill-rule="nonzero" fill-opacity="1" /><path clip-path="url(#clip880)" d="M1910.38 220.268 L1910.38 235.916 L1906.12 235.916 L1906.12 220.407 Q1906.12 216.726 1904.69 214.897 Q1903.25 213.069 1900.38 213.069 Q1896.93 213.069 1894.94 215.268 Q1892.95 217.467 1892.95 221.263 L1892.95 235.916 L1888.67 235.916 L1888.67 209.99 L1892.95 209.99 L1892.95 214.018 Q1894.48 211.68 1896.54 210.522 Q1898.62 209.365 1901.33 209.365 Q1905.8 209.365 1908.09 212.143 Q1910.38 214.897 1910.38 220.268 Z" fill="#000000" fill-rule="nonzero" fill-opacity="1" /><path clip-path="url(#clip880)" d="M1956.12 221.888 L1956.12 223.971 L1936.54 223.971 Q1936.82 228.369 1939.18 230.684 Q1941.56 232.976 1945.8 232.976 Q1948.25 232.976 1950.55 232.374 Q1952.86 231.772 1955.13 230.569 L1955.13 234.596 Q1952.84 235.568 1950.43 236.078 Q1948.02 236.587 1945.55 236.587 Q1939.34 236.587 1935.71 232.976 Q1932.1 229.365 1932.1 223.207 Q1932.1 216.842 1935.52 213.115 Q1938.97 209.365 1944.8 209.365 Q1950.04 209.365 1953.07 212.745 Q1956.12 216.101 1956.12 221.888 M1951.87 220.638 Q1951.82 217.143 1949.9 215.059 Q1948 212.976 1944.85 212.976 Q1941.29 212.976 1939.13 214.99 Q1937 217.004 1936.68 220.661 L1951.87 220.638 Z" fill="#000000" fill-rule="nonzero" fill-opacity="1" /><path clip-path="url(#clip880)" d="M1974.9 222.883 Q1969.74 222.883 1967.74 224.064 Q1965.75 225.244 1965.75 228.092 Q1965.75 230.36 1967.24 231.703 Q1968.74 233.022 1971.31 233.022 Q1974.85 233.022 1976.98 230.522 Q1979.13 227.999 1979.13 223.832 L1979.13 222.883 L1974.9 222.883 M1983.39 221.124 L1983.39 235.916 L1979.13 235.916 L1979.13 231.981 Q1977.68 234.342 1975.5 235.476 Q1973.32 236.587 1970.18 236.587 Q1966.19 236.587 1963.83 234.365 Q1961.49 232.119 1961.49 228.369 Q1961.49 223.994 1964.41 221.772 Q1967.35 219.55 1973.16 219.55 L1979.13 219.55 L1979.13 219.133 Q1979.13 216.194 1977.19 214.596 Q1975.27 212.976 1971.77 212.976 Q1969.55 212.976 1967.44 213.508 Q1965.34 214.041 1963.39 215.106 L1963.39 211.17 Q1965.73 210.268 1967.93 209.828 Q1970.13 209.365 1972.21 209.365 Q1977.84 209.365 1980.61 212.282 Q1983.39 215.198 1983.39 221.124 Z" fill="#000000" fill-rule="nonzero" fill-opacity="1" /><path clip-path="url(#clip880)" d="M2010.82 210.985 L2010.82 214.967 Q2009.02 213.971 2007.19 213.485 Q2005.38 212.976 2003.53 212.976 Q1999.39 212.976 1997.1 215.615 Q1994.8 218.231 1994.8 222.976 Q1994.8 227.721 1997.1 230.36 Q1999.39 232.976 2003.53 232.976 Q2005.38 232.976 2007.19 232.49 Q2009.02 231.981 2010.82 230.985 L2010.82 234.92 Q2009.04 235.754 2007.12 236.17 Q2005.22 236.587 2003.07 236.587 Q1997.21 236.587 1993.76 232.906 Q1990.31 229.226 1990.31 222.976 Q1990.31 216.633 1993.79 212.999 Q1997.28 209.365 2003.35 209.365 Q2005.31 209.365 2007.19 209.782 Q2009.06 210.175 2010.82 210.985 Z" fill="#000000" fill-rule="nonzero" fill-opacity="1" /><path clip-path="url(#clip880)" d="M2039.78 220.268 L2039.78 235.916 L2035.52 235.916 L2035.52 220.407 Q2035.52 216.726 2034.09 214.897 Q2032.65 213.069 2029.78 213.069 Q2026.33 213.069 2024.34 215.268 Q2022.35 217.467 2022.35 221.263 L2022.35 235.916 L2018.07 235.916 L2018.07 199.897 L2022.35 199.897 L2022.35 214.018 Q2023.88 211.68 2025.94 210.522 Q2028.02 209.365 2030.73 209.365 Q2035.2 209.365 2037.49 212.143 Q2039.78 214.897 2039.78 220.268 Z" fill="#000000" fill-rule="nonzero" fill-opacity="1" /><path clip-path="url(#clip880)" d="M2063.35 209.99 L2067.61 209.99 L2067.61 235.916 L2063.35 235.916 L2063.35 209.99 M2063.35 199.897 L2067.61 199.897 L2067.61 205.291 L2063.35 205.291 L2063.35 199.897 Z" fill="#000000" fill-rule="nonzero" fill-opacity="1" /><path clip-path="url(#clip880)" d="M2080.73 202.629 L2080.73 209.99 L2089.5 209.99 L2089.5 213.3 L2080.73 213.3 L2080.73 227.374 Q2080.73 230.545 2081.59 231.448 Q2082.47 232.351 2085.13 232.351 L2089.5 232.351 L2089.5 235.916 L2085.13 235.916 Q2080.2 235.916 2078.32 234.087 Q2076.45 232.235 2076.45 227.374 L2076.45 213.3 L2073.32 213.3 L2073.32 209.99 L2076.45 209.99 L2076.45 202.629 L2080.73 202.629 Z" fill="#000000" fill-rule="nonzero" fill-opacity="1" /><path clip-path="url(#clip880)" d="M2117.28 221.888 L2117.28 223.971 L2097.7 223.971 Q2097.98 228.369 2100.34 230.684 Q2102.72 232.976 2106.96 232.976 Q2109.41 232.976 2111.7 232.374 Q2114.02 231.772 2116.29 230.569 L2116.29 234.596 Q2113.99 235.568 2111.59 236.078 Q2109.18 236.587 2106.7 236.587 Q2100.5 236.587 2096.86 232.976 Q2093.25 229.365 2093.25 223.207 Q2093.25 216.842 2096.68 213.115 Q2100.13 209.365 2105.96 209.365 Q2111.19 209.365 2114.23 212.745 Q2117.28 216.101 2117.28 221.888 M2113.02 220.638 Q2112.98 217.143 2111.05 215.059 Q2109.16 212.976 2106.01 212.976 Q2102.44 212.976 2100.29 214.99 Q2098.16 217.004 2097.84 220.661 L2113.02 220.638 Z" fill="#000000" fill-rule="nonzero" fill-opacity="1" /><path clip-path="url(#clip880)" d="M2139.29 213.971 Q2138.58 213.555 2137.72 213.37 Q2136.89 213.161 2135.87 213.161 Q2132.26 213.161 2130.31 215.522 Q2128.39 217.86 2128.39 222.258 L2128.39 235.916 L2124.11 235.916 L2124.11 209.99 L2128.39 209.99 L2128.39 214.018 Q2129.73 211.657 2131.89 210.522 Q2134.04 209.365 2137.12 209.365 Q2137.56 209.365 2138.09 209.434 Q2138.62 209.481 2139.27 209.596 L2139.29 213.971 Z" fill="#000000" fill-rule="nonzero" fill-opacity="1" /><path clip-path="url(#clip880)" d="M2155.54 222.883 Q2150.38 222.883 2148.39 224.064 Q2146.4 225.244 2146.4 228.092 Q2146.4 230.36 2147.88 231.703 Q2149.39 233.022 2151.96 233.022 Q2155.5 233.022 2157.63 230.522 Q2159.78 227.999 2159.78 223.832 L2159.78 222.883 L2155.54 222.883 M2164.04 221.124 L2164.04 235.916 L2159.78 235.916 L2159.78 231.981 Q2158.32 234.342 2156.15 235.476 Q2153.97 236.587 2150.82 236.587 Q2146.84 236.587 2144.48 234.365 Q2142.14 232.119 2142.14 228.369 Q2142.14 223.994 2145.06 221.772 Q2148 219.55 2153.81 219.55 L2159.78 219.55 L2159.78 219.133 Q2159.78 216.194 2157.84 214.596 Q2155.91 212.976 2152.42 212.976 Q2150.2 212.976 2148.09 213.508 Q2145.98 214.041 2144.04 215.106 L2144.04 211.17 Q2146.38 210.268 2148.58 209.828 Q2150.78 209.365 2152.86 209.365 Q2158.48 209.365 2161.26 212.282 Q2164.04 215.198 2164.04 221.124 Z" fill="#000000" fill-rule="nonzero" fill-opacity="1" /><path clip-path="url(#clip880)" d="M2177.03 202.629 L2177.03 209.99 L2185.8 209.99 L2185.8 213.3 L2177.03 213.3 L2177.03 227.374 Q2177.03 230.545 2177.88 231.448 Q2178.76 232.351 2181.42 232.351 L2185.8 232.351 L2185.8 235.916 L2181.42 235.916 Q2176.49 235.916 2174.62 234.087 Q2172.74 232.235 2172.74 227.374 L2172.74 213.3 L2169.62 213.3 L2169.62 209.99 L2172.74 209.99 L2172.74 202.629 L2177.03 202.629 Z" fill="#000000" fill-rule="nonzero" fill-opacity="1" /><path clip-path="url(#clip880)" d="M2191.4 209.99 L2195.66 209.99 L2195.66 235.916 L2191.4 235.916 L2191.4 209.99 M2191.4 199.897 L2195.66 199.897 L2195.66 205.291 L2191.4 205.291 L2191.4 199.897 Z" fill="#000000" fill-rule="nonzero" fill-opacity="1" /><path clip-path="url(#clip880)" d="M2214.62 212.976 Q2211.19 212.976 2209.2 215.661 Q2207.21 218.323 2207.21 222.976 Q2207.21 227.629 2209.18 230.314 Q2211.17 232.976 2214.62 232.976 Q2218.02 232.976 2220.01 230.291 Q2222 227.606 2222 222.976 Q2222 218.37 2220.01 215.684 Q2218.02 212.976 2214.62 212.976 M2214.62 209.365 Q2220.17 209.365 2223.35 212.976 Q2226.52 216.587 2226.52 222.976 Q2226.52 229.342 2223.35 232.976 Q2220.17 236.587 2214.62 236.587 Q2209.04 236.587 2205.87 232.976 Q2202.72 229.342 2202.72 222.976 Q2202.72 216.587 2205.87 212.976 Q2209.04 209.365 2214.62 209.365 Z" fill="#000000" fill-rule="nonzero" fill-opacity="1" /><path clip-path="url(#clip880)" d="M2255.13 220.268 L2255.13 235.916 L2250.87 235.916 L2250.87 220.407 Q2250.87 216.726 2249.43 214.897 Q2248 213.069 2245.13 213.069 Q2241.68 213.069 2239.69 215.268 Q2237.7 217.467 2237.7 221.263 L2237.7 235.916 L2233.41 235.916 L2233.41 209.99 L2237.7 209.99 L2237.7 214.018 Q2239.22 211.68 2241.28 210.522 Q2243.37 209.365 2246.08 209.365 Q2250.54 209.365 2252.84 212.143 Q2255.13 214.897 2255.13 220.268 Z" fill="#000000" fill-rule="nonzero" fill-opacity="1" /></svg>
