<?xml version="1.0" encoding="utf-8"?>
<svg xmlns="http://www.w3.org/2000/svg" xmlns:xlink="http://www.w3.org/1999/xlink" width="600" height="400" viewBox="0 0 2400 1600">
<defs>
  <clipPath id="clip050">
    <rect x="0" y="0" width="2400" height="1600"/>
  </clipPath>
</defs>
<path clip-path="url(#clip050)" d="M0 1600 L2400 1600 L2400 0 L0 0  Z" fill="#ffffff" fill-rule="evenodd" fill-opacity="1"/>
<defs>
  <clipPath id="clip051">
    <rect x="480" y="0" width="1681" height="1600"/>
  </clipPath>
</defs>
<path clip-path="url(#clip050)" d="M178.867 1486.45 L2352.76 1486.45 L2352.76 47.2441 L178.867 47.2441  Z" fill="#ffffff" fill-rule="evenodd" fill-opacity="1"/>
<defs>
  <clipPath id="clip052">
    <rect x="178" y="47" width="2175" height="1440"/>
  </clipPath>
</defs>
<polyline clip-path="url(#clip052)" style="stroke:#000000; stroke-linecap:round; stroke-linejoin:round; stroke-width:2; stroke-opacity:0.1; fill:none" points="236.29,1486.45 236.29,47.2441 "/>
<polyline clip-path="url(#clip052)" style="stroke:#000000; stroke-linecap:round; stroke-linejoin:round; stroke-width:2; stroke-opacity:0.1; fill:none" points="646.458,1486.45 646.458,47.2441 "/>
<polyline clip-path="url(#clip052)" style="stroke:#000000; stroke-linecap:round; stroke-linejoin:round; stroke-width:2; stroke-opacity:0.1; fill:none" points="1056.63,1486.45 1056.63,47.2441 "/>
<polyline clip-path="url(#clip052)" style="stroke:#000000; stroke-linecap:round; stroke-linejoin:round; stroke-width:2; stroke-opacity:0.1; fill:none" points="1466.79,1486.45 1466.79,47.2441 "/>
<polyline clip-path="url(#clip052)" style="stroke:#000000; stroke-linecap:round; stroke-linejoin:round; stroke-width:2; stroke-opacity:0.1; fill:none" points="1876.96,1486.45 1876.96,47.2441 "/>
<polyline clip-path="url(#clip052)" style="stroke:#000000; stroke-linecap:round; stroke-linejoin:round; stroke-width:2; stroke-opacity:0.1; fill:none" points="2287.13,1486.45 2287.13,47.2441 "/>
<polyline clip-path="url(#clip052)" style="stroke:#000000; stroke-linecap:round; stroke-linejoin:round; stroke-width:2; stroke-opacity:0.1; fill:none" points="178.867,1445.95 2352.76,1445.95 "/>
<polyline clip-path="url(#clip052)" style="stroke:#000000; stroke-linecap:round; stroke-linejoin:round; stroke-width:2; stroke-opacity:0.1; fill:none" points="178.867,1106.46 2352.76,1106.46 "/>
<polyline clip-path="url(#clip052)" style="stroke:#000000; stroke-linecap:round; stroke-linejoin:round; stroke-width:2; stroke-opacity:0.1; fill:none" points="178.867,766.964 2352.76,766.964 "/>
<polyline clip-path="url(#clip052)" style="stroke:#000000; stroke-linecap:round; stroke-linejoin:round; stroke-width:2; stroke-opacity:0.1; fill:none" points="178.867,427.47 2352.76,427.47 "/>
<polyline clip-path="url(#clip052)" style="stroke:#000000; stroke-linecap:round; stroke-linejoin:round; stroke-width:2; stroke-opacity:0.1; fill:none" points="178.867,87.9763 2352.76,87.9763 "/>
<polyline clip-path="url(#clip050)" style="stroke:#000000; stroke-linecap:round; stroke-linejoin:round; stroke-width:4; stroke-opacity:1; fill:none" points="178.867,1486.45 2352.76,1486.45 "/>
<polyline clip-path="url(#clip050)" style="stroke:#000000; stroke-linecap:round; stroke-linejoin:round; stroke-width:4; stroke-opacity:1; fill:none" points="236.29,1486.45 236.29,1467.55 "/>
<polyline clip-path="url(#clip050)" style="stroke:#000000; stroke-linecap:round; stroke-linejoin:round; stroke-width:4; stroke-opacity:1; fill:none" points="646.458,1486.45 646.458,1467.55 "/>
<polyline clip-path="url(#clip050)" style="stroke:#000000; stroke-linecap:round; stroke-linejoin:round; stroke-width:4; stroke-opacity:1; fill:none" points="1056.63,1486.45 1056.63,1467.55 "/>
<polyline clip-path="url(#clip050)" style="stroke:#000000; stroke-linecap:round; stroke-linejoin:round; stroke-width:4; stroke-opacity:1; fill:none" points="1466.79,1486.45 1466.79,1467.55 "/>
<polyline clip-path="url(#clip050)" style="stroke:#000000; stroke-linecap:round; stroke-linejoin:round; stroke-width:4; stroke-opacity:1; fill:none" points="1876.96,1486.45 1876.96,1467.55 "/>
<polyline clip-path="url(#clip050)" style="stroke:#000000; stroke-linecap:round; stroke-linejoin:round; stroke-width:4; stroke-opacity:1; fill:none" points="2287.13,1486.45 2287.13,1467.55 "/>
<path clip-path="url(#clip050)" d="M236.29 1517.37 Q232.679 1517.37 230.85 1520.93 Q229.045 1524.47 229.045 1531.6 Q229.045 1538.71 230.85 1542.27 Q232.679 1545.82 236.29 1545.82 Q239.924 1545.82 241.73 1542.27 Q243.559 1538.71 243.559 1531.6 Q243.559 1524.47 241.73 1520.93 Q239.924 1517.37 236.29 1517.37 M236.29 1513.66 Q242.1 1513.66 245.156 1518.27 Q248.235 1522.85 248.235 1531.6 Q248.235 1540.33 245.156 1544.94 Q242.1 1549.52 236.29 1549.52 Q230.48 1549.52 227.401 1544.94 Q224.346 1540.33 224.346 1531.6 Q224.346 1522.85 227.401 1518.27 Q230.48 1513.66 236.29 1513.66 Z" fill="#000000" fill-rule="nonzero" fill-opacity="1" /><path clip-path="url(#clip050)" d="M606.065 1544.91 L613.703 1544.91 L613.703 1518.55 L605.393 1520.21 L605.393 1515.95 L613.657 1514.29 L618.333 1514.29 L618.333 1544.91 L625.972 1544.91 L625.972 1548.85 L606.065 1548.85 L606.065 1544.91 Z" fill="#000000" fill-rule="nonzero" fill-opacity="1" /><path clip-path="url(#clip050)" d="M645.416 1517.37 Q641.805 1517.37 639.976 1520.93 Q638.171 1524.47 638.171 1531.6 Q638.171 1538.71 639.976 1542.27 Q641.805 1545.82 645.416 1545.82 Q649.05 1545.82 650.856 1542.27 Q652.685 1538.71 652.685 1531.6 Q652.685 1524.47 650.856 1520.93 Q649.05 1517.37 645.416 1517.37 M645.416 1513.66 Q651.226 1513.66 654.282 1518.27 Q657.361 1522.85 657.361 1531.6 Q657.361 1540.33 654.282 1544.94 Q651.226 1549.52 645.416 1549.52 Q639.606 1549.52 636.527 1544.94 Q633.472 1540.33 633.472 1531.6 Q633.472 1522.85 636.527 1518.27 Q639.606 1513.66 645.416 1513.66 Z" fill="#000000" fill-rule="nonzero" fill-opacity="1" /><path clip-path="url(#clip050)" d="M675.578 1517.37 Q671.967 1517.37 670.138 1520.93 Q668.333 1524.47 668.333 1531.6 Q668.333 1538.71 670.138 1542.27 Q671.967 1545.82 675.578 1545.82 Q679.212 1545.82 681.018 1542.27 Q682.847 1538.71 682.847 1531.6 Q682.847 1524.47 681.018 1520.93 Q679.212 1517.37 675.578 1517.37 M675.578 1513.66 Q681.388 1513.66 684.444 1518.27 Q687.523 1522.85 687.523 1531.6 Q687.523 1540.33 684.444 1544.94 Q681.388 1549.52 675.578 1549.52 Q669.768 1549.52 666.689 1544.94 Q663.634 1540.33 663.634 1531.6 Q663.634 1522.85 666.689 1518.27 Q669.768 1513.66 675.578 1513.66 Z" fill="#000000" fill-rule="nonzero" fill-opacity="1" /><path clip-path="url(#clip050)" d="M1020.32 1544.91 L1036.64 1544.91 L1036.64 1548.85 L1014.69 1548.85 L1014.69 1544.91 Q1017.36 1542.16 1021.94 1537.53 Q1026.54 1532.88 1027.73 1531.53 Q1029.97 1529.01 1030.85 1527.27 Q1031.75 1525.51 1031.75 1523.82 Q1031.75 1521.07 1029.81 1519.33 Q1027.89 1517.6 1024.79 1517.6 Q1022.59 1517.6 1020.13 1518.36 Q1017.7 1519.13 1014.92 1520.68 L1014.92 1515.95 Q1017.75 1514.82 1020.2 1514.24 Q1022.66 1513.66 1024.69 1513.66 Q1030.06 1513.66 1033.26 1516.35 Q1036.45 1519.03 1036.45 1523.52 Q1036.45 1525.65 1035.64 1527.57 Q1034.85 1529.47 1032.75 1532.07 Q1032.17 1532.74 1029.07 1535.95 Q1025.97 1539.15 1020.32 1544.91 Z" fill="#000000" fill-rule="nonzero" fill-opacity="1" /><path clip-path="url(#clip050)" d="M1056.45 1517.37 Q1052.84 1517.37 1051.01 1520.93 Q1049.21 1524.47 1049.21 1531.6 Q1049.21 1538.71 1051.01 1542.27 Q1052.84 1545.82 1056.45 1545.82 Q1060.09 1545.82 1061.89 1542.27 Q1063.72 1538.71 1063.72 1531.6 Q1063.72 1524.47 1061.89 1520.93 Q1060.09 1517.37 1056.45 1517.37 M1056.45 1513.66 Q1062.26 1513.66 1065.32 1518.27 Q1068.4 1522.85 1068.4 1531.6 Q1068.4 1540.33 1065.32 1544.94 Q1062.26 1549.52 1056.45 1549.52 Q1050.64 1549.52 1047.56 1544.94 Q1044.51 1540.33 1044.51 1531.6 Q1044.51 1522.85 1047.56 1518.27 Q1050.64 1513.66 1056.45 1513.66 Z" fill="#000000" fill-rule="nonzero" fill-opacity="1" /><path clip-path="url(#clip050)" d="M1086.61 1517.37 Q1083 1517.37 1081.17 1520.93 Q1079.37 1524.47 1079.37 1531.6 Q1079.37 1538.71 1081.17 1542.27 Q1083 1545.82 1086.61 1545.82 Q1090.25 1545.82 1092.05 1542.27 Q1093.88 1538.71 1093.88 1531.6 Q1093.88 1524.47 1092.05 1520.93 Q1090.25 1517.37 1086.61 1517.37 M1086.61 1513.66 Q1092.42 1513.66 1095.48 1518.27 Q1098.56 1522.85 1098.56 1531.6 Q1098.56 1540.33 1095.48 1544.94 Q1092.42 1549.52 1086.61 1549.52 Q1080.8 1549.52 1077.73 1544.94 Q1074.67 1540.33 1074.67 1531.6 Q1074.67 1522.85 1077.73 1518.27 Q1080.8 1513.66 1086.61 1513.66 Z" fill="#000000" fill-rule="nonzero" fill-opacity="1" /><path clip-path="url(#clip050)" d="M1440.56 1530.21 Q1443.91 1530.93 1445.79 1533.2 Q1447.68 1535.47 1447.68 1538.8 Q1447.68 1543.92 1444.17 1546.72 Q1440.65 1549.52 1434.17 1549.52 Q1431.99 1549.52 1429.68 1549.08 Q1427.38 1548.66 1424.93 1547.81 L1424.93 1543.29 Q1426.87 1544.43 1429.19 1545.01 Q1431.5 1545.58 1434.03 1545.58 Q1438.43 1545.58 1440.72 1543.85 Q1443.03 1542.11 1443.03 1538.8 Q1443.03 1535.75 1440.88 1534.03 Q1438.75 1532.3 1434.93 1532.3 L1430.9 1532.3 L1430.9 1528.45 L1435.12 1528.45 Q1438.56 1528.45 1440.39 1527.09 Q1442.22 1525.7 1442.22 1523.11 Q1442.22 1520.45 1440.32 1519.03 Q1438.45 1517.6 1434.93 1517.6 Q1433.01 1517.6 1430.81 1518.01 Q1428.61 1518.43 1425.97 1519.31 L1425.97 1515.14 Q1428.63 1514.4 1430.95 1514.03 Q1433.29 1513.66 1435.35 1513.66 Q1440.67 1513.66 1443.77 1516.09 Q1446.87 1518.5 1446.87 1522.62 Q1446.87 1525.49 1445.23 1527.48 Q1443.59 1529.45 1440.56 1530.21 Z" fill="#000000" fill-rule="nonzero" fill-opacity="1" /><path clip-path="url(#clip050)" d="M1466.55 1517.37 Q1462.94 1517.37 1461.11 1520.93 Q1459.31 1524.47 1459.31 1531.6 Q1459.31 1538.71 1461.11 1542.27 Q1462.94 1545.82 1466.55 1545.82 Q1470.18 1545.82 1471.99 1542.27 Q1473.82 1538.71 1473.82 1531.6 Q1473.82 1524.47 1471.99 1520.93 Q1470.18 1517.37 1466.55 1517.37 M1466.55 1513.66 Q1472.36 1513.66 1475.42 1518.27 Q1478.49 1522.85 1478.49 1531.6 Q1478.49 1540.33 1475.42 1544.94 Q1472.36 1549.52 1466.55 1549.52 Q1460.74 1549.52 1457.66 1544.94 Q1454.61 1540.33 1454.61 1531.6 Q1454.61 1522.85 1457.66 1518.27 Q1460.74 1513.66 1466.55 1513.66 Z" fill="#000000" fill-rule="nonzero" fill-opacity="1" /><path clip-path="url(#clip050)" d="M1496.71 1517.37 Q1493.1 1517.37 1491.27 1520.93 Q1489.47 1524.47 1489.47 1531.6 Q1489.47 1538.71 1491.27 1542.27 Q1493.1 1545.82 1496.71 1545.82 Q1500.35 1545.82 1502.15 1542.27 Q1503.98 1538.71 1503.98 1531.6 Q1503.98 1524.47 1502.15 1520.93 Q1500.35 1517.37 1496.71 1517.37 M1496.71 1513.66 Q1502.52 1513.66 1505.58 1518.27 Q1508.66 1522.85 1508.66 1531.6 Q1508.66 1540.33 1505.58 1544.94 Q1502.52 1549.52 1496.71 1549.52 Q1490.9 1549.52 1487.82 1544.94 Q1484.77 1540.33 1484.77 1531.6 Q1484.77 1522.85 1487.82 1518.27 Q1490.9 1513.66 1496.71 1513.66 Z" fill="#000000" fill-rule="nonzero" fill-opacity="1" /><path clip-path="url(#clip050)" d="M1850.05 1518.36 L1838.25 1536.81 L1850.05 1536.81 L1850.05 1518.36 M1848.82 1514.29 L1854.7 1514.29 L1854.7 1536.81 L1859.63 1536.81 L1859.63 1540.7 L1854.7 1540.7 L1854.7 1548.85 L1850.05 1548.85 L1850.05 1540.7 L1834.45 1540.7 L1834.45 1536.19 L1848.82 1514.29 Z" fill="#000000" fill-rule="nonzero" fill-opacity="1" /><path clip-path="url(#clip050)" d="M1877.37 1517.37 Q1873.76 1517.37 1871.93 1520.93 Q1870.12 1524.47 1870.12 1531.6 Q1870.12 1538.71 1871.93 1542.27 Q1873.76 1545.82 1877.37 1545.82 Q1881 1545.82 1882.81 1542.27 Q1884.63 1538.71 1884.63 1531.6 Q1884.63 1524.47 1882.81 1520.93 Q1881 1517.37 1877.37 1517.37 M1877.37 1513.66 Q1883.18 1513.66 1886.23 1518.27 Q1889.31 1522.85 1889.31 1531.6 Q1889.31 1540.33 1886.23 1544.94 Q1883.18 1549.52 1877.37 1549.52 Q1871.56 1549.52 1868.48 1544.94 Q1865.42 1540.33 1865.42 1531.6 Q1865.42 1522.85 1868.48 1518.27 Q1871.56 1513.66 1877.37 1513.66 Z" fill="#000000" fill-rule="nonzero" fill-opacity="1" /><path clip-path="url(#clip050)" d="M1907.53 1517.37 Q1903.92 1517.37 1902.09 1520.93 Q1900.28 1524.47 1900.28 1531.6 Q1900.28 1538.71 1902.09 1542.27 Q1903.92 1545.82 1907.53 1545.82 Q1911.16 1545.82 1912.97 1542.27 Q1914.8 1538.71 1914.8 1531.6 Q1914.8 1524.47 1912.97 1520.93 Q1911.16 1517.37 1907.53 1517.37 M1907.53 1513.66 Q1913.34 1513.66 1916.39 1518.27 Q1919.47 1522.85 1919.47 1531.6 Q1919.47 1540.33 1916.39 1544.94 Q1913.34 1549.52 1907.53 1549.52 Q1901.72 1549.52 1898.64 1544.94 Q1895.58 1540.33 1895.58 1531.6 Q1895.58 1522.85 1898.64 1518.27 Q1901.72 1513.66 1907.53 1513.66 Z" fill="#000000" fill-rule="nonzero" fill-opacity="1" /><path clip-path="url(#clip050)" d="M2246.75 1514.29 L2265.1 1514.29 L2265.1 1518.22 L2251.03 1518.22 L2251.03 1526.7 Q2252.05 1526.35 2253.07 1526.19 Q2254.09 1526 2255.1 1526 Q2260.89 1526 2264.27 1529.17 Q2267.65 1532.34 2267.65 1537.76 Q2267.65 1543.34 2264.18 1546.44 Q2260.71 1549.52 2254.39 1549.52 Q2252.21 1549.52 2249.94 1549.15 Q2247.7 1548.78 2245.29 1548.04 L2245.29 1543.34 Q2247.37 1544.47 2249.59 1545.03 Q2251.82 1545.58 2254.29 1545.58 Q2258.3 1545.58 2260.64 1543.48 Q2262.97 1541.37 2262.97 1537.76 Q2262.97 1534.15 2260.64 1532.04 Q2258.3 1529.94 2254.29 1529.94 Q2252.42 1529.94 2250.54 1530.35 Q2248.69 1530.77 2246.75 1531.65 L2246.75 1514.29 Z" fill="#000000" fill-rule="nonzero" fill-opacity="1" /><path clip-path="url(#clip050)" d="M2286.86 1517.37 Q2283.25 1517.37 2281.42 1520.93 Q2279.62 1524.47 2279.62 1531.6 Q2279.62 1538.71 2281.42 1542.27 Q2283.25 1545.82 2286.86 1545.82 Q2290.5 1545.82 2292.3 1542.27 Q2294.13 1538.71 2294.13 1531.6 Q2294.13 1524.47 2292.3 1520.93 Q2290.5 1517.37 2286.86 1517.37 M2286.86 1513.66 Q2292.67 1513.66 2295.73 1518.27 Q2298.81 1522.85 2298.81 1531.6 Q2298.81 1540.33 2295.73 1544.94 Q2292.67 1549.52 2286.86 1549.52 Q2281.05 1549.52 2277.97 1544.94 Q2274.92 1540.33 2274.92 1531.6 Q2274.92 1522.85 2277.97 1518.27 Q2281.05 1513.66 2286.86 1513.66 Z" fill="#000000" fill-rule="nonzero" fill-opacity="1" /><path clip-path="url(#clip050)" d="M2317.02 1517.37 Q2313.41 1517.37 2311.58 1520.93 Q2309.78 1524.47 2309.78 1531.6 Q2309.78 1538.71 2311.58 1542.27 Q2313.41 1545.82 2317.02 1545.82 Q2320.66 1545.82 2322.46 1542.27 Q2324.29 1538.71 2324.29 1531.6 Q2324.29 1524.47 2322.46 1520.93 Q2320.66 1517.37 2317.02 1517.37 M2317.02 1513.66 Q2322.83 1513.66 2325.89 1518.27 Q2328.97 1522.85 2328.97 1531.6 Q2328.97 1540.33 2325.89 1544.94 Q2322.83 1549.52 2317.02 1549.52 Q2311.21 1549.52 2308.14 1544.94 Q2305.08 1540.33 2305.08 1531.6 Q2305.08 1522.85 2308.14 1518.27 Q2311.21 1513.66 2317.02 1513.66 Z" fill="#000000" fill-rule="nonzero" fill-opacity="1" /><polyline clip-path="url(#clip050)" style="stroke:#000000; stroke-linecap:round; stroke-linejoin:round; stroke-width:4; stroke-opacity:1; fill:none" points="178.867,1486.45 178.867,47.2441 "/>
<polyline clip-path="url(#clip050)" style="stroke:#000000; stroke-linecap:round; stroke-linejoin:round; stroke-width:4; stroke-opacity:1; fill:none" points="178.867,1445.95 197.764,1445.95 "/>
<polyline clip-path="url(#clip050)" style="stroke:#000000; stroke-linecap:round; stroke-linejoin:round; stroke-width:4; stroke-opacity:1; fill:none" points="178.867,1106.46 197.764,1106.46 "/>
<polyline clip-path="url(#clip050)" style="stroke:#000000; stroke-linecap:round; stroke-linejoin:round; stroke-width:4; stroke-opacity:1; fill:none" points="178.867,766.964 197.764,766.964 "/>
<polyline clip-path="url(#clip050)" style="stroke:#000000; stroke-linecap:round; stroke-linejoin:round; stroke-width:4; stroke-opacity:1; fill:none" points="178.867,427.47 197.764,427.47 "/>
<polyline clip-path="url(#clip050)" style="stroke:#000000; stroke-linecap:round; stroke-linejoin:round; stroke-width:4; stroke-opacity:1; fill:none" points="178.867,87.9763 197.764,87.9763 "/>
<path clip-path="url(#clip050)" d="M50.9921 1446.4 L80.6679 1446.4 L80.6679 1450.34 L50.9921 1450.34 L50.9921 1446.4 Z" fill="#000000" fill-rule="nonzero" fill-opacity="1" /><path clip-path="url(#clip050)" d="M91.5706 1459.3 L99.2095 1459.3 L99.2095 1432.93 L90.8993 1434.6 L90.8993 1430.34 L99.1632 1428.67 L103.839 1428.67 L103.839 1459.3 L111.478 1459.3 L111.478 1463.23 L91.5706 1463.23 L91.5706 1459.3 Z" fill="#000000" fill-rule="nonzero" fill-opacity="1" /><path clip-path="url(#clip050)" d="M130.922 1431.75 Q127.311 1431.75 125.482 1435.32 Q123.677 1438.86 123.677 1445.99 Q123.677 1453.09 125.482 1456.66 Q127.311 1460.2 130.922 1460.2 Q134.556 1460.2 136.362 1456.66 Q138.191 1453.09 138.191 1445.99 Q138.191 1438.86 136.362 1435.32 Q134.556 1431.75 130.922 1431.75 M130.922 1428.05 Q136.732 1428.05 139.788 1432.65 Q142.867 1437.24 142.867 1445.99 Q142.867 1454.71 139.788 1459.32 Q136.732 1463.9 130.922 1463.9 Q125.112 1463.9 122.033 1459.32 Q118.978 1454.71 118.978 1445.99 Q118.978 1437.24 122.033 1432.65 Q125.112 1428.05 130.922 1428.05 Z" fill="#000000" fill-rule="nonzero" fill-opacity="1" /><path clip-path="url(#clip050)" d="M82.1494 1106.91 L111.825 1106.91 L111.825 1110.84 L82.1494 1110.84 L82.1494 1106.91 Z" fill="#000000" fill-rule="nonzero" fill-opacity="1" /><path clip-path="url(#clip050)" d="M121.964 1089.18 L140.32 1089.18 L140.32 1093.11 L126.246 1093.11 L126.246 1101.59 Q127.265 1101.24 128.283 1101.08 Q129.302 1100.89 130.32 1100.89 Q136.107 1100.89 139.487 1104.06 Q142.867 1107.23 142.867 1112.65 Q142.867 1118.23 139.394 1121.33 Q135.922 1124.41 129.603 1124.41 Q127.427 1124.41 125.158 1124.04 Q122.913 1123.67 120.506 1122.93 L120.506 1118.23 Q122.589 1119.36 124.811 1119.92 Q127.033 1120.47 129.51 1120.47 Q133.515 1120.47 135.853 1118.37 Q138.191 1116.26 138.191 1112.65 Q138.191 1109.04 135.853 1106.93 Q133.515 1104.83 129.51 1104.83 Q127.635 1104.83 125.76 1105.24 Q123.908 1105.66 121.964 1106.54 L121.964 1089.18 Z" fill="#000000" fill-rule="nonzero" fill-opacity="1" /><path clip-path="url(#clip050)" d="M130.922 752.763 Q127.311 752.763 125.482 756.327 Q123.677 759.869 123.677 766.999 Q123.677 774.105 125.482 777.67 Q127.311 781.212 130.922 781.212 Q134.556 781.212 136.362 777.67 Q138.191 774.105 138.191 766.999 Q138.191 759.869 136.362 756.327 Q134.556 752.763 130.922 752.763 M130.922 749.059 Q136.732 749.059 139.788 753.665 Q142.867 758.249 142.867 766.999 Q142.867 775.726 139.788 780.332 Q136.732 784.915 130.922 784.915 Q125.112 784.915 122.033 780.332 Q118.978 775.726 118.978 766.999 Q118.978 758.249 122.033 753.665 Q125.112 749.059 130.922 749.059 Z" fill="#000000" fill-rule="nonzero" fill-opacity="1" /><path clip-path="url(#clip050)" d="M121.964 410.19 L140.32 410.19 L140.32 414.125 L126.246 414.125 L126.246 422.597 Q127.265 422.25 128.283 422.088 Q129.302 421.903 130.32 421.903 Q136.107 421.903 139.487 425.074 Q142.867 428.246 142.867 433.662 Q142.867 439.241 139.394 442.343 Q135.922 445.421 129.603 445.421 Q127.427 445.421 125.158 445.051 Q122.913 444.681 120.506 443.94 L120.506 439.241 Q122.589 440.375 124.811 440.931 Q127.033 441.486 129.51 441.486 Q133.515 441.486 135.853 439.38 Q138.191 437.273 138.191 433.662 Q138.191 430.051 135.853 427.945 Q133.515 425.838 129.51 425.838 Q127.635 425.838 125.76 426.255 Q123.908 426.672 121.964 427.551 L121.964 410.19 Z" fill="#000000" fill-rule="nonzero" fill-opacity="1" /><path clip-path="url(#clip050)" d="M91.5706 101.321 L99.2095 101.321 L99.2095 74.9555 L90.8993 76.6222 L90.8993 72.3629 L99.1632 70.6963 L103.839 70.6963 L103.839 101.321 L111.478 101.321 L111.478 105.256 L91.5706 105.256 L91.5706 101.321 Z" fill="#000000" fill-rule="nonzero" fill-opacity="1" /><path clip-path="url(#clip050)" d="M130.922 73.775 Q127.311 73.775 125.482 77.3398 Q123.677 80.8814 123.677 88.011 Q123.677 95.1174 125.482 98.6822 Q127.311 102.224 130.922 102.224 Q134.556 102.224 136.362 98.6822 Q138.191 95.1174 138.191 88.011 Q138.191 80.8814 136.362 77.3398 Q134.556 73.775 130.922 73.775 M130.922 70.0713 Q136.732 70.0713 139.788 74.6777 Q142.867 79.261 142.867 88.011 Q142.867 96.7378 139.788 101.344 Q136.732 105.928 130.922 105.928 Q125.112 105.928 122.033 101.344 Q118.978 96.7378 118.978 88.011 Q118.978 79.261 122.033 74.6777 Q125.112 70.0713 130.922 70.0713 Z" fill="#000000" fill-rule="nonzero" fill-opacity="1" /><polyline clip-path="url(#clip052)" style="stroke:#009af9; stroke-linecap:round; stroke-linejoin:round; stroke-width:4; stroke-opacity:1; fill:none" points="240.392,87.9763 244.493,103.044 248.595,147.502 252.697,219.178 256.799,314.652 260.9,429.51 265.002,558.623 269.104,696.412 273.205,837.068 277.307,974.733 281.409,1103.65 285.51,1218.33 289.612,1313.73 293.714,1385.5 297.815,1430.24 301.917,1445.72 306.019,1431.1 310.12,1387.02 314.222,1315.58 318.324,1220.16 322.425,1105.21 326.527,975.928 330.629,837.991 334.73,697.282 338.832,559.691 342.934,430.95 347.035,316.481 351.137,221.232 355.239,149.477 359.34,104.586 363.442,88.7955 367.544,103.007 371.645,146.674 375.747,217.8 379.849,313.056 383.951,428.002 388.052,557.387 392.154,695.455 396.256,836.239 400.357,973.794 404.459,1102.39 408.561,1216.64 412.662,1311.7 416.764,1383.36 420.866,1428.32 424.967,1444.35 429.069,1430.49 433.171,1387.22 437.272,1316.44 441.374,1221.41 445.476,1106.55 449.577,977.121 453.679,838.949 457.781,698.084 461.882,560.536 465.984,432.066 470.086,318.023 474.187,223.202 478.289,151.703 482.391,106.766 486.492,90.5852 490.594,104.129 494.696,147.003 498.798,217.393 502.899,312.124 507.001,426.836 511.103,556.251 515.204,694.502 519.306,835.461 523.408,973.039 527.509,1101.43 531.611,1215.27 535.713,1309.84 539.814,1381.1 543.916,1425.9 548.018,1442.13 552.119,1428.81 556.221,1386.3 560.323,1316.33 564.424,1221.97 568.526,1107.5 572.628,978.183 576.729,839.9 580.831,698.85 584.933,561.204 589.034,432.839 593.136,319.131 597.238,224.804 601.339,153.809 605.441,109.21 609.543,93.0611 613.644,106.277 617.746,148.517 621.848,218.112 625.95,312.078 630.051,426.22 634.153,555.348 638.255,693.581 642.356,834.683 646.458,972.407 650.56,1100.8 654.661,1214.43 658.763,1308.58 662.865,1379.33 666.966,1423.7 671.068,1439.7 675.17,1426.5 679.271,1384.43 683.373,1315.13 687.475,1221.54 691.576,1107.74 695.678,978.863 699.78,840.753 703.881,699.659 707.983,561.878 712.085,433.438 716.186,319.827 720.288,225.802 724.39,155.255 728.491,111.116 732.593,95.2827 736.695,108.545 740.797,150.512 744.898,219.558 749,312.822 753.102,426.271 757.203,554.862 761.305,692.797 765.407,833.835 769.508,971.644 773.61,1100.14 777.712,1213.76 781.813,1307.71 785.915,1378.1 790.017,1422.03 794.118,1437.67 798.22,1424.3 802.322,1382.37 806.423,1313.52 810.525,1220.56 814.627,1107.46 818.728,979.192 822.83,841.484 826.932,700.551 831.033,562.741 835.135,434.192 839.237,320.523 843.338,226.589 847.44,156.309 851.542,112.559 855.643,97.1157 859.745,110.626 863.847,152.584 867.949,221.323 872.05,314.025 876.152,426.781 880.254,554.703 884.355,692.129 888.457,832.895 892.559,970.66 896.66,1099.25 900.762,1212.99 904.864,1306.96 908.965,1377.2 913.067,1420.83 917.169,1436.11 921.27,1422.45 925.372,1380.42 929.474,1311.73 933.575,1219.22 937.677,1106.76 941.779,979.183 945.88,842.074 949.982,701.535 954.084,563.878 958.185,435.283 962.287,321.475 966.389,227.431 970.49,157.164 974.592,113.58 978.694,98.4113 982.795,112.199 986.897,154.313 990.999,222.985 995.101,315.361 999.202,427.568 1003.3,554.824 1007.41,691.606 1011.51,831.878 1015.61,969.373 1019.71,1097.92 1023.81,1211.77 1027.91,1305.9 1032.02,1376.23 1036.12,1419.83 1040.22,1434.95 1044.32,1421.08 1048.42,1378.89 1052.52,1310.22 1056.63,1217.95 1060.73,1105.96 1064.83,979.004 1068.93,842.551 1073.03,702.572 1077.13,565.282 1081.24,436.828 1085.34,322.968 1089.44,228.766 1093.54,158.342 1097.64,114.685 1101.74,99.5587 1105.85,113.47 1109.95,155.702 1114.05,224.382 1118.15,316.573 1122.25,428.375 1126.35,555.049 1130.46,691.172 1134.56,830.832 1138.66,967.875 1142.76,1096.19 1146.86,1210.03 1150.96,1304.3 1155.07,1374.83 1159.17,1418.59 1163.27,1433.77 1167.37,1419.87 1171.47,1377.62 1175.57,1308.94 1179.68,1216.81 1183.78,1105.17 1187.88,978.744 1191.98,842.941 1196.08,703.615 1200.18,566.859 1204.29,438.733 1208.39,324.965 1212.49,230.657 1216.59,160.012 1220.69,116.12 1224.79,100.821 1228.9,114.651 1233,156.867 1237.1,225.523 1241.2,317.592 1245.3,429.106 1249.4,555.307 1253.51,690.813 1257.61,829.805 1261.71,966.247 1265.81,1094.13 1269.91,1207.78 1274.01,1302.08 1278.12,1372.82 1282.22,1416.86 1286.32,1432.32 1290.42,1418.61 1294.52,1376.48 1298.62,1307.89 1302.73,1215.9 1306.83,1104.51 1310.93,978.514 1315.03,843.285 1319.13,704.617 1323.23,568.5 1327.34,440.883 1331.44,327.413 1335.54,233.162 1339.64,162.363 1343.74,118.182 1347.84,102.552 1351.95,116.087 1356.05,158.076 1360.15,226.558 1364.25,318.447 1368.35,429.703 1372.45,555.512 1376.56,690.481 1380.66,828.834 1384.76,964.62 1388.86,1091.94 1392.96,1205.2 1397.06,1299.36 1401.17,1370.18 1405.27,1414.49 1409.37,1430.3 1413.47,1416.96 1417.57,1375.15 1421.68,1306.82 1425.78,1215.07 1429.88,1103.95 1433.98,978.328 1438.08,843.604 1442.18,705.554 1446.29,570.099 1450.39,443.092 1454.49,330.08 1458.59,236.063 1462.69,165.253 1466.79,120.848 1470.9,104.854 1475,117.971 1479.1,159.561 1483.2,227.696 1487.3,319.283 1491.4,430.232 1495.51,555.672 1499.61,690.165 1503.71,827.93 1507.81,963.06 1511.91,1089.74 1516.01,1202.48 1520.12,1296.31 1524.22,1367.06 1528.32,1411.53 1532.42,1427.69 1536.52,1414.81 1540.62,1373.47 1544.73,1305.57 1548.83,1214.2 1552.93,1103.44 1557.03,978.193 1561.13,843.924 1565.23,706.427 1569.34,571.606 1573.44,445.249 1577.54,332.811 1581.64,239.201 1585.74,168.561 1589.84,124.071 1593.95,107.768 1598.05,120.426 1602.15,161.492 1606.25,229.115 1610.35,320.239 1614.45,430.771 1618.56,555.802 1622.66,689.846 1626.76,827.085 1630.86,961.613 1634.96,1087.65 1639.06,1199.79 1643.17,1293.16 1647.27,1363.65 1651.37,1408.11 1655.47,1424.52 1659.57,1412.07 1663.67,1371.28 1667.78,1303.95 1671.88,1213.11 1675.98,1102.84 1680.08,978.049 1684.18,844.238 1688.28,707.248 1692.39,573.001 1696.49,447.262 1700.59,335.429 1704.69,242.324 1708.79,172.009 1712.89,127.605 1717,111.134 1721.1,123.402 1725.2,163.927 1729.3,230.941 1733.4,321.461 1737.5,431.439 1741.61,555.969 1745.71,689.534 1749.81,826.276 1753.91,960.259 1758.01,1085.71 1762.11,1197.25 1766.22,1290.08 1770.32,1360.19 1774.42,1404.5 1778.52,1421 1782.62,1408.88 1786.72,1368.61 1790.83,1301.92 1794.93,1211.73 1799.03,1102.08 1803.13,977.846 1807.23,844.546 1811.33,708.053 1815.44,574.325 1819.54,449.143 1823.64,337.885 1827.74,245.319 1831.84,175.427 1835.94,131.252 1840.05,114.766 1844.15,126.765 1848.25,166.804 1852.35,233.187 1856.45,323.016 1860.55,432.318 1864.66,556.228 1868.76,689.24 1872.86,825.473 1876.96,958.953 1881.06,1083.88 1885.16,1194.88 1889.27,1287.19 1893.37,1356.86 1897.47,1400.89 1901.57,1417.33 1905.67,1405.4 1909.77,1365.56 1913.88,1299.48 1917.98,1210 1922.08,1101.07 1926.18,977.516 1930.28,844.818 1934.38,708.861 1938.49,575.63 1942.59,450.94 1946.69,340.182 1950.79,248.107 1954.89,178.65 1958.99,134.785 1963.1,118.416 1967.2,130.295 1971.3,169.971 1975.4,235.784 1979.5,324.907 1983.6,433.452 1987.71,556.633 1991.81,688.99 1995.91,824.652 2000.01,957.628 2004.11,1082.09 2008.21,1192.62 2012.32,1284.48 2016.42,1353.74 2020.52,1397.45 2024.62,1413.73 2028.72,1401.87 2032.83,1362.33 2036.93,1296.76 2041.03,1207.98 2045.13,1099.82 2049.23,977.031 2053.33,845.041 2057.44,709.698 2061.54,576.99 2065.64,452.758 2069.74,342.426 2073.84,250.76 2077.94,181.682 2082.05,138.127 2086.15,121.936 2090.25,133.801 2094.35,173.236 2098.45,238.58 2102.55,327.049 2106.66,434.824 2110.76,557.205 2114.86,688.806 2118.96,823.806 2123.06,956.228 2127.16,1080.23 2131.27,1190.36 2135.37,1281.86 2139.47,1350.78 2143.57,1394.21 2147.67,1410.32 2151.77,1398.43 2155.88,1359.08 2159.98,1293.93 2164.08,1205.75 2168.18,1098.35 2172.28,976.379 2176.38,845.184 2180.49,710.551 2184.59,578.435 2188.69,454.681 2192.79,344.733 2196.89,253.392 2200.99,184.597 2205.1,141.277 2209.2,125.242 2213.3,137.135 2217.4,176.419 2221.5,241.405 2225.6,329.309 2229.71,436.358 2233.81,557.92 2237.91,688.697 2242.01,822.941 2246.11,954.726 2250.21,1078.22 2254.32,1187.98 2258.42,1279.18 2262.52,1347.86 2266.62,1391.1 2270.72,1407.09 2274.82,1395.19 2278.93,1355.97 2283.03,1291.14 2287.13,1203.49 2291.23,1096.78 "/>
<path clip-path="url(#clip050)" d="M1911.65 198.898 L2280.29 198.898 L2280.29 95.2176 L1911.65 95.2176  Z" fill="#ffffff" fill-rule="evenodd" fill-opacity="1"/>
<polyline clip-path="url(#clip050)" style="stroke:#000000; stroke-linecap:round; stroke-linejoin:round; stroke-width:4; stroke-opacity:1; fill:none" points="1911.65,198.898 2280.29,198.898 2280.29,95.2176 1911.65,95.2176 1911.65,198.898 "/>
<polyline clip-path="url(#clip050)" style="stroke:#009af9; stroke-linecap:round; stroke-linejoin:round; stroke-width:4; stroke-opacity:1; fill:none" points="1935.81,147.058 2080.74,147.058 "/>
<path clip-path="url(#clip050)" d="M2134.57 141.004 L2110.68 149.5 L2134.57 157.949 L2134.57 162.162 L2104.89 151.398 L2104.89 147.555 L2134.57 136.791 L2134.57 141.004 Z" fill="#000000" fill-rule="nonzero" fill-opacity="1" /><path clip-path="url(#clip050)" d="M2164.96 130.912 L2164.96 135.472 Q2162.3 134.199 2159.94 133.574 Q2157.57 132.949 2155.38 132.949 Q2151.56 132.949 2149.47 134.43 Q2147.41 135.912 2147.41 138.643 Q2147.41 140.935 2148.78 142.115 Q2150.17 143.273 2154.01 143.99 L2156.83 144.569 Q2162.07 145.565 2164.54 148.088 Q2167.04 150.588 2167.04 154.801 Q2167.04 159.824 2163.66 162.416 Q2160.31 165.009 2153.8 165.009 Q2151.35 165.009 2148.57 164.453 Q2145.82 163.898 2142.85 162.81 L2142.85 157.995 Q2145.7 159.592 2148.43 160.402 Q2151.16 161.213 2153.8 161.213 Q2157.81 161.213 2159.98 159.639 Q2162.16 158.064 2162.16 155.148 Q2162.16 152.602 2160.58 151.166 Q2159.03 149.731 2155.47 149.014 L2152.62 148.458 Q2147.39 147.416 2145.05 145.194 Q2142.71 142.972 2142.71 139.014 Q2142.71 134.43 2145.93 131.791 Q2149.17 129.153 2154.84 129.153 Q2157.27 129.153 2159.8 129.592 Q2162.32 130.032 2164.96 130.912 Z" fill="#000000" fill-rule="nonzero" fill-opacity="1" /><path clip-path="url(#clip050)" d="M2193.85 172.208 L2193.85 175.518 L2169.22 175.518 L2169.22 172.208 L2193.85 172.208 Z" fill="#000000" fill-rule="nonzero" fill-opacity="1" /><path clip-path="url(#clip050)" d="M2219.4 138.412 L2210.03 151.027 L2219.89 164.338 L2214.87 164.338 L2207.32 154.152 L2199.77 164.338 L2194.75 164.338 L2204.82 150.773 L2195.61 138.412 L2200.63 138.412 L2207.5 147.648 L2214.38 138.412 L2219.4 138.412 Z" fill="#000000" fill-rule="nonzero" fill-opacity="1" /><path clip-path="url(#clip050)" d="M2226.46 141.004 L2226.46 136.791 L2256.14 147.555 L2256.14 151.398 L2226.46 162.162 L2226.46 157.949 L2250.31 149.5 L2226.46 141.004 Z" fill="#000000" fill-rule="nonzero" fill-opacity="1" /></svg>
