<?xml version="1.0" encoding="utf-8"?>
<svg xmlns="http://www.w3.org/2000/svg" xmlns:xlink="http://www.w3.org/1999/xlink" width="600" height="400" viewBox="0 0 2400 1600">
<defs>
  <clipPath id="clip970">
    <rect x="0" y="0" width="2400" height="1600"/>
  </clipPath>
</defs>
<path clip-path="url(#clip970)" d="M0 1600 L2400 1600 L2400 0 L0 0  Z" fill="#ffffff" fill-rule="evenodd" fill-opacity="1"/>
<defs>
  <clipPath id="clip971">
    <rect x="480" y="0" width="1681" height="1600"/>
  </clipPath>
</defs>
<path clip-path="url(#clip970)" d="M147.709 1486.45 L2352.76 1486.45 L2352.76 47.2441 L147.709 47.2441  Z" fill="#ffffff" fill-rule="evenodd" fill-opacity="1"/>
<defs>
  <clipPath id="clip972">
    <rect x="147" y="47" width="2206" height="1440"/>
  </clipPath>
</defs>
<polyline clip-path="url(#clip972)" style="stroke:#000000; stroke-linecap:round; stroke-linejoin:round; stroke-width:2; stroke-opacity:0.1; fill:none" points="205.956,1486.45 205.956,47.2441 "/>
<polyline clip-path="url(#clip972)" style="stroke:#000000; stroke-linecap:round; stroke-linejoin:round; stroke-width:2; stroke-opacity:0.1; fill:none" points="622.002,1486.45 622.002,47.2441 "/>
<polyline clip-path="url(#clip972)" style="stroke:#000000; stroke-linecap:round; stroke-linejoin:round; stroke-width:2; stroke-opacity:0.1; fill:none" points="1038.05,1486.45 1038.05,47.2441 "/>
<polyline clip-path="url(#clip972)" style="stroke:#000000; stroke-linecap:round; stroke-linejoin:round; stroke-width:2; stroke-opacity:0.1; fill:none" points="1454.1,1486.45 1454.1,47.2441 "/>
<polyline clip-path="url(#clip972)" style="stroke:#000000; stroke-linecap:round; stroke-linejoin:round; stroke-width:2; stroke-opacity:0.1; fill:none" points="1870.14,1486.45 1870.14,47.2441 "/>
<polyline clip-path="url(#clip972)" style="stroke:#000000; stroke-linecap:round; stroke-linejoin:round; stroke-width:2; stroke-opacity:0.1; fill:none" points="2286.19,1486.45 2286.19,47.2441 "/>
<polyline clip-path="url(#clip972)" style="stroke:#000000; stroke-linecap:round; stroke-linejoin:round; stroke-width:2; stroke-opacity:0.1; fill:none" points="147.709,1147.95 2352.76,1147.95 "/>
<polyline clip-path="url(#clip972)" style="stroke:#000000; stroke-linecap:round; stroke-linejoin:round; stroke-width:2; stroke-opacity:0.1; fill:none" points="147.709,794.628 2352.76,794.628 "/>
<polyline clip-path="url(#clip972)" style="stroke:#000000; stroke-linecap:round; stroke-linejoin:round; stroke-width:2; stroke-opacity:0.1; fill:none" points="147.709,441.302 2352.76,441.302 "/>
<polyline clip-path="url(#clip972)" style="stroke:#000000; stroke-linecap:round; stroke-linejoin:round; stroke-width:2; stroke-opacity:0.1; fill:none" points="147.709,87.9763 2352.76,87.9763 "/>
<polyline clip-path="url(#clip970)" style="stroke:#000000; stroke-linecap:round; stroke-linejoin:round; stroke-width:4; stroke-opacity:1; fill:none" points="147.709,1486.45 2352.76,1486.45 "/>
<polyline clip-path="url(#clip970)" style="stroke:#000000; stroke-linecap:round; stroke-linejoin:round; stroke-width:4; stroke-opacity:1; fill:none" points="205.956,1486.45 205.956,1467.55 "/>
<polyline clip-path="url(#clip970)" style="stroke:#000000; stroke-linecap:round; stroke-linejoin:round; stroke-width:4; stroke-opacity:1; fill:none" points="622.002,1486.45 622.002,1467.55 "/>
<polyline clip-path="url(#clip970)" style="stroke:#000000; stroke-linecap:round; stroke-linejoin:round; stroke-width:4; stroke-opacity:1; fill:none" points="1038.05,1486.45 1038.05,1467.55 "/>
<polyline clip-path="url(#clip970)" style="stroke:#000000; stroke-linecap:round; stroke-linejoin:round; stroke-width:4; stroke-opacity:1; fill:none" points="1454.1,1486.45 1454.1,1467.55 "/>
<polyline clip-path="url(#clip970)" style="stroke:#000000; stroke-linecap:round; stroke-linejoin:round; stroke-width:4; stroke-opacity:1; fill:none" points="1870.14,1486.45 1870.14,1467.55 "/>
<polyline clip-path="url(#clip970)" style="stroke:#000000; stroke-linecap:round; stroke-linejoin:round; stroke-width:4; stroke-opacity:1; fill:none" points="2286.19,1486.45 2286.19,1467.55 "/>
<path clip-path="url(#clip970)" d="M205.956 1517.37 Q202.345 1517.37 200.516 1520.93 Q198.711 1524.47 198.711 1531.6 Q198.711 1538.71 200.516 1542.27 Q202.345 1545.82 205.956 1545.82 Q209.59 1545.82 211.396 1542.27 Q213.224 1538.71 213.224 1531.6 Q213.224 1524.47 211.396 1520.93 Q209.59 1517.37 205.956 1517.37 M205.956 1513.66 Q211.766 1513.66 214.822 1518.27 Q217.9 1522.85 217.9 1531.6 Q217.9 1540.33 214.822 1544.94 Q211.766 1549.52 205.956 1549.52 Q200.146 1549.52 197.067 1544.94 Q194.012 1540.33 194.012 1531.6 Q194.012 1522.85 197.067 1518.27 Q200.146 1513.66 205.956 1513.66 Z" fill="#000000" fill-rule="nonzero" fill-opacity="1" /><path clip-path="url(#clip970)" d="M581.609 1544.91 L589.248 1544.91 L589.248 1518.55 L580.938 1520.21 L580.938 1515.95 L589.202 1514.29 L593.878 1514.29 L593.878 1544.91 L601.516 1544.91 L601.516 1548.85 L581.609 1548.85 L581.609 1544.91 Z" fill="#000000" fill-rule="nonzero" fill-opacity="1" /><path clip-path="url(#clip970)" d="M620.961 1517.37 Q617.35 1517.37 615.521 1520.93 Q613.715 1524.47 613.715 1531.6 Q613.715 1538.71 615.521 1542.27 Q617.35 1545.82 620.961 1545.82 Q624.595 1545.82 626.401 1542.27 Q628.229 1538.71 628.229 1531.6 Q628.229 1524.47 626.401 1520.93 Q624.595 1517.37 620.961 1517.37 M620.961 1513.66 Q626.771 1513.66 629.826 1518.27 Q632.905 1522.85 632.905 1531.6 Q632.905 1540.33 629.826 1544.94 Q626.771 1549.52 620.961 1549.52 Q615.151 1549.52 612.072 1544.94 Q609.016 1540.33 609.016 1531.6 Q609.016 1522.85 612.072 1518.27 Q615.151 1513.66 620.961 1513.66 Z" fill="#000000" fill-rule="nonzero" fill-opacity="1" /><path clip-path="url(#clip970)" d="M651.123 1517.37 Q647.512 1517.37 645.683 1520.93 Q643.877 1524.47 643.877 1531.6 Q643.877 1538.71 645.683 1542.27 Q647.512 1545.82 651.123 1545.82 Q654.757 1545.82 656.562 1542.27 Q658.391 1538.71 658.391 1531.6 Q658.391 1524.47 656.562 1520.93 Q654.757 1517.37 651.123 1517.37 M651.123 1513.66 Q656.933 1513.66 659.988 1518.27 Q663.067 1522.85 663.067 1531.6 Q663.067 1540.33 659.988 1544.94 Q656.933 1549.52 651.123 1549.52 Q645.312 1549.52 642.234 1544.94 Q639.178 1540.33 639.178 1531.6 Q639.178 1522.85 642.234 1518.27 Q645.312 1513.66 651.123 1513.66 Z" fill="#000000" fill-rule="nonzero" fill-opacity="1" /><path clip-path="url(#clip970)" d="M1001.74 1544.91 L1018.06 1544.91 L1018.06 1548.85 L996.116 1548.85 L996.116 1544.91 Q998.778 1542.16 1003.36 1537.53 Q1007.97 1532.88 1009.15 1531.53 Q1011.39 1529.01 1012.27 1527.27 Q1013.18 1525.51 1013.18 1523.82 Q1013.18 1521.07 1011.23 1519.33 Q1009.31 1517.6 1006.21 1517.6 Q1004.01 1517.6 1001.56 1518.36 Q999.126 1519.13 996.348 1520.68 L996.348 1515.95 Q999.172 1514.82 1001.63 1514.24 Q1004.08 1513.66 1006.12 1513.66 Q1011.49 1513.66 1014.68 1516.35 Q1017.88 1519.03 1017.88 1523.52 Q1017.88 1525.65 1017.07 1527.57 Q1016.28 1529.47 1014.17 1532.07 Q1013.59 1532.74 1010.49 1535.95 Q1007.39 1539.15 1001.74 1544.91 Z" fill="#000000" fill-rule="nonzero" fill-opacity="1" /><path clip-path="url(#clip970)" d="M1037.88 1517.37 Q1034.26 1517.37 1032.44 1520.93 Q1030.63 1524.47 1030.63 1531.6 Q1030.63 1538.71 1032.44 1542.27 Q1034.26 1545.82 1037.88 1545.82 Q1041.51 1545.82 1043.32 1542.27 Q1045.14 1538.71 1045.14 1531.6 Q1045.14 1524.47 1043.32 1520.93 Q1041.51 1517.37 1037.88 1517.37 M1037.88 1513.66 Q1043.69 1513.66 1046.74 1518.27 Q1049.82 1522.85 1049.82 1531.6 Q1049.82 1540.33 1046.74 1544.94 Q1043.69 1549.52 1037.88 1549.52 Q1032.07 1549.52 1028.99 1544.94 Q1025.93 1540.33 1025.93 1531.6 Q1025.93 1522.85 1028.99 1518.27 Q1032.07 1513.66 1037.88 1513.66 Z" fill="#000000" fill-rule="nonzero" fill-opacity="1" /><path clip-path="url(#clip970)" d="M1068.04 1517.37 Q1064.43 1517.37 1062.6 1520.93 Q1060.79 1524.47 1060.79 1531.6 Q1060.79 1538.71 1062.6 1542.27 Q1064.43 1545.82 1068.04 1545.82 Q1071.67 1545.82 1073.48 1542.27 Q1075.31 1538.71 1075.31 1531.6 Q1075.31 1524.47 1073.48 1520.93 Q1071.67 1517.37 1068.04 1517.37 M1068.04 1513.66 Q1073.85 1513.66 1076.9 1518.27 Q1079.98 1522.85 1079.98 1531.6 Q1079.98 1540.33 1076.9 1544.94 Q1073.85 1549.52 1068.04 1549.52 Q1062.23 1549.52 1059.15 1544.94 Q1056.09 1540.33 1056.09 1531.6 Q1056.09 1522.85 1059.15 1518.27 Q1062.23 1513.66 1068.04 1513.66 Z" fill="#000000" fill-rule="nonzero" fill-opacity="1" /><path clip-path="url(#clip970)" d="M1427.86 1530.21 Q1431.21 1530.93 1433.09 1533.2 Q1434.99 1535.47 1434.99 1538.8 Q1434.99 1543.92 1431.47 1546.72 Q1427.95 1549.52 1421.47 1549.52 Q1419.29 1549.52 1416.98 1549.08 Q1414.69 1548.66 1412.23 1547.81 L1412.23 1543.29 Q1414.18 1544.43 1416.49 1545.01 Q1418.81 1545.58 1421.33 1545.58 Q1425.73 1545.58 1428.02 1543.85 Q1430.33 1542.11 1430.33 1538.8 Q1430.33 1535.75 1428.18 1534.03 Q1426.05 1532.3 1422.23 1532.3 L1418.2 1532.3 L1418.2 1528.45 L1422.42 1528.45 Q1425.87 1528.45 1427.7 1527.09 Q1429.52 1525.7 1429.52 1523.11 Q1429.52 1520.45 1427.63 1519.03 Q1425.75 1517.6 1422.23 1517.6 Q1420.31 1517.6 1418.11 1518.01 Q1415.91 1518.43 1413.27 1519.31 L1413.27 1515.14 Q1415.94 1514.4 1418.25 1514.03 Q1420.59 1513.66 1422.65 1513.66 Q1427.97 1513.66 1431.07 1516.09 Q1434.18 1518.5 1434.18 1522.62 Q1434.18 1525.49 1432.53 1527.48 Q1430.89 1529.45 1427.86 1530.21 Z" fill="#000000" fill-rule="nonzero" fill-opacity="1" /><path clip-path="url(#clip970)" d="M1453.85 1517.37 Q1450.24 1517.37 1448.41 1520.93 Q1446.61 1524.47 1446.61 1531.6 Q1446.61 1538.71 1448.41 1542.27 Q1450.24 1545.82 1453.85 1545.82 Q1457.49 1545.82 1459.29 1542.27 Q1461.12 1538.71 1461.12 1531.6 Q1461.12 1524.47 1459.29 1520.93 Q1457.49 1517.37 1453.85 1517.37 M1453.85 1513.66 Q1459.66 1513.66 1462.72 1518.27 Q1465.8 1522.85 1465.8 1531.6 Q1465.8 1540.33 1462.72 1544.94 Q1459.66 1549.52 1453.85 1549.52 Q1448.04 1549.52 1444.96 1544.94 Q1441.91 1540.33 1441.91 1531.6 Q1441.91 1522.85 1444.96 1518.27 Q1448.04 1513.66 1453.85 1513.66 Z" fill="#000000" fill-rule="nonzero" fill-opacity="1" /><path clip-path="url(#clip970)" d="M1484.01 1517.37 Q1480.4 1517.37 1478.57 1520.93 Q1476.77 1524.47 1476.77 1531.6 Q1476.77 1538.71 1478.57 1542.27 Q1480.4 1545.82 1484.01 1545.82 Q1487.65 1545.82 1489.45 1542.27 Q1491.28 1538.71 1491.28 1531.6 Q1491.28 1524.47 1489.45 1520.93 Q1487.65 1517.37 1484.01 1517.37 M1484.01 1513.66 Q1489.82 1513.66 1492.88 1518.27 Q1495.96 1522.85 1495.96 1531.6 Q1495.96 1540.33 1492.88 1544.94 Q1489.82 1549.52 1484.01 1549.52 Q1478.2 1549.52 1475.13 1544.94 Q1472.07 1540.33 1472.07 1531.6 Q1472.07 1522.85 1475.13 1518.27 Q1478.2 1513.66 1484.01 1513.66 Z" fill="#000000" fill-rule="nonzero" fill-opacity="1" /><path clip-path="url(#clip970)" d="M1843.23 1518.36 L1831.43 1536.81 L1843.23 1536.81 L1843.23 1518.36 M1842.01 1514.29 L1847.89 1514.29 L1847.89 1536.81 L1852.82 1536.81 L1852.82 1540.7 L1847.89 1540.7 L1847.89 1548.85 L1843.23 1548.85 L1843.23 1540.7 L1827.63 1540.7 L1827.63 1536.19 L1842.01 1514.29 Z" fill="#000000" fill-rule="nonzero" fill-opacity="1" /><path clip-path="url(#clip970)" d="M1870.55 1517.37 Q1866.94 1517.37 1865.11 1520.93 Q1863.3 1524.47 1863.3 1531.6 Q1863.3 1538.71 1865.11 1542.27 Q1866.94 1545.82 1870.55 1545.82 Q1874.18 1545.82 1875.99 1542.27 Q1877.82 1538.71 1877.82 1531.6 Q1877.82 1524.47 1875.99 1520.93 Q1874.18 1517.37 1870.55 1517.37 M1870.55 1513.66 Q1876.36 1513.66 1879.41 1518.27 Q1882.49 1522.85 1882.49 1531.6 Q1882.49 1540.33 1879.41 1544.94 Q1876.36 1549.52 1870.55 1549.52 Q1864.74 1549.52 1861.66 1544.94 Q1858.6 1540.33 1858.6 1531.6 Q1858.6 1522.85 1861.66 1518.27 Q1864.74 1513.66 1870.55 1513.66 Z" fill="#000000" fill-rule="nonzero" fill-opacity="1" /><path clip-path="url(#clip970)" d="M1900.71 1517.37 Q1897.1 1517.37 1895.27 1520.93 Q1893.46 1524.47 1893.46 1531.6 Q1893.46 1538.71 1895.27 1542.27 Q1897.1 1545.82 1900.71 1545.82 Q1904.34 1545.82 1906.15 1542.27 Q1907.98 1538.71 1907.98 1531.6 Q1907.98 1524.47 1906.15 1520.93 Q1904.34 1517.37 1900.71 1517.37 M1900.71 1513.66 Q1906.52 1513.66 1909.57 1518.27 Q1912.65 1522.85 1912.65 1531.6 Q1912.65 1540.33 1909.57 1544.94 Q1906.52 1549.52 1900.71 1549.52 Q1894.9 1549.52 1891.82 1544.94 Q1888.76 1540.33 1888.76 1531.6 Q1888.76 1522.85 1891.82 1518.27 Q1894.9 1513.66 1900.71 1513.66 Z" fill="#000000" fill-rule="nonzero" fill-opacity="1" /><path clip-path="url(#clip970)" d="M2245.81 1514.29 L2264.16 1514.29 L2264.16 1518.22 L2250.09 1518.22 L2250.09 1526.7 Q2251.11 1526.35 2252.13 1526.19 Q2253.14 1526 2254.16 1526 Q2259.95 1526 2263.33 1529.17 Q2266.71 1532.34 2266.71 1537.76 Q2266.71 1543.34 2263.24 1546.44 Q2259.76 1549.52 2253.45 1549.52 Q2251.27 1549.52 2249 1549.15 Q2246.76 1548.78 2244.35 1548.04 L2244.35 1543.34 Q2246.43 1544.47 2248.65 1545.03 Q2250.88 1545.58 2253.35 1545.58 Q2257.36 1545.58 2259.7 1543.48 Q2262.03 1541.37 2262.03 1537.76 Q2262.03 1534.15 2259.7 1532.04 Q2257.36 1529.94 2253.35 1529.94 Q2251.48 1529.94 2249.6 1530.35 Q2247.75 1530.77 2245.81 1531.65 L2245.81 1514.29 Z" fill="#000000" fill-rule="nonzero" fill-opacity="1" /><path clip-path="url(#clip970)" d="M2285.92 1517.37 Q2282.31 1517.37 2280.48 1520.93 Q2278.68 1524.47 2278.68 1531.6 Q2278.68 1538.71 2280.48 1542.27 Q2282.31 1545.82 2285.92 1545.82 Q2289.56 1545.82 2291.36 1542.27 Q2293.19 1538.71 2293.19 1531.6 Q2293.19 1524.47 2291.36 1520.93 Q2289.56 1517.37 2285.92 1517.37 M2285.92 1513.66 Q2291.73 1513.66 2294.79 1518.27 Q2297.87 1522.85 2297.87 1531.6 Q2297.87 1540.33 2294.79 1544.94 Q2291.73 1549.52 2285.92 1549.52 Q2280.11 1549.52 2277.03 1544.94 Q2273.98 1540.33 2273.98 1531.6 Q2273.98 1522.85 2277.03 1518.27 Q2280.11 1513.66 2285.92 1513.66 Z" fill="#000000" fill-rule="nonzero" fill-opacity="1" /><path clip-path="url(#clip970)" d="M2316.08 1517.37 Q2312.47 1517.37 2310.64 1520.93 Q2308.84 1524.47 2308.84 1531.6 Q2308.84 1538.71 2310.64 1542.27 Q2312.47 1545.82 2316.08 1545.82 Q2319.72 1545.82 2321.52 1542.27 Q2323.35 1538.71 2323.35 1531.6 Q2323.35 1524.47 2321.52 1520.93 Q2319.72 1517.37 2316.08 1517.37 M2316.08 1513.66 Q2321.89 1513.66 2324.95 1518.27 Q2328.03 1522.85 2328.03 1531.6 Q2328.03 1540.33 2324.95 1544.94 Q2321.89 1549.52 2316.08 1549.52 Q2310.27 1549.52 2307.2 1544.94 Q2304.14 1540.33 2304.14 1531.6 Q2304.14 1522.85 2307.2 1518.27 Q2310.27 1513.66 2316.08 1513.66 Z" fill="#000000" fill-rule="nonzero" fill-opacity="1" /><polyline clip-path="url(#clip970)" style="stroke:#000000; stroke-linecap:round; stroke-linejoin:round; stroke-width:4; stroke-opacity:1; fill:none" points="147.709,1486.45 147.709,47.2441 "/>
<polyline clip-path="url(#clip970)" style="stroke:#000000; stroke-linecap:round; stroke-linejoin:round; stroke-width:4; stroke-opacity:1; fill:none" points="147.709,1147.95 166.607,1147.95 "/>
<polyline clip-path="url(#clip970)" style="stroke:#000000; stroke-linecap:round; stroke-linejoin:round; stroke-width:4; stroke-opacity:1; fill:none" points="147.709,794.628 166.607,794.628 "/>
<polyline clip-path="url(#clip970)" style="stroke:#000000; stroke-linecap:round; stroke-linejoin:round; stroke-width:4; stroke-opacity:1; fill:none" points="147.709,441.302 166.607,441.302 "/>
<polyline clip-path="url(#clip970)" style="stroke:#000000; stroke-linecap:round; stroke-linejoin:round; stroke-width:4; stroke-opacity:1; fill:none" points="147.709,87.9763 166.607,87.9763 "/>
<path clip-path="url(#clip970)" d="M50.9921 1148.4 L80.6679 1148.4 L80.6679 1152.34 L50.9921 1152.34 L50.9921 1148.4 Z" fill="#000000" fill-rule="nonzero" fill-opacity="1" /><path clip-path="url(#clip970)" d="M90.8067 1130.67 L109.163 1130.67 L109.163 1134.61 L95.0891 1134.61 L95.0891 1143.08 Q96.1076 1142.73 97.1261 1142.57 Q98.1447 1142.39 99.1632 1142.39 Q104.95 1142.39 108.33 1145.56 Q111.709 1148.73 111.709 1154.15 Q111.709 1159.72 108.237 1162.83 Q104.765 1165.9 98.4456 1165.9 Q96.2697 1165.9 94.0012 1165.53 Q91.7558 1165.16 89.3484 1164.42 L89.3484 1159.72 Q91.4317 1160.86 93.6539 1161.41 Q95.8761 1161.97 98.353 1161.97 Q102.358 1161.97 104.696 1159.86 Q107.033 1157.76 107.033 1154.15 Q107.033 1150.53 104.696 1148.43 Q102.358 1146.32 98.353 1146.32 Q96.478 1146.32 94.603 1146.74 Q92.7512 1147.15 90.8067 1148.03 L90.8067 1130.67 Z" fill="#000000" fill-rule="nonzero" fill-opacity="1" /><path clip-path="url(#clip970)" d="M99.765 780.426 Q96.1539 780.426 94.3252 783.991 Q92.5197 787.533 92.5197 794.662 Q92.5197 801.769 94.3252 805.334 Q96.1539 808.875 99.765 808.875 Q103.399 808.875 105.205 805.334 Q107.033 801.769 107.033 794.662 Q107.033 787.533 105.205 783.991 Q103.399 780.426 99.765 780.426 M99.765 776.723 Q105.575 776.723 108.631 781.329 Q111.709 785.912 111.709 794.662 Q111.709 803.389 108.631 807.996 Q105.575 812.579 99.765 812.579 Q93.9549 812.579 90.8762 807.996 Q87.8206 803.389 87.8206 794.662 Q87.8206 785.912 90.8762 781.329 Q93.9549 776.723 99.765 776.723 Z" fill="#000000" fill-rule="nonzero" fill-opacity="1" /><path clip-path="url(#clip970)" d="M90.8067 424.022 L109.163 424.022 L109.163 427.957 L95.0891 427.957 L95.0891 436.429 Q96.1076 436.082 97.1261 435.92 Q98.1447 435.735 99.1632 435.735 Q104.95 435.735 108.33 438.906 Q111.709 442.077 111.709 447.494 Q111.709 453.073 108.237 456.175 Q104.765 459.253 98.4456 459.253 Q96.2697 459.253 94.0012 458.883 Q91.7558 458.512 89.3484 457.772 L89.3484 453.073 Q91.4317 454.207 93.6539 454.763 Q95.8761 455.318 98.353 455.318 Q102.358 455.318 104.696 453.212 Q107.033 451.105 107.033 447.494 Q107.033 443.883 104.696 441.776 Q102.358 439.67 98.353 439.67 Q96.478 439.67 94.603 440.087 Q92.7512 440.503 90.8067 441.383 L90.8067 424.022 Z" fill="#000000" fill-rule="nonzero" fill-opacity="1" /><path clip-path="url(#clip970)" d="M60.4134 101.321 L68.0522 101.321 L68.0522 74.9555 L59.7421 76.6222 L59.7421 72.3629 L68.0059 70.6963 L72.6818 70.6963 L72.6818 101.321 L80.3207 101.321 L80.3207 105.256 L60.4134 105.256 L60.4134 101.321 Z" fill="#000000" fill-rule="nonzero" fill-opacity="1" /><path clip-path="url(#clip970)" d="M99.765 73.775 Q96.1539 73.775 94.3252 77.3398 Q92.5197 80.8814 92.5197 88.011 Q92.5197 95.1174 94.3252 98.6822 Q96.1539 102.224 99.765 102.224 Q103.399 102.224 105.205 98.6822 Q107.033 95.1174 107.033 88.011 Q107.033 80.8814 105.205 77.3398 Q103.399 73.775 99.765 73.775 M99.765 70.0713 Q105.575 70.0713 108.631 74.6777 Q111.709 79.261 111.709 88.011 Q111.709 96.7378 108.631 101.344 Q105.575 105.928 99.765 105.928 Q93.9549 105.928 90.8762 101.344 Q87.8206 96.7378 87.8206 88.011 Q87.8206 79.261 90.8762 74.6777 Q93.9549 70.0713 99.765 70.0713 Z" fill="#000000" fill-rule="nonzero" fill-opacity="1" /><polyline clip-path="url(#clip972)" style="stroke:#009af9; stroke-linecap:round; stroke-linejoin:round; stroke-width:4; stroke-opacity:1; fill:none" points="210.116,87.9763 214.277,103.661 218.437,149.975 222.598,224.732 226.758,324.412 230.919,444.332 235.079,578.883 239.24,721.805 243.4,866.496 247.561,1006.34 251.721,1135 255.881,1246.79 260.042,1336.85 264.202,1401.45 268.363,1438.11 272.523,1445.72 276.684,1424.54 280.844,1376.2 285.005,1303.57 289.165,1210.61 293.326,1102.11 297.486,983.477 301.647,860.439 305.807,738.755 309.968,623.927 314.128,520.945 318.288,434.052 322.449,366.563 326.609,320.731 330.77,297.678 334.93,297.383 339.091,318.728 343.251,359.605 347.412,417.064 351.572,487.504 355.733,566.888 359.893,650.972 364.054,735.536 368.214,816.599 372.375,890.62 376.535,954.651 380.695,1006.47 384.856,1044.63 389.016,1068.53 393.177,1078.33 397.337,1074.97 401.498,1059.96 405.658,1035.35 409.819,1003.5 413.979,966.939 418.14,928.216 422.3,889.711 426.461,853.514 430.621,821.313 434.781,794.315 438.942,773.203 443.102,758.134 447.263,748.774 451.423,744.357 455.584,743.782 459.744,745.727 463.905,748.767 468.065,751.506 472.226,752.698 476.386,751.348 480.547,746.804 484.707,738.809 488.868,727.53 493.028,713.55 497.188,697.833 501.349,681.649 505.509,666.491 509.67,653.955 513.83,645.621 517.991,642.932 522.151,647.067 526.312,658.847 530.472,678.641 534.633,706.318 538.793,741.223 542.954,782.182 547.114,827.552 551.275,875.296 555.435,923.088 559.595,968.44 563.756,1008.84 567.916,1041.91 572.077,1065.54 576.237,1078.04 580.398,1078.2 584.558,1065.47 588.719,1039.93 592.879,1002.33 597.04,954.097 601.2,897.241 605.361,834.278 609.521,768.098 613.681,701.825 617.842,638.647 622.002,581.651 626.163,533.657 630.323,497.066 634.484,473.728 638.644,464.841 642.805,470.884 646.965,491.588 651.126,525.947 655.286,572.276 659.447,628.292 663.607,691.24 667.768,758.037 671.928,825.438 676.088,890.203 680.249,949.268 684.409,999.905 688.57,1039.86 692.73,1067.45 696.891,1081.67 701.051,1082.22 705.212,1069.48 709.372,1044.52 713.533,1009 717.693,965.073 721.854,915.244 726.014,862.247 730.175,808.875 734.335,757.83 738.495,711.579 742.656,672.223 746.816,641.399 750.977,620.199 755.137,609.136 759.298,608.136 763.458,616.563 767.619,633.284 771.779,656.753 775.94,685.126 780.1,716.375 784.261,748.428 788.421,779.292 792.581,807.173 796.742,830.585 800.902,848.421 805.063,860.017 809.223,865.168 813.384,864.132 817.544,857.582 821.705,846.558 825.865,832.371 830.026,816.51 834.186,800.533 838.347,785.947 842.507,774.111 846.668,766.134 850.828,762.801 854.988,764.517 859.149,771.283 863.309,782.689 867.47,797.949 871.63,815.952 875.791,835.335 879.951,854.582 884.112,872.125 888.272,886.452 892.433,896.216 896.593,900.331 900.754,898.054 904.914,889.039 909.075,873.379 913.235,851.609 917.395,824.683 921.556,793.925 925.716,760.96 929.877,727.614 934.037,695.81 938.198,667.451 942.358,644.302 946.519,627.881 950.679,619.36 954.84,619.49 959,628.547 963.161,646.302 967.321,672.033 971.481,704.55 975.642,742.265 979.802,783.272 983.963,825.454 988.123,866.603 992.284,904.545 996.444,937.263 1000.6,963.013 1004.77,980.425 1008.93,988.579 1013.09,987.065 1017.25,975.999 1021.41,956.021 1025.57,928.254 1029.73,894.245 1033.89,855.87 1038.05,815.228 1042.21,774.521 1046.37,735.925 1050.53,701.469 1054.69,672.918 1058.85,651.677 1063.01,638.713 1067.17,634.501 1071.33,639.011 1075.49,651.709 1079.65,671.601 1083.81,697.297 1087.97,727.097 1092.13,759.103 1096.3,791.332 1100.46,821.838 1104.62,848.828 1108.78,870.772 1112.94,886.491 1117.1,895.226 1121.26,896.675 1125.42,891.011 1129.58,878.862 1133.74,861.265 1137.9,839.6 1142.06,815.492 1146.22,790.711 1150.38,767.053 1154.54,746.225 1158.7,729.734 1162.86,718.792 1167.02,714.232 1171.18,716.456 1175.34,725.406 1179.5,740.565 1183.67,760.987 1187.83,785.351 1191.99,812.049 1196.15,839.276 1200.31,865.153 1204.47,887.84 1208.63,905.653 1212.79,917.179 1216.95,921.363 1221.11,917.588 1225.27,905.716 1229.43,886.111 1233.59,859.625 1237.75,827.558 1241.91,791.586 1246.07,753.673 1250.23,715.957 1254.39,680.627 1258.55,649.795 1262.71,625.372 1266.87,608.955 1271.03,601.724 1275.2,604.372 1279.36,617.055 1283.52,639.376 1287.68,670.396 1291.84,708.684 1296,752.386 1300.16,799.328 1304.32,847.126 1308.48,893.324 1312.64,935.519 1316.8,971.499 1320.96,999.363 1325.12,1017.62 1329.28,1025.28 1333.44,1021.91 1337.6,1007.63 1341.76,983.139 1345.92,949.667 1350.08,908.896 1354.24,862.874 1358.4,813.908 1362.57,764.432 1366.73,716.878 1370.89,673.551 1375.05,636.503 1379.21,607.434 1383.37,587.601 1387.53,577.765 1391.69,578.159 1395.85,588.489 1400.01,607.958 1404.17,635.329 1408.33,668.998 1412.49,707.09 1416.65,747.576 1420.81,788.38 1424.97,827.499 1429.13,863.106 1433.29,893.644 1437.45,917.903 1441.61,935.07 1445.77,944.755 1449.93,946.996 1454.1,942.232 1458.26,931.259 1462.42,915.16 1466.58,895.229 1470.74,872.878 1474.9,849.544 1479.06,826.598 1483.22,805.262 1487.38,786.539 1491.54,771.163 1495.7,759.562 1499.86,751.855 1504.02,747.859 1508.18,747.121 1512.34,748.97 1516.5,752.583 1520.66,757.056 1524.82,761.483 1528.98,765.032 1533.14,767.017 1537.3,766.956 1541.47,764.611 1545.63,760.015 1549.79,753.472 1553.95,745.544 1558.11,737.006 1562.27,728.797 1566.43,721.948 1570.59,717.501 1574.75,716.431 1578.91,719.558 1583.07,727.476 1587.23,740.489 1591.39,758.569 1595.55,781.328 1599.71,808.018 1603.87,837.553 1608.03,868.556 1612.19,899.427 1616.35,928.425 1620.51,953.77 1624.67,973.749 1628.83,986.82 1633,991.719 1637.16,987.548 1641.32,973.846 1645.48,950.647 1649.64,918.498 1653.8,878.457 1657.96,832.063 1662.12,781.268 1666.28,728.359 1670.44,675.839 1674.6,626.31 1678.76,582.335 1682.92,546.302 1687.08,520.293 1691.24,505.962 1695.4,504.44 1699.56,516.255 1703.72,541.291 1707.88,578.776 1712.04,627.299 1716.2,684.871 1720.37,749.009 1724.53,816.85 1728.69,885.288 1732.85,951.121 1737.01,1011.21 1741.17,1062.64 1745.33,1102.85 1749.49,1129.79 1753.65,1142.01 1757.81,1138.74 1761.97,1119.93 1766.13,1086.28 1770.29,1039.18 1774.45,980.673 1778.61,913.35 1782.77,840.23 1786.93,764.613 1791.09,689.93 1795.25,619.574 1799.41,556.742 1803.57,504.281 1807.73,464.561 1811.9,439.359 1816.06,429.78 1820.22,436.212 1824.38,458.31 1828.54,495.021 1832.7,544.635 1836.86,604.874 1841.02,673.002 1845.18,745.958 1849.34,820.497 1853.5,893.344 1857.66,961.34 1861.82,1021.59 1865.98,1071.57 1870.14,1109.26 1874.3,1133.21 1878.46,1142.6 1882.62,1137.24 1886.78,1117.59 1890.94,1084.73 1895.1,1040.25 1899.27,986.251 1903.43,925.144 1907.59,859.61 1911.75,792.446 1915.91,726.449 1920.07,664.3 1924.23,608.452 1928.39,561.034 1932.55,523.778 1936.71,497.958 1940.87,484.352 1945.03,483.23 1949.19,494.362 1953.35,517.041 1957.51,550.13 1961.67,592.124 1965.83,641.215 1969.99,695.377 1974.15,752.452 1978.31,810.226 1982.47,866.523 1986.63,919.275 1990.8,966.599 1994.96,1006.85 1999.12,1038.68 2003.28,1061.06 2007.44,1073.34 2011.6,1075.2 2015.76,1066.73 2019.92,1048.34 2024.08,1020.81 2028.24,985.195 2032.4,942.832 2036.56,895.273 2040.72,844.235 2044.88,791.547 2049.04,739.088 2053.2,688.729 2057.36,642.269 2061.52,601.379 2065.68,567.545 2069.84,542.014 2074,525.755 2078.17,519.416 2082.33,523.301 2086.49,537.349 2090.65,561.128 2094.81,593.848 2098.97,634.374 2103.13,681.263 2107.29,732.81 2111.45,787.101 2115.61,842.086 2119.77,895.652 2123.93,945.701 2128.09,990.237 2132.25,1027.45 2136.41,1055.77 2140.57,1073.99 2144.73,1081.27 2148.89,1077.19 2153.05,1061.81 2157.21,1035.65 2161.37,999.667 2165.53,955.266 2169.7,904.206 2173.86,848.549 2178.02,790.575 2182.18,732.685 2186.34,677.296 2190.5,626.738 2194.66,583.145 2198.82,548.366 2202.98,523.871 2207.14,510.688 2211.3,509.352 2215.46,519.878 2219.62,541.759 2223.78,573.989 2227.94,615.104 2232.1,663.256 2236.26,716.294 2240.42,771.867 2244.58,827.531 2248.74,880.867 2252.9,929.592 2257.07,971.664 2261.23,1005.38 2265.39,1029.44 2269.55,1043.01 2273.71,1045.77 2277.87,1037.89 2282.03,1020.03 2286.19,993.294 2290.35,959.159 "/>
<path clip-path="url(#clip970)" d="M1907.5 198.898 L2279.25 198.898 L2279.25 95.2176 L1907.5 95.2176  Z" fill="#ffffff" fill-rule="evenodd" fill-opacity="1"/>
<polyline clip-path="url(#clip970)" style="stroke:#000000; stroke-linecap:round; stroke-linejoin:round; stroke-width:4; stroke-opacity:1; fill:none" points="1907.5,198.898 2279.25,198.898 2279.25,95.2176 1907.5,95.2176 1907.5,198.898 "/>
<polyline clip-path="url(#clip970)" style="stroke:#009af9; stroke-linecap:round; stroke-linejoin:round; stroke-width:4; stroke-opacity:1; fill:none" points="1932,147.058 2079,147.058 "/>
<path clip-path="url(#clip970)" d="M2133.18 141.004 L2109.29 149.5 L2133.18 157.949 L2133.18 162.162 L2103.5 151.398 L2103.5 147.555 L2133.18 136.791 L2133.18 141.004 Z" fill="#000000" fill-rule="nonzero" fill-opacity="1" /><path clip-path="url(#clip970)" d="M2163.57 130.912 L2163.57 135.472 Q2160.91 134.199 2158.55 133.574 Q2156.19 132.949 2153.99 132.949 Q2150.17 132.949 2148.09 134.43 Q2146.03 135.912 2146.03 138.643 Q2146.03 140.935 2147.39 142.115 Q2148.78 143.273 2152.62 143.99 L2155.45 144.569 Q2160.68 145.565 2163.16 148.088 Q2165.66 150.588 2165.66 154.801 Q2165.66 159.824 2162.28 162.416 Q2158.92 165.009 2152.42 165.009 Q2149.96 165.009 2147.18 164.453 Q2144.43 163.898 2141.47 162.81 L2141.47 157.995 Q2144.31 159.592 2147.05 160.402 Q2149.78 161.213 2152.42 161.213 Q2156.42 161.213 2158.6 159.639 Q2160.77 158.064 2160.77 155.148 Q2160.77 152.602 2159.2 151.166 Q2157.65 149.731 2154.08 149.014 L2151.24 148.458 Q2146 147.416 2143.67 145.194 Q2141.33 142.972 2141.33 139.014 Q2141.33 134.43 2144.55 131.791 Q2147.79 129.153 2153.46 129.153 Q2155.89 129.153 2158.41 129.592 Q2160.93 130.032 2163.57 130.912 Z" fill="#000000" fill-rule="nonzero" fill-opacity="1" /><path clip-path="url(#clip970)" d="M2192.46 172.208 L2192.46 175.518 L2167.83 175.518 L2167.83 172.208 L2192.46 172.208 Z" fill="#000000" fill-rule="nonzero" fill-opacity="1" /><path clip-path="url(#clip970)" d="M2218.02 138.412 L2208.64 151.027 L2218.5 164.338 L2213.48 164.338 L2205.93 154.152 L2198.39 164.338 L2193.37 164.338 L2203.43 150.773 L2194.22 138.412 L2199.24 138.412 L2206.12 147.648 L2212.99 138.412 L2218.02 138.412 Z" fill="#000000" fill-rule="nonzero" fill-opacity="1" /><path clip-path="url(#clip970)" d="M2225.08 141.004 L2225.08 136.791 L2254.75 147.555 L2254.75 151.398 L2225.08 162.162 L2225.08 157.949 L2248.92 149.5 L2225.08 141.004 Z" fill="#000000" fill-rule="nonzero" fill-opacity="1" /></svg>
