<?xml version="1.0" encoding="utf-8"?>
<svg xmlns="http://www.w3.org/2000/svg" xmlns:xlink="http://www.w3.org/1999/xlink" width="600" height="400" viewBox="0 0 2400 1600">
<defs>
  <clipPath id="clip700">
    <rect x="0" y="0" width="2400" height="1600"/>
  </clipPath>
</defs>
<path clip-path="url(#clip700)" d="M0 1600 L2400 1600 L2400 0 L0 0  Z" fill="#ffffff" fill-rule="evenodd" fill-opacity="1"/>
<defs>
  <clipPath id="clip701">
    <rect x="480" y="0" width="1681" height="1600"/>
  </clipPath>
</defs>
<path clip-path="url(#clip700)" d="M186.76 1486.45 L2352.76 1486.45 L2352.76 47.2441 L186.76 47.2441  Z" fill="#ffffff" fill-rule="evenodd" fill-opacity="1"/>
<defs>
  <clipPath id="clip702">
    <rect x="186" y="47" width="2167" height="1440"/>
  </clipPath>
</defs>
<polyline clip-path="url(#clip702)" style="stroke:#000000; stroke-linecap:round; stroke-linejoin:round; stroke-width:2; stroke-opacity:0.1; fill:none" points="227.628,1486.45 227.628,47.2441 "/>
<polyline clip-path="url(#clip702)" style="stroke:#000000; stroke-linecap:round; stroke-linejoin:round; stroke-width:2; stroke-opacity:0.1; fill:none" points="738.476,1486.45 738.476,47.2441 "/>
<polyline clip-path="url(#clip702)" style="stroke:#000000; stroke-linecap:round; stroke-linejoin:round; stroke-width:2; stroke-opacity:0.1; fill:none" points="1249.32,1486.45 1249.32,47.2441 "/>
<polyline clip-path="url(#clip702)" style="stroke:#000000; stroke-linecap:round; stroke-linejoin:round; stroke-width:2; stroke-opacity:0.1; fill:none" points="1760.17,1486.45 1760.17,47.2441 "/>
<polyline clip-path="url(#clip702)" style="stroke:#000000; stroke-linecap:round; stroke-linejoin:round; stroke-width:2; stroke-opacity:0.1; fill:none" points="2271.02,1486.45 2271.02,47.2441 "/>
<polyline clip-path="url(#clip702)" style="stroke:#000000; stroke-linecap:round; stroke-linejoin:round; stroke-width:2; stroke-opacity:0.1; fill:none" points="186.76,1442.5 2352.76,1442.5 "/>
<polyline clip-path="url(#clip702)" style="stroke:#000000; stroke-linecap:round; stroke-linejoin:round; stroke-width:2; stroke-opacity:0.1; fill:none" points="186.76,1142.23 2352.76,1142.23 "/>
<polyline clip-path="url(#clip702)" style="stroke:#000000; stroke-linecap:round; stroke-linejoin:round; stroke-width:2; stroke-opacity:0.1; fill:none" points="186.76,841.958 2352.76,841.958 "/>
<polyline clip-path="url(#clip702)" style="stroke:#000000; stroke-linecap:round; stroke-linejoin:round; stroke-width:2; stroke-opacity:0.1; fill:none" points="186.76,541.687 2352.76,541.687 "/>
<polyline clip-path="url(#clip702)" style="stroke:#000000; stroke-linecap:round; stroke-linejoin:round; stroke-width:2; stroke-opacity:0.1; fill:none" points="186.76,241.416 2352.76,241.416 "/>
<polyline clip-path="url(#clip700)" style="stroke:#000000; stroke-linecap:round; stroke-linejoin:round; stroke-width:4; stroke-opacity:1; fill:none" points="186.76,1486.45 2352.76,1486.45 "/>
<polyline clip-path="url(#clip700)" style="stroke:#000000; stroke-linecap:round; stroke-linejoin:round; stroke-width:4; stroke-opacity:1; fill:none" points="227.628,1486.45 227.628,1467.55 "/>
<polyline clip-path="url(#clip700)" style="stroke:#000000; stroke-linecap:round; stroke-linejoin:round; stroke-width:4; stroke-opacity:1; fill:none" points="738.476,1486.45 738.476,1467.55 "/>
<polyline clip-path="url(#clip700)" style="stroke:#000000; stroke-linecap:round; stroke-linejoin:round; stroke-width:4; stroke-opacity:1; fill:none" points="1249.32,1486.45 1249.32,1467.55 "/>
<polyline clip-path="url(#clip700)" style="stroke:#000000; stroke-linecap:round; stroke-linejoin:round; stroke-width:4; stroke-opacity:1; fill:none" points="1760.17,1486.45 1760.17,1467.55 "/>
<polyline clip-path="url(#clip700)" style="stroke:#000000; stroke-linecap:round; stroke-linejoin:round; stroke-width:4; stroke-opacity:1; fill:none" points="2271.02,1486.45 2271.02,1467.55 "/>
<path clip-path="url(#clip700)" d="M227.628 1517.37 Q224.017 1517.37 222.188 1520.93 Q220.383 1524.47 220.383 1531.6 Q220.383 1538.71 222.188 1542.27 Q224.017 1545.82 227.628 1545.82 Q231.262 1545.82 233.068 1542.27 Q234.896 1538.71 234.896 1531.6 Q234.896 1524.47 233.068 1520.93 Q231.262 1517.37 227.628 1517.37 M227.628 1513.66 Q233.438 1513.66 236.494 1518.27 Q239.572 1522.85 239.572 1531.6 Q239.572 1540.33 236.494 1544.94 Q233.438 1549.52 227.628 1549.52 Q221.818 1549.52 218.739 1544.94 Q215.684 1540.33 215.684 1531.6 Q215.684 1522.85 218.739 1518.27 Q221.818 1513.66 227.628 1513.66 Z" fill="#000000" fill-rule="nonzero" fill-opacity="1" /><path clip-path="url(#clip700)" d="M717.747 1544.91 L734.066 1544.91 L734.066 1548.85 L712.122 1548.85 L712.122 1544.91 Q714.784 1542.16 719.367 1537.53 Q723.974 1532.88 725.154 1531.53 Q727.4 1529.01 728.279 1527.27 Q729.182 1525.51 729.182 1523.82 Q729.182 1521.07 727.238 1519.33 Q725.316 1517.6 722.215 1517.6 Q720.015 1517.6 717.562 1518.36 Q715.131 1519.13 712.353 1520.68 L712.353 1515.95 Q715.178 1514.82 717.631 1514.24 Q720.085 1513.66 722.122 1513.66 Q727.492 1513.66 730.687 1516.35 Q733.881 1519.03 733.881 1523.52 Q733.881 1525.65 733.071 1527.57 Q732.284 1529.47 730.177 1532.07 Q729.599 1532.74 726.497 1535.95 Q723.395 1539.15 717.747 1544.91 Z" fill="#000000" fill-rule="nonzero" fill-opacity="1" /><path clip-path="url(#clip700)" d="M743.927 1514.29 L762.284 1514.29 L762.284 1518.22 L748.21 1518.22 L748.21 1526.7 Q749.228 1526.35 750.247 1526.19 Q751.265 1526 752.284 1526 Q758.071 1526 761.45 1529.17 Q764.83 1532.34 764.83 1537.76 Q764.83 1543.34 761.358 1546.44 Q757.886 1549.52 751.566 1549.52 Q749.39 1549.52 747.122 1549.15 Q744.876 1548.78 742.469 1548.04 L742.469 1543.34 Q744.552 1544.47 746.775 1545.03 Q748.997 1545.58 751.474 1545.58 Q755.478 1545.58 757.816 1543.48 Q760.154 1541.37 760.154 1537.76 Q760.154 1534.15 757.816 1532.04 Q755.478 1529.94 751.474 1529.94 Q749.599 1529.94 747.724 1530.35 Q745.872 1530.77 743.927 1531.65 L743.927 1514.29 Z" fill="#000000" fill-rule="nonzero" fill-opacity="1" /><path clip-path="url(#clip700)" d="M1224.02 1514.29 L1242.38 1514.29 L1242.38 1518.22 L1228.31 1518.22 L1228.31 1526.7 Q1229.32 1526.35 1230.34 1526.19 Q1231.36 1526 1232.38 1526 Q1238.17 1526 1241.55 1529.17 Q1244.93 1532.34 1244.93 1537.76 Q1244.93 1543.34 1241.45 1546.44 Q1237.98 1549.52 1231.66 1549.52 Q1229.49 1549.52 1227.22 1549.15 Q1224.97 1548.78 1222.56 1548.04 L1222.56 1543.34 Q1224.65 1544.47 1226.87 1545.03 Q1229.09 1545.58 1231.57 1545.58 Q1235.57 1545.58 1237.91 1543.48 Q1240.25 1541.37 1240.25 1537.76 Q1240.25 1534.15 1237.91 1532.04 Q1235.57 1529.94 1231.57 1529.94 Q1229.69 1529.94 1227.82 1530.35 Q1225.97 1530.77 1224.02 1531.65 L1224.02 1514.29 Z" fill="#000000" fill-rule="nonzero" fill-opacity="1" /><path clip-path="url(#clip700)" d="M1264.14 1517.37 Q1260.53 1517.37 1258.7 1520.93 Q1256.89 1524.47 1256.89 1531.6 Q1256.89 1538.71 1258.7 1542.27 Q1260.53 1545.82 1264.14 1545.82 Q1267.77 1545.82 1269.58 1542.27 Q1271.41 1538.71 1271.41 1531.6 Q1271.41 1524.47 1269.58 1520.93 Q1267.77 1517.37 1264.14 1517.37 M1264.14 1513.66 Q1269.95 1513.66 1273 1518.27 Q1276.08 1522.85 1276.08 1531.6 Q1276.08 1540.33 1273 1544.94 Q1269.95 1549.52 1264.14 1549.52 Q1258.33 1549.52 1255.25 1544.94 Q1252.19 1540.33 1252.19 1531.6 Q1252.19 1522.85 1255.25 1518.27 Q1258.33 1513.66 1264.14 1513.66 Z" fill="#000000" fill-rule="nonzero" fill-opacity="1" /><path clip-path="url(#clip700)" d="M1734.03 1514.29 L1756.25 1514.29 L1756.25 1516.28 L1743.7 1548.85 L1738.82 1548.85 L1750.62 1518.22 L1734.03 1518.22 L1734.03 1514.29 Z" fill="#000000" fill-rule="nonzero" fill-opacity="1" /><path clip-path="url(#clip700)" d="M1765.42 1514.29 L1783.77 1514.29 L1783.77 1518.22 L1769.7 1518.22 L1769.7 1526.7 Q1770.72 1526.35 1771.73 1526.19 Q1772.75 1526 1773.77 1526 Q1779.56 1526 1782.94 1529.17 Q1786.32 1532.34 1786.32 1537.76 Q1786.32 1543.34 1782.85 1546.44 Q1779.37 1549.52 1773.05 1549.52 Q1770.88 1549.52 1768.61 1549.15 Q1766.36 1548.78 1763.96 1548.04 L1763.96 1543.34 Q1766.04 1544.47 1768.26 1545.03 Q1770.48 1545.58 1772.96 1545.58 Q1776.97 1545.58 1779.3 1543.48 Q1781.64 1541.37 1781.64 1537.76 Q1781.64 1534.15 1779.3 1532.04 Q1776.97 1529.94 1772.96 1529.94 Q1771.09 1529.94 1769.21 1530.35 Q1767.36 1530.77 1765.42 1531.65 L1765.42 1514.29 Z" fill="#000000" fill-rule="nonzero" fill-opacity="1" /><path clip-path="url(#clip700)" d="M2230.63 1544.91 L2238.27 1544.91 L2238.27 1518.55 L2229.96 1520.21 L2229.96 1515.95 L2238.22 1514.29 L2242.9 1514.29 L2242.9 1544.91 L2250.53 1544.91 L2250.53 1548.85 L2230.63 1548.85 L2230.63 1544.91 Z" fill="#000000" fill-rule="nonzero" fill-opacity="1" /><path clip-path="url(#clip700)" d="M2269.98 1517.37 Q2266.37 1517.37 2264.54 1520.93 Q2262.73 1524.47 2262.73 1531.6 Q2262.73 1538.71 2264.54 1542.27 Q2266.37 1545.82 2269.98 1545.82 Q2273.61 1545.82 2275.42 1542.27 Q2277.25 1538.71 2277.25 1531.6 Q2277.25 1524.47 2275.42 1520.93 Q2273.61 1517.37 2269.98 1517.37 M2269.98 1513.66 Q2275.79 1513.66 2278.84 1518.27 Q2281.92 1522.85 2281.92 1531.6 Q2281.92 1540.33 2278.84 1544.94 Q2275.79 1549.52 2269.98 1549.52 Q2264.17 1549.52 2261.09 1544.94 Q2258.03 1540.33 2258.03 1531.6 Q2258.03 1522.85 2261.09 1518.27 Q2264.17 1513.66 2269.98 1513.66 Z" fill="#000000" fill-rule="nonzero" fill-opacity="1" /><path clip-path="url(#clip700)" d="M2300.14 1517.37 Q2296.53 1517.37 2294.7 1520.93 Q2292.9 1524.47 2292.9 1531.6 Q2292.9 1538.71 2294.7 1542.27 Q2296.53 1545.82 2300.14 1545.82 Q2303.77 1545.82 2305.58 1542.27 Q2307.41 1538.71 2307.41 1531.6 Q2307.41 1524.47 2305.58 1520.93 Q2303.77 1517.37 2300.14 1517.37 M2300.14 1513.66 Q2305.95 1513.66 2309.01 1518.27 Q2312.08 1522.85 2312.08 1531.6 Q2312.08 1540.33 2309.01 1544.94 Q2305.95 1549.52 2300.14 1549.52 Q2294.33 1549.52 2291.25 1544.94 Q2288.2 1540.33 2288.2 1531.6 Q2288.2 1522.85 2291.25 1518.27 Q2294.33 1513.66 2300.14 1513.66 Z" fill="#000000" fill-rule="nonzero" fill-opacity="1" /><polyline clip-path="url(#clip700)" style="stroke:#000000; stroke-linecap:round; stroke-linejoin:round; stroke-width:4; stroke-opacity:1; fill:none" points="186.76,1486.45 186.76,47.2441 "/>
<polyline clip-path="url(#clip700)" style="stroke:#000000; stroke-linecap:round; stroke-linejoin:round; stroke-width:4; stroke-opacity:1; fill:none" points="186.76,1442.5 205.658,1442.5 "/>
<polyline clip-path="url(#clip700)" style="stroke:#000000; stroke-linecap:round; stroke-linejoin:round; stroke-width:4; stroke-opacity:1; fill:none" points="186.76,1142.23 205.658,1142.23 "/>
<polyline clip-path="url(#clip700)" style="stroke:#000000; stroke-linecap:round; stroke-linejoin:round; stroke-width:4; stroke-opacity:1; fill:none" points="186.76,841.958 205.658,841.958 "/>
<polyline clip-path="url(#clip700)" style="stroke:#000000; stroke-linecap:round; stroke-linejoin:round; stroke-width:4; stroke-opacity:1; fill:none" points="186.76,541.687 205.658,541.687 "/>
<polyline clip-path="url(#clip700)" style="stroke:#000000; stroke-linecap:round; stroke-linejoin:round; stroke-width:4; stroke-opacity:1; fill:none" points="186.76,241.416 205.658,241.416 "/>
<path clip-path="url(#clip700)" d="M63.4226 1428.3 Q59.8115 1428.3 57.9828 1431.86 Q56.1773 1435.41 56.1773 1442.54 Q56.1773 1449.64 57.9828 1453.21 Q59.8115 1456.75 63.4226 1456.75 Q67.0569 1456.75 68.8624 1453.21 Q70.6911 1449.64 70.6911 1442.54 Q70.6911 1435.41 68.8624 1431.86 Q67.0569 1428.3 63.4226 1428.3 M63.4226 1424.6 Q69.2328 1424.6 72.2883 1429.2 Q75.367 1433.79 75.367 1442.54 Q75.367 1451.26 72.2883 1455.87 Q69.2328 1460.45 63.4226 1460.45 Q57.6125 1460.45 54.5338 1455.87 Q51.4782 1451.26 51.4782 1442.54 Q51.4782 1433.79 54.5338 1429.2 Q57.6125 1424.6 63.4226 1424.6 Z" fill="#000000" fill-rule="nonzero" fill-opacity="1" /><path clip-path="url(#clip700)" d="M83.5845 1453.9 L88.4688 1453.9 L88.4688 1459.78 L83.5845 1459.78 L83.5845 1453.9 Z" fill="#000000" fill-rule="nonzero" fill-opacity="1" /><path clip-path="url(#clip700)" d="M108.654 1443.37 Q105.321 1443.37 103.399 1445.15 Q101.501 1446.93 101.501 1450.06 Q101.501 1453.18 103.399 1454.97 Q105.321 1456.75 108.654 1456.75 Q111.987 1456.75 113.908 1454.97 Q115.83 1453.16 115.83 1450.06 Q115.83 1446.93 113.908 1445.15 Q112.01 1443.37 108.654 1443.37 M103.978 1441.38 Q100.969 1440.64 99.2789 1438.58 Q97.6122 1436.52 97.6122 1433.55 Q97.6122 1429.41 100.552 1427 Q103.515 1424.6 108.654 1424.6 Q113.816 1424.6 116.756 1427 Q119.695 1429.41 119.695 1433.55 Q119.695 1436.52 118.006 1438.58 Q116.339 1440.64 113.353 1441.38 Q116.733 1442.17 118.608 1444.46 Q120.506 1446.75 120.506 1450.06 Q120.506 1455.08 117.427 1457.77 Q114.371 1460.45 108.654 1460.45 Q102.936 1460.45 99.8576 1457.77 Q96.8021 1455.08 96.8021 1450.06 Q96.8021 1446.75 98.7002 1444.46 Q100.598 1442.17 103.978 1441.38 M102.265 1433.99 Q102.265 1436.68 103.932 1438.18 Q105.621 1439.69 108.654 1439.69 Q111.663 1439.69 113.353 1438.18 Q115.066 1436.68 115.066 1433.99 Q115.066 1431.31 113.353 1429.8 Q111.663 1428.3 108.654 1428.3 Q105.621 1428.3 103.932 1429.8 Q102.265 1431.31 102.265 1433.99 Z" fill="#000000" fill-rule="nonzero" fill-opacity="1" /><path clip-path="url(#clip700)" d="M138.816 1428.3 Q135.205 1428.3 133.376 1431.86 Q131.57 1435.41 131.57 1442.54 Q131.57 1449.64 133.376 1453.21 Q135.205 1456.75 138.816 1456.75 Q142.45 1456.75 144.256 1453.21 Q146.084 1449.64 146.084 1442.54 Q146.084 1435.41 144.256 1431.86 Q142.45 1428.3 138.816 1428.3 M138.816 1424.6 Q144.626 1424.6 147.681 1429.2 Q150.76 1433.79 150.76 1442.54 Q150.76 1451.26 147.681 1455.87 Q144.626 1460.45 138.816 1460.45 Q133.006 1460.45 129.927 1455.87 Q126.871 1451.26 126.871 1442.54 Q126.871 1433.79 129.927 1429.2 Q133.006 1424.6 138.816 1424.6 Z" fill="#000000" fill-rule="nonzero" fill-opacity="1" /><path clip-path="url(#clip700)" d="M65.0198 1128.03 Q61.4087 1128.03 59.58 1131.59 Q57.7745 1135.13 57.7745 1142.26 Q57.7745 1149.37 59.58 1152.94 Q61.4087 1156.48 65.0198 1156.48 Q68.6541 1156.48 70.4596 1152.94 Q72.2883 1149.37 72.2883 1142.26 Q72.2883 1135.13 70.4596 1131.59 Q68.6541 1128.03 65.0198 1128.03 M65.0198 1124.32 Q70.83 1124.32 73.8855 1128.93 Q76.9642 1133.51 76.9642 1142.26 Q76.9642 1150.99 73.8855 1155.6 Q70.83 1160.18 65.0198 1160.18 Q59.2097 1160.18 56.131 1155.6 Q53.0754 1150.99 53.0754 1142.26 Q53.0754 1133.51 56.131 1128.93 Q59.2097 1124.32 65.0198 1124.32 Z" fill="#000000" fill-rule="nonzero" fill-opacity="1" /><path clip-path="url(#clip700)" d="M85.1818 1153.63 L90.066 1153.63 L90.066 1159.51 L85.1818 1159.51 L85.1818 1153.63 Z" fill="#000000" fill-rule="nonzero" fill-opacity="1" /><path clip-path="url(#clip700)" d="M110.251 1143.1 Q106.918 1143.1 104.996 1144.88 Q103.098 1146.66 103.098 1149.79 Q103.098 1152.91 104.996 1154.69 Q106.918 1156.48 110.251 1156.48 Q113.584 1156.48 115.506 1154.69 Q117.427 1152.89 117.427 1149.79 Q117.427 1146.66 115.506 1144.88 Q113.608 1143.1 110.251 1143.1 M105.575 1141.11 Q102.566 1140.37 100.876 1138.31 Q99.2095 1136.25 99.2095 1133.28 Q99.2095 1129.14 102.149 1126.73 Q105.112 1124.32 110.251 1124.32 Q115.413 1124.32 118.353 1126.73 Q121.293 1129.14 121.293 1133.28 Q121.293 1136.25 119.603 1138.31 Q117.936 1140.37 114.95 1141.11 Q118.33 1141.89 120.205 1144.19 Q122.103 1146.48 122.103 1149.79 Q122.103 1154.81 119.024 1157.5 Q115.969 1160.18 110.251 1160.18 Q104.534 1160.18 101.455 1157.5 Q98.3993 1154.81 98.3993 1149.79 Q98.3993 1146.48 100.297 1144.19 Q102.196 1141.89 105.575 1141.11 M103.862 1133.72 Q103.862 1136.41 105.529 1137.91 Q107.219 1139.42 110.251 1139.42 Q113.26 1139.42 114.95 1137.91 Q116.663 1136.41 116.663 1133.72 Q116.663 1131.04 114.95 1129.53 Q113.26 1128.03 110.251 1128.03 Q107.219 1128.03 105.529 1129.53 Q103.862 1131.04 103.862 1133.72 Z" fill="#000000" fill-rule="nonzero" fill-opacity="1" /><path clip-path="url(#clip700)" d="M134.441 1155.57 L150.76 1155.57 L150.76 1159.51 L128.816 1159.51 L128.816 1155.57 Q131.478 1152.82 136.061 1148.19 Q140.668 1143.54 141.848 1142.19 Q144.093 1139.67 144.973 1137.94 Q145.876 1136.18 145.876 1134.49 Q145.876 1131.73 143.931 1130 Q142.01 1128.26 138.908 1128.26 Q136.709 1128.26 134.256 1129.02 Q131.825 1129.79 129.047 1131.34 L129.047 1126.62 Q131.871 1125.48 134.325 1124.9 Q136.779 1124.32 138.816 1124.32 Q144.186 1124.32 147.38 1127.01 Q150.575 1129.7 150.575 1134.19 Q150.575 1136.32 149.765 1138.24 Q148.978 1140.13 146.871 1142.73 Q146.293 1143.4 143.191 1146.62 Q140.089 1149.81 134.441 1155.57 Z" fill="#000000" fill-rule="nonzero" fill-opacity="1" /><path clip-path="url(#clip700)" d="M62.9365 827.757 Q59.3254 827.757 57.4967 831.322 Q55.6912 834.864 55.6912 841.993 Q55.6912 849.1 57.4967 852.664 Q59.3254 856.206 62.9365 856.206 Q66.5707 856.206 68.3763 852.664 Q70.205 849.1 70.205 841.993 Q70.205 834.864 68.3763 831.322 Q66.5707 827.757 62.9365 827.757 M62.9365 824.053 Q68.7467 824.053 71.8022 828.66 Q74.8809 833.243 74.8809 841.993 Q74.8809 850.72 71.8022 855.326 Q68.7467 859.91 62.9365 859.91 Q57.1264 859.91 54.0477 855.326 Q50.9921 850.72 50.9921 841.993 Q50.9921 833.243 54.0477 828.66 Q57.1264 824.053 62.9365 824.053 Z" fill="#000000" fill-rule="nonzero" fill-opacity="1" /><path clip-path="url(#clip700)" d="M83.0984 853.359 L87.9827 853.359 L87.9827 859.238 L83.0984 859.238 L83.0984 853.359 Z" fill="#000000" fill-rule="nonzero" fill-opacity="1" /><path clip-path="url(#clip700)" d="M108.168 842.827 Q104.834 842.827 102.913 844.609 Q101.015 846.391 101.015 849.516 Q101.015 852.641 102.913 854.424 Q104.834 856.206 108.168 856.206 Q111.501 856.206 113.422 854.424 Q115.344 852.618 115.344 849.516 Q115.344 846.391 113.422 844.609 Q111.524 842.827 108.168 842.827 M103.492 840.836 Q100.483 840.095 98.7928 838.035 Q97.1261 835.975 97.1261 833.012 Q97.1261 828.868 100.066 826.461 Q103.029 824.053 108.168 824.053 Q113.33 824.053 116.27 826.461 Q119.209 828.868 119.209 833.012 Q119.209 835.975 117.52 838.035 Q115.853 840.095 112.867 840.836 Q116.246 841.623 118.121 843.914 Q120.02 846.206 120.02 849.516 Q120.02 854.539 116.941 857.225 Q113.885 859.91 108.168 859.91 Q102.45 859.91 99.3715 857.225 Q96.316 854.539 96.316 849.516 Q96.316 846.206 98.2141 843.914 Q100.112 841.623 103.492 840.836 M101.779 833.452 Q101.779 836.137 103.446 837.641 Q105.135 839.146 108.168 839.146 Q111.177 839.146 112.867 837.641 Q114.58 836.137 114.58 833.452 Q114.58 830.766 112.867 829.262 Q111.177 827.757 108.168 827.757 Q105.135 827.757 103.446 829.262 Q101.779 830.766 101.779 833.452 Z" fill="#000000" fill-rule="nonzero" fill-opacity="1" /><path clip-path="url(#clip700)" d="M141.177 828.753 L129.371 847.201 L141.177 847.201 L141.177 828.753 M139.95 824.678 L145.83 824.678 L145.83 847.201 L150.76 847.201 L150.76 851.09 L145.83 851.09 L145.83 859.238 L141.177 859.238 L141.177 851.09 L125.575 851.09 L125.575 846.576 L139.95 824.678 Z" fill="#000000" fill-rule="nonzero" fill-opacity="1" /><path clip-path="url(#clip700)" d="M63.2606 527.486 Q59.6495 527.486 57.8208 531.051 Q56.0152 534.592 56.0152 541.722 Q56.0152 548.828 57.8208 552.393 Q59.6495 555.935 63.2606 555.935 Q66.8948 555.935 68.7004 552.393 Q70.5291 548.828 70.5291 541.722 Q70.5291 534.592 68.7004 531.051 Q66.8948 527.486 63.2606 527.486 M63.2606 523.782 Q69.0707 523.782 72.1263 528.389 Q75.205 532.972 75.205 541.722 Q75.205 550.449 72.1263 555.055 Q69.0707 559.639 63.2606 559.639 Q57.4504 559.639 54.3717 555.055 Q51.3162 550.449 51.3162 541.722 Q51.3162 532.972 54.3717 528.389 Q57.4504 523.782 63.2606 523.782 Z" fill="#000000" fill-rule="nonzero" fill-opacity="1" /><path clip-path="url(#clip700)" d="M83.4225 553.088 L88.3067 553.088 L88.3067 558.967 L83.4225 558.967 L83.4225 553.088 Z" fill="#000000" fill-rule="nonzero" fill-opacity="1" /><path clip-path="url(#clip700)" d="M108.492 542.555 Q105.159 542.555 103.237 544.338 Q101.339 546.12 101.339 549.245 Q101.339 552.37 103.237 554.152 Q105.159 555.935 108.492 555.935 Q111.825 555.935 113.746 554.152 Q115.668 552.347 115.668 549.245 Q115.668 546.12 113.746 544.338 Q111.848 542.555 108.492 542.555 M103.816 540.565 Q100.807 539.824 99.1169 537.764 Q97.4502 535.703 97.4502 532.741 Q97.4502 528.597 100.39 526.19 Q103.353 523.782 108.492 523.782 Q113.654 523.782 116.594 526.19 Q119.533 528.597 119.533 532.741 Q119.533 535.703 117.844 537.764 Q116.177 539.824 113.191 540.565 Q116.57 541.352 118.445 543.643 Q120.344 545.935 120.344 549.245 Q120.344 554.268 117.265 556.953 Q114.209 559.639 108.492 559.639 Q102.774 559.639 99.6956 556.953 Q96.64 554.268 96.64 549.245 Q96.64 545.935 98.5382 543.643 Q100.436 541.352 103.816 540.565 M102.103 533.18 Q102.103 535.866 103.77 537.37 Q105.459 538.875 108.492 538.875 Q111.501 538.875 113.191 537.37 Q114.904 535.866 114.904 533.18 Q114.904 530.495 113.191 528.991 Q111.501 527.486 108.492 527.486 Q105.459 527.486 103.77 528.991 Q102.103 530.495 102.103 533.18 Z" fill="#000000" fill-rule="nonzero" fill-opacity="1" /><path clip-path="url(#clip700)" d="M139.232 539.824 Q136.084 539.824 134.232 541.977 Q132.404 544.129 132.404 547.879 Q132.404 551.606 134.232 553.782 Q136.084 555.935 139.232 555.935 Q142.381 555.935 144.209 553.782 Q146.061 551.606 146.061 547.879 Q146.061 544.129 144.209 541.977 Q142.381 539.824 139.232 539.824 M148.515 525.171 L148.515 529.43 Q146.756 528.597 144.95 528.157 Q143.168 527.717 141.408 527.717 Q136.779 527.717 134.325 530.842 Q131.894 533.967 131.547 540.287 Q132.913 538.273 134.973 537.208 Q137.033 536.12 139.51 536.12 Q144.718 536.12 147.728 539.291 Q150.76 542.44 150.76 547.879 Q150.76 553.203 147.612 556.421 Q144.464 559.639 139.232 559.639 Q133.237 559.639 130.066 555.055 Q126.894 550.449 126.894 541.722 Q126.894 533.528 130.783 528.666 Q134.672 523.782 141.223 523.782 Q142.982 523.782 144.765 524.129 Q146.57 524.477 148.515 525.171 Z" fill="#000000" fill-rule="nonzero" fill-opacity="1" /><path clip-path="url(#clip700)" d="M63.5152 227.215 Q59.9041 227.215 58.0754 230.78 Q56.2699 234.321 56.2699 241.451 Q56.2699 248.557 58.0754 252.122 Q59.9041 255.664 63.5152 255.664 Q67.1494 255.664 68.955 252.122 Q70.7837 248.557 70.7837 241.451 Q70.7837 234.321 68.955 230.78 Q67.1494 227.215 63.5152 227.215 M63.5152 223.511 Q69.3254 223.511 72.3809 228.117 Q75.4596 232.701 75.4596 241.451 Q75.4596 250.178 72.3809 254.784 Q69.3254 259.367 63.5152 259.367 Q57.7051 259.367 54.6264 254.784 Q51.5708 250.178 51.5708 241.451 Q51.5708 232.701 54.6264 228.117 Q57.7051 223.511 63.5152 223.511 Z" fill="#000000" fill-rule="nonzero" fill-opacity="1" /><path clip-path="url(#clip700)" d="M83.6771 252.816 L88.5614 252.816 L88.5614 258.696 L83.6771 258.696 L83.6771 252.816 Z" fill="#000000" fill-rule="nonzero" fill-opacity="1" /><path clip-path="url(#clip700)" d="M108.746 242.284 Q105.413 242.284 103.492 244.066 Q101.594 245.849 101.594 248.974 Q101.594 252.099 103.492 253.881 Q105.413 255.664 108.746 255.664 Q112.08 255.664 114.001 253.881 Q115.922 252.076 115.922 248.974 Q115.922 245.849 114.001 244.066 Q112.103 242.284 108.746 242.284 M104.071 240.293 Q101.061 239.553 99.3715 237.492 Q97.7048 235.432 97.7048 232.469 Q97.7048 228.326 100.645 225.918 Q103.608 223.511 108.746 223.511 Q113.908 223.511 116.848 225.918 Q119.788 228.326 119.788 232.469 Q119.788 235.432 118.098 237.492 Q116.432 239.553 113.445 240.293 Q116.825 241.08 118.7 243.372 Q120.598 245.664 120.598 248.974 Q120.598 253.997 117.52 256.682 Q114.464 259.367 108.746 259.367 Q103.029 259.367 99.9502 256.682 Q96.8947 253.997 96.8947 248.974 Q96.8947 245.664 98.7928 243.372 Q100.691 241.08 104.071 240.293 M102.358 232.909 Q102.358 235.594 104.024 237.099 Q105.714 238.604 108.746 238.604 Q111.756 238.604 113.445 237.099 Q115.158 235.594 115.158 232.909 Q115.158 230.224 113.445 228.719 Q111.756 227.215 108.746 227.215 Q105.714 227.215 104.024 228.719 Q102.358 230.224 102.358 232.909 Z" fill="#000000" fill-rule="nonzero" fill-opacity="1" /><path clip-path="url(#clip700)" d="M138.908 242.284 Q135.575 242.284 133.654 244.066 Q131.756 245.849 131.756 248.974 Q131.756 252.099 133.654 253.881 Q135.575 255.664 138.908 255.664 Q142.242 255.664 144.163 253.881 Q146.084 252.076 146.084 248.974 Q146.084 245.849 144.163 244.066 Q142.265 242.284 138.908 242.284 M134.232 240.293 Q131.223 239.553 129.533 237.492 Q127.867 235.432 127.867 232.469 Q127.867 228.326 130.807 225.918 Q133.769 223.511 138.908 223.511 Q144.07 223.511 147.01 225.918 Q149.95 228.326 149.95 232.469 Q149.95 235.432 148.26 237.492 Q146.593 239.553 143.607 240.293 Q146.987 241.08 148.862 243.372 Q150.76 245.664 150.76 248.974 Q150.76 253.997 147.681 256.682 Q144.626 259.367 138.908 259.367 Q133.191 259.367 130.112 256.682 Q127.057 253.997 127.057 248.974 Q127.057 245.664 128.955 243.372 Q130.853 241.08 134.232 240.293 M132.519 232.909 Q132.519 235.594 134.186 237.099 Q135.876 238.604 138.908 238.604 Q141.918 238.604 143.607 237.099 Q145.32 235.594 145.32 232.909 Q145.32 230.224 143.607 228.719 Q141.918 227.215 138.908 227.215 Q135.876 227.215 134.186 228.719 Q132.519 230.224 132.519 232.909 Z" fill="#000000" fill-rule="nonzero" fill-opacity="1" /><polyline clip-path="url(#clip702)" style="stroke:#009af9; stroke-linecap:round; stroke-linejoin:round; stroke-width:4; stroke-opacity:1; fill:none" points="248.062,87.9763 268.496,105.818 288.93,123.541 309.364,141.147 329.798,158.636 350.231,176.011 370.665,193.272 391.099,210.421 411.533,227.459 431.967,244.388 452.401,261.209 472.835,277.922 493.269,294.53 513.703,311.033 534.137,327.433 554.571,343.73 575.005,359.926 595.439,376.023 615.872,392.02 636.306,407.919 656.74,423.722 677.174,439.429 697.608,455.041 718.042,470.559 738.476,485.985 758.91,501.319 779.344,516.563 799.778,531.716 820.212,546.781 840.646,561.758 861.08,576.648 881.513,591.452 901.947,606.171 922.381,620.805 942.815,635.356 963.249,649.824 983.683,664.211 1004.12,678.517 1024.55,692.742 1044.98,706.888 1065.42,720.956 1085.85,734.946 1106.29,748.859 1126.72,762.696 1147.15,776.457 1167.59,790.144 1188.02,803.756 1208.46,817.296 1228.89,830.762 1249.32,844.157 1269.76,857.481 1290.19,870.734 1310.63,883.917 1331.06,897.031 1351.49,910.076 1371.93,923.054 1392.36,935.964 1412.8,948.808 1433.23,961.586 1453.66,974.298 1474.1,986.945 1494.53,999.528 1514.97,1012.05 1535.4,1024.5 1555.83,1036.9 1576.27,1049.23 1596.7,1061.5 1617.13,1073.71 1637.57,1085.86 1658,1097.95 1678.44,1109.98 1698.87,1121.95 1719.3,1133.87 1739.74,1145.72 1760.17,1157.52 1780.61,1169.26 1801.04,1180.95 1821.47,1192.58 1841.91,1204.15 1862.34,1215.67 1882.78,1227.14 1903.21,1238.55 1923.64,1249.91 1944.08,1261.21 1964.51,1272.47 1984.95,1283.67 2005.38,1294.82 2025.81,1305.92 2046.25,1316.96 2066.68,1327.96 2087.11,1338.91 2107.55,1349.8 2127.98,1360.65 2148.42,1371.45 2168.85,1382.2 2189.28,1392.91 2209.72,1403.56 2230.15,1414.17 2250.59,1424.73 2271.02,1435.25 2291.45,1445.72 "/>
<path clip-path="url(#clip700)" d="M1900.79 198.898 L2280.56 198.898 L2280.56 95.2176 L1900.79 95.2176  Z" fill="#ffffff" fill-rule="evenodd" fill-opacity="1"/>
<polyline clip-path="url(#clip700)" style="stroke:#000000; stroke-linecap:round; stroke-linejoin:round; stroke-width:4; stroke-opacity:1; fill:none" points="1900.79,198.898 2280.56,198.898 2280.56,95.2176 1900.79,95.2176 1900.79,198.898 "/>
<polyline clip-path="url(#clip700)" style="stroke:#009af9; stroke-linecap:round; stroke-linejoin:round; stroke-width:4; stroke-opacity:1; fill:none" points="1924.85,147.058 2069.25,147.058 "/>
<path clip-path="url(#clip700)" d="M2093.32 129.778 L2113.18 129.778 L2113.18 133.713 L2097.99 133.713 L2097.99 143.898 L2111.7 143.898 L2111.7 147.833 L2097.99 147.833 L2097.99 164.338 L2093.32 164.338 L2093.32 129.778 Z" fill="#000000" fill-rule="nonzero" fill-opacity="1" /><path clip-path="url(#clip700)" d="M2116.95 138.412 L2121.21 138.412 L2121.21 164.338 L2116.95 164.338 L2116.95 138.412 M2116.95 128.319 L2121.21 128.319 L2121.21 133.713 L2116.95 133.713 L2116.95 128.319 Z" fill="#000000" fill-rule="nonzero" fill-opacity="1" /><path clip-path="url(#clip700)" d="M2147.18 142.347 L2147.18 128.319 L2151.44 128.319 L2151.44 164.338 L2147.18 164.338 L2147.18 160.449 Q2145.84 162.763 2143.78 163.898 Q2141.74 165.009 2138.87 165.009 Q2134.18 165.009 2131.21 161.259 Q2128.27 157.509 2128.27 151.398 Q2128.27 145.287 2131.21 141.537 Q2134.18 137.787 2138.87 137.787 Q2141.74 137.787 2143.78 138.921 Q2145.84 140.032 2147.18 142.347 M2132.67 151.398 Q2132.67 156.097 2134.59 158.782 Q2136.54 161.444 2139.92 161.444 Q2143.3 161.444 2145.24 158.782 Q2147.18 156.097 2147.18 151.398 Q2147.18 146.699 2145.24 144.037 Q2143.3 141.352 2139.92 141.352 Q2136.54 141.352 2134.59 144.037 Q2132.67 146.699 2132.67 151.398 Z" fill="#000000" fill-rule="nonzero" fill-opacity="1" /><path clip-path="url(#clip700)" d="M2182.39 150.31 L2182.39 152.393 L2162.81 152.393 Q2163.09 156.791 2165.45 159.106 Q2167.83 161.398 2172.07 161.398 Q2174.52 161.398 2176.81 160.796 Q2179.13 160.194 2181.4 158.99 L2181.4 163.018 Q2179.11 163.99 2176.7 164.5 Q2174.29 165.009 2171.81 165.009 Q2165.61 165.009 2161.98 161.398 Q2158.36 157.787 2158.36 151.629 Q2158.36 145.264 2161.79 141.537 Q2165.24 137.787 2171.07 137.787 Q2176.3 137.787 2179.34 141.166 Q2182.39 144.523 2182.39 150.31 M2178.13 149.06 Q2178.09 145.565 2176.17 143.481 Q2174.27 141.398 2171.12 141.398 Q2167.55 141.398 2165.4 143.412 Q2163.27 145.426 2162.95 149.083 L2178.13 149.06 Z" fill="#000000" fill-rule="nonzero" fill-opacity="1" /><path clip-path="url(#clip700)" d="M2189.38 128.319 L2193.64 128.319 L2193.64 164.338 L2189.38 164.338 L2189.38 128.319 Z" fill="#000000" fill-rule="nonzero" fill-opacity="1" /><path clip-path="url(#clip700)" d="M2202.55 138.412 L2206.81 138.412 L2206.81 164.338 L2202.55 164.338 L2202.55 138.412 M2202.55 128.319 L2206.81 128.319 L2206.81 133.713 L2202.55 133.713 L2202.55 128.319 Z" fill="#000000" fill-rule="nonzero" fill-opacity="1" /><path clip-path="url(#clip700)" d="M2219.94 131.051 L2219.94 138.412 L2228.71 138.412 L2228.71 141.722 L2219.94 141.722 L2219.94 155.796 Q2219.94 158.967 2220.8 159.87 Q2221.67 160.773 2224.34 160.773 L2228.71 160.773 L2228.71 164.338 L2224.34 164.338 Q2219.41 164.338 2217.53 162.509 Q2215.66 160.657 2215.66 155.796 L2215.66 141.722 L2212.53 141.722 L2212.53 138.412 L2215.66 138.412 L2215.66 131.051 L2219.94 131.051 Z" fill="#000000" fill-rule="nonzero" fill-opacity="1" /><path clip-path="url(#clip700)" d="M2245.1 166.745 Q2243.3 171.375 2241.58 172.787 Q2239.87 174.199 2237 174.199 L2233.6 174.199 L2233.6 170.634 L2236.1 170.634 Q2237.86 170.634 2238.83 169.8 Q2239.8 168.967 2240.98 165.865 L2241.74 163.921 L2231.26 138.412 L2235.77 138.412 L2243.87 158.689 L2251.98 138.412 L2256.49 138.412 L2245.1 166.745 Z" fill="#000000" fill-rule="nonzero" fill-opacity="1" /></svg>
